G04*
G04 #@! TF.GenerationSoftware,Altium Limited,Altium Designer,23.10.1 (27)*
G04*
G04 Layer_Color=16711935*
%FSLAX25Y25*%
%MOIN*%
G70*
G04*
G04 #@! TF.SameCoordinates,CFD1AF01-5425-4A94-9F85-96FFE65A43DD*
G04*
G04*
G04 #@! TF.FilePolarity,Positive*
G04*
G01*
G75*
%ADD11C,0.00787*%
%ADD12C,0.00394*%
%ADD22C,0.00039*%
G36*
X151596Y335376D02*
X151639D01*
X151687Y335372D01*
X151738Y335368D01*
X151854Y335358D01*
X151974Y335339D01*
X152091Y335317D01*
X152145Y335303D01*
X152200Y335285D01*
X152204D01*
X152211Y335281D01*
X152225Y335274D01*
X152244Y335267D01*
X152269Y335259D01*
X152295Y335245D01*
X152356Y335216D01*
X152422Y335179D01*
X152495Y335132D01*
X152560Y335077D01*
X152622Y335012D01*
Y335008D01*
X152629Y335004D01*
X152637Y334994D01*
X152644Y334979D01*
X152655Y334961D01*
X152670Y334943D01*
X152695Y334888D01*
X152720Y334823D01*
X152746Y334746D01*
X152761Y334655D01*
X152768Y334557D01*
Y334520D01*
X152764Y334495D01*
X152761Y334466D01*
X152753Y334429D01*
X152746Y334389D01*
X152735Y334346D01*
X152720Y334302D01*
X152706Y334255D01*
X152684Y334207D01*
X152659Y334160D01*
X152629Y334113D01*
X152593Y334065D01*
X152553Y334022D01*
X152509Y333982D01*
X152506Y333978D01*
X152495Y333971D01*
X152477Y333960D01*
X152447Y333942D01*
X152415Y333923D01*
X152371Y333905D01*
X152320Y333880D01*
X152262Y333858D01*
X152196Y333836D01*
X152120Y333814D01*
X152036Y333792D01*
X151942Y333774D01*
X151840Y333756D01*
X151730Y333745D01*
X151610Y333738D01*
X151483Y333734D01*
X151479D01*
X151465D01*
X151439D01*
X151410D01*
X151370Y333738D01*
X151326D01*
X151279Y333741D01*
X151224Y333745D01*
X151112Y333756D01*
X150991Y333774D01*
X150871Y333796D01*
X150817Y333811D01*
X150762Y333825D01*
X150759D01*
X150751Y333829D01*
X150737Y333836D01*
X150718Y333843D01*
X150693Y333851D01*
X150668Y333865D01*
X150606Y333894D01*
X150540Y333931D01*
X150471Y333978D01*
X150402Y334033D01*
X150344Y334098D01*
Y334102D01*
X150336Y334105D01*
X150329Y334116D01*
X150322Y334131D01*
X150307Y334149D01*
X150296Y334171D01*
X150267Y334226D01*
X150242Y334291D01*
X150216Y334367D01*
X150202Y334458D01*
X150194Y334557D01*
Y334590D01*
X150198Y334630D01*
X150205Y334677D01*
X150216Y334732D01*
X150231Y334790D01*
X150249Y334852D01*
X150278Y334910D01*
Y334913D01*
X150282Y334917D01*
X150293Y334935D01*
X150311Y334964D01*
X150336Y335001D01*
X150373Y335041D01*
X150413Y335085D01*
X150460Y335125D01*
X150515Y335165D01*
X150522Y335168D01*
X150540Y335183D01*
X150573Y335197D01*
X150620Y335223D01*
X150675Y335245D01*
X150737Y335274D01*
X150809Y335299D01*
X150890Y335321D01*
X150893D01*
X150900Y335325D01*
X150911Y335329D01*
X150930Y335332D01*
X150951Y335336D01*
X150977Y335339D01*
X151010Y335347D01*
X151046Y335350D01*
X151086Y335358D01*
X151130Y335361D01*
X151181Y335365D01*
X151232Y335372D01*
X151290Y335376D01*
X151348D01*
X151414Y335379D01*
X151483D01*
X151487D01*
X151501D01*
X151526D01*
X151556D01*
X151596Y335376D01*
D02*
G37*
G36*
Y333418D02*
X151639D01*
X151687Y333414D01*
X151738Y333410D01*
X151854Y333399D01*
X151974Y333381D01*
X152091Y333359D01*
X152145Y333345D01*
X152200Y333327D01*
X152204D01*
X152211Y333323D01*
X152225Y333315D01*
X152244Y333308D01*
X152269Y333301D01*
X152295Y333286D01*
X152356Y333257D01*
X152422Y333221D01*
X152495Y333174D01*
X152560Y333119D01*
X152622Y333053D01*
Y333050D01*
X152629Y333046D01*
X152637Y333035D01*
X152644Y333021D01*
X152655Y333002D01*
X152670Y332984D01*
X152695Y332930D01*
X152720Y332864D01*
X152746Y332788D01*
X152761Y332697D01*
X152768Y332598D01*
Y332562D01*
X152764Y332537D01*
X152761Y332507D01*
X152753Y332471D01*
X152746Y332431D01*
X152735Y332387D01*
X152720Y332344D01*
X152706Y332296D01*
X152684Y332249D01*
X152659Y332202D01*
X152629Y332154D01*
X152593Y332107D01*
X152553Y332063D01*
X152509Y332023D01*
X152506Y332020D01*
X152495Y332012D01*
X152477Y332001D01*
X152447Y331983D01*
X152415Y331965D01*
X152371Y331947D01*
X152320Y331921D01*
X152262Y331900D01*
X152196Y331878D01*
X152120Y331856D01*
X152036Y331834D01*
X151942Y331816D01*
X151840Y331798D01*
X151730Y331787D01*
X151610Y331780D01*
X151483Y331776D01*
X151479D01*
X151465D01*
X151439D01*
X151410D01*
X151370Y331780D01*
X151326D01*
X151279Y331783D01*
X151224Y331787D01*
X151112Y331798D01*
X150991Y331816D01*
X150871Y331838D01*
X150817Y331852D01*
X150762Y331867D01*
X150759D01*
X150751Y331871D01*
X150737Y331878D01*
X150718Y331885D01*
X150693Y331892D01*
X150668Y331907D01*
X150606Y331936D01*
X150540Y331972D01*
X150471Y332020D01*
X150402Y332074D01*
X150344Y332140D01*
Y332143D01*
X150336Y332147D01*
X150329Y332158D01*
X150322Y332173D01*
X150307Y332191D01*
X150296Y332213D01*
X150267Y332267D01*
X150242Y332333D01*
X150216Y332409D01*
X150202Y332500D01*
X150194Y332598D01*
Y332631D01*
X150198Y332671D01*
X150205Y332719D01*
X150216Y332773D01*
X150231Y332831D01*
X150249Y332893D01*
X150278Y332951D01*
Y332955D01*
X150282Y332959D01*
X150293Y332977D01*
X150311Y333006D01*
X150336Y333043D01*
X150373Y333083D01*
X150413Y333126D01*
X150460Y333166D01*
X150515Y333206D01*
X150522Y333210D01*
X150540Y333225D01*
X150573Y333239D01*
X150620Y333265D01*
X150675Y333286D01*
X150737Y333315D01*
X150809Y333341D01*
X150890Y333363D01*
X150893D01*
X150900Y333366D01*
X150911Y333370D01*
X150930Y333374D01*
X150951Y333377D01*
X150977Y333381D01*
X151010Y333388D01*
X151046Y333392D01*
X151086Y333399D01*
X151130Y333403D01*
X151181Y333406D01*
X151232Y333414D01*
X151290Y333418D01*
X151348D01*
X151414Y333421D01*
X151483D01*
X151487D01*
X151501D01*
X151526D01*
X151556D01*
X151596Y333418D01*
D02*
G37*
G36*
X152724Y329774D02*
X152720D01*
X152706D01*
X152684D01*
X152655Y329778D01*
X152622Y329781D01*
X152586Y329788D01*
X152549Y329796D01*
X152509Y329810D01*
X152506D01*
X152502Y329814D01*
X152480Y329821D01*
X152447Y329836D01*
X152404Y329857D01*
X152353Y329887D01*
X152295Y329923D01*
X152236Y329963D01*
X152174Y330014D01*
X152171D01*
X152167Y330021D01*
X152145Y330040D01*
X152113Y330072D01*
X152065Y330120D01*
X152011Y330174D01*
X151945Y330243D01*
X151872Y330327D01*
X151796Y330418D01*
X151792Y330422D01*
X151781Y330436D01*
X151763Y330458D01*
X151741Y330484D01*
X151712Y330516D01*
X151679Y330556D01*
X151643Y330596D01*
X151603Y330644D01*
X151516Y330735D01*
X151428Y330826D01*
X151385Y330870D01*
X151341Y330909D01*
X151301Y330946D01*
X151261Y330975D01*
X151257D01*
X151253Y330982D01*
X151243Y330990D01*
X151228Y330997D01*
X151188Y331022D01*
X151141Y331051D01*
X151082Y331077D01*
X151021Y331102D01*
X150951Y331117D01*
X150886Y331124D01*
X150882D01*
X150879D01*
X150857Y331121D01*
X150820Y331117D01*
X150780Y331106D01*
X150729Y331091D01*
X150678Y331066D01*
X150627Y331033D01*
X150576Y330990D01*
X150569Y330982D01*
X150555Y330964D01*
X150536Y330939D01*
X150511Y330899D01*
X150489Y330848D01*
X150467Y330789D01*
X150453Y330720D01*
X150449Y330644D01*
Y330622D01*
X150453Y330607D01*
X150456Y330564D01*
X150467Y330513D01*
X150482Y330458D01*
X150507Y330396D01*
X150540Y330338D01*
X150584Y330283D01*
X150591Y330276D01*
X150609Y330262D01*
X150638Y330240D01*
X150682Y330218D01*
X150733Y330192D01*
X150798Y330171D01*
X150871Y330156D01*
X150955Y330149D01*
X150922Y329832D01*
X150919D01*
X150908Y329836D01*
X150890D01*
X150864Y329839D01*
X150835Y329847D01*
X150802Y329854D01*
X150762Y329865D01*
X150722Y329876D01*
X150635Y329905D01*
X150547Y329948D01*
X150504Y329974D01*
X150460Y330007D01*
X150420Y330040D01*
X150384Y330076D01*
X150380Y330080D01*
X150376Y330087D01*
X150365Y330098D01*
X150354Y330116D01*
X150340Y330138D01*
X150325Y330163D01*
X150307Y330192D01*
X150289Y330229D01*
X150271Y330269D01*
X150252Y330312D01*
X150238Y330360D01*
X150223Y330411D01*
X150213Y330465D01*
X150202Y330524D01*
X150198Y330586D01*
X150194Y330651D01*
Y330687D01*
X150198Y330713D01*
X150202Y330742D01*
X150205Y330779D01*
X150213Y330819D01*
X150220Y330858D01*
X150245Y330953D01*
X150282Y331048D01*
X150303Y331095D01*
X150329Y331142D01*
X150362Y331186D01*
X150398Y331226D01*
X150402Y331230D01*
X150405Y331237D01*
X150420Y331244D01*
X150435Y331259D01*
X150453Y331277D01*
X150478Y331295D01*
X150504Y331313D01*
X150536Y331335D01*
X150606Y331372D01*
X150693Y331408D01*
X150737Y331423D01*
X150788Y331430D01*
X150839Y331437D01*
X150893Y331441D01*
X150900D01*
X150919D01*
X150948Y331437D01*
X150988Y331434D01*
X151031Y331426D01*
X151082Y331412D01*
X151137Y331397D01*
X151192Y331375D01*
X151199Y331372D01*
X151217Y331364D01*
X151246Y331350D01*
X151286Y331328D01*
X151330Y331299D01*
X151385Y331263D01*
X151439Y331219D01*
X151501Y331168D01*
X151508Y331161D01*
X151530Y331142D01*
X151548Y331124D01*
X151567Y331106D01*
X151588Y331084D01*
X151618Y331055D01*
X151647Y331026D01*
X151679Y330990D01*
X151716Y330953D01*
X151756Y330909D01*
X151796Y330862D01*
X151843Y330811D01*
X151891Y330753D01*
X151942Y330695D01*
X151945Y330691D01*
X151952Y330684D01*
X151963Y330669D01*
X151978Y330651D01*
X152000Y330629D01*
X152022Y330604D01*
X152069Y330545D01*
X152123Y330484D01*
X152178Y330425D01*
X152225Y330374D01*
X152244Y330353D01*
X152262Y330334D01*
X152265Y330331D01*
X152276Y330320D01*
X152291Y330305D01*
X152313Y330287D01*
X152338Y330269D01*
X152364Y330247D01*
X152426Y330203D01*
Y331445D01*
X152724D01*
Y329774D01*
D02*
G37*
G36*
X151756Y329384D02*
X151792D01*
X151836Y329381D01*
X151880Y329377D01*
X151978Y329366D01*
X152080Y329352D01*
X152178Y329330D01*
X152225Y329315D01*
X152269Y329301D01*
X152273D01*
X152280Y329297D01*
X152291Y329290D01*
X152305Y329282D01*
X152346Y329261D01*
X152397Y329228D01*
X152455Y329184D01*
X152513Y329133D01*
X152575Y329068D01*
X152629Y328988D01*
Y328984D01*
X152637Y328977D01*
X152640Y328966D01*
X152651Y328947D01*
X152662Y328926D01*
X152673Y328897D01*
X152684Y328868D01*
X152699Y328831D01*
X152713Y328791D01*
X152724Y328747D01*
X152735Y328700D01*
X152746Y328645D01*
X152753Y328591D01*
X152761Y328533D01*
X152768Y328401D01*
Y328369D01*
X152764Y328343D01*
Y328314D01*
X152761Y328278D01*
X152757Y328238D01*
X152753Y328198D01*
X152739Y328107D01*
X152717Y328008D01*
X152688Y327914D01*
X152648Y327823D01*
Y327819D01*
X152640Y327812D01*
X152633Y327801D01*
X152626Y327786D01*
X152597Y327746D01*
X152557Y327699D01*
X152506Y327644D01*
X152447Y327593D01*
X152375Y327542D01*
X152295Y327502D01*
X152291D01*
X152284Y327499D01*
X152269Y327495D01*
X152251Y327488D01*
X152229Y327481D01*
X152200Y327473D01*
X152167Y327462D01*
X152127Y327455D01*
X152083Y327448D01*
X152036Y327437D01*
X151985Y327430D01*
X151931Y327422D01*
X151869Y327415D01*
X151803Y327412D01*
X151734Y327408D01*
X151661D01*
X150205D01*
Y327743D01*
X151661D01*
X151665D01*
X151676D01*
X151694D01*
X151716D01*
X151741Y327746D01*
X151774D01*
X151843Y327750D01*
X151923Y327757D01*
X152003Y327768D01*
X152080Y327783D01*
X152113Y327790D01*
X152145Y327801D01*
X152153Y327805D01*
X152171Y327812D01*
X152196Y327830D01*
X152233Y327852D01*
X152269Y327877D01*
X152309Y327914D01*
X152349Y327958D01*
X152382Y328008D01*
X152386Y328016D01*
X152397Y328034D01*
X152407Y328067D01*
X152422Y328110D01*
X152440Y328161D01*
X152451Y328227D01*
X152462Y328296D01*
X152466Y328372D01*
Y328409D01*
X152462Y328431D01*
Y328463D01*
X152458Y328496D01*
X152444Y328576D01*
X152426Y328664D01*
X152397Y328747D01*
X152356Y328827D01*
X152331Y328864D01*
X152302Y328897D01*
X152298Y328900D01*
X152295Y328904D01*
X152284Y328911D01*
X152269Y328922D01*
X152247Y328933D01*
X152225Y328947D01*
X152193Y328962D01*
X152160Y328977D01*
X152120Y328991D01*
X152073Y329002D01*
X152018Y329017D01*
X151960Y329028D01*
X151894Y329039D01*
X151825Y329046D01*
X151745Y329053D01*
X151661D01*
X150205D01*
Y329388D01*
X151661D01*
X151665D01*
X151679D01*
X151698D01*
X151723D01*
X151756Y329384D01*
D02*
G37*
G36*
X552776Y208628D02*
X552794D01*
X552820Y208625D01*
X552882Y208614D01*
X552951Y208599D01*
X553027Y208574D01*
X553104Y208541D01*
X553180Y208497D01*
X553184D01*
X553187Y208490D01*
X553198Y208483D01*
X553213Y208472D01*
X553249Y208442D01*
X553297Y208402D01*
X553344Y208348D01*
X553399Y208282D01*
X553446Y208206D01*
X553489Y208119D01*
Y208115D01*
X553493Y208108D01*
X553501Y208093D01*
X553508Y208075D01*
X553515Y208049D01*
X553526Y208017D01*
X553533Y207980D01*
X553544Y207940D01*
X553555Y207893D01*
X553566Y207838D01*
X553573Y207780D01*
X553581Y207718D01*
X553588Y207649D01*
X553595Y207576D01*
X553599Y207496D01*
Y207412D01*
Y207409D01*
Y207391D01*
Y207365D01*
Y207332D01*
X553595Y207292D01*
Y207245D01*
X553591Y207190D01*
X553584Y207136D01*
X553573Y207012D01*
X553555Y206881D01*
X553530Y206757D01*
X553511Y206695D01*
X553493Y206641D01*
Y206637D01*
X553489Y206630D01*
X553482Y206615D01*
X553475Y206593D01*
X553464Y206572D01*
X553449Y206542D01*
X553413Y206481D01*
X553369Y206411D01*
X553319Y206339D01*
X553253Y206270D01*
X553180Y206208D01*
X553176D01*
X553169Y206200D01*
X553158Y206193D01*
X553144Y206186D01*
X553122Y206175D01*
X553100Y206160D01*
X553071Y206146D01*
X553042Y206135D01*
X552973Y206106D01*
X552889Y206080D01*
X552798Y206066D01*
X552696Y206058D01*
X552667D01*
X552649Y206062D01*
X552623D01*
X552594Y206066D01*
X552525Y206080D01*
X552449Y206098D01*
X552368Y206128D01*
X552288Y206168D01*
X552248Y206193D01*
X552212Y206222D01*
X552208Y206226D01*
X552205Y206229D01*
X552194Y206240D01*
X552183Y206251D01*
X552168Y206270D01*
X552150Y206291D01*
X552114Y206342D01*
X552077Y206408D01*
X552041Y206488D01*
X552012Y206579D01*
X551990Y206684D01*
X552288Y206710D01*
Y206706D01*
X552292Y206699D01*
Y206692D01*
X552296Y206677D01*
X552307Y206637D01*
X552321Y206593D01*
X552339Y206542D01*
X552365Y206491D01*
X552394Y206444D01*
X552430Y206404D01*
X552434Y206400D01*
X552449Y206390D01*
X552474Y206375D01*
X552503Y206361D01*
X552543Y206342D01*
X552591Y206328D01*
X552645Y206317D01*
X552703Y206313D01*
X552729D01*
X552754Y206317D01*
X552787Y206320D01*
X552827Y206328D01*
X552867Y206339D01*
X552911Y206353D01*
X552951Y206375D01*
X552954Y206379D01*
X552969Y206386D01*
X552991Y206400D01*
X553013Y206422D01*
X553042Y206448D01*
X553071Y206477D01*
X553100Y206510D01*
X553129Y206550D01*
X553133Y206553D01*
X553140Y206572D01*
X553155Y206597D01*
X553169Y206630D01*
X553187Y206674D01*
X553206Y206725D01*
X553224Y206783D01*
X553242Y206848D01*
Y206852D01*
X553246Y206856D01*
Y206866D01*
X553249Y206881D01*
X553257Y206917D01*
X553267Y206965D01*
X553275Y207023D01*
X553282Y207085D01*
X553286Y207154D01*
X553289Y207227D01*
Y207230D01*
Y207241D01*
Y207259D01*
Y207289D01*
X553286Y207281D01*
X553271Y207263D01*
X553249Y207238D01*
X553224Y207201D01*
X553187Y207165D01*
X553144Y207125D01*
X553093Y207085D01*
X553035Y207048D01*
X553027Y207045D01*
X553005Y207034D01*
X552973Y207019D01*
X552933Y207005D01*
X552878Y206986D01*
X552820Y206972D01*
X552754Y206961D01*
X552685Y206957D01*
X552656D01*
X552634Y206961D01*
X552605Y206965D01*
X552576Y206968D01*
X552539Y206976D01*
X552503Y206986D01*
X552419Y207012D01*
X552376Y207030D01*
X552332Y207052D01*
X552285Y207078D01*
X552241Y207110D01*
X552197Y207143D01*
X552157Y207183D01*
X552154Y207187D01*
X552146Y207194D01*
X552139Y207205D01*
X552125Y207223D01*
X552106Y207249D01*
X552088Y207274D01*
X552070Y207307D01*
X552052Y207343D01*
X552030Y207383D01*
X552012Y207427D01*
X551994Y207478D01*
X551975Y207529D01*
X551961Y207587D01*
X551954Y207649D01*
X551946Y207711D01*
X551943Y207780D01*
Y207784D01*
Y207798D01*
Y207817D01*
X551946Y207842D01*
X551950Y207875D01*
X551954Y207915D01*
X551961Y207955D01*
X551972Y208002D01*
X551997Y208097D01*
X552015Y208148D01*
X552037Y208202D01*
X552063Y208253D01*
X552095Y208301D01*
X552128Y208351D01*
X552168Y208395D01*
X552172Y208399D01*
X552179Y208406D01*
X552190Y208417D01*
X552208Y208432D01*
X552230Y208450D01*
X552259Y208472D01*
X552288Y208490D01*
X552325Y208515D01*
X552361Y208537D01*
X552405Y208555D01*
X552503Y208595D01*
X552554Y208610D01*
X552612Y208621D01*
X552671Y208628D01*
X552732Y208632D01*
X552758D01*
X552776Y208628D01*
D02*
G37*
G36*
X557024Y206102D02*
X556715D01*
Y208071D01*
X556711Y208068D01*
X556693Y208053D01*
X556671Y208031D01*
X556635Y208006D01*
X556595Y207973D01*
X556543Y207937D01*
X556485Y207896D01*
X556420Y207856D01*
X556416D01*
X556413Y207853D01*
X556391Y207838D01*
X556354Y207820D01*
X556311Y207798D01*
X556260Y207773D01*
X556205Y207747D01*
X556150Y207722D01*
X556096Y207700D01*
Y207998D01*
X556099D01*
X556107Y208006D01*
X556121Y208009D01*
X556140Y208020D01*
X556161Y208031D01*
X556187Y208046D01*
X556249Y208082D01*
X556321Y208122D01*
X556394Y208173D01*
X556471Y208231D01*
X556547Y208293D01*
X556551Y208297D01*
X556554Y208301D01*
X556565Y208312D01*
X556580Y208322D01*
X556613Y208359D01*
X556656Y208402D01*
X556700Y208453D01*
X556747Y208512D01*
X556787Y208570D01*
X556824Y208632D01*
X557024D01*
Y206102D01*
D02*
G37*
G36*
X554796Y208628D02*
X554844Y208621D01*
X554898Y208610D01*
X554956Y208595D01*
X555018Y208577D01*
X555077Y208548D01*
X555080D01*
X555084Y208544D01*
X555102Y208534D01*
X555131Y208515D01*
X555168Y208490D01*
X555208Y208453D01*
X555251Y208413D01*
X555291Y208366D01*
X555331Y208312D01*
X555335Y208304D01*
X555350Y208286D01*
X555364Y208253D01*
X555390Y208206D01*
X555411Y208151D01*
X555441Y208089D01*
X555466Y208017D01*
X555488Y207937D01*
Y207933D01*
X555492Y207926D01*
X555495Y207915D01*
X555499Y207896D01*
X555503Y207875D01*
X555506Y207849D01*
X555513Y207817D01*
X555517Y207780D01*
X555524Y207740D01*
X555528Y207696D01*
X555532Y207645D01*
X555539Y207594D01*
X555543Y207536D01*
Y207478D01*
X555546Y207412D01*
Y207343D01*
Y207340D01*
Y207325D01*
Y207300D01*
Y207271D01*
X555543Y207230D01*
Y207187D01*
X555539Y207139D01*
X555535Y207088D01*
X555524Y206972D01*
X555506Y206852D01*
X555484Y206735D01*
X555470Y206681D01*
X555451Y206626D01*
Y206623D01*
X555448Y206615D01*
X555441Y206601D01*
X555433Y206582D01*
X555426Y206557D01*
X555411Y206532D01*
X555382Y206470D01*
X555346Y206404D01*
X555299Y206331D01*
X555244Y206266D01*
X555178Y206204D01*
X555175D01*
X555171Y206197D01*
X555160Y206189D01*
X555146Y206182D01*
X555127Y206171D01*
X555109Y206157D01*
X555055Y206131D01*
X554989Y206106D01*
X554913Y206080D01*
X554822Y206066D01*
X554724Y206058D01*
X554687D01*
X554662Y206062D01*
X554633Y206066D01*
X554596Y206073D01*
X554556Y206080D01*
X554512Y206091D01*
X554469Y206106D01*
X554421Y206120D01*
X554374Y206142D01*
X554327Y206168D01*
X554279Y206197D01*
X554232Y206233D01*
X554188Y206273D01*
X554148Y206317D01*
X554145Y206320D01*
X554138Y206331D01*
X554127Y206349D01*
X554108Y206379D01*
X554090Y206411D01*
X554072Y206455D01*
X554046Y206506D01*
X554025Y206564D01*
X554003Y206630D01*
X553981Y206706D01*
X553959Y206790D01*
X553941Y206885D01*
X553923Y206986D01*
X553912Y207096D01*
X553904Y207216D01*
X553901Y207343D01*
Y207347D01*
Y207362D01*
Y207387D01*
Y207416D01*
X553904Y207456D01*
Y207500D01*
X553908Y207547D01*
X553912Y207602D01*
X553923Y207715D01*
X553941Y207835D01*
X553963Y207955D01*
X553977Y208009D01*
X553992Y208064D01*
Y208068D01*
X553996Y208075D01*
X554003Y208089D01*
X554010Y208108D01*
X554017Y208133D01*
X554032Y208159D01*
X554061Y208221D01*
X554097Y208286D01*
X554145Y208355D01*
X554199Y208424D01*
X554265Y208483D01*
X554269D01*
X554272Y208490D01*
X554283Y208497D01*
X554298Y208504D01*
X554316Y208519D01*
X554338Y208530D01*
X554392Y208559D01*
X554458Y208584D01*
X554534Y208610D01*
X554625Y208625D01*
X554724Y208632D01*
X554756D01*
X554796Y208628D01*
D02*
G37*
G36*
X550476Y208661D02*
X550508D01*
X550541Y208657D01*
X550585Y208650D01*
X550629Y208643D01*
X550723Y208625D01*
X550832Y208595D01*
X550938Y208552D01*
X550992Y208526D01*
X551047Y208497D01*
X551051Y208493D01*
X551058Y208490D01*
X551073Y208479D01*
X551094Y208468D01*
X551116Y208450D01*
X551145Y208428D01*
X551207Y208377D01*
X551273Y208312D01*
X551346Y208231D01*
X551415Y208137D01*
X551473Y208031D01*
Y208028D01*
X551480Y208017D01*
X551488Y208002D01*
X551495Y207980D01*
X551509Y207951D01*
X551520Y207918D01*
X551535Y207878D01*
X551549Y207835D01*
X551560Y207787D01*
X551575Y207736D01*
X551589Y207682D01*
X551600Y207624D01*
X551615Y207496D01*
X551622Y207362D01*
Y207358D01*
Y207347D01*
Y207332D01*
Y207311D01*
X551619Y207281D01*
Y207249D01*
X551615Y207212D01*
X551611Y207176D01*
X551600Y207088D01*
X551582Y206994D01*
X551560Y206896D01*
X551528Y206801D01*
Y206797D01*
X551524Y206790D01*
X551517Y206775D01*
X551509Y206761D01*
X551499Y206739D01*
X551488Y206714D01*
X551458Y206655D01*
X551418Y206586D01*
X551367Y206513D01*
X551309Y206440D01*
X551244Y206368D01*
X551247D01*
X551255Y206361D01*
X551265Y206353D01*
X551284Y206342D01*
X551302Y206328D01*
X551327Y206313D01*
X551382Y206280D01*
X551447Y206240D01*
X551520Y206200D01*
X551597Y206168D01*
X551670Y206135D01*
X551571Y205906D01*
X551568D01*
X551560Y205909D01*
X551546Y205916D01*
X551524Y205924D01*
X551499Y205935D01*
X551469Y205949D01*
X551437Y205964D01*
X551400Y205982D01*
X551320Y206026D01*
X551229Y206077D01*
X551131Y206142D01*
X551029Y206215D01*
X551025D01*
X551018Y206208D01*
X551000Y206200D01*
X550982Y206189D01*
X550952Y206178D01*
X550923Y206164D01*
X550887Y206153D01*
X550847Y206138D01*
X550803Y206124D01*
X550756Y206109D01*
X550650Y206084D01*
X550534Y206066D01*
X550472Y206062D01*
X550410Y206058D01*
X550377D01*
X550352Y206062D01*
X550323D01*
X550286Y206066D01*
X550246Y206073D01*
X550203Y206080D01*
X550108Y206098D01*
X550002Y206128D01*
X549893Y206168D01*
X549842Y206193D01*
X549788Y206222D01*
X549784Y206226D01*
X549777Y206229D01*
X549762Y206240D01*
X549744Y206251D01*
X549719Y206270D01*
X549693Y206291D01*
X549631Y206342D01*
X549562Y206408D01*
X549493Y206488D01*
X549424Y206579D01*
X549362Y206684D01*
Y206688D01*
X549355Y206699D01*
X549347Y206714D01*
X549340Y206735D01*
X549329Y206765D01*
X549314Y206797D01*
X549300Y206837D01*
X549289Y206881D01*
X549274Y206928D01*
X549260Y206979D01*
X549249Y207034D01*
X549234Y207096D01*
X549220Y207223D01*
X549213Y207358D01*
Y207362D01*
Y207376D01*
Y207394D01*
X549216Y207420D01*
Y207453D01*
X549220Y207492D01*
X549224Y207536D01*
X549231Y207583D01*
X549249Y207689D01*
X549274Y207802D01*
X549311Y207922D01*
X549362Y208038D01*
X549365Y208042D01*
X549369Y208053D01*
X549376Y208068D01*
X549391Y208089D01*
X549405Y208115D01*
X549424Y208144D01*
X549475Y208213D01*
X549533Y208286D01*
X549609Y208363D01*
X549693Y208439D01*
X549791Y208504D01*
X549795Y208508D01*
X549806Y208512D01*
X549820Y208519D01*
X549842Y208530D01*
X549868Y208541D01*
X549897Y208555D01*
X549933Y208570D01*
X549973Y208584D01*
X550021Y208599D01*
X550068Y208614D01*
X550174Y208639D01*
X550290Y208657D01*
X550352Y208665D01*
X550450D01*
X550476Y208661D01*
D02*
G37*
G36*
X694203Y364560D02*
X694199D01*
X694192D01*
X694177D01*
X694155Y364557D01*
X694133Y364553D01*
X694108D01*
X694046Y364542D01*
X693981Y364531D01*
X693915Y364509D01*
X693857Y364487D01*
X693831Y364473D01*
X693810Y364455D01*
X693806Y364451D01*
X693795Y364436D01*
X693777Y364415D01*
X693758Y364385D01*
X693737Y364345D01*
X693722Y364302D01*
X693708Y364247D01*
X693704Y364189D01*
Y364167D01*
X693708Y364145D01*
X693711Y364112D01*
X693718Y364080D01*
X693726Y364043D01*
X693740Y364007D01*
X693758Y363970D01*
X693762Y363967D01*
X693769Y363956D01*
X693784Y363941D01*
X693799Y363919D01*
X693824Y363901D01*
X693850Y363879D01*
X693879Y363861D01*
X693915Y363847D01*
X693919D01*
X693933Y363839D01*
X693959Y363836D01*
X693992Y363828D01*
X694035Y363821D01*
X694090Y363818D01*
X694155Y363810D01*
X694232D01*
X695968D01*
Y363475D01*
X694250D01*
X694246D01*
X694235D01*
X694221D01*
X694199D01*
X694170Y363479D01*
X694141D01*
X694072Y363486D01*
X693992Y363494D01*
X693908Y363508D01*
X693831Y363530D01*
X693758Y363556D01*
X693755D01*
X693751Y363559D01*
X693729Y363570D01*
X693700Y363588D01*
X693660Y363614D01*
X693620Y363650D01*
X693576Y363690D01*
X693533Y363741D01*
X693497Y363799D01*
X693493Y363807D01*
X693482Y363828D01*
X693467Y363861D01*
X693453Y363909D01*
X693435Y363967D01*
X693420Y364032D01*
X693409Y364105D01*
X693405Y364185D01*
Y364218D01*
X693409Y364240D01*
X693413Y364269D01*
X693416Y364298D01*
X693431Y364374D01*
X693453Y364455D01*
X693485Y364538D01*
X693507Y364582D01*
X693533Y364622D01*
X693562Y364658D01*
X693595Y364695D01*
X693598Y364698D01*
X693602Y364702D01*
X693617Y364709D01*
X693631Y364720D01*
X693649Y364735D01*
X693675Y364749D01*
X693704Y364764D01*
X693737Y364782D01*
X693773Y364797D01*
X693817Y364811D01*
X693860Y364826D01*
X693911Y364840D01*
X693966Y364848D01*
X694028Y364859D01*
X694090Y364862D01*
X694159D01*
X694203Y364560D01*
D02*
G37*
G36*
X693518Y363097D02*
X693551Y363093D01*
X693587Y363086D01*
X693624Y363079D01*
X693664Y363064D01*
X693668D01*
X693671Y363060D01*
X693693Y363053D01*
X693726Y363039D01*
X693769Y363017D01*
X693820Y362988D01*
X693879Y362951D01*
X693937Y362911D01*
X693999Y362860D01*
X694002D01*
X694006Y362853D01*
X694028Y362835D01*
X694061Y362802D01*
X694108Y362755D01*
X694163Y362700D01*
X694228Y362631D01*
X694301Y362547D01*
X694377Y362456D01*
X694381Y362453D01*
X694392Y362438D01*
X694410Y362416D01*
X694432Y362391D01*
X694461Y362358D01*
X694494Y362318D01*
X694530Y362278D01*
X694570Y362230D01*
X694658Y362140D01*
X694745Y362049D01*
X694789Y362005D01*
X694832Y361965D01*
X694872Y361928D01*
X694912Y361899D01*
X694916D01*
X694920Y361892D01*
X694931Y361885D01*
X694945Y361877D01*
X694985Y361852D01*
X695033Y361823D01*
X695091Y361797D01*
X695153Y361772D01*
X695222Y361757D01*
X695287Y361750D01*
X695291D01*
X695295D01*
X695316Y361754D01*
X695353Y361757D01*
X695393Y361768D01*
X695444Y361783D01*
X695495Y361808D01*
X695546Y361841D01*
X695597Y361885D01*
X695604Y361892D01*
X695619Y361910D01*
X695637Y361936D01*
X695662Y361976D01*
X695684Y362027D01*
X695706Y362085D01*
X695720Y362154D01*
X695724Y362230D01*
Y362252D01*
X695720Y362267D01*
X695717Y362311D01*
X695706Y362362D01*
X695691Y362416D01*
X695666Y362478D01*
X695633Y362536D01*
X695589Y362591D01*
X695582Y362598D01*
X695564Y362613D01*
X695535Y362635D01*
X695491Y362656D01*
X695440Y362682D01*
X695375Y362704D01*
X695302Y362718D01*
X695218Y362726D01*
X695251Y363042D01*
X695255D01*
X695265Y363039D01*
X695284D01*
X695309Y363035D01*
X695338Y363028D01*
X695371Y363020D01*
X695411Y363010D01*
X695451Y362999D01*
X695539Y362969D01*
X695626Y362926D01*
X695670Y362900D01*
X695713Y362867D01*
X695753Y362835D01*
X695790Y362798D01*
X695793Y362795D01*
X695797Y362787D01*
X695808Y362776D01*
X695819Y362758D01*
X695833Y362737D01*
X695848Y362711D01*
X695866Y362682D01*
X695884Y362646D01*
X695902Y362605D01*
X695921Y362562D01*
X695935Y362514D01*
X695950Y362463D01*
X695961Y362409D01*
X695972Y362351D01*
X695975Y362289D01*
X695979Y362223D01*
Y362187D01*
X695975Y362161D01*
X695972Y362132D01*
X695968Y362096D01*
X695961Y362056D01*
X695953Y362016D01*
X695928Y361921D01*
X695892Y361826D01*
X695870Y361779D01*
X695844Y361732D01*
X695812Y361688D01*
X695775Y361648D01*
X695772Y361645D01*
X695768Y361637D01*
X695753Y361630D01*
X695739Y361615D01*
X695720Y361597D01*
X695695Y361579D01*
X695670Y361561D01*
X695637Y361539D01*
X695568Y361503D01*
X695480Y361466D01*
X695437Y361452D01*
X695386Y361444D01*
X695335Y361437D01*
X695280Y361433D01*
X695273D01*
X695255D01*
X695225Y361437D01*
X695185Y361441D01*
X695142Y361448D01*
X695091Y361462D01*
X695036Y361477D01*
X694982Y361499D01*
X694974Y361503D01*
X694956Y361510D01*
X694927Y361524D01*
X694887Y361546D01*
X694843Y361575D01*
X694789Y361612D01*
X694734Y361655D01*
X694672Y361706D01*
X694665Y361714D01*
X694643Y361732D01*
X694625Y361750D01*
X694607Y361768D01*
X694585Y361790D01*
X694556Y361819D01*
X694527Y361848D01*
X694494Y361885D01*
X694457Y361921D01*
X694417Y361965D01*
X694377Y362012D01*
X694330Y362063D01*
X694283Y362121D01*
X694232Y362180D01*
X694228Y362183D01*
X694221Y362191D01*
X694210Y362205D01*
X694195Y362223D01*
X694173Y362245D01*
X694152Y362271D01*
X694104Y362329D01*
X694050Y362391D01*
X693995Y362449D01*
X693948Y362500D01*
X693930Y362522D01*
X693911Y362540D01*
X693908Y362544D01*
X693897Y362555D01*
X693882Y362569D01*
X693860Y362587D01*
X693835Y362605D01*
X693810Y362627D01*
X693748Y362671D01*
Y361430D01*
X693449D01*
Y363101D01*
X693453D01*
X693467D01*
X693489D01*
X693518Y363097D01*
D02*
G37*
G36*
X694803Y361095D02*
X694847D01*
X694894Y361091D01*
X694949Y361088D01*
X695062Y361077D01*
X695182Y361058D01*
X695302Y361037D01*
X695357Y361022D01*
X695411Y361007D01*
X695415D01*
X695422Y361004D01*
X695437Y360997D01*
X695455Y360989D01*
X695480Y360982D01*
X695506Y360967D01*
X695568Y360938D01*
X695633Y360902D01*
X695702Y360855D01*
X695772Y360800D01*
X695830Y360735D01*
Y360731D01*
X695837Y360727D01*
X695844Y360716D01*
X695852Y360702D01*
X695866Y360683D01*
X695877Y360662D01*
X695906Y360607D01*
X695932Y360542D01*
X695957Y360465D01*
X695972Y360374D01*
X695979Y360276D01*
Y360243D01*
X695975Y360203D01*
X695968Y360156D01*
X695957Y360101D01*
X695942Y360043D01*
X695924Y359981D01*
X695895Y359923D01*
Y359919D01*
X695892Y359915D01*
X695881Y359897D01*
X695862Y359868D01*
X695837Y359832D01*
X695801Y359792D01*
X695760Y359748D01*
X695713Y359708D01*
X695659Y359668D01*
X695651Y359664D01*
X695633Y359650D01*
X695600Y359635D01*
X695553Y359610D01*
X695498Y359588D01*
X695437Y359559D01*
X695364Y359533D01*
X695284Y359511D01*
X695280D01*
X695273Y359508D01*
X695262Y359504D01*
X695244Y359501D01*
X695222Y359497D01*
X695196Y359493D01*
X695164Y359486D01*
X695127Y359482D01*
X695087Y359475D01*
X695044Y359471D01*
X694992Y359468D01*
X694942Y359460D01*
X694883Y359457D01*
X694825D01*
X694760Y359453D01*
X694690D01*
X694687D01*
X694672D01*
X694647D01*
X694618D01*
X694578Y359457D01*
X694534D01*
X694487Y359460D01*
X694436Y359464D01*
X694319Y359475D01*
X694199Y359493D01*
X694082Y359515D01*
X694028Y359530D01*
X693973Y359548D01*
X693970D01*
X693962Y359552D01*
X693948Y359559D01*
X693930Y359566D01*
X693904Y359573D01*
X693879Y359588D01*
X693817Y359617D01*
X693751Y359653D01*
X693678Y359701D01*
X693613Y359755D01*
X693551Y359821D01*
Y359824D01*
X693544Y359828D01*
X693537Y359839D01*
X693529Y359854D01*
X693518Y359872D01*
X693504Y359890D01*
X693478Y359945D01*
X693453Y360010D01*
X693427Y360087D01*
X693413Y360178D01*
X693405Y360276D01*
Y360312D01*
X693409Y360338D01*
X693413Y360367D01*
X693420Y360403D01*
X693427Y360443D01*
X693438Y360487D01*
X693453Y360531D01*
X693467Y360578D01*
X693489Y360625D01*
X693515Y360673D01*
X693544Y360720D01*
X693580Y360767D01*
X693620Y360811D01*
X693664Y360851D01*
X693668Y360855D01*
X693678Y360862D01*
X693697Y360873D01*
X693726Y360891D01*
X693758Y360909D01*
X693802Y360927D01*
X693853Y360953D01*
X693911Y360975D01*
X693977Y360997D01*
X694053Y361018D01*
X694137Y361040D01*
X694232Y361058D01*
X694334Y361077D01*
X694443Y361088D01*
X694563Y361095D01*
X694690Y361099D01*
X694694D01*
X694709D01*
X694734D01*
X694763D01*
X694803Y361095D01*
D02*
G37*
G36*
X695968Y358092D02*
Y357841D01*
X694337D01*
Y357499D01*
X694053D01*
Y357841D01*
X693449D01*
Y358150D01*
X694053D01*
Y359246D01*
X694337D01*
X695968Y358092D01*
D02*
G37*
G36*
X741840Y364560D02*
X741837D01*
X741829D01*
X741815D01*
X741793Y364557D01*
X741771Y364553D01*
X741746D01*
X741684Y364542D01*
X741618Y364531D01*
X741553Y364509D01*
X741495Y364487D01*
X741469Y364473D01*
X741447Y364455D01*
X741444Y364451D01*
X741433Y364436D01*
X741414Y364415D01*
X741396Y364385D01*
X741374Y364345D01*
X741360Y364302D01*
X741345Y364247D01*
X741342Y364189D01*
Y364167D01*
X741345Y364145D01*
X741349Y364112D01*
X741356Y364080D01*
X741364Y364043D01*
X741378Y364007D01*
X741396Y363970D01*
X741400Y363967D01*
X741407Y363956D01*
X741422Y363941D01*
X741436Y363919D01*
X741462Y363901D01*
X741487Y363879D01*
X741516Y363861D01*
X741553Y363847D01*
X741557D01*
X741571Y363839D01*
X741597Y363836D01*
X741629Y363828D01*
X741673Y363821D01*
X741728Y363818D01*
X741793Y363810D01*
X741869D01*
X743606D01*
Y363475D01*
X741888D01*
X741884D01*
X741873D01*
X741859D01*
X741837D01*
X741808Y363479D01*
X741779D01*
X741709Y363486D01*
X741629Y363494D01*
X741546Y363508D01*
X741469Y363530D01*
X741396Y363556D01*
X741393D01*
X741389Y363559D01*
X741367Y363570D01*
X741338Y363588D01*
X741298Y363614D01*
X741258Y363650D01*
X741214Y363690D01*
X741171Y363741D01*
X741134Y363799D01*
X741131Y363807D01*
X741120Y363828D01*
X741105Y363861D01*
X741091Y363909D01*
X741072Y363967D01*
X741058Y364032D01*
X741047Y364105D01*
X741043Y364185D01*
Y364218D01*
X741047Y364240D01*
X741050Y364269D01*
X741054Y364298D01*
X741069Y364374D01*
X741091Y364455D01*
X741123Y364538D01*
X741145Y364582D01*
X741171Y364622D01*
X741200Y364658D01*
X741232Y364695D01*
X741236Y364698D01*
X741240Y364702D01*
X741254Y364709D01*
X741269Y364720D01*
X741287Y364735D01*
X741313Y364749D01*
X741342Y364764D01*
X741374Y364782D01*
X741411Y364797D01*
X741455Y364811D01*
X741498Y364826D01*
X741549Y364840D01*
X741604Y364848D01*
X741666Y364859D01*
X741728Y364862D01*
X741797D01*
X741840Y364560D01*
D02*
G37*
G36*
X741156Y363097D02*
X741189Y363093D01*
X741225Y363086D01*
X741262Y363079D01*
X741302Y363064D01*
X741305D01*
X741309Y363060D01*
X741331Y363053D01*
X741364Y363039D01*
X741407Y363017D01*
X741458Y362988D01*
X741516Y362951D01*
X741575Y362911D01*
X741637Y362860D01*
X741640D01*
X741644Y362853D01*
X741666Y362835D01*
X741698Y362802D01*
X741746Y362755D01*
X741800Y362700D01*
X741866Y362631D01*
X741939Y362547D01*
X742015Y362456D01*
X742019Y362453D01*
X742030Y362438D01*
X742048Y362416D01*
X742070Y362391D01*
X742099Y362358D01*
X742132Y362318D01*
X742168Y362278D01*
X742208Y362230D01*
X742295Y362140D01*
X742383Y362049D01*
X742426Y362005D01*
X742470Y361965D01*
X742510Y361928D01*
X742550Y361899D01*
X742554D01*
X742557Y361892D01*
X742568Y361885D01*
X742583Y361877D01*
X742623Y361852D01*
X742670Y361823D01*
X742729Y361797D01*
X742790Y361772D01*
X742860Y361757D01*
X742925Y361750D01*
X742929D01*
X742932D01*
X742954Y361754D01*
X742991Y361757D01*
X743031Y361768D01*
X743082Y361783D01*
X743133Y361808D01*
X743184Y361841D01*
X743234Y361885D01*
X743242Y361892D01*
X743256Y361910D01*
X743275Y361936D01*
X743300Y361976D01*
X743322Y362027D01*
X743344Y362085D01*
X743358Y362154D01*
X743362Y362230D01*
Y362252D01*
X743358Y362267D01*
X743355Y362311D01*
X743344Y362362D01*
X743329Y362416D01*
X743304Y362478D01*
X743271Y362536D01*
X743227Y362591D01*
X743220Y362598D01*
X743202Y362613D01*
X743173Y362635D01*
X743129Y362656D01*
X743078Y362682D01*
X743013Y362704D01*
X742940Y362718D01*
X742856Y362726D01*
X742889Y363042D01*
X742892D01*
X742903Y363039D01*
X742921D01*
X742947Y363035D01*
X742976Y363028D01*
X743009Y363020D01*
X743049Y363010D01*
X743089Y362999D01*
X743176Y362969D01*
X743264Y362926D01*
X743307Y362900D01*
X743351Y362867D01*
X743391Y362835D01*
X743428Y362798D01*
X743431Y362795D01*
X743435Y362787D01*
X743446Y362776D01*
X743457Y362758D01*
X743471Y362737D01*
X743486Y362711D01*
X743504Y362682D01*
X743522Y362646D01*
X743540Y362605D01*
X743559Y362562D01*
X743573Y362514D01*
X743588Y362463D01*
X743599Y362409D01*
X743610Y362351D01*
X743613Y362289D01*
X743617Y362223D01*
Y362187D01*
X743613Y362161D01*
X743610Y362132D01*
X743606Y362096D01*
X743599Y362056D01*
X743591Y362016D01*
X743566Y361921D01*
X743529Y361826D01*
X743507Y361779D01*
X743482Y361732D01*
X743449Y361688D01*
X743413Y361648D01*
X743409Y361645D01*
X743406Y361637D01*
X743391Y361630D01*
X743376Y361615D01*
X743358Y361597D01*
X743333Y361579D01*
X743307Y361561D01*
X743275Y361539D01*
X743205Y361503D01*
X743118Y361466D01*
X743074Y361452D01*
X743023Y361444D01*
X742973Y361437D01*
X742918Y361433D01*
X742911D01*
X742892D01*
X742863Y361437D01*
X742823Y361441D01*
X742779Y361448D01*
X742729Y361462D01*
X742674Y361477D01*
X742619Y361499D01*
X742612Y361503D01*
X742594Y361510D01*
X742565Y361524D01*
X742525Y361546D01*
X742481Y361575D01*
X742426Y361612D01*
X742372Y361655D01*
X742310Y361706D01*
X742303Y361714D01*
X742281Y361732D01*
X742263Y361750D01*
X742244Y361768D01*
X742223Y361790D01*
X742194Y361819D01*
X742164Y361848D01*
X742132Y361885D01*
X742095Y361921D01*
X742055Y361965D01*
X742015Y362012D01*
X741968Y362063D01*
X741921Y362121D01*
X741869Y362180D01*
X741866Y362183D01*
X741859Y362191D01*
X741848Y362205D01*
X741833Y362223D01*
X741811Y362245D01*
X741789Y362271D01*
X741742Y362329D01*
X741687Y362391D01*
X741633Y362449D01*
X741586Y362500D01*
X741567Y362522D01*
X741549Y362540D01*
X741546Y362544D01*
X741535Y362555D01*
X741520Y362569D01*
X741498Y362587D01*
X741473Y362605D01*
X741447Y362627D01*
X741385Y362671D01*
Y361430D01*
X741087D01*
Y363101D01*
X741091D01*
X741105D01*
X741127D01*
X741156Y363097D01*
D02*
G37*
G36*
X742441Y361095D02*
X742485D01*
X742532Y361091D01*
X742587Y361088D01*
X742699Y361077D01*
X742820Y361058D01*
X742940Y361037D01*
X742994Y361022D01*
X743049Y361007D01*
X743052D01*
X743060Y361004D01*
X743074Y360997D01*
X743093Y360989D01*
X743118Y360982D01*
X743144Y360967D01*
X743205Y360938D01*
X743271Y360902D01*
X743340Y360855D01*
X743409Y360800D01*
X743468Y360735D01*
Y360731D01*
X743475Y360727D01*
X743482Y360716D01*
X743489Y360702D01*
X743504Y360683D01*
X743515Y360662D01*
X743544Y360607D01*
X743569Y360542D01*
X743595Y360465D01*
X743610Y360374D01*
X743617Y360276D01*
Y360243D01*
X743613Y360203D01*
X743606Y360156D01*
X743595Y360101D01*
X743580Y360043D01*
X743562Y359981D01*
X743533Y359923D01*
Y359919D01*
X743529Y359915D01*
X743518Y359897D01*
X743500Y359868D01*
X743475Y359832D01*
X743438Y359792D01*
X743398Y359748D01*
X743351Y359708D01*
X743296Y359668D01*
X743289Y359664D01*
X743271Y359650D01*
X743238Y359635D01*
X743191Y359610D01*
X743136Y359588D01*
X743074Y359559D01*
X743002Y359533D01*
X742921Y359511D01*
X742918D01*
X742911Y359508D01*
X742900Y359504D01*
X742881Y359501D01*
X742860Y359497D01*
X742834Y359493D01*
X742801Y359486D01*
X742765Y359482D01*
X742725Y359475D01*
X742681Y359471D01*
X742630Y359468D01*
X742579Y359460D01*
X742521Y359457D01*
X742463D01*
X742397Y359453D01*
X742328D01*
X742324D01*
X742310D01*
X742284D01*
X742255D01*
X742215Y359457D01*
X742172D01*
X742124Y359460D01*
X742073Y359464D01*
X741957Y359475D01*
X741837Y359493D01*
X741720Y359515D01*
X741666Y359530D01*
X741611Y359548D01*
X741607D01*
X741600Y359552D01*
X741586Y359559D01*
X741567Y359566D01*
X741542Y359573D01*
X741516Y359588D01*
X741455Y359617D01*
X741389Y359653D01*
X741316Y359701D01*
X741251Y359755D01*
X741189Y359821D01*
Y359824D01*
X741182Y359828D01*
X741174Y359839D01*
X741167Y359854D01*
X741156Y359872D01*
X741142Y359890D01*
X741116Y359945D01*
X741091Y360010D01*
X741065Y360087D01*
X741050Y360178D01*
X741043Y360276D01*
Y360312D01*
X741047Y360338D01*
X741050Y360367D01*
X741058Y360403D01*
X741065Y360443D01*
X741076Y360487D01*
X741091Y360531D01*
X741105Y360578D01*
X741127Y360625D01*
X741152Y360673D01*
X741182Y360720D01*
X741218Y360767D01*
X741258Y360811D01*
X741302Y360851D01*
X741305Y360855D01*
X741316Y360862D01*
X741334Y360873D01*
X741364Y360891D01*
X741396Y360909D01*
X741440Y360927D01*
X741491Y360953D01*
X741549Y360975D01*
X741615Y360997D01*
X741691Y361018D01*
X741775Y361040D01*
X741869Y361058D01*
X741971Y361077D01*
X742081Y361088D01*
X742201Y361095D01*
X742328Y361099D01*
X742332D01*
X742346D01*
X742372D01*
X742401D01*
X742441Y361095D01*
D02*
G37*
G36*
X743573Y357488D02*
X743329D01*
X743326Y357491D01*
X743318Y357499D01*
X743304Y357513D01*
X743282Y357528D01*
X743256Y357550D01*
X743227Y357579D01*
X743191Y357608D01*
X743147Y357641D01*
X743104Y357673D01*
X743052Y357713D01*
X742994Y357753D01*
X742936Y357793D01*
X742871Y357837D01*
X742801Y357881D01*
X742725Y357924D01*
X742649Y357968D01*
X742645Y357972D01*
X742630Y357979D01*
X742608Y357990D01*
X742576Y358008D01*
X742536Y358026D01*
X742492Y358048D01*
X742441Y358074D01*
X742383Y358099D01*
X742317Y358128D01*
X742252Y358161D01*
X742179Y358190D01*
X742102Y358219D01*
X741946Y358278D01*
X741779Y358332D01*
X741775D01*
X741764Y358336D01*
X741746Y358339D01*
X741724Y358347D01*
X741695Y358354D01*
X741658Y358361D01*
X741618Y358372D01*
X741575Y358379D01*
X741524Y358390D01*
X741469Y358401D01*
X741353Y358419D01*
X741225Y358438D01*
X741087Y358449D01*
Y358765D01*
X741091D01*
X741102D01*
X741116D01*
X741138Y358762D01*
X741167D01*
X741203Y358758D01*
X741244Y358754D01*
X741287Y358751D01*
X741338Y358743D01*
X741389Y358736D01*
X741451Y358725D01*
X741513Y358714D01*
X741578Y358703D01*
X741651Y358689D01*
X741800Y358652D01*
X741804D01*
X741819Y358649D01*
X741840Y358642D01*
X741873Y358631D01*
X741910Y358620D01*
X741953Y358605D01*
X742004Y358591D01*
X742059Y358569D01*
X742121Y358547D01*
X742183Y358525D01*
X742321Y358470D01*
X742466Y358405D01*
X742612Y358332D01*
X742616Y358328D01*
X742630Y358321D01*
X742649Y358310D01*
X742678Y358296D01*
X742710Y358278D01*
X742750Y358252D01*
X742794Y358226D01*
X742841Y358197D01*
X742947Y358128D01*
X743056Y358055D01*
X743169Y357972D01*
X743275Y357884D01*
Y359118D01*
X743573D01*
Y357488D01*
D02*
G37*
G36*
X442069Y208515D02*
X442112D01*
X442160Y208511D01*
X442211Y208508D01*
X442327Y208497D01*
X442447Y208479D01*
X442564Y208457D01*
X442618Y208442D01*
X442673Y208424D01*
X442677D01*
X442684Y208420D01*
X442698Y208413D01*
X442717Y208406D01*
X442742Y208399D01*
X442768Y208384D01*
X442830Y208355D01*
X442895Y208319D01*
X442968Y208271D01*
X443033Y208217D01*
X443095Y208151D01*
Y208148D01*
X443103Y208144D01*
X443110Y208133D01*
X443117Y208118D01*
X443128Y208100D01*
X443143Y208082D01*
X443168Y208027D01*
X443193Y207962D01*
X443219Y207885D01*
X443234Y207794D01*
X443241Y207696D01*
Y207660D01*
X443237Y207634D01*
X443234Y207605D01*
X443226Y207569D01*
X443219Y207529D01*
X443208Y207485D01*
X443193Y207441D01*
X443179Y207394D01*
X443157Y207347D01*
X443132Y207299D01*
X443103Y207252D01*
X443066Y207205D01*
X443026Y207161D01*
X442982Y207121D01*
X442979Y207117D01*
X442968Y207110D01*
X442950Y207099D01*
X442920Y207081D01*
X442888Y207063D01*
X442844Y207045D01*
X442793Y207019D01*
X442735Y206997D01*
X442669Y206975D01*
X442593Y206954D01*
X442509Y206932D01*
X442415Y206913D01*
X442313Y206895D01*
X442204Y206884D01*
X442083Y206877D01*
X441956Y206873D01*
X441952D01*
X441938D01*
X441912D01*
X441883D01*
X441843Y206877D01*
X441799D01*
X441752Y206881D01*
X441698Y206884D01*
X441585Y206895D01*
X441465Y206913D01*
X441344Y206935D01*
X441290Y206950D01*
X441235Y206964D01*
X441232D01*
X441224Y206968D01*
X441210Y206975D01*
X441191Y206983D01*
X441166Y206990D01*
X441141Y207004D01*
X441079Y207034D01*
X441013Y207070D01*
X440944Y207117D01*
X440875Y207172D01*
X440817Y207238D01*
Y207241D01*
X440809Y207245D01*
X440802Y207256D01*
X440795Y207270D01*
X440780Y207289D01*
X440769Y207310D01*
X440740Y207365D01*
X440715Y207430D01*
X440689Y207507D01*
X440675Y207598D01*
X440667Y207696D01*
Y207729D01*
X440671Y207769D01*
X440678Y207816D01*
X440689Y207871D01*
X440704Y207929D01*
X440722Y207991D01*
X440751Y208049D01*
Y208053D01*
X440755Y208056D01*
X440766Y208075D01*
X440784Y208104D01*
X440809Y208140D01*
X440846Y208180D01*
X440886Y208224D01*
X440933Y208264D01*
X440988Y208304D01*
X440995Y208308D01*
X441013Y208322D01*
X441046Y208337D01*
X441093Y208362D01*
X441148Y208384D01*
X441210Y208413D01*
X441283Y208439D01*
X441363Y208460D01*
X441366D01*
X441373Y208464D01*
X441385Y208468D01*
X441403Y208471D01*
X441425Y208475D01*
X441450Y208479D01*
X441483Y208486D01*
X441519Y208490D01*
X441559Y208497D01*
X441603Y208501D01*
X441654Y208504D01*
X441705Y208511D01*
X441763Y208515D01*
X441821D01*
X441887Y208519D01*
X441956D01*
X441960D01*
X441974D01*
X442000D01*
X442029D01*
X442069Y208515D01*
D02*
G37*
G36*
Y206557D02*
X442112D01*
X442160Y206553D01*
X442211Y206550D01*
X442327Y206539D01*
X442447Y206520D01*
X442564Y206499D01*
X442618Y206484D01*
X442673Y206466D01*
X442677D01*
X442684Y206462D01*
X442698Y206455D01*
X442717Y206448D01*
X442742Y206440D01*
X442768Y206426D01*
X442830Y206397D01*
X442895Y206360D01*
X442968Y206313D01*
X443033Y206258D01*
X443095Y206193D01*
Y206189D01*
X443103Y206186D01*
X443110Y206175D01*
X443117Y206160D01*
X443128Y206142D01*
X443143Y206124D01*
X443168Y206069D01*
X443193Y206003D01*
X443219Y205927D01*
X443234Y205836D01*
X443241Y205738D01*
Y205701D01*
X443237Y205676D01*
X443234Y205647D01*
X443226Y205610D01*
X443219Y205570D01*
X443208Y205527D01*
X443193Y205483D01*
X443179Y205436D01*
X443157Y205388D01*
X443132Y205341D01*
X443103Y205294D01*
X443066Y205246D01*
X443026Y205203D01*
X442982Y205163D01*
X442979Y205159D01*
X442968Y205152D01*
X442950Y205141D01*
X442920Y205123D01*
X442888Y205104D01*
X442844Y205086D01*
X442793Y205061D01*
X442735Y205039D01*
X442669Y205017D01*
X442593Y204995D01*
X442509Y204973D01*
X442415Y204955D01*
X442313Y204937D01*
X442204Y204926D01*
X442083Y204919D01*
X441956Y204915D01*
X441952D01*
X441938D01*
X441912D01*
X441883D01*
X441843Y204919D01*
X441799D01*
X441752Y204922D01*
X441698Y204926D01*
X441585Y204937D01*
X441465Y204955D01*
X441344Y204977D01*
X441290Y204992D01*
X441235Y205006D01*
X441232D01*
X441224Y205010D01*
X441210Y205017D01*
X441191Y205024D01*
X441166Y205032D01*
X441141Y205046D01*
X441079Y205075D01*
X441013Y205112D01*
X440944Y205159D01*
X440875Y205214D01*
X440817Y205279D01*
Y205283D01*
X440809Y205287D01*
X440802Y205297D01*
X440795Y205312D01*
X440780Y205330D01*
X440769Y205352D01*
X440740Y205407D01*
X440715Y205472D01*
X440689Y205549D01*
X440675Y205640D01*
X440667Y205738D01*
Y205771D01*
X440671Y205811D01*
X440678Y205858D01*
X440689Y205912D01*
X440704Y205971D01*
X440722Y206033D01*
X440751Y206091D01*
Y206095D01*
X440755Y206098D01*
X440766Y206116D01*
X440784Y206146D01*
X440809Y206182D01*
X440846Y206222D01*
X440886Y206266D01*
X440933Y206306D01*
X440988Y206346D01*
X440995Y206349D01*
X441013Y206364D01*
X441046Y206379D01*
X441093Y206404D01*
X441148Y206426D01*
X441210Y206455D01*
X441283Y206480D01*
X441363Y206502D01*
X441366D01*
X441373Y206506D01*
X441385Y206509D01*
X441403Y206513D01*
X441425Y206517D01*
X441450Y206520D01*
X441483Y206528D01*
X441519Y206531D01*
X441559Y206539D01*
X441603Y206542D01*
X441654Y206546D01*
X441705Y206553D01*
X441763Y206557D01*
X441821D01*
X441887Y206560D01*
X441956D01*
X441960D01*
X441974D01*
X442000D01*
X442029D01*
X442069Y206557D01*
D02*
G37*
G36*
X442007Y204609D02*
X442054D01*
X442109Y204606D01*
X442163Y204598D01*
X442287Y204588D01*
X442418Y204569D01*
X442542Y204544D01*
X442604Y204526D01*
X442659Y204507D01*
X442662D01*
X442669Y204504D01*
X442684Y204497D01*
X442706Y204489D01*
X442728Y204478D01*
X442757Y204464D01*
X442819Y204427D01*
X442888Y204384D01*
X442961Y204333D01*
X443030Y204267D01*
X443092Y204194D01*
Y204191D01*
X443099Y204184D01*
X443106Y204173D01*
X443114Y204158D01*
X443124Y204136D01*
X443139Y204114D01*
X443153Y204085D01*
X443164Y204056D01*
X443193Y203987D01*
X443219Y203903D01*
X443234Y203812D01*
X443241Y203710D01*
Y203681D01*
X443237Y203663D01*
Y203638D01*
X443234Y203608D01*
X443219Y203539D01*
X443201Y203463D01*
X443172Y203383D01*
X443132Y203303D01*
X443106Y203263D01*
X443077Y203226D01*
X443073Y203223D01*
X443070Y203219D01*
X443059Y203208D01*
X443048Y203197D01*
X443030Y203183D01*
X443008Y203164D01*
X442957Y203128D01*
X442891Y203092D01*
X442811Y203055D01*
X442720Y203026D01*
X442615Y203004D01*
X442589Y203303D01*
X442593D01*
X442600Y203306D01*
X442607D01*
X442622Y203310D01*
X442662Y203321D01*
X442706Y203335D01*
X442757Y203354D01*
X442808Y203379D01*
X442855Y203408D01*
X442895Y203445D01*
X442899Y203448D01*
X442910Y203463D01*
X442924Y203488D01*
X442939Y203517D01*
X442957Y203557D01*
X442972Y203605D01*
X442982Y203659D01*
X442986Y203718D01*
Y203743D01*
X442982Y203769D01*
X442979Y203801D01*
X442972Y203841D01*
X442961Y203881D01*
X442946Y203925D01*
X442924Y203965D01*
X442920Y203969D01*
X442913Y203983D01*
X442899Y204005D01*
X442877Y204027D01*
X442851Y204056D01*
X442822Y204085D01*
X442790Y204114D01*
X442750Y204144D01*
X442746Y204147D01*
X442728Y204154D01*
X442702Y204169D01*
X442669Y204184D01*
X442626Y204202D01*
X442575Y204220D01*
X442517Y204238D01*
X442451Y204256D01*
X442447D01*
X442444Y204260D01*
X442433D01*
X442418Y204264D01*
X442382Y204271D01*
X442335Y204282D01*
X442276Y204289D01*
X442214Y204296D01*
X442145Y204300D01*
X442072Y204304D01*
X442069D01*
X442058D01*
X442040D01*
X442010D01*
X442018Y204300D01*
X442036Y204285D01*
X442062Y204264D01*
X442098Y204238D01*
X442134Y204202D01*
X442174Y204158D01*
X442214Y204107D01*
X442251Y204049D01*
X442254Y204042D01*
X442265Y204020D01*
X442280Y203987D01*
X442295Y203947D01*
X442313Y203892D01*
X442327Y203834D01*
X442338Y203769D01*
X442342Y203699D01*
Y203670D01*
X442338Y203648D01*
X442335Y203619D01*
X442331Y203590D01*
X442324Y203554D01*
X442313Y203517D01*
X442287Y203434D01*
X442269Y203390D01*
X442247Y203346D01*
X442222Y203299D01*
X442189Y203255D01*
X442156Y203212D01*
X442116Y203172D01*
X442112Y203168D01*
X442105Y203161D01*
X442094Y203153D01*
X442076Y203139D01*
X442051Y203121D01*
X442025Y203102D01*
X441992Y203084D01*
X441956Y203066D01*
X441916Y203044D01*
X441872Y203026D01*
X441821Y203008D01*
X441770Y202990D01*
X441712Y202975D01*
X441650Y202968D01*
X441588Y202960D01*
X441519Y202957D01*
X441515D01*
X441501D01*
X441483D01*
X441457Y202960D01*
X441425Y202964D01*
X441385Y202968D01*
X441344Y202975D01*
X441297Y202986D01*
X441202Y203011D01*
X441152Y203030D01*
X441097Y203051D01*
X441046Y203077D01*
X440999Y203110D01*
X440948Y203142D01*
X440904Y203183D01*
X440900Y203186D01*
X440893Y203193D01*
X440882Y203204D01*
X440868Y203223D01*
X440849Y203244D01*
X440828Y203274D01*
X440809Y203303D01*
X440784Y203339D01*
X440762Y203376D01*
X440744Y203419D01*
X440704Y203517D01*
X440689Y203568D01*
X440678Y203627D01*
X440671Y203685D01*
X440667Y203747D01*
Y203772D01*
X440671Y203790D01*
Y203809D01*
X440675Y203834D01*
X440686Y203896D01*
X440700Y203965D01*
X440726Y204042D01*
X440758Y204118D01*
X440802Y204194D01*
Y204198D01*
X440809Y204202D01*
X440817Y204213D01*
X440828Y204227D01*
X440857Y204264D01*
X440897Y204311D01*
X440951Y204358D01*
X441017Y204413D01*
X441093Y204460D01*
X441181Y204504D01*
X441184D01*
X441191Y204507D01*
X441206Y204515D01*
X441224Y204522D01*
X441250Y204529D01*
X441283Y204540D01*
X441319Y204548D01*
X441359Y204558D01*
X441406Y204569D01*
X441461Y204580D01*
X441519Y204588D01*
X441581Y204595D01*
X441650Y204602D01*
X441723Y204609D01*
X441803Y204613D01*
X441887D01*
X441890D01*
X441909D01*
X441934D01*
X441967D01*
X442007Y204609D01*
D02*
G37*
G36*
X443394Y202586D02*
Y202582D01*
X443390Y202575D01*
X443383Y202560D01*
X443375Y202538D01*
X443365Y202513D01*
X443350Y202484D01*
X443335Y202451D01*
X443317Y202414D01*
X443274Y202334D01*
X443223Y202243D01*
X443157Y202145D01*
X443084Y202043D01*
Y202040D01*
X443092Y202032D01*
X443099Y202014D01*
X443110Y201996D01*
X443121Y201967D01*
X443135Y201938D01*
X443146Y201901D01*
X443161Y201861D01*
X443175Y201817D01*
X443190Y201770D01*
X443215Y201665D01*
X443234Y201548D01*
X443237Y201486D01*
X443241Y201424D01*
Y201392D01*
X443237Y201366D01*
Y201337D01*
X443234Y201301D01*
X443226Y201261D01*
X443219Y201217D01*
X443201Y201122D01*
X443172Y201017D01*
X443132Y200907D01*
X443106Y200857D01*
X443077Y200802D01*
X443073Y200798D01*
X443070Y200791D01*
X443059Y200777D01*
X443048Y200758D01*
X443030Y200733D01*
X443008Y200707D01*
X442957Y200645D01*
X442891Y200576D01*
X442811Y200507D01*
X442720Y200438D01*
X442615Y200376D01*
X442611D01*
X442600Y200369D01*
X442586Y200361D01*
X442564Y200354D01*
X442535Y200343D01*
X442502Y200329D01*
X442462Y200314D01*
X442418Y200303D01*
X442371Y200289D01*
X442320Y200274D01*
X442265Y200263D01*
X442204Y200249D01*
X442076Y200234D01*
X441941Y200227D01*
X441938D01*
X441923D01*
X441905D01*
X441880Y200231D01*
X441847D01*
X441807Y200234D01*
X441763Y200238D01*
X441716Y200245D01*
X441610Y200263D01*
X441497Y200289D01*
X441377Y200325D01*
X441261Y200376D01*
X441257Y200380D01*
X441246Y200383D01*
X441232Y200391D01*
X441210Y200405D01*
X441184Y200420D01*
X441155Y200438D01*
X441086Y200489D01*
X441013Y200547D01*
X440937Y200624D01*
X440860Y200707D01*
X440795Y200806D01*
X440791Y200809D01*
X440788Y200820D01*
X440780Y200835D01*
X440769Y200857D01*
X440758Y200882D01*
X440744Y200911D01*
X440729Y200948D01*
X440715Y200988D01*
X440700Y201035D01*
X440686Y201082D01*
X440660Y201188D01*
X440642Y201304D01*
X440635Y201366D01*
Y201465D01*
X440638Y201490D01*
Y201523D01*
X440642Y201555D01*
X440649Y201599D01*
X440657Y201643D01*
X440675Y201737D01*
X440704Y201847D01*
X440747Y201952D01*
X440773Y202007D01*
X440802Y202061D01*
X440806Y202065D01*
X440809Y202072D01*
X440820Y202087D01*
X440831Y202109D01*
X440849Y202131D01*
X440871Y202160D01*
X440922Y202222D01*
X440988Y202287D01*
X441068Y202360D01*
X441162Y202429D01*
X441268Y202487D01*
X441272D01*
X441283Y202495D01*
X441297Y202502D01*
X441319Y202509D01*
X441348Y202524D01*
X441381Y202535D01*
X441421Y202549D01*
X441465Y202564D01*
X441512Y202575D01*
X441563Y202589D01*
X441617Y202604D01*
X441676Y202615D01*
X441803Y202629D01*
X441938Y202637D01*
X441941D01*
X441952D01*
X441967D01*
X441989D01*
X442018Y202633D01*
X442051D01*
X442087Y202629D01*
X442123Y202626D01*
X442211Y202615D01*
X442305Y202596D01*
X442404Y202575D01*
X442498Y202542D01*
X442502D01*
X442509Y202538D01*
X442524Y202531D01*
X442538Y202524D01*
X442560Y202513D01*
X442586Y202502D01*
X442644Y202473D01*
X442713Y202433D01*
X442786Y202382D01*
X442859Y202324D01*
X442932Y202258D01*
Y202262D01*
X442939Y202269D01*
X442946Y202280D01*
X442957Y202298D01*
X442972Y202316D01*
X442986Y202342D01*
X443019Y202396D01*
X443059Y202462D01*
X443099Y202535D01*
X443132Y202611D01*
X443164Y202684D01*
X443394Y202586D01*
D02*
G37*
G36*
X611768Y112577D02*
X611798Y112574D01*
X611830Y112566D01*
X611867Y112559D01*
X611907Y112552D01*
X611994Y112522D01*
X612041Y112501D01*
X612085Y112479D01*
X612132Y112450D01*
X612180Y112417D01*
X612227Y112381D01*
X612271Y112337D01*
X612274Y112333D01*
X612282Y112326D01*
X612293Y112311D01*
X612307Y112293D01*
X612325Y112271D01*
X612344Y112242D01*
X612365Y112209D01*
X612384Y112169D01*
X612405Y112129D01*
X612427Y112082D01*
X612445Y112035D01*
X612464Y111980D01*
X612478Y111922D01*
X612489Y111860D01*
X612496Y111798D01*
X612500Y111729D01*
Y111696D01*
X612496Y111674D01*
X612493Y111645D01*
X612489Y111612D01*
X612482Y111576D01*
X612474Y111536D01*
X612453Y111449D01*
X612416Y111358D01*
X612395Y111310D01*
X612369Y111267D01*
X612336Y111223D01*
X612303Y111179D01*
X612300Y111176D01*
X612293Y111168D01*
X612282Y111158D01*
X612267Y111147D01*
X612249Y111128D01*
X612223Y111110D01*
X612198Y111088D01*
X612165Y111066D01*
X612129Y111045D01*
X612092Y111023D01*
X612005Y110983D01*
X611903Y110950D01*
X611848Y110939D01*
X611790Y110932D01*
X611750Y111241D01*
X611754D01*
X611761Y111245D01*
X611776Y111249D01*
X611794Y111252D01*
X611816Y111256D01*
X611841Y111263D01*
X611896Y111281D01*
X611961Y111307D01*
X612023Y111339D01*
X612081Y111376D01*
X612132Y111420D01*
X612136Y111427D01*
X612151Y111441D01*
X612169Y111471D01*
X612187Y111507D01*
X612209Y111551D01*
X612227Y111605D01*
X612242Y111667D01*
X612245Y111733D01*
Y111755D01*
X612242Y111769D01*
X612238Y111809D01*
X612227Y111860D01*
X612209Y111918D01*
X612183Y111980D01*
X612147Y112042D01*
X612096Y112100D01*
X612089Y112108D01*
X612067Y112126D01*
X612034Y112148D01*
X611990Y112177D01*
X611936Y112206D01*
X611874Y112228D01*
X611801Y112246D01*
X611721Y112253D01*
X611717D01*
X611710D01*
X611699D01*
X611685Y112250D01*
X611645Y112246D01*
X611597Y112235D01*
X611539Y112220D01*
X611481Y112195D01*
X611423Y112159D01*
X611368Y112111D01*
X611361Y112104D01*
X611346Y112086D01*
X611324Y112057D01*
X611299Y112017D01*
X611273Y111966D01*
X611251Y111904D01*
X611237Y111835D01*
X611230Y111758D01*
Y111725D01*
X611233Y111700D01*
X611237Y111667D01*
X611244Y111631D01*
X611251Y111587D01*
X611262Y111540D01*
X610989Y111576D01*
Y111594D01*
X610993Y111609D01*
Y111656D01*
X610986Y111696D01*
X610979Y111744D01*
X610968Y111798D01*
X610949Y111860D01*
X610924Y111918D01*
X610891Y111980D01*
Y111984D01*
X610887Y111987D01*
X610873Y112006D01*
X610848Y112031D01*
X610815Y112060D01*
X610767Y112089D01*
X610713Y112115D01*
X610651Y112133D01*
X610614Y112140D01*
X610574D01*
X610571D01*
X610567D01*
X610545D01*
X610516Y112133D01*
X610476Y112126D01*
X610432Y112111D01*
X610385Y112093D01*
X610338Y112064D01*
X610294Y112024D01*
X610290Y112020D01*
X610276Y112002D01*
X610258Y111977D01*
X610236Y111944D01*
X610218Y111900D01*
X610199Y111849D01*
X610185Y111791D01*
X610181Y111725D01*
Y111696D01*
X610189Y111663D01*
X610196Y111620D01*
X610211Y111573D01*
X610229Y111525D01*
X610258Y111474D01*
X610294Y111427D01*
X610298Y111423D01*
X610316Y111409D01*
X610342Y111387D01*
X610378Y111361D01*
X610425Y111336D01*
X610484Y111310D01*
X610553Y111289D01*
X610633Y111274D01*
X610578Y110965D01*
X610574D01*
X610564Y110968D01*
X610549Y110972D01*
X610527Y110976D01*
X610502Y110983D01*
X610472Y110994D01*
X610403Y111016D01*
X610323Y111052D01*
X610243Y111096D01*
X610167Y111150D01*
X610098Y111219D01*
X610094Y111223D01*
X610090Y111230D01*
X610083Y111241D01*
X610072Y111256D01*
X610058Y111274D01*
X610043Y111300D01*
X610029Y111325D01*
X610010Y111358D01*
X609981Y111431D01*
X609952Y111514D01*
X609934Y111612D01*
X609927Y111663D01*
Y111755D01*
X609930Y111794D01*
X609937Y111842D01*
X609948Y111900D01*
X609967Y111966D01*
X609988Y112031D01*
X610018Y112097D01*
Y112100D01*
X610021Y112104D01*
X610032Y112126D01*
X610054Y112159D01*
X610079Y112195D01*
X610116Y112239D01*
X610156Y112282D01*
X610203Y112326D01*
X610258Y112362D01*
X610265Y112366D01*
X610283Y112377D01*
X610316Y112391D01*
X610356Y112410D01*
X610403Y112428D01*
X610458Y112442D01*
X610520Y112453D01*
X610582Y112457D01*
X610589D01*
X610611D01*
X610640Y112453D01*
X610680Y112446D01*
X610727Y112435D01*
X610778Y112417D01*
X610829Y112395D01*
X610880Y112366D01*
X610887Y112362D01*
X610902Y112351D01*
X610927Y112330D01*
X610957Y112301D01*
X610989Y112264D01*
X611026Y112220D01*
X611059Y112169D01*
X611091Y112108D01*
Y112111D01*
X611095Y112118D01*
X611099Y112129D01*
X611102Y112144D01*
X611117Y112184D01*
X611139Y112235D01*
X611168Y112293D01*
X611204Y112351D01*
X611251Y112406D01*
X611306Y112457D01*
X611313Y112461D01*
X611335Y112475D01*
X611372Y112497D01*
X611419Y112519D01*
X611477Y112541D01*
X611546Y112563D01*
X611626Y112577D01*
X611714Y112581D01*
X611717D01*
X611728D01*
X611747D01*
X611768Y112577D01*
D02*
G37*
G36*
X611328Y110611D02*
X611372D01*
X611419Y110608D01*
X611470Y110604D01*
X611586Y110593D01*
X611706Y110575D01*
X611823Y110553D01*
X611878Y110539D01*
X611932Y110521D01*
X611936D01*
X611943Y110517D01*
X611958Y110510D01*
X611976Y110502D01*
X612001Y110495D01*
X612027Y110480D01*
X612089Y110451D01*
X612154Y110415D01*
X612227Y110368D01*
X612293Y110313D01*
X612354Y110248D01*
Y110244D01*
X612362Y110240D01*
X612369Y110229D01*
X612376Y110215D01*
X612387Y110197D01*
X612402Y110178D01*
X612427Y110124D01*
X612453Y110058D01*
X612478Y109982D01*
X612493Y109891D01*
X612500Y109792D01*
Y109756D01*
X612496Y109731D01*
X612493Y109702D01*
X612486Y109665D01*
X612478Y109625D01*
X612467Y109581D01*
X612453Y109538D01*
X612438Y109490D01*
X612416Y109443D01*
X612391Y109396D01*
X612362Y109348D01*
X612325Y109301D01*
X612285Y109257D01*
X612242Y109217D01*
X612238Y109214D01*
X612227Y109206D01*
X612209Y109196D01*
X612180Y109177D01*
X612147Y109159D01*
X612103Y109141D01*
X612052Y109116D01*
X611994Y109094D01*
X611929Y109072D01*
X611852Y109050D01*
X611768Y109028D01*
X611674Y109010D01*
X611572Y108992D01*
X611463Y108981D01*
X611342Y108974D01*
X611215Y108970D01*
X611211D01*
X611197D01*
X611171D01*
X611142D01*
X611102Y108974D01*
X611059D01*
X611011Y108977D01*
X610957Y108981D01*
X610844Y108992D01*
X610724Y109010D01*
X610604Y109032D01*
X610549Y109046D01*
X610494Y109061D01*
X610491D01*
X610484Y109064D01*
X610469Y109072D01*
X610451Y109079D01*
X610425Y109086D01*
X610400Y109101D01*
X610338Y109130D01*
X610272Y109166D01*
X610203Y109214D01*
X610134Y109268D01*
X610076Y109334D01*
Y109337D01*
X610069Y109341D01*
X610061Y109352D01*
X610054Y109367D01*
X610039Y109385D01*
X610029Y109407D01*
X609999Y109461D01*
X609974Y109527D01*
X609948Y109603D01*
X609934Y109694D01*
X609927Y109792D01*
Y109825D01*
X609930Y109865D01*
X609937Y109913D01*
X609948Y109967D01*
X609963Y110026D01*
X609981Y110087D01*
X610010Y110146D01*
Y110149D01*
X610014Y110153D01*
X610025Y110171D01*
X610043Y110200D01*
X610069Y110237D01*
X610105Y110277D01*
X610145Y110320D01*
X610192Y110360D01*
X610247Y110400D01*
X610254Y110404D01*
X610272Y110419D01*
X610305Y110433D01*
X610352Y110459D01*
X610407Y110480D01*
X610469Y110510D01*
X610542Y110535D01*
X610622Y110557D01*
X610625D01*
X610633Y110561D01*
X610644Y110564D01*
X610662Y110568D01*
X610684Y110572D01*
X610709Y110575D01*
X610742Y110582D01*
X610778Y110586D01*
X610818Y110593D01*
X610862Y110597D01*
X610913Y110601D01*
X610964Y110608D01*
X611022Y110611D01*
X611080D01*
X611146Y110615D01*
X611215D01*
X611219D01*
X611233D01*
X611259D01*
X611288D01*
X611328Y110611D01*
D02*
G37*
G36*
X612456Y106968D02*
X612453D01*
X612438D01*
X612416D01*
X612387Y106972D01*
X612354Y106975D01*
X612318Y106982D01*
X612282Y106990D01*
X612242Y107004D01*
X612238D01*
X612234Y107008D01*
X612213Y107015D01*
X612180Y107030D01*
X612136Y107052D01*
X612085Y107081D01*
X612027Y107117D01*
X611969Y107157D01*
X611907Y107208D01*
X611903D01*
X611899Y107215D01*
X611878Y107234D01*
X611845Y107266D01*
X611798Y107314D01*
X611743Y107368D01*
X611677Y107437D01*
X611605Y107521D01*
X611528Y107612D01*
X611524Y107616D01*
X611514Y107630D01*
X611495Y107652D01*
X611474Y107678D01*
X611444Y107710D01*
X611412Y107750D01*
X611375Y107791D01*
X611335Y107838D01*
X611248Y107929D01*
X611161Y108020D01*
X611117Y108063D01*
X611073Y108104D01*
X611033Y108140D01*
X610993Y108169D01*
X610989D01*
X610986Y108176D01*
X610975Y108184D01*
X610960Y108191D01*
X610920Y108216D01*
X610873Y108246D01*
X610815Y108271D01*
X610753Y108297D01*
X610684Y108311D01*
X610618Y108318D01*
X610614D01*
X610611D01*
X610589Y108315D01*
X610553Y108311D01*
X610513Y108300D01*
X610462Y108285D01*
X610411Y108260D01*
X610360Y108227D01*
X610309Y108184D01*
X610301Y108176D01*
X610287Y108158D01*
X610269Y108133D01*
X610243Y108093D01*
X610221Y108042D01*
X610199Y107983D01*
X610185Y107914D01*
X610181Y107838D01*
Y107816D01*
X610185Y107801D01*
X610189Y107758D01*
X610199Y107707D01*
X610214Y107652D01*
X610240Y107590D01*
X610272Y107532D01*
X610316Y107477D01*
X610323Y107470D01*
X610342Y107456D01*
X610371Y107434D01*
X610414Y107412D01*
X610465Y107387D01*
X610531Y107365D01*
X610604Y107350D01*
X610687Y107343D01*
X610655Y107026D01*
X610651D01*
X610640Y107030D01*
X610622D01*
X610596Y107033D01*
X610567Y107041D01*
X610534Y107048D01*
X610494Y107059D01*
X610454Y107070D01*
X610367Y107099D01*
X610280Y107143D01*
X610236Y107168D01*
X610192Y107201D01*
X610152Y107234D01*
X610116Y107270D01*
X610112Y107274D01*
X610109Y107281D01*
X610098Y107292D01*
X610087Y107310D01*
X610072Y107332D01*
X610058Y107357D01*
X610039Y107387D01*
X610021Y107423D01*
X610003Y107463D01*
X609985Y107507D01*
X609970Y107554D01*
X609956Y107605D01*
X609945Y107659D01*
X609934Y107718D01*
X609930Y107780D01*
X609927Y107845D01*
Y107881D01*
X609930Y107907D01*
X609934Y107936D01*
X609937Y107973D01*
X609945Y108013D01*
X609952Y108053D01*
X609977Y108147D01*
X610014Y108242D01*
X610036Y108289D01*
X610061Y108336D01*
X610094Y108380D01*
X610130Y108420D01*
X610134Y108424D01*
X610138Y108431D01*
X610152Y108438D01*
X610167Y108453D01*
X610185Y108471D01*
X610211Y108489D01*
X610236Y108508D01*
X610269Y108529D01*
X610338Y108566D01*
X610425Y108602D01*
X610469Y108617D01*
X610520Y108624D01*
X610571Y108631D01*
X610625Y108635D01*
X610633D01*
X610651D01*
X610680Y108631D01*
X610720Y108628D01*
X610764Y108620D01*
X610815Y108606D01*
X610869Y108591D01*
X610924Y108570D01*
X610931Y108566D01*
X610949Y108558D01*
X610979Y108544D01*
X611019Y108522D01*
X611062Y108493D01*
X611117Y108457D01*
X611171Y108413D01*
X611233Y108362D01*
X611241Y108355D01*
X611262Y108336D01*
X611281Y108318D01*
X611299Y108300D01*
X611321Y108278D01*
X611350Y108249D01*
X611379Y108220D01*
X611412Y108184D01*
X611448Y108147D01*
X611488Y108104D01*
X611528Y108056D01*
X611576Y108005D01*
X611623Y107947D01*
X611674Y107889D01*
X611677Y107885D01*
X611685Y107878D01*
X611696Y107863D01*
X611710Y107845D01*
X611732Y107823D01*
X611754Y107798D01*
X611801Y107740D01*
X611856Y107678D01*
X611910Y107619D01*
X611958Y107569D01*
X611976Y107547D01*
X611994Y107528D01*
X611998Y107525D01*
X612009Y107514D01*
X612023Y107499D01*
X612045Y107481D01*
X612071Y107463D01*
X612096Y107441D01*
X612158Y107397D01*
Y108639D01*
X612456D01*
Y106968D01*
D02*
G37*
G36*
X611677Y106724D02*
X611699Y106717D01*
X611728Y106706D01*
X611761Y106695D01*
X611801Y106680D01*
X611845Y106662D01*
X611892Y106640D01*
X611994Y106589D01*
X612096Y106524D01*
X612147Y106484D01*
X612198Y106444D01*
X612242Y106400D01*
X612285Y106349D01*
X612289Y106345D01*
X612296Y106338D01*
X612303Y106320D01*
X612318Y106302D01*
X612336Y106273D01*
X612354Y106244D01*
X612373Y106203D01*
X612391Y106163D01*
X612413Y106116D01*
X612431Y106065D01*
X612449Y106010D01*
X612467Y105952D01*
X612482Y105890D01*
X612489Y105825D01*
X612496Y105756D01*
X612500Y105683D01*
Y105643D01*
X612496Y105614D01*
Y105581D01*
X612493Y105541D01*
X612486Y105497D01*
X612478Y105446D01*
X612460Y105341D01*
X612431Y105232D01*
X612391Y105122D01*
X612365Y105071D01*
X612336Y105020D01*
X612333Y105017D01*
X612329Y105009D01*
X612318Y104995D01*
X612303Y104980D01*
X612289Y104959D01*
X612267Y104933D01*
X612242Y104904D01*
X612213Y104875D01*
X612180Y104846D01*
X612147Y104813D01*
X612063Y104747D01*
X611965Y104686D01*
X611856Y104631D01*
X611852D01*
X611841Y104624D01*
X611823Y104620D01*
X611801Y104609D01*
X611772Y104602D01*
X611736Y104591D01*
X611696Y104576D01*
X611652Y104566D01*
X611605Y104554D01*
X611550Y104540D01*
X611437Y104522D01*
X611310Y104507D01*
X611179Y104500D01*
X611175D01*
X611161D01*
X611139D01*
X611113Y104504D01*
X611077D01*
X611040Y104507D01*
X610993Y104511D01*
X610946Y104518D01*
X610840Y104536D01*
X610724Y104562D01*
X610607Y104598D01*
X610494Y104649D01*
X610491Y104653D01*
X610480Y104657D01*
X610465Y104664D01*
X610447Y104678D01*
X610422Y104693D01*
X610393Y104711D01*
X610327Y104758D01*
X610254Y104820D01*
X610181Y104893D01*
X610109Y104977D01*
X610047Y105075D01*
X610043Y105079D01*
X610039Y105090D01*
X610032Y105104D01*
X610021Y105122D01*
X610010Y105151D01*
X609999Y105181D01*
X609985Y105217D01*
X609970Y105257D01*
X609956Y105301D01*
X609941Y105348D01*
X609919Y105450D01*
X609901Y105567D01*
X609894Y105687D01*
Y105723D01*
X609897Y105748D01*
X609901Y105781D01*
X609905Y105821D01*
X609908Y105861D01*
X609919Y105909D01*
X609941Y106007D01*
X609974Y106116D01*
X609996Y106171D01*
X610021Y106222D01*
X610054Y106273D01*
X610087Y106324D01*
X610090Y106327D01*
X610094Y106334D01*
X610105Y106349D01*
X610123Y106367D01*
X610141Y106386D01*
X610167Y106411D01*
X610196Y106436D01*
X610225Y106466D01*
X610261Y106495D01*
X610305Y106524D01*
X610349Y106556D01*
X610396Y106586D01*
X610451Y106611D01*
X610505Y106640D01*
X610564Y106662D01*
X610629Y106684D01*
X610706Y106356D01*
X610702D01*
X610695Y106353D01*
X610680Y106345D01*
X610662Y106338D01*
X610640Y106331D01*
X610611Y106320D01*
X610553Y106291D01*
X610487Y106254D01*
X610422Y106211D01*
X610360Y106156D01*
X610305Y106098D01*
X610298Y106091D01*
X610283Y106069D01*
X610265Y106032D01*
X610240Y105985D01*
X610218Y105923D01*
X610196Y105854D01*
X610181Y105770D01*
X610178Y105679D01*
Y105650D01*
X610181Y105632D01*
Y105606D01*
X610185Y105577D01*
X610196Y105508D01*
X610211Y105432D01*
X610236Y105352D01*
X610272Y105268D01*
X610320Y105192D01*
Y105188D01*
X610327Y105184D01*
X610345Y105159D01*
X610374Y105126D01*
X610418Y105086D01*
X610472Y105039D01*
X610534Y104995D01*
X610611Y104955D01*
X610695Y104919D01*
X610698D01*
X610706Y104915D01*
X610716Y104911D01*
X610735Y104908D01*
X610756Y104900D01*
X610782Y104893D01*
X610844Y104882D01*
X610917Y104868D01*
X610997Y104853D01*
X611084Y104846D01*
X611179Y104842D01*
X611182D01*
X611193D01*
X611211D01*
X611233D01*
X611259Y104846D01*
X611292D01*
X611328Y104849D01*
X611368Y104853D01*
X611455Y104864D01*
X611550Y104882D01*
X611645Y104904D01*
X611739Y104933D01*
X611743D01*
X611750Y104937D01*
X611761Y104944D01*
X611779Y104951D01*
X611823Y104973D01*
X611874Y105006D01*
X611932Y105046D01*
X611994Y105097D01*
X612049Y105155D01*
X612100Y105224D01*
Y105228D01*
X612103Y105235D01*
X612111Y105246D01*
X612118Y105261D01*
X612125Y105279D01*
X612136Y105301D01*
X612158Y105352D01*
X612180Y105417D01*
X612198Y105490D01*
X612213Y105570D01*
X612216Y105654D01*
Y105679D01*
X612213Y105701D01*
Y105727D01*
X612209Y105752D01*
X612194Y105818D01*
X612176Y105894D01*
X612147Y105971D01*
X612107Y106051D01*
X612085Y106091D01*
X612056Y106127D01*
X612052Y106131D01*
X612049Y106134D01*
X612038Y106145D01*
X612027Y106160D01*
X612009Y106174D01*
X611987Y106193D01*
X611965Y106214D01*
X611936Y106233D01*
X611903Y106254D01*
X611867Y106280D01*
X611830Y106302D01*
X611787Y106324D01*
X611739Y106342D01*
X611688Y106360D01*
X611634Y106378D01*
X611576Y106393D01*
X611659Y106728D01*
X611663D01*
X611677Y106724D01*
D02*
G37*
G36*
X662510Y201402D02*
X661745Y201108D01*
Y200052D01*
X662510Y199779D01*
Y199426D01*
X659991Y200387D01*
Y200751D01*
X662510Y201781D01*
Y201402D01*
D02*
G37*
G36*
X663209Y197417D02*
X662987D01*
Y199466D01*
X663209D01*
Y197417D01*
D02*
G37*
G36*
X661381Y197300D02*
X661425D01*
X661472Y197297D01*
X661523Y197293D01*
X661640Y197282D01*
X661760Y197264D01*
X661876Y197242D01*
X661931Y197227D01*
X661986Y197209D01*
X661989D01*
X661997Y197206D01*
X662011Y197198D01*
X662029Y197191D01*
X662055Y197184D01*
X662080Y197169D01*
X662142Y197140D01*
X662208Y197104D01*
X662281Y197056D01*
X662346Y197002D01*
X662408Y196936D01*
Y196933D01*
X662415Y196929D01*
X662423Y196918D01*
X662430Y196904D01*
X662441Y196885D01*
X662455Y196867D01*
X662481Y196812D01*
X662506Y196747D01*
X662532Y196670D01*
X662546Y196580D01*
X662554Y196481D01*
Y196445D01*
X662550Y196419D01*
X662546Y196390D01*
X662539Y196354D01*
X662532Y196314D01*
X662521Y196270D01*
X662506Y196226D01*
X662492Y196179D01*
X662470Y196132D01*
X662444Y196084D01*
X662415Y196037D01*
X662379Y195990D01*
X662339Y195946D01*
X662295Y195906D01*
X662291Y195903D01*
X662281Y195895D01*
X662262Y195884D01*
X662233Y195866D01*
X662200Y195848D01*
X662157Y195830D01*
X662106Y195804D01*
X662047Y195782D01*
X661982Y195761D01*
X661906Y195739D01*
X661822Y195717D01*
X661727Y195699D01*
X661625Y195680D01*
X661516Y195669D01*
X661396Y195662D01*
X661269Y195659D01*
X661265D01*
X661250D01*
X661225D01*
X661196D01*
X661156Y195662D01*
X661112D01*
X661065Y195666D01*
X661010Y195669D01*
X660897Y195680D01*
X660777Y195699D01*
X660657Y195721D01*
X660603Y195735D01*
X660548Y195750D01*
X660544D01*
X660537Y195753D01*
X660522Y195761D01*
X660504Y195768D01*
X660479Y195775D01*
X660453Y195790D01*
X660391Y195819D01*
X660326Y195855D01*
X660257Y195903D01*
X660187Y195957D01*
X660129Y196023D01*
Y196026D01*
X660122Y196030D01*
X660115Y196041D01*
X660107Y196055D01*
X660093Y196074D01*
X660082Y196095D01*
X660053Y196150D01*
X660027Y196215D01*
X660002Y196292D01*
X659987Y196383D01*
X659980Y196481D01*
Y196514D01*
X659984Y196554D01*
X659991Y196601D01*
X660002Y196656D01*
X660016Y196714D01*
X660035Y196776D01*
X660064Y196834D01*
Y196838D01*
X660067Y196842D01*
X660078Y196860D01*
X660097Y196889D01*
X660122Y196925D01*
X660158Y196965D01*
X660198Y197009D01*
X660246Y197049D01*
X660300Y197089D01*
X660308Y197093D01*
X660326Y197107D01*
X660359Y197122D01*
X660406Y197147D01*
X660461Y197169D01*
X660522Y197198D01*
X660595Y197224D01*
X660675Y197246D01*
X660679D01*
X660686Y197249D01*
X660697Y197253D01*
X660715Y197257D01*
X660737Y197260D01*
X660763Y197264D01*
X660795Y197271D01*
X660832Y197275D01*
X660872Y197282D01*
X660916Y197286D01*
X660966Y197289D01*
X661017Y197297D01*
X661076Y197300D01*
X661134D01*
X661199Y197304D01*
X661269D01*
X661272D01*
X661287D01*
X661312D01*
X661341D01*
X661381Y197300D01*
D02*
G37*
G36*
Y195342D02*
X661425D01*
X661472Y195338D01*
X661523Y195335D01*
X661640Y195324D01*
X661760Y195306D01*
X661876Y195284D01*
X661931Y195269D01*
X661986Y195251D01*
X661989D01*
X661997Y195247D01*
X662011Y195240D01*
X662029Y195233D01*
X662055Y195225D01*
X662080Y195211D01*
X662142Y195182D01*
X662208Y195145D01*
X662281Y195098D01*
X662346Y195043D01*
X662408Y194978D01*
Y194974D01*
X662415Y194971D01*
X662423Y194960D01*
X662430Y194945D01*
X662441Y194927D01*
X662455Y194909D01*
X662481Y194854D01*
X662506Y194789D01*
X662532Y194712D01*
X662546Y194621D01*
X662554Y194523D01*
Y194486D01*
X662550Y194461D01*
X662546Y194432D01*
X662539Y194395D01*
X662532Y194355D01*
X662521Y194312D01*
X662506Y194268D01*
X662492Y194221D01*
X662470Y194174D01*
X662444Y194126D01*
X662415Y194079D01*
X662379Y194032D01*
X662339Y193988D01*
X662295Y193948D01*
X662291Y193944D01*
X662281Y193937D01*
X662262Y193926D01*
X662233Y193908D01*
X662200Y193890D01*
X662157Y193871D01*
X662106Y193846D01*
X662047Y193824D01*
X661982Y193802D01*
X661906Y193780D01*
X661822Y193758D01*
X661727Y193740D01*
X661625Y193722D01*
X661516Y193711D01*
X661396Y193704D01*
X661269Y193700D01*
X661265D01*
X661250D01*
X661225D01*
X661196D01*
X661156Y193704D01*
X661112D01*
X661065Y193708D01*
X661010Y193711D01*
X660897Y193722D01*
X660777Y193740D01*
X660657Y193762D01*
X660603Y193777D01*
X660548Y193791D01*
X660544D01*
X660537Y193795D01*
X660522Y193802D01*
X660504Y193809D01*
X660479Y193817D01*
X660453Y193831D01*
X660391Y193860D01*
X660326Y193897D01*
X660257Y193944D01*
X660187Y193999D01*
X660129Y194064D01*
Y194068D01*
X660122Y194072D01*
X660115Y194082D01*
X660107Y194097D01*
X660093Y194115D01*
X660082Y194137D01*
X660053Y194192D01*
X660027Y194257D01*
X660002Y194334D01*
X659987Y194425D01*
X659980Y194523D01*
Y194556D01*
X659984Y194596D01*
X659991Y194643D01*
X660002Y194698D01*
X660016Y194756D01*
X660035Y194818D01*
X660064Y194876D01*
Y194880D01*
X660067Y194883D01*
X660078Y194902D01*
X660097Y194931D01*
X660122Y194967D01*
X660158Y195007D01*
X660198Y195051D01*
X660246Y195091D01*
X660300Y195131D01*
X660308Y195134D01*
X660326Y195149D01*
X660359Y195164D01*
X660406Y195189D01*
X660461Y195211D01*
X660522Y195240D01*
X660595Y195265D01*
X660675Y195287D01*
X660679D01*
X660686Y195291D01*
X660697Y195295D01*
X660715Y195298D01*
X660737Y195302D01*
X660763Y195306D01*
X660795Y195313D01*
X660832Y195316D01*
X660872Y195324D01*
X660916Y195327D01*
X660966Y195331D01*
X661017Y195338D01*
X661076Y195342D01*
X661134D01*
X661199Y195346D01*
X661269D01*
X661272D01*
X661287D01*
X661312D01*
X661341D01*
X661381Y195342D01*
D02*
G37*
G36*
X661906Y193041D02*
X662510D01*
Y192732D01*
X661906D01*
Y191636D01*
X661622D01*
X659991Y192790D01*
Y193041D01*
X661622D01*
Y193384D01*
X661906D01*
Y193041D01*
D02*
G37*
G36*
X662510Y190639D02*
X660541D01*
X660544Y190635D01*
X660559Y190617D01*
X660581Y190595D01*
X660606Y190559D01*
X660639Y190519D01*
X660675Y190468D01*
X660715Y190410D01*
X660755Y190344D01*
Y190341D01*
X660759Y190337D01*
X660774Y190315D01*
X660792Y190279D01*
X660814Y190235D01*
X660839Y190184D01*
X660864Y190129D01*
X660890Y190075D01*
X660912Y190020D01*
X660613D01*
Y190024D01*
X660606Y190031D01*
X660603Y190046D01*
X660592Y190064D01*
X660581Y190086D01*
X660566Y190111D01*
X660530Y190173D01*
X660490Y190246D01*
X660439Y190319D01*
X660380Y190395D01*
X660319Y190472D01*
X660315Y190475D01*
X660311Y190479D01*
X660300Y190490D01*
X660289Y190504D01*
X660253Y190537D01*
X660209Y190581D01*
X660158Y190624D01*
X660100Y190672D01*
X660042Y190712D01*
X659980Y190748D01*
Y190948D01*
X662510D01*
Y190639D01*
D02*
G37*
G36*
X661542Y189350D02*
X661578D01*
X661622Y189347D01*
X661665Y189343D01*
X661764Y189332D01*
X661866Y189318D01*
X661964Y189296D01*
X662011Y189281D01*
X662055Y189267D01*
X662058D01*
X662066Y189263D01*
X662077Y189256D01*
X662091Y189249D01*
X662131Y189227D01*
X662182Y189194D01*
X662241Y189150D01*
X662299Y189099D01*
X662361Y189034D01*
X662415Y188954D01*
Y188950D01*
X662423Y188943D01*
X662426Y188932D01*
X662437Y188914D01*
X662448Y188892D01*
X662459Y188863D01*
X662470Y188834D01*
X662484Y188797D01*
X662499Y188757D01*
X662510Y188714D01*
X662521Y188666D01*
X662532Y188612D01*
X662539Y188557D01*
X662546Y188499D01*
X662554Y188368D01*
Y188335D01*
X662550Y188309D01*
Y188280D01*
X662546Y188244D01*
X662543Y188204D01*
X662539Y188164D01*
X662524Y188073D01*
X662502Y187975D01*
X662473Y187880D01*
X662433Y187789D01*
Y187785D01*
X662426Y187778D01*
X662419Y187767D01*
X662411Y187752D01*
X662382Y187713D01*
X662342Y187665D01*
X662291Y187611D01*
X662233Y187560D01*
X662160Y187509D01*
X662080Y187469D01*
X662077D01*
X662069Y187465D01*
X662055Y187461D01*
X662037Y187454D01*
X662015Y187447D01*
X661986Y187440D01*
X661953Y187429D01*
X661913Y187421D01*
X661869Y187414D01*
X661822Y187403D01*
X661771Y187396D01*
X661716Y187389D01*
X661654Y187381D01*
X661589Y187378D01*
X661520Y187374D01*
X661447D01*
X659991D01*
Y187709D01*
X661447D01*
X661451D01*
X661461D01*
X661480D01*
X661502D01*
X661527Y187713D01*
X661560D01*
X661629Y187716D01*
X661709Y187723D01*
X661789Y187734D01*
X661866Y187749D01*
X661898Y187756D01*
X661931Y187767D01*
X661938Y187771D01*
X661957Y187778D01*
X661982Y187796D01*
X662018Y187818D01*
X662055Y187844D01*
X662095Y187880D01*
X662135Y187924D01*
X662168Y187975D01*
X662171Y187982D01*
X662182Y188000D01*
X662193Y188033D01*
X662208Y188076D01*
X662226Y188127D01*
X662237Y188193D01*
X662248Y188262D01*
X662251Y188339D01*
Y188375D01*
X662248Y188397D01*
Y188430D01*
X662244Y188462D01*
X662229Y188542D01*
X662211Y188630D01*
X662182Y188714D01*
X662142Y188794D01*
X662117Y188830D01*
X662088Y188863D01*
X662084Y188866D01*
X662080Y188870D01*
X662069Y188877D01*
X662055Y188888D01*
X662033Y188899D01*
X662011Y188914D01*
X661978Y188928D01*
X661946Y188943D01*
X661906Y188957D01*
X661858Y188968D01*
X661804Y188983D01*
X661745Y188994D01*
X661680Y189005D01*
X661611Y189012D01*
X661531Y189019D01*
X661447D01*
X659991D01*
Y189354D01*
X661447D01*
X661451D01*
X661465D01*
X661483D01*
X661509D01*
X661542Y189350D01*
D02*
G37*
G36*
X485916Y152111D02*
X485949D01*
X485989Y152107D01*
X486032Y152103D01*
X486080Y152096D01*
X486185Y152078D01*
X486298Y152052D01*
X486418Y152016D01*
X486535Y151965D01*
X486538Y151961D01*
X486549Y151958D01*
X486564Y151950D01*
X486586Y151936D01*
X486611Y151921D01*
X486640Y151903D01*
X486709Y151852D01*
X486782Y151794D01*
X486859Y151717D01*
X486935Y151634D01*
X487001Y151535D01*
X487004Y151532D01*
X487008Y151521D01*
X487015Y151506D01*
X487026Y151485D01*
X487037Y151459D01*
X487051Y151430D01*
X487066Y151393D01*
X487081Y151353D01*
X487095Y151306D01*
X487110Y151259D01*
X487135Y151153D01*
X487153Y151037D01*
X487161Y150975D01*
Y150877D01*
X487157Y150851D01*
Y150818D01*
X487153Y150786D01*
X487146Y150742D01*
X487139Y150698D01*
X487121Y150604D01*
X487091Y150494D01*
X487048Y150389D01*
X487022Y150334D01*
X486993Y150280D01*
X486990Y150276D01*
X486986Y150269D01*
X486975Y150254D01*
X486964Y150232D01*
X486946Y150210D01*
X486924Y150181D01*
X486873Y150119D01*
X486808Y150054D01*
X486728Y149981D01*
X486633Y149912D01*
X486527Y149854D01*
X486524D01*
X486513Y149846D01*
X486498Y149839D01*
X486476Y149832D01*
X486447Y149817D01*
X486414Y149806D01*
X486374Y149792D01*
X486331Y149777D01*
X486283Y149766D01*
X486233Y149752D01*
X486178Y149737D01*
X486120Y149726D01*
X485992Y149712D01*
X485857Y149705D01*
X485854D01*
X485843D01*
X485828D01*
X485807D01*
X485778Y149708D01*
X485745D01*
X485708Y149712D01*
X485672Y149715D01*
X485584Y149726D01*
X485490Y149745D01*
X485392Y149766D01*
X485297Y149799D01*
X485293D01*
X485286Y149803D01*
X485272Y149810D01*
X485257Y149817D01*
X485235Y149828D01*
X485210Y149839D01*
X485151Y149868D01*
X485082Y149908D01*
X485009Y149959D01*
X484937Y150018D01*
X484864Y150083D01*
Y150079D01*
X484857Y150072D01*
X484849Y150061D01*
X484838Y150043D01*
X484824Y150025D01*
X484809Y149999D01*
X484776Y149945D01*
X484736Y149879D01*
X484696Y149806D01*
X484664Y149730D01*
X484631Y149657D01*
X484402Y149756D01*
Y149759D01*
X484405Y149766D01*
X484412Y149781D01*
X484420Y149803D01*
X484431Y149828D01*
X484445Y149857D01*
X484460Y149890D01*
X484478Y149927D01*
X484522Y150007D01*
X484573Y150098D01*
X484638Y150196D01*
X484711Y150298D01*
Y150302D01*
X484704Y150309D01*
X484696Y150327D01*
X484686Y150345D01*
X484675Y150374D01*
X484660Y150403D01*
X484649Y150440D01*
X484634Y150480D01*
X484620Y150523D01*
X484605Y150571D01*
X484580Y150676D01*
X484562Y150793D01*
X484558Y150855D01*
X484554Y150917D01*
Y150949D01*
X484558Y150975D01*
Y151004D01*
X484562Y151040D01*
X484569Y151080D01*
X484576Y151124D01*
X484594Y151219D01*
X484624Y151324D01*
X484664Y151434D01*
X484689Y151485D01*
X484718Y151539D01*
X484722Y151543D01*
X484726Y151550D01*
X484736Y151565D01*
X484747Y151583D01*
X484765Y151608D01*
X484787Y151634D01*
X484838Y151696D01*
X484904Y151765D01*
X484984Y151834D01*
X485075Y151903D01*
X485181Y151965D01*
X485184D01*
X485195Y151972D01*
X485210Y151979D01*
X485231Y151987D01*
X485261Y151998D01*
X485293Y152012D01*
X485333Y152027D01*
X485377Y152038D01*
X485424Y152052D01*
X485475Y152067D01*
X485530Y152078D01*
X485592Y152092D01*
X485719Y152107D01*
X485854Y152114D01*
X485857D01*
X485872D01*
X485890D01*
X485916Y152111D01*
D02*
G37*
G36*
X487084Y147732D02*
X486840D01*
X486837Y147735D01*
X486829Y147743D01*
X486815Y147757D01*
X486793Y147772D01*
X486767Y147793D01*
X486738Y147823D01*
X486702Y147852D01*
X486658Y147885D01*
X486615Y147917D01*
X486564Y147957D01*
X486506Y147997D01*
X486447Y148037D01*
X486382Y148081D01*
X486312Y148125D01*
X486236Y148169D01*
X486160Y148212D01*
X486156Y148216D01*
X486141Y148223D01*
X486120Y148234D01*
X486087Y148252D01*
X486047Y148270D01*
X486003Y148292D01*
X485952Y148318D01*
X485894Y148343D01*
X485828Y148372D01*
X485763Y148405D01*
X485690Y148434D01*
X485614Y148463D01*
X485457Y148521D01*
X485290Y148576D01*
X485286D01*
X485275Y148580D01*
X485257Y148583D01*
X485235Y148591D01*
X485206Y148598D01*
X485170Y148605D01*
X485129Y148616D01*
X485086Y148624D01*
X485035Y148634D01*
X484980Y148645D01*
X484864Y148663D01*
X484736Y148682D01*
X484598Y148693D01*
Y149009D01*
X484602D01*
X484613D01*
X484627D01*
X484649Y149006D01*
X484678D01*
X484715Y149002D01*
X484755Y148998D01*
X484798Y148995D01*
X484849Y148987D01*
X484900Y148980D01*
X484962Y148969D01*
X485024Y148958D01*
X485089Y148947D01*
X485162Y148933D01*
X485312Y148897D01*
X485315D01*
X485330Y148893D01*
X485352Y148886D01*
X485384Y148875D01*
X485421Y148864D01*
X485464Y148849D01*
X485515Y148835D01*
X485570Y148813D01*
X485632Y148791D01*
X485694Y148769D01*
X485832Y148714D01*
X485978Y148649D01*
X486123Y148576D01*
X486127Y148573D01*
X486141Y148565D01*
X486160Y148554D01*
X486189Y148540D01*
X486222Y148521D01*
X486262Y148496D01*
X486305Y148471D01*
X486353Y148442D01*
X486458Y148372D01*
X486567Y148300D01*
X486680Y148216D01*
X486786Y148128D01*
Y149362D01*
X487084D01*
Y147732D01*
D02*
G37*
G36*
X485952Y147422D02*
X485996D01*
X486043Y147419D01*
X486098Y147415D01*
X486211Y147404D01*
X486331Y147386D01*
X486451Y147364D01*
X486506Y147350D01*
X486560Y147335D01*
X486564D01*
X486571Y147331D01*
X486586Y147324D01*
X486604Y147317D01*
X486629Y147309D01*
X486655Y147295D01*
X486717Y147266D01*
X486782Y147229D01*
X486851Y147182D01*
X486920Y147127D01*
X486979Y147062D01*
Y147058D01*
X486986Y147055D01*
X486993Y147044D01*
X487001Y147029D01*
X487015Y147011D01*
X487026Y146989D01*
X487055Y146934D01*
X487081Y146869D01*
X487106Y146792D01*
X487121Y146702D01*
X487128Y146603D01*
Y146571D01*
X487124Y146530D01*
X487117Y146483D01*
X487106Y146429D01*
X487091Y146370D01*
X487073Y146308D01*
X487044Y146250D01*
Y146247D01*
X487041Y146243D01*
X487030Y146225D01*
X487011Y146196D01*
X486986Y146159D01*
X486949Y146119D01*
X486909Y146075D01*
X486862Y146035D01*
X486808Y145995D01*
X486800Y145992D01*
X486782Y145977D01*
X486749Y145963D01*
X486702Y145937D01*
X486647Y145915D01*
X486586Y145886D01*
X486513Y145861D01*
X486433Y145839D01*
X486429D01*
X486422Y145835D01*
X486411Y145832D01*
X486393Y145828D01*
X486371Y145824D01*
X486345Y145821D01*
X486312Y145813D01*
X486276Y145810D01*
X486236Y145802D01*
X486192Y145799D01*
X486141Y145795D01*
X486091Y145788D01*
X486032Y145784D01*
X485974D01*
X485909Y145781D01*
X485839D01*
X485836D01*
X485821D01*
X485796D01*
X485767D01*
X485726Y145784D01*
X485683D01*
X485636Y145788D01*
X485584Y145791D01*
X485468Y145802D01*
X485348Y145821D01*
X485231Y145843D01*
X485177Y145857D01*
X485122Y145875D01*
X485119D01*
X485111Y145879D01*
X485097Y145886D01*
X485079Y145894D01*
X485053Y145901D01*
X485028Y145915D01*
X484966Y145944D01*
X484900Y145981D01*
X484827Y146028D01*
X484762Y146083D01*
X484700Y146148D01*
Y146152D01*
X484693Y146156D01*
X484686Y146167D01*
X484678Y146181D01*
X484667Y146199D01*
X484653Y146217D01*
X484627Y146272D01*
X484602Y146337D01*
X484576Y146414D01*
X484562Y146505D01*
X484554Y146603D01*
Y146640D01*
X484558Y146665D01*
X484562Y146694D01*
X484569Y146731D01*
X484576Y146771D01*
X484587Y146814D01*
X484602Y146858D01*
X484616Y146905D01*
X484638Y146953D01*
X484664Y147000D01*
X484693Y147047D01*
X484729Y147095D01*
X484769Y147138D01*
X484813Y147178D01*
X484817Y147182D01*
X484827Y147189D01*
X484846Y147200D01*
X484875Y147218D01*
X484907Y147237D01*
X484951Y147255D01*
X485002Y147280D01*
X485060Y147302D01*
X485126Y147324D01*
X485202Y147346D01*
X485286Y147368D01*
X485381Y147386D01*
X485483Y147404D01*
X485592Y147415D01*
X485712Y147422D01*
X485839Y147426D01*
X485843D01*
X485857D01*
X485883D01*
X485912D01*
X485952Y147422D01*
D02*
G37*
G36*
X486494Y145227D02*
X486502Y145220D01*
X486506Y145205D01*
X486516Y145187D01*
X486527Y145166D01*
X486542Y145140D01*
X486578Y145078D01*
X486618Y145005D01*
X486669Y144932D01*
X486728Y144856D01*
X486789Y144780D01*
X486793Y144776D01*
X486797Y144772D01*
X486808Y144761D01*
X486819Y144747D01*
X486855Y144714D01*
X486899Y144670D01*
X486949Y144627D01*
X487008Y144579D01*
X487066Y144539D01*
X487128Y144503D01*
Y144303D01*
X484598D01*
Y144612D01*
X486567D01*
X486564Y144616D01*
X486549Y144634D01*
X486527Y144656D01*
X486502Y144692D01*
X486469Y144732D01*
X486433Y144783D01*
X486393Y144842D01*
X486353Y144907D01*
Y144911D01*
X486349Y144914D01*
X486334Y144936D01*
X486316Y144973D01*
X486294Y145016D01*
X486269Y145067D01*
X486243Y145122D01*
X486218Y145176D01*
X486196Y145231D01*
X486494D01*
Y145227D01*
D02*
G37*
G36*
X520416Y152111D02*
X520448D01*
X520489Y152107D01*
X520532Y152103D01*
X520580Y152096D01*
X520685Y152078D01*
X520798Y152052D01*
X520918Y152016D01*
X521035Y151965D01*
X521038Y151961D01*
X521049Y151958D01*
X521064Y151950D01*
X521086Y151936D01*
X521111Y151921D01*
X521140Y151903D01*
X521209Y151852D01*
X521282Y151794D01*
X521358Y151717D01*
X521435Y151634D01*
X521500Y151535D01*
X521504Y151532D01*
X521508Y151521D01*
X521515Y151506D01*
X521526Y151485D01*
X521537Y151459D01*
X521552Y151430D01*
X521566Y151393D01*
X521581Y151353D01*
X521595Y151306D01*
X521610Y151259D01*
X521635Y151153D01*
X521653Y151037D01*
X521661Y150975D01*
Y150877D01*
X521657Y150851D01*
Y150818D01*
X521653Y150786D01*
X521646Y150742D01*
X521639Y150698D01*
X521621Y150604D01*
X521592Y150494D01*
X521548Y150389D01*
X521522Y150334D01*
X521493Y150280D01*
X521490Y150276D01*
X521486Y150269D01*
X521475Y150254D01*
X521464Y150232D01*
X521446Y150210D01*
X521424Y150181D01*
X521373Y150119D01*
X521308Y150054D01*
X521228Y149981D01*
X521133Y149912D01*
X521027Y149854D01*
X521024D01*
X521013Y149846D01*
X520998Y149839D01*
X520976Y149832D01*
X520947Y149817D01*
X520915Y149806D01*
X520874Y149792D01*
X520831Y149777D01*
X520783Y149766D01*
X520732Y149752D01*
X520678Y149737D01*
X520620Y149726D01*
X520492Y149712D01*
X520358Y149705D01*
X520354D01*
X520343D01*
X520328D01*
X520307D01*
X520278Y149708D01*
X520245D01*
X520208Y149712D01*
X520172Y149715D01*
X520084Y149726D01*
X519990Y149745D01*
X519892Y149766D01*
X519797Y149799D01*
X519793D01*
X519786Y149803D01*
X519771Y149810D01*
X519757Y149817D01*
X519735Y149828D01*
X519710Y149839D01*
X519651Y149868D01*
X519582Y149908D01*
X519509Y149959D01*
X519437Y150018D01*
X519364Y150083D01*
Y150079D01*
X519356Y150072D01*
X519349Y150061D01*
X519338Y150043D01*
X519324Y150025D01*
X519309Y149999D01*
X519277Y149945D01*
X519236Y149879D01*
X519196Y149806D01*
X519164Y149730D01*
X519131Y149657D01*
X518901Y149756D01*
Y149759D01*
X518905Y149766D01*
X518913Y149781D01*
X518920Y149803D01*
X518931Y149828D01*
X518945Y149857D01*
X518960Y149890D01*
X518978Y149927D01*
X519022Y150007D01*
X519073Y150098D01*
X519138Y150196D01*
X519211Y150298D01*
Y150302D01*
X519204Y150309D01*
X519196Y150327D01*
X519185Y150345D01*
X519174Y150374D01*
X519160Y150403D01*
X519149Y150440D01*
X519135Y150480D01*
X519120Y150523D01*
X519105Y150571D01*
X519080Y150676D01*
X519062Y150793D01*
X519058Y150855D01*
X519054Y150917D01*
Y150949D01*
X519058Y150975D01*
Y151004D01*
X519062Y151040D01*
X519069Y151080D01*
X519076Y151124D01*
X519095Y151219D01*
X519124Y151324D01*
X519164Y151434D01*
X519189Y151485D01*
X519218Y151539D01*
X519222Y151543D01*
X519226Y151550D01*
X519236Y151565D01*
X519247Y151583D01*
X519266Y151608D01*
X519287Y151634D01*
X519338Y151696D01*
X519404Y151765D01*
X519484Y151834D01*
X519575Y151903D01*
X519681Y151965D01*
X519684D01*
X519695Y151972D01*
X519710Y151979D01*
X519732Y151987D01*
X519761Y151998D01*
X519793Y152012D01*
X519833Y152027D01*
X519877Y152038D01*
X519924Y152052D01*
X519975Y152067D01*
X520030Y152078D01*
X520092Y152092D01*
X520219Y152107D01*
X520354Y152114D01*
X520358D01*
X520372D01*
X520390D01*
X520416Y152111D01*
D02*
G37*
G36*
X521584Y147732D02*
X521340D01*
X521337Y147735D01*
X521329Y147743D01*
X521315Y147757D01*
X521293Y147772D01*
X521268Y147793D01*
X521238Y147823D01*
X521202Y147852D01*
X521158Y147885D01*
X521115Y147917D01*
X521064Y147957D01*
X521005Y147997D01*
X520947Y148037D01*
X520882Y148081D01*
X520813Y148125D01*
X520736Y148169D01*
X520660Y148212D01*
X520656Y148216D01*
X520642Y148223D01*
X520620Y148234D01*
X520587Y148252D01*
X520547Y148270D01*
X520503Y148292D01*
X520452Y148318D01*
X520394Y148343D01*
X520328Y148372D01*
X520263Y148405D01*
X520190Y148434D01*
X520114Y148463D01*
X519957Y148521D01*
X519790Y148576D01*
X519786D01*
X519775Y148580D01*
X519757Y148583D01*
X519735Y148591D01*
X519706Y148598D01*
X519670Y148605D01*
X519629Y148616D01*
X519586Y148624D01*
X519535Y148634D01*
X519480Y148645D01*
X519364Y148663D01*
X519236Y148682D01*
X519098Y148693D01*
Y149009D01*
X519102D01*
X519113D01*
X519127D01*
X519149Y149006D01*
X519178D01*
X519215Y149002D01*
X519255Y148998D01*
X519298Y148995D01*
X519349Y148987D01*
X519400Y148980D01*
X519462Y148969D01*
X519524Y148958D01*
X519590Y148947D01*
X519662Y148933D01*
X519811Y148897D01*
X519815D01*
X519830Y148893D01*
X519852Y148886D01*
X519884Y148875D01*
X519921Y148864D01*
X519964Y148849D01*
X520015Y148835D01*
X520070Y148813D01*
X520132Y148791D01*
X520194Y148769D01*
X520332Y148714D01*
X520478Y148649D01*
X520623Y148576D01*
X520627Y148573D01*
X520642Y148565D01*
X520660Y148554D01*
X520689Y148540D01*
X520721Y148521D01*
X520762Y148496D01*
X520805Y148471D01*
X520853Y148442D01*
X520958Y148372D01*
X521067Y148300D01*
X521180Y148216D01*
X521286Y148128D01*
Y149362D01*
X521584D01*
Y147732D01*
D02*
G37*
G36*
X520452Y147422D02*
X520496D01*
X520543Y147419D01*
X520598Y147415D01*
X520711Y147404D01*
X520831Y147386D01*
X520951Y147364D01*
X521005Y147350D01*
X521060Y147335D01*
X521064D01*
X521071Y147331D01*
X521086Y147324D01*
X521104Y147317D01*
X521129Y147309D01*
X521155Y147295D01*
X521217Y147266D01*
X521282Y147229D01*
X521351Y147182D01*
X521420Y147127D01*
X521479Y147062D01*
Y147058D01*
X521486Y147055D01*
X521493Y147044D01*
X521500Y147029D01*
X521515Y147011D01*
X521526Y146989D01*
X521555Y146934D01*
X521581Y146869D01*
X521606Y146792D01*
X521621Y146702D01*
X521628Y146603D01*
Y146571D01*
X521624Y146530D01*
X521617Y146483D01*
X521606Y146429D01*
X521592Y146370D01*
X521573Y146308D01*
X521544Y146250D01*
Y146247D01*
X521540Y146243D01*
X521530Y146225D01*
X521511Y146196D01*
X521486Y146159D01*
X521450Y146119D01*
X521410Y146075D01*
X521362Y146035D01*
X521308Y145995D01*
X521300Y145992D01*
X521282Y145977D01*
X521249Y145963D01*
X521202Y145937D01*
X521147Y145915D01*
X521086Y145886D01*
X521013Y145861D01*
X520933Y145839D01*
X520929D01*
X520922Y145835D01*
X520911Y145832D01*
X520893Y145828D01*
X520871Y145824D01*
X520845Y145821D01*
X520813Y145813D01*
X520776Y145810D01*
X520736Y145802D01*
X520692Y145799D01*
X520642Y145795D01*
X520590Y145788D01*
X520532Y145784D01*
X520474D01*
X520408Y145781D01*
X520339D01*
X520336D01*
X520321D01*
X520296D01*
X520266D01*
X520226Y145784D01*
X520183D01*
X520135Y145788D01*
X520084Y145791D01*
X519968Y145802D01*
X519848Y145821D01*
X519732Y145843D01*
X519677Y145857D01*
X519622Y145875D01*
X519619D01*
X519611Y145879D01*
X519597Y145886D01*
X519579Y145894D01*
X519553Y145901D01*
X519528Y145915D01*
X519466Y145944D01*
X519400Y145981D01*
X519327Y146028D01*
X519262Y146083D01*
X519200Y146148D01*
Y146152D01*
X519193Y146156D01*
X519185Y146167D01*
X519178Y146181D01*
X519167Y146199D01*
X519153Y146217D01*
X519127Y146272D01*
X519102Y146337D01*
X519076Y146414D01*
X519062Y146505D01*
X519054Y146603D01*
Y146640D01*
X519058Y146665D01*
X519062Y146694D01*
X519069Y146731D01*
X519076Y146771D01*
X519087Y146814D01*
X519102Y146858D01*
X519116Y146905D01*
X519138Y146953D01*
X519164Y147000D01*
X519193Y147047D01*
X519229Y147095D01*
X519269Y147138D01*
X519313Y147178D01*
X519316Y147182D01*
X519327Y147189D01*
X519346Y147200D01*
X519375Y147218D01*
X519408Y147237D01*
X519451Y147255D01*
X519502Y147280D01*
X519560Y147302D01*
X519626Y147324D01*
X519702Y147346D01*
X519786Y147368D01*
X519881Y147386D01*
X519983Y147404D01*
X520092Y147415D01*
X520212Y147422D01*
X520339Y147426D01*
X520343D01*
X520358D01*
X520383D01*
X520412D01*
X520452Y147422D01*
D02*
G37*
G36*
Y145464D02*
X520496D01*
X520543Y145460D01*
X520598Y145457D01*
X520711Y145446D01*
X520831Y145428D01*
X520951Y145406D01*
X521005Y145391D01*
X521060Y145377D01*
X521064D01*
X521071Y145373D01*
X521086Y145366D01*
X521104Y145358D01*
X521129Y145351D01*
X521155Y145336D01*
X521217Y145307D01*
X521282Y145271D01*
X521351Y145224D01*
X521420Y145169D01*
X521479Y145104D01*
Y145100D01*
X521486Y145096D01*
X521493Y145085D01*
X521500Y145071D01*
X521515Y145053D01*
X521526Y145031D01*
X521555Y144976D01*
X521581Y144911D01*
X521606Y144834D01*
X521621Y144743D01*
X521628Y144645D01*
Y144612D01*
X521624Y144572D01*
X521617Y144525D01*
X521606Y144470D01*
X521592Y144412D01*
X521573Y144350D01*
X521544Y144292D01*
Y144288D01*
X521540Y144285D01*
X521530Y144266D01*
X521511Y144237D01*
X521486Y144201D01*
X521450Y144161D01*
X521410Y144117D01*
X521362Y144077D01*
X521308Y144037D01*
X521300Y144033D01*
X521282Y144019D01*
X521249Y144004D01*
X521202Y143979D01*
X521147Y143957D01*
X521086Y143928D01*
X521013Y143902D01*
X520933Y143880D01*
X520929D01*
X520922Y143877D01*
X520911Y143873D01*
X520893Y143870D01*
X520871Y143866D01*
X520845Y143862D01*
X520813Y143855D01*
X520776Y143851D01*
X520736Y143844D01*
X520692Y143841D01*
X520642Y143837D01*
X520590Y143830D01*
X520532Y143826D01*
X520474D01*
X520408Y143822D01*
X520339D01*
X520336D01*
X520321D01*
X520296D01*
X520266D01*
X520226Y143826D01*
X520183D01*
X520135Y143830D01*
X520084Y143833D01*
X519968Y143844D01*
X519848Y143862D01*
X519732Y143884D01*
X519677Y143899D01*
X519622Y143917D01*
X519619D01*
X519611Y143921D01*
X519597Y143928D01*
X519579Y143935D01*
X519553Y143942D01*
X519528Y143957D01*
X519466Y143986D01*
X519400Y144023D01*
X519327Y144070D01*
X519262Y144124D01*
X519200Y144190D01*
Y144194D01*
X519193Y144197D01*
X519185Y144208D01*
X519178Y144223D01*
X519167Y144241D01*
X519153Y144259D01*
X519127Y144314D01*
X519102Y144379D01*
X519076Y144456D01*
X519062Y144547D01*
X519054Y144645D01*
Y144681D01*
X519058Y144707D01*
X519062Y144736D01*
X519069Y144772D01*
X519076Y144812D01*
X519087Y144856D01*
X519102Y144900D01*
X519116Y144947D01*
X519138Y144994D01*
X519164Y145042D01*
X519193Y145089D01*
X519229Y145136D01*
X519269Y145180D01*
X519313Y145220D01*
X519316Y145224D01*
X519327Y145231D01*
X519346Y145242D01*
X519375Y145260D01*
X519408Y145278D01*
X519451Y145297D01*
X519502Y145322D01*
X519560Y145344D01*
X519626Y145366D01*
X519702Y145387D01*
X519786Y145409D01*
X519881Y145428D01*
X519983Y145446D01*
X520092Y145457D01*
X520212Y145464D01*
X520339Y145468D01*
X520343D01*
X520358D01*
X520383D01*
X520412D01*
X520452Y145464D01*
D02*
G37*
G36*
X650304Y144317D02*
X650300D01*
X650285D01*
X650263D01*
X650234Y144321D01*
X650202Y144325D01*
X650165Y144332D01*
X650129Y144339D01*
X650089Y144354D01*
X650085D01*
X650081Y144358D01*
X650060Y144365D01*
X650027Y144379D01*
X649983Y144401D01*
X649932Y144430D01*
X649874Y144467D01*
X649816Y144507D01*
X649754Y144558D01*
X649750D01*
X649747Y144565D01*
X649725Y144583D01*
X649692Y144616D01*
X649645Y144663D01*
X649590Y144718D01*
X649524Y144787D01*
X649452Y144871D01*
X649375Y144962D01*
X649372Y144965D01*
X649361Y144980D01*
X649342Y145002D01*
X649321Y145027D01*
X649292Y145060D01*
X649259Y145100D01*
X649222Y145140D01*
X649182Y145187D01*
X649095Y145278D01*
X649008Y145369D01*
X648964Y145413D01*
X648920Y145453D01*
X648880Y145490D01*
X648840Y145519D01*
X648837D01*
X648833Y145526D01*
X648822Y145533D01*
X648807Y145540D01*
X648767Y145566D01*
X648720Y145595D01*
X648662Y145621D01*
X648600Y145646D01*
X648531Y145661D01*
X648465Y145668D01*
X648462D01*
X648458D01*
X648436Y145664D01*
X648400Y145661D01*
X648360Y145650D01*
X648309Y145635D01*
X648258Y145610D01*
X648207Y145577D01*
X648156Y145533D01*
X648149Y145526D01*
X648134Y145508D01*
X648116Y145482D01*
X648090Y145442D01*
X648069Y145391D01*
X648047Y145333D01*
X648032Y145264D01*
X648029Y145187D01*
Y145166D01*
X648032Y145151D01*
X648036Y145107D01*
X648047Y145056D01*
X648061Y145002D01*
X648087Y144940D01*
X648119Y144882D01*
X648163Y144827D01*
X648170Y144820D01*
X648189Y144805D01*
X648218Y144783D01*
X648261Y144762D01*
X648312Y144736D01*
X648378Y144714D01*
X648451Y144700D01*
X648534Y144692D01*
X648502Y144376D01*
X648498D01*
X648487Y144379D01*
X648469D01*
X648443Y144383D01*
X648414Y144390D01*
X648382Y144398D01*
X648342Y144409D01*
X648302Y144419D01*
X648214Y144448D01*
X648127Y144492D01*
X648083Y144518D01*
X648039Y144550D01*
X647999Y144583D01*
X647963Y144620D01*
X647959Y144623D01*
X647956Y144631D01*
X647945Y144641D01*
X647934Y144660D01*
X647919Y144682D01*
X647905Y144707D01*
X647887Y144736D01*
X647868Y144773D01*
X647850Y144813D01*
X647832Y144856D01*
X647817Y144904D01*
X647803Y144955D01*
X647792Y145009D01*
X647781Y145067D01*
X647777Y145129D01*
X647774Y145195D01*
Y145231D01*
X647777Y145257D01*
X647781Y145286D01*
X647785Y145322D01*
X647792Y145362D01*
X647799Y145402D01*
X647825Y145497D01*
X647861Y145591D01*
X647883Y145639D01*
X647908Y145686D01*
X647941Y145730D01*
X647977Y145770D01*
X647981Y145773D01*
X647985Y145781D01*
X647999Y145788D01*
X648014Y145803D01*
X648032Y145821D01*
X648058Y145839D01*
X648083Y145857D01*
X648116Y145879D01*
X648185Y145915D01*
X648272Y145952D01*
X648316Y145966D01*
X648367Y145974D01*
X648418Y145981D01*
X648472Y145985D01*
X648480D01*
X648498D01*
X648527Y145981D01*
X648567Y145977D01*
X648611Y145970D01*
X648662Y145956D01*
X648716Y145941D01*
X648771Y145919D01*
X648778Y145915D01*
X648797Y145908D01*
X648826Y145894D01*
X648866Y145872D01*
X648909Y145843D01*
X648964Y145806D01*
X649018Y145763D01*
X649080Y145712D01*
X649088Y145704D01*
X649110Y145686D01*
X649128Y145668D01*
X649146Y145650D01*
X649168Y145628D01*
X649197Y145599D01*
X649226Y145570D01*
X649259Y145533D01*
X649295Y145497D01*
X649335Y145453D01*
X649375Y145406D01*
X649423Y145355D01*
X649470Y145297D01*
X649521Y145238D01*
X649524Y145235D01*
X649532Y145228D01*
X649543Y145213D01*
X649557Y145195D01*
X649579Y145173D01*
X649601Y145147D01*
X649648Y145089D01*
X649703Y145027D01*
X649757Y144969D01*
X649805Y144918D01*
X649823Y144896D01*
X649841Y144878D01*
X649845Y144874D01*
X649856Y144863D01*
X649870Y144849D01*
X649892Y144831D01*
X649918Y144813D01*
X649943Y144791D01*
X650005Y144747D01*
Y145988D01*
X650304D01*
Y144317D01*
D02*
G37*
G36*
X649175Y144044D02*
X649219D01*
X649266Y144041D01*
X649317Y144037D01*
X649434Y144026D01*
X649554Y144008D01*
X649670Y143986D01*
X649725Y143972D01*
X649779Y143954D01*
X649783D01*
X649790Y143950D01*
X649805Y143943D01*
X649823Y143935D01*
X649849Y143928D01*
X649874Y143913D01*
X649936Y143884D01*
X650001Y143848D01*
X650074Y143801D01*
X650140Y143746D01*
X650202Y143681D01*
Y143677D01*
X650209Y143673D01*
X650216Y143662D01*
X650223Y143648D01*
X650234Y143630D01*
X650249Y143611D01*
X650274Y143557D01*
X650300Y143491D01*
X650325Y143415D01*
X650340Y143324D01*
X650347Y143226D01*
Y143189D01*
X650344Y143164D01*
X650340Y143134D01*
X650333Y143098D01*
X650325Y143058D01*
X650314Y143014D01*
X650300Y142971D01*
X650285Y142923D01*
X650263Y142876D01*
X650238Y142829D01*
X650209Y142781D01*
X650172Y142734D01*
X650132Y142690D01*
X650089Y142650D01*
X650085Y142647D01*
X650074Y142639D01*
X650056Y142629D01*
X650027Y142610D01*
X649994Y142592D01*
X649950Y142574D01*
X649899Y142548D01*
X649841Y142527D01*
X649776Y142505D01*
X649699Y142483D01*
X649615Y142461D01*
X649521Y142443D01*
X649419Y142425D01*
X649310Y142414D01*
X649190Y142406D01*
X649062Y142403D01*
X649059D01*
X649044D01*
X649018D01*
X648989D01*
X648949Y142406D01*
X648906D01*
X648858Y142410D01*
X648804Y142414D01*
X648691Y142425D01*
X648571Y142443D01*
X648451Y142465D01*
X648396Y142479D01*
X648342Y142494D01*
X648338D01*
X648331Y142498D01*
X648316Y142505D01*
X648298Y142512D01*
X648272Y142519D01*
X648247Y142534D01*
X648185Y142563D01*
X648119Y142599D01*
X648050Y142647D01*
X647981Y142701D01*
X647923Y142767D01*
Y142771D01*
X647916Y142774D01*
X647908Y142785D01*
X647901Y142800D01*
X647887Y142818D01*
X647876Y142840D01*
X647847Y142894D01*
X647821Y142960D01*
X647795Y143036D01*
X647781Y143127D01*
X647774Y143226D01*
Y143258D01*
X647777Y143298D01*
X647785Y143346D01*
X647795Y143400D01*
X647810Y143458D01*
X647828Y143520D01*
X647857Y143579D01*
Y143582D01*
X647861Y143586D01*
X647872Y143604D01*
X647890Y143633D01*
X647916Y143670D01*
X647952Y143710D01*
X647992Y143753D01*
X648039Y143793D01*
X648094Y143833D01*
X648101Y143837D01*
X648119Y143851D01*
X648152Y143866D01*
X648200Y143892D01*
X648254Y143913D01*
X648316Y143943D01*
X648389Y143968D01*
X648469Y143990D01*
X648472D01*
X648480Y143993D01*
X648491Y143997D01*
X648509Y144001D01*
X648531Y144004D01*
X648556Y144008D01*
X648589Y144015D01*
X648625Y144019D01*
X648666Y144026D01*
X648709Y144030D01*
X648760Y144034D01*
X648811Y144041D01*
X648869Y144044D01*
X648927D01*
X648993Y144048D01*
X649062D01*
X649066D01*
X649080D01*
X649106D01*
X649135D01*
X649175Y144044D01*
D02*
G37*
G36*
X648065Y142093D02*
X648072Y142086D01*
X648087Y142072D01*
X648109Y142057D01*
X648134Y142035D01*
X648163Y142006D01*
X648200Y141977D01*
X648243Y141944D01*
X648287Y141911D01*
X648338Y141871D01*
X648396Y141831D01*
X648454Y141791D01*
X648520Y141748D01*
X648589Y141704D01*
X648666Y141660D01*
X648742Y141617D01*
X648746Y141613D01*
X648760Y141606D01*
X648782Y141595D01*
X648815Y141577D01*
X648855Y141558D01*
X648898Y141536D01*
X648949Y141511D01*
X649008Y141486D01*
X649073Y141456D01*
X649139Y141424D01*
X649212Y141395D01*
X649288Y141365D01*
X649444Y141307D01*
X649612Y141253D01*
X649615D01*
X649626Y141249D01*
X649645Y141245D01*
X649667Y141238D01*
X649696Y141231D01*
X649732Y141224D01*
X649772Y141213D01*
X649816Y141205D01*
X649867Y141194D01*
X649921Y141183D01*
X650038Y141165D01*
X650165Y141147D01*
X650304Y141136D01*
Y140819D01*
X650300D01*
X650289D01*
X650274D01*
X650252Y140823D01*
X650223D01*
X650187Y140827D01*
X650147Y140830D01*
X650103Y140834D01*
X650052Y140841D01*
X650001Y140849D01*
X649939Y140859D01*
X649878Y140870D01*
X649812Y140881D01*
X649739Y140896D01*
X649590Y140932D01*
X649586D01*
X649572Y140936D01*
X649550Y140943D01*
X649517Y140954D01*
X649481Y140965D01*
X649437Y140980D01*
X649386Y140994D01*
X649332Y141016D01*
X649270Y141038D01*
X649208Y141060D01*
X649069Y141114D01*
X648924Y141180D01*
X648778Y141253D01*
X648775Y141256D01*
X648760Y141263D01*
X648742Y141274D01*
X648713Y141289D01*
X648680Y141307D01*
X648640Y141333D01*
X648596Y141358D01*
X648549Y141387D01*
X648443Y141456D01*
X648334Y141529D01*
X648221Y141613D01*
X648116Y141700D01*
Y140466D01*
X647817D01*
Y142097D01*
X648061D01*
X648065Y142093D01*
D02*
G37*
G36*
X650500Y140073D02*
Y140070D01*
X650496Y140062D01*
X650489Y140048D01*
X650482Y140026D01*
X650471Y140000D01*
X650456Y139971D01*
X650442Y139939D01*
X650424Y139902D01*
X650380Y139822D01*
X650329Y139731D01*
X650263Y139633D01*
X650191Y139531D01*
Y139527D01*
X650198Y139520D01*
X650205Y139502D01*
X650216Y139483D01*
X650227Y139454D01*
X650242Y139425D01*
X650252Y139389D01*
X650267Y139349D01*
X650282Y139305D01*
X650296Y139258D01*
X650322Y139152D01*
X650340Y139036D01*
X650344Y138974D01*
X650347Y138912D01*
Y138879D01*
X650344Y138854D01*
Y138825D01*
X650340Y138788D01*
X650333Y138748D01*
X650325Y138705D01*
X650307Y138610D01*
X650278Y138504D01*
X650238Y138395D01*
X650212Y138344D01*
X650183Y138290D01*
X650180Y138286D01*
X650176Y138279D01*
X650165Y138264D01*
X650154Y138246D01*
X650136Y138221D01*
X650114Y138195D01*
X650063Y138133D01*
X649998Y138064D01*
X649918Y137995D01*
X649827Y137926D01*
X649721Y137864D01*
X649717D01*
X649707Y137856D01*
X649692Y137849D01*
X649670Y137842D01*
X649641Y137831D01*
X649608Y137816D01*
X649568Y137802D01*
X649524Y137791D01*
X649477Y137776D01*
X649426Y137762D01*
X649372Y137751D01*
X649310Y137736D01*
X649182Y137722D01*
X649048Y137715D01*
X649044D01*
X649029D01*
X649011D01*
X648986Y137718D01*
X648953D01*
X648913Y137722D01*
X648869Y137725D01*
X648822Y137733D01*
X648716Y137751D01*
X648604Y137776D01*
X648484Y137813D01*
X648367Y137864D01*
X648363Y137867D01*
X648352Y137871D01*
X648338Y137878D01*
X648316Y137893D01*
X648290Y137907D01*
X648261Y137926D01*
X648192Y137977D01*
X648119Y138035D01*
X648043Y138111D01*
X647967Y138195D01*
X647901Y138293D01*
X647897Y138297D01*
X647894Y138308D01*
X647887Y138322D01*
X647876Y138344D01*
X647865Y138370D01*
X647850Y138399D01*
X647835Y138435D01*
X647821Y138475D01*
X647806Y138523D01*
X647792Y138570D01*
X647766Y138675D01*
X647748Y138792D01*
X647741Y138854D01*
Y138952D01*
X647745Y138978D01*
Y139010D01*
X647748Y139043D01*
X647755Y139087D01*
X647763Y139130D01*
X647781Y139225D01*
X647810Y139334D01*
X647854Y139440D01*
X647879Y139495D01*
X647908Y139549D01*
X647912Y139553D01*
X647916Y139560D01*
X647927Y139575D01*
X647937Y139596D01*
X647956Y139618D01*
X647977Y139647D01*
X648029Y139709D01*
X648094Y139775D01*
X648174Y139848D01*
X648269Y139917D01*
X648374Y139975D01*
X648378D01*
X648389Y139982D01*
X648403Y139989D01*
X648425Y139997D01*
X648454Y140011D01*
X648487Y140022D01*
X648527Y140037D01*
X648571Y140051D01*
X648618Y140062D01*
X648669Y140077D01*
X648724Y140091D01*
X648782Y140102D01*
X648909Y140117D01*
X649044Y140124D01*
X649048D01*
X649059D01*
X649073D01*
X649095D01*
X649124Y140121D01*
X649157D01*
X649193Y140117D01*
X649230Y140113D01*
X649317Y140102D01*
X649412Y140084D01*
X649510Y140062D01*
X649605Y140030D01*
X649608D01*
X649615Y140026D01*
X649630Y140019D01*
X649645Y140011D01*
X649667Y140000D01*
X649692Y139989D01*
X649750Y139960D01*
X649819Y139920D01*
X649892Y139869D01*
X649965Y139811D01*
X650038Y139746D01*
Y139749D01*
X650045Y139757D01*
X650052Y139768D01*
X650063Y139786D01*
X650078Y139804D01*
X650092Y139829D01*
X650125Y139884D01*
X650165Y139950D01*
X650205Y140022D01*
X650238Y140099D01*
X650271Y140172D01*
X650500Y140073D01*
D02*
G37*
G36*
X637328Y202454D02*
X637372Y202447D01*
X637423Y202440D01*
X637477Y202425D01*
X637535Y202407D01*
X637594Y202381D01*
X637601Y202378D01*
X637619Y202367D01*
X637645Y202352D01*
X637681Y202331D01*
X637717Y202301D01*
X637757Y202272D01*
X637797Y202236D01*
X637830Y202196D01*
X637834Y202192D01*
X637845Y202178D01*
X637859Y202152D01*
X637874Y202119D01*
X637896Y202079D01*
X637918Y202032D01*
X637936Y201981D01*
X637954Y201919D01*
Y201912D01*
X637961Y201890D01*
X637965Y201854D01*
X637972Y201806D01*
X637980Y201748D01*
X637987Y201679D01*
X637990Y201603D01*
X637994Y201515D01*
Y200554D01*
X635475D01*
Y201544D01*
X635479Y201570D01*
Y201599D01*
X635486Y201664D01*
X635493Y201737D01*
X635508Y201814D01*
X635526Y201890D01*
X635552Y201959D01*
Y201963D01*
X635555Y201967D01*
X635566Y201988D01*
X635584Y202021D01*
X635610Y202058D01*
X635643Y202101D01*
X635683Y202149D01*
X635734Y202192D01*
X635788Y202232D01*
X635795Y202236D01*
X635817Y202247D01*
X635847Y202265D01*
X635890Y202283D01*
X635941Y202301D01*
X635996Y202320D01*
X636058Y202331D01*
X636120Y202334D01*
X636127D01*
X636145D01*
X636178Y202331D01*
X636218Y202323D01*
X636265Y202312D01*
X636316Y202294D01*
X636367Y202272D01*
X636422Y202243D01*
X636429Y202240D01*
X636443Y202229D01*
X636473Y202207D01*
X636502Y202178D01*
X636538Y202141D01*
X636578Y202098D01*
X636615Y202043D01*
X636651Y201981D01*
Y201985D01*
X636655Y201992D01*
X636658Y202003D01*
X636665Y202017D01*
X636680Y202061D01*
X636705Y202112D01*
X636738Y202167D01*
X636778Y202229D01*
X636826Y202283D01*
X636884Y202334D01*
X636891Y202338D01*
X636913Y202352D01*
X636946Y202374D01*
X636989Y202396D01*
X637048Y202418D01*
X637110Y202440D01*
X637182Y202454D01*
X637262Y202458D01*
X637266D01*
X637270D01*
X637292D01*
X637328Y202454D01*
D02*
G37*
G36*
X638693Y198283D02*
X638471D01*
Y200332D01*
X638693D01*
Y198283D01*
D02*
G37*
G36*
X636866Y198166D02*
X636909D01*
X636957Y198163D01*
X637008Y198159D01*
X637124Y198148D01*
X637244Y198130D01*
X637361Y198108D01*
X637415Y198094D01*
X637470Y198075D01*
X637473D01*
X637481Y198072D01*
X637495Y198064D01*
X637514Y198057D01*
X637539Y198050D01*
X637565Y198035D01*
X637626Y198006D01*
X637692Y197970D01*
X637765Y197923D01*
X637830Y197868D01*
X637892Y197802D01*
Y197799D01*
X637899Y197795D01*
X637907Y197784D01*
X637914Y197770D01*
X637925Y197751D01*
X637940Y197733D01*
X637965Y197679D01*
X637990Y197613D01*
X638016Y197537D01*
X638030Y197446D01*
X638038Y197347D01*
Y197311D01*
X638034Y197285D01*
X638030Y197256D01*
X638023Y197220D01*
X638016Y197180D01*
X638005Y197136D01*
X637990Y197093D01*
X637976Y197045D01*
X637954Y196998D01*
X637928Y196951D01*
X637899Y196903D01*
X637863Y196856D01*
X637823Y196812D01*
X637779Y196772D01*
X637776Y196769D01*
X637765Y196761D01*
X637747Y196750D01*
X637717Y196732D01*
X637685Y196714D01*
X637641Y196696D01*
X637590Y196670D01*
X637532Y196649D01*
X637466Y196627D01*
X637390Y196605D01*
X637306Y196583D01*
X637212Y196565D01*
X637110Y196547D01*
X637000Y196536D01*
X636880Y196528D01*
X636753Y196525D01*
X636749D01*
X636735D01*
X636709D01*
X636680D01*
X636640Y196528D01*
X636596D01*
X636549Y196532D01*
X636494Y196536D01*
X636381Y196547D01*
X636261Y196565D01*
X636141Y196587D01*
X636087Y196601D01*
X636032Y196616D01*
X636028D01*
X636021Y196619D01*
X636007Y196627D01*
X635988Y196634D01*
X635963Y196641D01*
X635938Y196656D01*
X635876Y196685D01*
X635810Y196721D01*
X635741Y196769D01*
X635672Y196823D01*
X635613Y196889D01*
Y196892D01*
X635606Y196896D01*
X635599Y196907D01*
X635592Y196922D01*
X635577Y196940D01*
X635566Y196962D01*
X635537Y197016D01*
X635512Y197082D01*
X635486Y197158D01*
X635472Y197249D01*
X635464Y197347D01*
Y197380D01*
X635468Y197420D01*
X635475Y197468D01*
X635486Y197522D01*
X635501Y197580D01*
X635519Y197642D01*
X635548Y197701D01*
Y197704D01*
X635552Y197708D01*
X635563Y197726D01*
X635581Y197755D01*
X635606Y197792D01*
X635643Y197831D01*
X635683Y197875D01*
X635730Y197915D01*
X635785Y197955D01*
X635792Y197959D01*
X635810Y197974D01*
X635843Y197988D01*
X635890Y198013D01*
X635945Y198035D01*
X636007Y198064D01*
X636079Y198090D01*
X636160Y198112D01*
X636163D01*
X636170Y198115D01*
X636181Y198119D01*
X636200Y198123D01*
X636221Y198126D01*
X636247Y198130D01*
X636280Y198137D01*
X636316Y198141D01*
X636356Y198148D01*
X636400Y198152D01*
X636451Y198155D01*
X636502Y198163D01*
X636560Y198166D01*
X636618D01*
X636684Y198170D01*
X636753D01*
X636757D01*
X636771D01*
X636797D01*
X636826D01*
X636866Y198166D01*
D02*
G37*
G36*
Y196208D02*
X636909D01*
X636957Y196204D01*
X637008Y196201D01*
X637124Y196190D01*
X637244Y196172D01*
X637361Y196150D01*
X637415Y196135D01*
X637470Y196117D01*
X637473D01*
X637481Y196113D01*
X637495Y196106D01*
X637514Y196099D01*
X637539Y196092D01*
X637565Y196077D01*
X637626Y196048D01*
X637692Y196011D01*
X637765Y195964D01*
X637830Y195910D01*
X637892Y195844D01*
Y195840D01*
X637899Y195837D01*
X637907Y195826D01*
X637914Y195811D01*
X637925Y195793D01*
X637940Y195775D01*
X637965Y195720D01*
X637990Y195655D01*
X638016Y195578D01*
X638030Y195487D01*
X638038Y195389D01*
Y195353D01*
X638034Y195327D01*
X638030Y195298D01*
X638023Y195262D01*
X638016Y195222D01*
X638005Y195178D01*
X637990Y195134D01*
X637976Y195087D01*
X637954Y195040D01*
X637928Y194992D01*
X637899Y194945D01*
X637863Y194898D01*
X637823Y194854D01*
X637779Y194814D01*
X637776Y194810D01*
X637765Y194803D01*
X637747Y194792D01*
X637717Y194774D01*
X637685Y194756D01*
X637641Y194738D01*
X637590Y194712D01*
X637532Y194690D01*
X637466Y194668D01*
X637390Y194647D01*
X637306Y194625D01*
X637212Y194606D01*
X637110Y194588D01*
X637000Y194577D01*
X636880Y194570D01*
X636753Y194566D01*
X636749D01*
X636735D01*
X636709D01*
X636680D01*
X636640Y194570D01*
X636596D01*
X636549Y194574D01*
X636494Y194577D01*
X636381Y194588D01*
X636261Y194606D01*
X636141Y194628D01*
X636087Y194643D01*
X636032Y194657D01*
X636028D01*
X636021Y194661D01*
X636007Y194668D01*
X635988Y194676D01*
X635963Y194683D01*
X635938Y194697D01*
X635876Y194727D01*
X635810Y194763D01*
X635741Y194810D01*
X635672Y194865D01*
X635613Y194930D01*
Y194934D01*
X635606Y194938D01*
X635599Y194949D01*
X635592Y194963D01*
X635577Y194981D01*
X635566Y195003D01*
X635537Y195058D01*
X635512Y195123D01*
X635486Y195200D01*
X635472Y195291D01*
X635464Y195389D01*
Y195422D01*
X635468Y195462D01*
X635475Y195509D01*
X635486Y195564D01*
X635501Y195622D01*
X635519Y195684D01*
X635548Y195742D01*
Y195746D01*
X635552Y195749D01*
X635563Y195768D01*
X635581Y195797D01*
X635606Y195833D01*
X635643Y195873D01*
X635683Y195917D01*
X635730Y195957D01*
X635785Y195997D01*
X635792Y196001D01*
X635810Y196015D01*
X635843Y196030D01*
X635890Y196055D01*
X635945Y196077D01*
X636007Y196106D01*
X636079Y196132D01*
X636160Y196153D01*
X636163D01*
X636170Y196157D01*
X636181Y196161D01*
X636200Y196164D01*
X636221Y196168D01*
X636247Y196172D01*
X636280Y196179D01*
X636316Y196183D01*
X636356Y196190D01*
X636400Y196194D01*
X636451Y196197D01*
X636502Y196204D01*
X636560Y196208D01*
X636618D01*
X636684Y196212D01*
X636753D01*
X636757D01*
X636771D01*
X636797D01*
X636826D01*
X636866Y196208D01*
D02*
G37*
G36*
X637390Y193908D02*
X637994D01*
Y193598D01*
X637390D01*
Y192503D01*
X637106D01*
X635475Y193656D01*
Y193908D01*
X637106D01*
Y194250D01*
X637390D01*
Y193908D01*
D02*
G37*
G36*
X637994Y191505D02*
X636025D01*
X636028Y191502D01*
X636043Y191483D01*
X636065Y191462D01*
X636090Y191425D01*
X636123Y191385D01*
X636160Y191334D01*
X636200Y191276D01*
X636240Y191210D01*
Y191207D01*
X636243Y191203D01*
X636258Y191181D01*
X636276Y191145D01*
X636298Y191101D01*
X636323Y191050D01*
X636349Y190996D01*
X636374Y190941D01*
X636396Y190886D01*
X636098D01*
Y190890D01*
X636090Y190897D01*
X636087Y190912D01*
X636076Y190930D01*
X636065Y190952D01*
X636050Y190977D01*
X636014Y191039D01*
X635974Y191112D01*
X635923Y191185D01*
X635865Y191261D01*
X635803Y191338D01*
X635799Y191341D01*
X635795Y191345D01*
X635785Y191356D01*
X635774Y191370D01*
X635737Y191403D01*
X635694Y191447D01*
X635643Y191491D01*
X635584Y191538D01*
X635526Y191578D01*
X635464Y191614D01*
Y191815D01*
X637994D01*
Y191505D01*
D02*
G37*
G36*
X637026Y190217D02*
X637062D01*
X637106Y190213D01*
X637150Y190209D01*
X637248Y190198D01*
X637350Y190184D01*
X637448Y190162D01*
X637495Y190147D01*
X637539Y190133D01*
X637543D01*
X637550Y190129D01*
X637561Y190122D01*
X637575Y190115D01*
X637615Y190093D01*
X637667Y190060D01*
X637725Y190016D01*
X637783Y189965D01*
X637845Y189900D01*
X637899Y189820D01*
Y189816D01*
X637907Y189809D01*
X637910Y189798D01*
X637921Y189780D01*
X637932Y189758D01*
X637943Y189729D01*
X637954Y189700D01*
X637969Y189663D01*
X637983Y189623D01*
X637994Y189580D01*
X638005Y189532D01*
X638016Y189478D01*
X638023Y189423D01*
X638030Y189365D01*
X638038Y189234D01*
Y189201D01*
X638034Y189176D01*
Y189146D01*
X638030Y189110D01*
X638027Y189070D01*
X638023Y189030D01*
X638009Y188939D01*
X637987Y188841D01*
X637958Y188746D01*
X637918Y188655D01*
Y188651D01*
X637910Y188644D01*
X637903Y188633D01*
X637896Y188619D01*
X637867Y188579D01*
X637827Y188531D01*
X637776Y188477D01*
X637717Y188426D01*
X637645Y188375D01*
X637565Y188335D01*
X637561D01*
X637554Y188331D01*
X637539Y188328D01*
X637521Y188320D01*
X637499Y188313D01*
X637470Y188306D01*
X637437Y188295D01*
X637397Y188287D01*
X637353Y188280D01*
X637306Y188269D01*
X637255Y188262D01*
X637201Y188255D01*
X637139Y188247D01*
X637073Y188244D01*
X637004Y188240D01*
X636931D01*
X635475D01*
Y188575D01*
X636931D01*
X636935D01*
X636946D01*
X636964D01*
X636986D01*
X637011Y188579D01*
X637044D01*
X637113Y188582D01*
X637193Y188590D01*
X637273Y188601D01*
X637350Y188615D01*
X637383Y188622D01*
X637415Y188633D01*
X637423Y188637D01*
X637441Y188644D01*
X637466Y188662D01*
X637503Y188684D01*
X637539Y188710D01*
X637579Y188746D01*
X637619Y188790D01*
X637652Y188841D01*
X637656Y188848D01*
X637667Y188866D01*
X637677Y188899D01*
X637692Y188943D01*
X637710Y188994D01*
X637721Y189059D01*
X637732Y189128D01*
X637736Y189205D01*
Y189241D01*
X637732Y189263D01*
Y189296D01*
X637728Y189329D01*
X637714Y189409D01*
X637696Y189496D01*
X637667Y189580D01*
X637626Y189660D01*
X637601Y189696D01*
X637572Y189729D01*
X637568Y189733D01*
X637565Y189736D01*
X637554Y189743D01*
X637539Y189754D01*
X637517Y189765D01*
X637495Y189780D01*
X637463Y189794D01*
X637430Y189809D01*
X637390Y189823D01*
X637343Y189834D01*
X637288Y189849D01*
X637230Y189860D01*
X637164Y189871D01*
X637095Y189878D01*
X637015Y189885D01*
X636931D01*
X635475D01*
Y190220D01*
X636931D01*
X636935D01*
X636949D01*
X636968D01*
X636993D01*
X637026Y190217D01*
D02*
G37*
%LPC*%
G36*
X151596Y335063D02*
X151483D01*
X151479D01*
X151476D01*
X151457D01*
X151425D01*
X151381Y335059D01*
X151334D01*
X151275Y335055D01*
X151214Y335052D01*
X151144Y335045D01*
X151006Y335026D01*
X150937Y335015D01*
X150871Y335001D01*
X150809Y334986D01*
X150751Y334964D01*
X150700Y334943D01*
X150657Y334917D01*
X150653D01*
X150649Y334910D01*
X150638Y334903D01*
X150624Y334892D01*
X150591Y334859D01*
X150551Y334819D01*
X150515Y334764D01*
X150482Y334702D01*
X150467Y334670D01*
X150456Y334633D01*
X150453Y334593D01*
X150449Y334553D01*
Y334531D01*
X150453Y334517D01*
X150460Y334477D01*
X150471Y334429D01*
X150493Y334375D01*
X150525Y334316D01*
X150547Y334287D01*
X150569Y334258D01*
X150598Y334233D01*
X150631Y334207D01*
X150635D01*
X150642Y334200D01*
X150657Y334193D01*
X150675Y334182D01*
X150704Y334171D01*
X150737Y334156D01*
X150777Y334145D01*
X150824Y334131D01*
X150879Y334116D01*
X150941Y334102D01*
X151010Y334087D01*
X151086Y334076D01*
X151173Y334065D01*
X151268Y334058D01*
X151370Y334054D01*
X151483Y334051D01*
X151490D01*
X151508D01*
X151541D01*
X151585Y334054D01*
X151632D01*
X151690Y334058D01*
X151752Y334062D01*
X151818Y334069D01*
X151960Y334087D01*
X152029Y334098D01*
X152094Y334113D01*
X152156Y334127D01*
X152215Y334149D01*
X152265Y334171D01*
X152309Y334196D01*
X152313D01*
X152316Y334204D01*
X152342Y334222D01*
X152375Y334255D01*
X152411Y334295D01*
X152447Y334349D01*
X152480Y334411D01*
X152506Y334480D01*
X152509Y334517D01*
X152513Y334557D01*
Y334579D01*
X152509Y334593D01*
X152502Y334630D01*
X152488Y334681D01*
X152462Y334735D01*
X152426Y334797D01*
X152404Y334826D01*
X152375Y334855D01*
X152346Y334884D01*
X152309Y334913D01*
X152305D01*
X152298Y334921D01*
X152287Y334928D01*
X152269Y334935D01*
X152244Y334950D01*
X152211Y334961D01*
X152174Y334975D01*
X152131Y334990D01*
X152076Y335001D01*
X152018Y335015D01*
X151949Y335030D01*
X151876Y335041D01*
X151789Y335048D01*
X151698Y335055D01*
X151596Y335063D01*
D02*
G37*
G36*
Y333104D02*
X151483D01*
X151479D01*
X151476D01*
X151457D01*
X151425D01*
X151381Y333101D01*
X151334D01*
X151275Y333097D01*
X151214Y333094D01*
X151144Y333086D01*
X151006Y333068D01*
X150937Y333057D01*
X150871Y333043D01*
X150809Y333028D01*
X150751Y333006D01*
X150700Y332984D01*
X150657Y332959D01*
X150653D01*
X150649Y332951D01*
X150638Y332944D01*
X150624Y332933D01*
X150591Y332901D01*
X150551Y332860D01*
X150515Y332806D01*
X150482Y332744D01*
X150467Y332711D01*
X150456Y332675D01*
X150453Y332635D01*
X150449Y332595D01*
Y332573D01*
X150453Y332558D01*
X150460Y332518D01*
X150471Y332471D01*
X150493Y332417D01*
X150525Y332358D01*
X150547Y332329D01*
X150569Y332300D01*
X150598Y332275D01*
X150631Y332249D01*
X150635D01*
X150642Y332242D01*
X150657Y332235D01*
X150675Y332224D01*
X150704Y332213D01*
X150737Y332198D01*
X150777Y332187D01*
X150824Y332173D01*
X150879Y332158D01*
X150941Y332143D01*
X151010Y332129D01*
X151086Y332118D01*
X151173Y332107D01*
X151268Y332100D01*
X151370Y332096D01*
X151483Y332092D01*
X151490D01*
X151508D01*
X151541D01*
X151585Y332096D01*
X151632D01*
X151690Y332100D01*
X151752Y332103D01*
X151818Y332111D01*
X151960Y332129D01*
X152029Y332140D01*
X152094Y332154D01*
X152156Y332169D01*
X152215Y332191D01*
X152265Y332213D01*
X152309Y332238D01*
X152313D01*
X152316Y332245D01*
X152342Y332264D01*
X152375Y332296D01*
X152411Y332336D01*
X152447Y332391D01*
X152480Y332453D01*
X152506Y332522D01*
X152509Y332558D01*
X152513Y332598D01*
Y332620D01*
X152509Y332635D01*
X152502Y332671D01*
X152488Y332722D01*
X152462Y332777D01*
X152426Y332839D01*
X152404Y332868D01*
X152375Y332897D01*
X152346Y332926D01*
X152309Y332955D01*
X152305D01*
X152298Y332962D01*
X152287Y332970D01*
X152269Y332977D01*
X152244Y332992D01*
X152211Y333002D01*
X152174Y333017D01*
X152131Y333032D01*
X152076Y333043D01*
X152018Y333057D01*
X151949Y333072D01*
X151876Y333083D01*
X151789Y333090D01*
X151698Y333097D01*
X151596Y333104D01*
D02*
G37*
G36*
X552809Y208377D02*
X552751D01*
X552736Y208373D01*
X552696Y208370D01*
X552649Y208355D01*
X552591Y208337D01*
X552529Y208304D01*
X552467Y208264D01*
X552438Y208235D01*
X552409Y208206D01*
Y208202D01*
X552401Y208199D01*
X552394Y208188D01*
X552387Y208177D01*
X552361Y208140D01*
X552336Y208089D01*
X552307Y208028D01*
X552281Y207951D01*
X552267Y207864D01*
X552259Y207769D01*
Y207766D01*
Y207758D01*
Y207747D01*
X552263Y207729D01*
Y207707D01*
X552267Y207685D01*
X552277Y207631D01*
X552296Y207569D01*
X552317Y207503D01*
X552354Y207438D01*
X552401Y207380D01*
X552409Y207372D01*
X552427Y207358D01*
X552459Y207332D01*
X552499Y207307D01*
X552554Y207278D01*
X552616Y207252D01*
X552685Y207238D01*
X552762Y207230D01*
X552783D01*
X552798Y207234D01*
X552838Y207238D01*
X552885Y207249D01*
X552944Y207267D01*
X553002Y207292D01*
X553060Y207329D01*
X553115Y207380D01*
X553122Y207387D01*
X553136Y207409D01*
X553158Y207442D01*
X553187Y207489D01*
X553213Y207547D01*
X553235Y207616D01*
X553249Y207700D01*
X553257Y207795D01*
Y207798D01*
Y207805D01*
Y207820D01*
X553253Y207838D01*
Y207864D01*
X553249Y207889D01*
X553238Y207947D01*
X553224Y208017D01*
X553198Y208089D01*
X553162Y208159D01*
X553115Y208221D01*
Y208224D01*
X553107Y208228D01*
X553089Y208246D01*
X553060Y208272D01*
X553020Y208301D01*
X552969Y208326D01*
X552911Y208351D01*
X552845Y208370D01*
X552809Y208377D01*
D02*
G37*
G36*
X554720D02*
X554698D01*
X554683Y208373D01*
X554643Y208366D01*
X554596Y208355D01*
X554541Y208333D01*
X554483Y208301D01*
X554454Y208279D01*
X554425Y208257D01*
X554399Y208228D01*
X554374Y208195D01*
Y208191D01*
X554367Y208184D01*
X554359Y208170D01*
X554349Y208151D01*
X554338Y208122D01*
X554323Y208089D01*
X554312Y208049D01*
X554298Y208002D01*
X554283Y207947D01*
X554269Y207886D01*
X554254Y207817D01*
X554243Y207740D01*
X554232Y207653D01*
X554225Y207558D01*
X554221Y207456D01*
X554218Y207343D01*
Y207336D01*
Y207318D01*
Y207285D01*
X554221Y207241D01*
Y207194D01*
X554225Y207136D01*
X554228Y207074D01*
X554236Y207008D01*
X554254Y206866D01*
X554265Y206797D01*
X554279Y206732D01*
X554294Y206670D01*
X554316Y206612D01*
X554338Y206561D01*
X554363Y206517D01*
Y206513D01*
X554370Y206510D01*
X554389Y206484D01*
X554421Y206452D01*
X554461Y206415D01*
X554516Y206379D01*
X554578Y206346D01*
X554647Y206320D01*
X554683Y206317D01*
X554724Y206313D01*
X554745D01*
X554760Y206317D01*
X554796Y206324D01*
X554847Y206339D01*
X554902Y206364D01*
X554964Y206400D01*
X554993Y206422D01*
X555022Y206452D01*
X555051Y206481D01*
X555080Y206517D01*
Y206521D01*
X555088Y206528D01*
X555095Y206539D01*
X555102Y206557D01*
X555117Y206582D01*
X555127Y206615D01*
X555142Y206652D01*
X555157Y206695D01*
X555168Y206750D01*
X555182Y206808D01*
X555197Y206877D01*
X555208Y206950D01*
X555215Y207037D01*
X555222Y207129D01*
X555230Y207230D01*
Y207343D01*
Y207347D01*
Y207351D01*
Y207369D01*
Y207401D01*
X555226Y207445D01*
Y207492D01*
X555222Y207551D01*
X555219Y207613D01*
X555211Y207682D01*
X555193Y207820D01*
X555182Y207889D01*
X555168Y207955D01*
X555153Y208017D01*
X555131Y208075D01*
X555109Y208126D01*
X555084Y208170D01*
Y208173D01*
X555077Y208177D01*
X555069Y208188D01*
X555058Y208202D01*
X555026Y208235D01*
X554986Y208275D01*
X554931Y208312D01*
X554869Y208344D01*
X554836Y208359D01*
X554800Y208370D01*
X554760Y208373D01*
X554720Y208377D01*
D02*
G37*
G36*
X550417D02*
X550381D01*
X550355Y208373D01*
X550323Y208370D01*
X550286Y208363D01*
X550246Y208355D01*
X550203Y208344D01*
X550152Y208330D01*
X550104Y208315D01*
X550053Y208293D01*
X549999Y208268D01*
X549948Y208239D01*
X549897Y208202D01*
X549846Y208166D01*
X549799Y208119D01*
X549795Y208115D01*
X549788Y208108D01*
X549777Y208093D01*
X549762Y208071D01*
X549740Y208046D01*
X549722Y208013D01*
X549700Y207973D01*
X549679Y207929D01*
X549653Y207878D01*
X549631Y207820D01*
X549613Y207758D01*
X549595Y207689D01*
X549577Y207616D01*
X549566Y207536D01*
X549558Y207449D01*
X549555Y207358D01*
Y207351D01*
Y207336D01*
Y207311D01*
X549558Y207278D01*
X549562Y207238D01*
X549569Y207190D01*
X549577Y207136D01*
X549584Y207081D01*
X549613Y206957D01*
X549631Y206896D01*
X549657Y206834D01*
X549682Y206772D01*
X549715Y206714D01*
X549751Y206655D01*
X549795Y206604D01*
X549799Y206601D01*
X549806Y206593D01*
X549820Y206579D01*
X549839Y206564D01*
X549864Y206542D01*
X549893Y206521D01*
X549926Y206499D01*
X549966Y206473D01*
X550006Y206448D01*
X550053Y206426D01*
X550104Y206404D01*
X550159Y206382D01*
X550221Y206368D01*
X550283Y206353D01*
X550348Y206346D01*
X550417Y206342D01*
X550450D01*
X550483Y206346D01*
X550527Y206349D01*
X550581Y206357D01*
X550636Y206371D01*
X550698Y206386D01*
X550756Y206408D01*
X550749Y206411D01*
X550730Y206426D01*
X550698Y206444D01*
X550658Y206466D01*
X550607Y206488D01*
X550552Y206513D01*
X550490Y206535D01*
X550425Y206553D01*
X550508Y206794D01*
X550512D01*
X550523Y206790D01*
X550537Y206786D01*
X550556Y206779D01*
X550581Y206772D01*
X550610Y206761D01*
X550676Y206735D01*
X550752Y206699D01*
X550832Y206659D01*
X550909Y206612D01*
X550985Y206553D01*
X550989Y206557D01*
X551000Y206564D01*
X551014Y206582D01*
X551032Y206604D01*
X551054Y206633D01*
X551080Y206666D01*
X551105Y206706D01*
X551134Y206754D01*
X551160Y206808D01*
X551185Y206870D01*
X551211Y206936D01*
X551233Y207005D01*
X551255Y207085D01*
X551269Y207169D01*
X551276Y207259D01*
X551280Y207358D01*
Y207362D01*
Y207372D01*
Y207387D01*
Y207409D01*
X551276Y207438D01*
Y207467D01*
X551273Y207503D01*
X551265Y207540D01*
X551255Y207624D01*
X551236Y207715D01*
X551211Y207805D01*
X551174Y207893D01*
Y207896D01*
X551171Y207904D01*
X551164Y207915D01*
X551156Y207929D01*
X551131Y207973D01*
X551098Y208024D01*
X551054Y208082D01*
X551000Y208140D01*
X550938Y208199D01*
X550869Y208250D01*
X550865D01*
X550862Y208257D01*
X550851Y208261D01*
X550832Y208272D01*
X550814Y208279D01*
X550792Y208290D01*
X550738Y208315D01*
X550672Y208337D01*
X550596Y208359D01*
X550508Y208373D01*
X550417Y208377D01*
D02*
G37*
G36*
X694690Y360782D02*
X694683D01*
X694665D01*
X694632D01*
X694589Y360778D01*
X694541D01*
X694483Y360774D01*
X694421Y360771D01*
X694355Y360764D01*
X694213Y360745D01*
X694144Y360735D01*
X694079Y360720D01*
X694017Y360705D01*
X693959Y360683D01*
X693908Y360662D01*
X693864Y360636D01*
X693860D01*
X693857Y360629D01*
X693831Y360611D01*
X693799Y360578D01*
X693762Y360538D01*
X693726Y360483D01*
X693693Y360421D01*
X693668Y360352D01*
X693664Y360316D01*
X693660Y360276D01*
Y360254D01*
X693664Y360239D01*
X693671Y360203D01*
X693686Y360152D01*
X693711Y360098D01*
X693748Y360036D01*
X693769Y360006D01*
X693799Y359977D01*
X693828Y359948D01*
X693864Y359919D01*
X693868D01*
X693875Y359912D01*
X693886Y359905D01*
X693904Y359897D01*
X693930Y359883D01*
X693962Y359872D01*
X693999Y359857D01*
X694042Y359843D01*
X694097Y359832D01*
X694155Y359817D01*
X694224Y359803D01*
X694297Y359792D01*
X694385Y359784D01*
X694476Y359777D01*
X694578Y359770D01*
X694690D01*
X694694D01*
X694698D01*
X694716D01*
X694749D01*
X694792Y359773D01*
X694840D01*
X694898Y359777D01*
X694960Y359781D01*
X695029Y359788D01*
X695167Y359806D01*
X695236Y359817D01*
X695302Y359832D01*
X695364Y359846D01*
X695422Y359868D01*
X695473Y359890D01*
X695517Y359915D01*
X695520D01*
X695524Y359923D01*
X695535Y359930D01*
X695549Y359941D01*
X695582Y359974D01*
X695622Y360014D01*
X695659Y360068D01*
X695691Y360130D01*
X695706Y360163D01*
X695717Y360199D01*
X695720Y360239D01*
X695724Y360279D01*
Y360301D01*
X695720Y360316D01*
X695713Y360356D01*
X695702Y360403D01*
X695681Y360458D01*
X695648Y360516D01*
X695626Y360545D01*
X695604Y360574D01*
X695575Y360600D01*
X695542Y360625D01*
X695539D01*
X695531Y360633D01*
X695517Y360640D01*
X695498Y360651D01*
X695469Y360662D01*
X695437Y360676D01*
X695397Y360687D01*
X695349Y360702D01*
X695295Y360716D01*
X695233Y360731D01*
X695164Y360745D01*
X695087Y360756D01*
X695000Y360767D01*
X694905Y360774D01*
X694803Y360778D01*
X694690Y360782D01*
D02*
G37*
G36*
X694337Y358944D02*
Y358150D01*
X695466D01*
X694337Y358944D01*
D02*
G37*
G36*
X742328Y360782D02*
X742321D01*
X742303D01*
X742270D01*
X742226Y360778D01*
X742179D01*
X742121Y360774D01*
X742059Y360771D01*
X741993Y360764D01*
X741851Y360745D01*
X741782Y360735D01*
X741717Y360720D01*
X741655Y360705D01*
X741597Y360683D01*
X741546Y360662D01*
X741502Y360636D01*
X741498D01*
X741495Y360629D01*
X741469Y360611D01*
X741436Y360578D01*
X741400Y360538D01*
X741364Y360483D01*
X741331Y360421D01*
X741305Y360352D01*
X741302Y360316D01*
X741298Y360276D01*
Y360254D01*
X741302Y360239D01*
X741309Y360203D01*
X741324Y360152D01*
X741349Y360098D01*
X741385Y360036D01*
X741407Y360006D01*
X741436Y359977D01*
X741466Y359948D01*
X741502Y359919D01*
X741505D01*
X741513Y359912D01*
X741524Y359905D01*
X741542Y359897D01*
X741567Y359883D01*
X741600Y359872D01*
X741637Y359857D01*
X741680Y359843D01*
X741735Y359832D01*
X741793Y359817D01*
X741862Y359803D01*
X741935Y359792D01*
X742022Y359784D01*
X742113Y359777D01*
X742215Y359770D01*
X742328D01*
X742332D01*
X742336D01*
X742354D01*
X742386D01*
X742430Y359773D01*
X742477D01*
X742536Y359777D01*
X742597Y359781D01*
X742667Y359788D01*
X742805Y359806D01*
X742874Y359817D01*
X742940Y359832D01*
X743002Y359846D01*
X743060Y359868D01*
X743111Y359890D01*
X743154Y359915D01*
X743158D01*
X743162Y359923D01*
X743173Y359930D01*
X743187Y359941D01*
X743220Y359974D01*
X743260Y360014D01*
X743296Y360068D01*
X743329Y360130D01*
X743344Y360163D01*
X743355Y360199D01*
X743358Y360239D01*
X743362Y360279D01*
Y360301D01*
X743358Y360316D01*
X743351Y360356D01*
X743340Y360403D01*
X743318Y360458D01*
X743286Y360516D01*
X743264Y360545D01*
X743242Y360574D01*
X743213Y360600D01*
X743180Y360625D01*
X743176D01*
X743169Y360633D01*
X743154Y360640D01*
X743136Y360651D01*
X743107Y360662D01*
X743074Y360676D01*
X743034Y360687D01*
X742987Y360702D01*
X742932Y360716D01*
X742871Y360731D01*
X742801Y360745D01*
X742725Y360756D01*
X742638Y360767D01*
X742543Y360774D01*
X742441Y360778D01*
X742328Y360782D01*
D02*
G37*
G36*
X442069Y208202D02*
X441956D01*
X441952D01*
X441949D01*
X441930D01*
X441898D01*
X441854Y208198D01*
X441807D01*
X441749Y208195D01*
X441687Y208191D01*
X441617Y208184D01*
X441479Y208166D01*
X441410Y208155D01*
X441344Y208140D01*
X441283Y208126D01*
X441224Y208104D01*
X441173Y208082D01*
X441130Y208056D01*
X441126D01*
X441122Y208049D01*
X441112Y208042D01*
X441097Y208031D01*
X441064Y207998D01*
X441024Y207958D01*
X440988Y207904D01*
X440955Y207842D01*
X440940Y207809D01*
X440930Y207773D01*
X440926Y207733D01*
X440922Y207693D01*
Y207671D01*
X440926Y207656D01*
X440933Y207616D01*
X440944Y207569D01*
X440966Y207514D01*
X440999Y207456D01*
X441020Y207427D01*
X441042Y207398D01*
X441071Y207372D01*
X441104Y207347D01*
X441108D01*
X441115Y207339D01*
X441130Y207332D01*
X441148Y207321D01*
X441177Y207310D01*
X441210Y207296D01*
X441250Y207285D01*
X441297Y207270D01*
X441352Y207256D01*
X441414Y207241D01*
X441483Y207227D01*
X441559Y207216D01*
X441646Y207205D01*
X441741Y207197D01*
X441843Y207194D01*
X441956Y207190D01*
X441963D01*
X441981D01*
X442014D01*
X442058Y207194D01*
X442105D01*
X442163Y207197D01*
X442225Y207201D01*
X442291Y207208D01*
X442433Y207227D01*
X442502Y207238D01*
X442567Y207252D01*
X442629Y207267D01*
X442688Y207289D01*
X442738Y207310D01*
X442782Y207336D01*
X442786D01*
X442790Y207343D01*
X442815Y207361D01*
X442848Y207394D01*
X442884Y207434D01*
X442920Y207489D01*
X442953Y207551D01*
X442979Y207620D01*
X442982Y207656D01*
X442986Y207696D01*
Y207718D01*
X442982Y207733D01*
X442975Y207769D01*
X442961Y207820D01*
X442935Y207874D01*
X442899Y207936D01*
X442877Y207965D01*
X442848Y207995D01*
X442819Y208024D01*
X442782Y208053D01*
X442779D01*
X442771Y208060D01*
X442760Y208067D01*
X442742Y208075D01*
X442717Y208089D01*
X442684Y208100D01*
X442648Y208115D01*
X442604Y208129D01*
X442549Y208140D01*
X442491Y208155D01*
X442422Y208169D01*
X442349Y208180D01*
X442262Y208188D01*
X442171Y208195D01*
X442069Y208202D01*
D02*
G37*
G36*
Y206244D02*
X441956D01*
X441952D01*
X441949D01*
X441930D01*
X441898D01*
X441854Y206240D01*
X441807D01*
X441749Y206237D01*
X441687Y206233D01*
X441617Y206226D01*
X441479Y206207D01*
X441410Y206196D01*
X441344Y206182D01*
X441283Y206167D01*
X441224Y206146D01*
X441173Y206124D01*
X441130Y206098D01*
X441126D01*
X441122Y206091D01*
X441112Y206084D01*
X441097Y206073D01*
X441064Y206040D01*
X441024Y206000D01*
X440988Y205945D01*
X440955Y205883D01*
X440940Y205851D01*
X440930Y205814D01*
X440926Y205774D01*
X440922Y205734D01*
Y205712D01*
X440926Y205698D01*
X440933Y205658D01*
X440944Y205610D01*
X440966Y205556D01*
X440999Y205498D01*
X441020Y205468D01*
X441042Y205439D01*
X441071Y205414D01*
X441104Y205388D01*
X441108D01*
X441115Y205381D01*
X441130Y205374D01*
X441148Y205363D01*
X441177Y205352D01*
X441210Y205337D01*
X441250Y205327D01*
X441297Y205312D01*
X441352Y205297D01*
X441414Y205283D01*
X441483Y205268D01*
X441559Y205257D01*
X441646Y205246D01*
X441741Y205239D01*
X441843Y205236D01*
X441956Y205232D01*
X441963D01*
X441981D01*
X442014D01*
X442058Y205236D01*
X442105D01*
X442163Y205239D01*
X442225Y205243D01*
X442291Y205250D01*
X442433Y205268D01*
X442502Y205279D01*
X442567Y205294D01*
X442629Y205308D01*
X442688Y205330D01*
X442738Y205352D01*
X442782Y205377D01*
X442786D01*
X442790Y205385D01*
X442815Y205403D01*
X442848Y205436D01*
X442884Y205476D01*
X442920Y205530D01*
X442953Y205592D01*
X442979Y205661D01*
X442982Y205698D01*
X442986Y205738D01*
Y205760D01*
X442982Y205774D01*
X442975Y205811D01*
X442961Y205862D01*
X442935Y205916D01*
X442899Y205978D01*
X442877Y206007D01*
X442848Y206036D01*
X442819Y206065D01*
X442782Y206095D01*
X442779D01*
X442771Y206102D01*
X442760Y206109D01*
X442742Y206116D01*
X442717Y206131D01*
X442684Y206142D01*
X442648Y206156D01*
X442604Y206171D01*
X442549Y206182D01*
X442491Y206196D01*
X442422Y206211D01*
X442349Y206222D01*
X442262Y206229D01*
X442171Y206237D01*
X442069Y206244D01*
D02*
G37*
G36*
X441505Y204271D02*
X441501D01*
X441494D01*
X441479D01*
X441461Y204267D01*
X441435D01*
X441410Y204264D01*
X441352Y204253D01*
X441283Y204238D01*
X441210Y204213D01*
X441141Y204176D01*
X441079Y204129D01*
X441075D01*
X441071Y204122D01*
X441053Y204103D01*
X441028Y204074D01*
X440999Y204034D01*
X440973Y203983D01*
X440948Y203925D01*
X440930Y203860D01*
X440922Y203823D01*
Y203765D01*
X440926Y203750D01*
X440930Y203710D01*
X440944Y203663D01*
X440962Y203605D01*
X440995Y203543D01*
X441035Y203481D01*
X441064Y203452D01*
X441093Y203423D01*
X441097D01*
X441101Y203415D01*
X441112Y203408D01*
X441122Y203401D01*
X441159Y203376D01*
X441210Y203350D01*
X441272Y203321D01*
X441348Y203295D01*
X441435Y203281D01*
X441530Y203274D01*
X441534D01*
X441541D01*
X441552D01*
X441570Y203277D01*
X441592D01*
X441614Y203281D01*
X441668Y203292D01*
X441730Y203310D01*
X441796Y203332D01*
X441861Y203368D01*
X441920Y203415D01*
X441927Y203423D01*
X441941Y203441D01*
X441967Y203474D01*
X441992Y203514D01*
X442022Y203568D01*
X442047Y203630D01*
X442062Y203699D01*
X442069Y203776D01*
Y203798D01*
X442065Y203812D01*
X442062Y203852D01*
X442051Y203900D01*
X442032Y203958D01*
X442007Y204016D01*
X441970Y204074D01*
X441920Y204129D01*
X441912Y204136D01*
X441890Y204151D01*
X441858Y204173D01*
X441810Y204202D01*
X441752Y204227D01*
X441683Y204249D01*
X441599Y204264D01*
X441505Y204271D01*
D02*
G37*
G36*
X441941Y202294D02*
X441938D01*
X441927D01*
X441912D01*
X441890D01*
X441861Y202291D01*
X441832D01*
X441796Y202287D01*
X441759Y202280D01*
X441676Y202269D01*
X441585Y202251D01*
X441494Y202225D01*
X441406Y202189D01*
X441403D01*
X441395Y202185D01*
X441385Y202178D01*
X441370Y202171D01*
X441326Y202145D01*
X441275Y202112D01*
X441217Y202069D01*
X441159Y202014D01*
X441101Y201952D01*
X441050Y201883D01*
Y201879D01*
X441042Y201876D01*
X441039Y201865D01*
X441028Y201847D01*
X441020Y201828D01*
X441010Y201807D01*
X440984Y201752D01*
X440962Y201687D01*
X440940Y201610D01*
X440926Y201523D01*
X440922Y201432D01*
Y201395D01*
X440926Y201370D01*
X440930Y201337D01*
X440937Y201301D01*
X440944Y201261D01*
X440955Y201217D01*
X440970Y201166D01*
X440984Y201119D01*
X441006Y201068D01*
X441031Y201013D01*
X441060Y200962D01*
X441097Y200911D01*
X441133Y200860D01*
X441181Y200813D01*
X441184Y200809D01*
X441191Y200802D01*
X441206Y200791D01*
X441228Y200777D01*
X441253Y200755D01*
X441286Y200736D01*
X441326Y200715D01*
X441370Y200693D01*
X441421Y200667D01*
X441479Y200645D01*
X441541Y200627D01*
X441610Y200609D01*
X441683Y200591D01*
X441763Y200580D01*
X441850Y200573D01*
X441941Y200569D01*
X441949D01*
X441963D01*
X441989D01*
X442022Y200573D01*
X442062Y200576D01*
X442109Y200584D01*
X442163Y200591D01*
X442218Y200598D01*
X442342Y200627D01*
X442404Y200645D01*
X442465Y200671D01*
X442527Y200696D01*
X442586Y200729D01*
X442644Y200766D01*
X442695Y200809D01*
X442698Y200813D01*
X442706Y200820D01*
X442720Y200835D01*
X442735Y200853D01*
X442757Y200878D01*
X442779Y200907D01*
X442800Y200940D01*
X442826Y200980D01*
X442851Y201020D01*
X442873Y201068D01*
X442895Y201119D01*
X442917Y201173D01*
X442932Y201235D01*
X442946Y201297D01*
X442953Y201362D01*
X442957Y201432D01*
Y201465D01*
X442953Y201497D01*
X442950Y201541D01*
X442942Y201595D01*
X442928Y201650D01*
X442913Y201712D01*
X442891Y201770D01*
X442888Y201763D01*
X442873Y201745D01*
X442855Y201712D01*
X442833Y201672D01*
X442811Y201621D01*
X442786Y201566D01*
X442764Y201504D01*
X442746Y201439D01*
X442506Y201523D01*
Y201526D01*
X442509Y201537D01*
X442513Y201552D01*
X442520Y201570D01*
X442527Y201595D01*
X442538Y201625D01*
X442564Y201690D01*
X442600Y201767D01*
X442640Y201847D01*
X442688Y201923D01*
X442746Y201999D01*
X442742Y202003D01*
X442735Y202014D01*
X442717Y202029D01*
X442695Y202047D01*
X442666Y202069D01*
X442633Y202094D01*
X442593Y202120D01*
X442546Y202149D01*
X442491Y202174D01*
X442429Y202200D01*
X442364Y202225D01*
X442295Y202247D01*
X442214Y202269D01*
X442131Y202283D01*
X442040Y202291D01*
X441941Y202294D01*
D02*
G37*
G36*
X611328Y110299D02*
X611215D01*
X611211D01*
X611208D01*
X611190D01*
X611157D01*
X611113Y110295D01*
X611066D01*
X611008Y110291D01*
X610946Y110288D01*
X610877Y110280D01*
X610738Y110262D01*
X610669Y110251D01*
X610604Y110237D01*
X610542Y110222D01*
X610484Y110200D01*
X610432Y110178D01*
X610389Y110153D01*
X610385D01*
X610382Y110146D01*
X610371Y110138D01*
X610356Y110127D01*
X610323Y110095D01*
X610283Y110055D01*
X610247Y110000D01*
X610214Y109938D01*
X610199Y109905D01*
X610189Y109869D01*
X610185Y109829D01*
X610181Y109789D01*
Y109767D01*
X610185Y109753D01*
X610192Y109712D01*
X610203Y109665D01*
X610225Y109610D01*
X610258Y109552D01*
X610280Y109523D01*
X610301Y109494D01*
X610331Y109469D01*
X610363Y109443D01*
X610367D01*
X610374Y109436D01*
X610389Y109429D01*
X610407Y109418D01*
X610436Y109407D01*
X610469Y109392D01*
X610509Y109381D01*
X610556Y109367D01*
X610611Y109352D01*
X610673Y109337D01*
X610742Y109323D01*
X610818Y109312D01*
X610906Y109301D01*
X611000Y109294D01*
X611102Y109290D01*
X611215Y109287D01*
X611222D01*
X611241D01*
X611273D01*
X611317Y109290D01*
X611364D01*
X611423Y109294D01*
X611484Y109298D01*
X611550Y109305D01*
X611692Y109323D01*
X611761Y109334D01*
X611827Y109348D01*
X611889Y109363D01*
X611947Y109385D01*
X611998Y109407D01*
X612041Y109432D01*
X612045D01*
X612049Y109439D01*
X612074Y109458D01*
X612107Y109490D01*
X612143Y109530D01*
X612180Y109585D01*
X612213Y109647D01*
X612238Y109716D01*
X612242Y109753D01*
X612245Y109792D01*
Y109814D01*
X612242Y109829D01*
X612234Y109865D01*
X612220Y109916D01*
X612194Y109971D01*
X612158Y110033D01*
X612136Y110062D01*
X612107Y110091D01*
X612078Y110120D01*
X612041Y110149D01*
X612038D01*
X612031Y110157D01*
X612019Y110164D01*
X612001Y110171D01*
X611976Y110186D01*
X611943Y110197D01*
X611907Y110211D01*
X611863Y110226D01*
X611808Y110237D01*
X611750Y110251D01*
X611681Y110266D01*
X611608Y110277D01*
X611521Y110284D01*
X611430Y110291D01*
X611328Y110299D01*
D02*
G37*
G36*
X661472Y201002D02*
X660781Y200740D01*
X660777D01*
X660766Y200736D01*
X660748Y200729D01*
X660726Y200722D01*
X660701Y200711D01*
X660668Y200700D01*
X660632Y200689D01*
X660595Y200675D01*
X660511Y200645D01*
X660424Y200616D01*
X660337Y200587D01*
X660253Y200562D01*
X660257D01*
X660264Y200558D01*
X660279D01*
X660293Y200551D01*
X660319Y200547D01*
X660344Y200540D01*
X660406Y200525D01*
X660479Y200507D01*
X660559Y200482D01*
X660646Y200456D01*
X660737Y200423D01*
X661472Y200150D01*
Y201002D01*
D02*
G37*
G36*
X661381Y196987D02*
X661269D01*
X661265D01*
X661261D01*
X661243D01*
X661210D01*
X661167Y196984D01*
X661119D01*
X661061Y196980D01*
X660999Y196976D01*
X660930Y196969D01*
X660792Y196951D01*
X660723Y196940D01*
X660657Y196925D01*
X660595Y196911D01*
X660537Y196889D01*
X660486Y196867D01*
X660442Y196842D01*
X660439D01*
X660435Y196834D01*
X660424Y196827D01*
X660409Y196816D01*
X660377Y196783D01*
X660337Y196743D01*
X660300Y196689D01*
X660268Y196627D01*
X660253Y196594D01*
X660242Y196558D01*
X660239Y196518D01*
X660235Y196478D01*
Y196456D01*
X660239Y196441D01*
X660246Y196401D01*
X660257Y196354D01*
X660279Y196299D01*
X660311Y196241D01*
X660333Y196212D01*
X660355Y196183D01*
X660384Y196157D01*
X660417Y196132D01*
X660421D01*
X660428Y196124D01*
X660442Y196117D01*
X660461Y196106D01*
X660490Y196095D01*
X660522Y196081D01*
X660562Y196070D01*
X660610Y196055D01*
X660664Y196041D01*
X660726Y196026D01*
X660795Y196012D01*
X660872Y196001D01*
X660959Y195990D01*
X661054Y195983D01*
X661156Y195979D01*
X661269Y195975D01*
X661276D01*
X661294D01*
X661327D01*
X661371Y195979D01*
X661418D01*
X661476Y195983D01*
X661538Y195986D01*
X661603Y195993D01*
X661745Y196012D01*
X661815Y196023D01*
X661880Y196037D01*
X661942Y196052D01*
X662000Y196074D01*
X662051Y196095D01*
X662095Y196121D01*
X662099D01*
X662102Y196128D01*
X662128Y196146D01*
X662160Y196179D01*
X662197Y196219D01*
X662233Y196274D01*
X662266Y196336D01*
X662291Y196405D01*
X662295Y196441D01*
X662299Y196481D01*
Y196503D01*
X662295Y196518D01*
X662288Y196554D01*
X662273Y196605D01*
X662248Y196660D01*
X662211Y196721D01*
X662189Y196751D01*
X662160Y196780D01*
X662131Y196809D01*
X662095Y196838D01*
X662091D01*
X662084Y196845D01*
X662073Y196853D01*
X662055Y196860D01*
X662029Y196874D01*
X661997Y196885D01*
X661960Y196900D01*
X661916Y196914D01*
X661862Y196925D01*
X661804Y196940D01*
X661734Y196954D01*
X661662Y196965D01*
X661574Y196973D01*
X661483Y196980D01*
X661381Y196987D01*
D02*
G37*
G36*
Y195029D02*
X661269D01*
X661265D01*
X661261D01*
X661243D01*
X661210D01*
X661167Y195025D01*
X661119D01*
X661061Y195022D01*
X660999Y195018D01*
X660930Y195011D01*
X660792Y194992D01*
X660723Y194982D01*
X660657Y194967D01*
X660595Y194952D01*
X660537Y194931D01*
X660486Y194909D01*
X660442Y194883D01*
X660439D01*
X660435Y194876D01*
X660424Y194869D01*
X660409Y194858D01*
X660377Y194825D01*
X660337Y194785D01*
X660300Y194730D01*
X660268Y194668D01*
X660253Y194636D01*
X660242Y194599D01*
X660239Y194559D01*
X660235Y194519D01*
Y194497D01*
X660239Y194483D01*
X660246Y194443D01*
X660257Y194395D01*
X660279Y194341D01*
X660311Y194283D01*
X660333Y194254D01*
X660355Y194224D01*
X660384Y194199D01*
X660417Y194174D01*
X660421D01*
X660428Y194166D01*
X660442Y194159D01*
X660461Y194148D01*
X660490Y194137D01*
X660522Y194123D01*
X660562Y194112D01*
X660610Y194097D01*
X660664Y194082D01*
X660726Y194068D01*
X660795Y194053D01*
X660872Y194042D01*
X660959Y194032D01*
X661054Y194024D01*
X661156Y194021D01*
X661269Y194017D01*
X661276D01*
X661294D01*
X661327D01*
X661371Y194021D01*
X661418D01*
X661476Y194024D01*
X661538Y194028D01*
X661603Y194035D01*
X661745Y194053D01*
X661815Y194064D01*
X661880Y194079D01*
X661942Y194093D01*
X662000Y194115D01*
X662051Y194137D01*
X662095Y194163D01*
X662099D01*
X662102Y194170D01*
X662128Y194188D01*
X662160Y194221D01*
X662197Y194261D01*
X662233Y194315D01*
X662266Y194377D01*
X662291Y194447D01*
X662295Y194483D01*
X662299Y194523D01*
Y194545D01*
X662295Y194559D01*
X662288Y194596D01*
X662273Y194647D01*
X662248Y194701D01*
X662211Y194763D01*
X662189Y194792D01*
X662160Y194821D01*
X662131Y194851D01*
X662095Y194880D01*
X662091D01*
X662084Y194887D01*
X662073Y194894D01*
X662055Y194902D01*
X662029Y194916D01*
X661997Y194927D01*
X661960Y194941D01*
X661916Y194956D01*
X661862Y194967D01*
X661804Y194982D01*
X661734Y194996D01*
X661662Y195007D01*
X661574Y195014D01*
X661483Y195022D01*
X661381Y195029D01*
D02*
G37*
G36*
X661622Y192732D02*
X660493D01*
X661622Y191938D01*
Y192732D01*
D02*
G37*
G36*
X485854Y151772D02*
X485847D01*
X485832D01*
X485807D01*
X485774Y151768D01*
X485734Y151765D01*
X485686Y151758D01*
X485632Y151750D01*
X485577Y151743D01*
X485454Y151714D01*
X485392Y151696D01*
X485330Y151670D01*
X485268Y151645D01*
X485210Y151612D01*
X485151Y151576D01*
X485100Y151532D01*
X485097Y151528D01*
X485089Y151521D01*
X485075Y151506D01*
X485060Y151488D01*
X485039Y151463D01*
X485017Y151434D01*
X484995Y151401D01*
X484969Y151361D01*
X484944Y151321D01*
X484922Y151273D01*
X484900Y151222D01*
X484878Y151168D01*
X484864Y151106D01*
X484849Y151044D01*
X484842Y150979D01*
X484838Y150909D01*
Y150877D01*
X484842Y150844D01*
X484846Y150800D01*
X484853Y150746D01*
X484867Y150691D01*
X484882Y150629D01*
X484904Y150571D01*
X484907Y150578D01*
X484922Y150596D01*
X484940Y150629D01*
X484962Y150669D01*
X484984Y150720D01*
X485009Y150775D01*
X485031Y150837D01*
X485049Y150902D01*
X485290Y150818D01*
Y150815D01*
X485286Y150804D01*
X485282Y150789D01*
X485275Y150771D01*
X485268Y150746D01*
X485257Y150716D01*
X485231Y150651D01*
X485195Y150575D01*
X485155Y150494D01*
X485108Y150418D01*
X485049Y150341D01*
X485053Y150338D01*
X485060Y150327D01*
X485079Y150312D01*
X485100Y150294D01*
X485129Y150272D01*
X485162Y150247D01*
X485202Y150221D01*
X485250Y150192D01*
X485304Y150167D01*
X485366Y150141D01*
X485432Y150116D01*
X485501Y150094D01*
X485581Y150072D01*
X485665Y150058D01*
X485756Y150050D01*
X485854Y150047D01*
X485857D01*
X485869D01*
X485883D01*
X485905D01*
X485934Y150050D01*
X485963D01*
X485999Y150054D01*
X486036Y150061D01*
X486120Y150072D01*
X486211Y150090D01*
X486302Y150116D01*
X486389Y150152D01*
X486393D01*
X486400Y150156D01*
X486411Y150163D01*
X486425Y150171D01*
X486469Y150196D01*
X486520Y150229D01*
X486578Y150272D01*
X486636Y150327D01*
X486695Y150389D01*
X486746Y150458D01*
Y150462D01*
X486753Y150465D01*
X486757Y150476D01*
X486767Y150494D01*
X486775Y150513D01*
X486786Y150534D01*
X486811Y150589D01*
X486833Y150655D01*
X486855Y150731D01*
X486869Y150818D01*
X486873Y150909D01*
Y150946D01*
X486869Y150971D01*
X486866Y151004D01*
X486859Y151040D01*
X486851Y151080D01*
X486840Y151124D01*
X486826Y151175D01*
X486811Y151222D01*
X486789Y151273D01*
X486764Y151328D01*
X486735Y151379D01*
X486698Y151430D01*
X486662Y151481D01*
X486615Y151528D01*
X486611Y151532D01*
X486604Y151539D01*
X486589Y151550D01*
X486567Y151565D01*
X486542Y151586D01*
X486509Y151605D01*
X486469Y151626D01*
X486425Y151648D01*
X486374Y151674D01*
X486316Y151696D01*
X486254Y151714D01*
X486185Y151732D01*
X486112Y151750D01*
X486032Y151761D01*
X485945Y151768D01*
X485854Y151772D01*
D02*
G37*
G36*
X485839Y147109D02*
X485832D01*
X485814D01*
X485781D01*
X485737Y147106D01*
X485690D01*
X485632Y147102D01*
X485570Y147098D01*
X485504Y147091D01*
X485362Y147073D01*
X485293Y147062D01*
X485228Y147047D01*
X485166Y147033D01*
X485108Y147011D01*
X485057Y146989D01*
X485013Y146964D01*
X485009D01*
X485006Y146956D01*
X484980Y146938D01*
X484947Y146905D01*
X484911Y146865D01*
X484875Y146811D01*
X484842Y146749D01*
X484817Y146680D01*
X484813Y146643D01*
X484809Y146603D01*
Y146581D01*
X484813Y146567D01*
X484820Y146530D01*
X484835Y146479D01*
X484860Y146425D01*
X484897Y146363D01*
X484918Y146334D01*
X484947Y146305D01*
X484977Y146276D01*
X485013Y146247D01*
X485017D01*
X485024Y146239D01*
X485035Y146232D01*
X485053Y146225D01*
X485079Y146210D01*
X485111Y146199D01*
X485148Y146185D01*
X485191Y146170D01*
X485246Y146159D01*
X485304Y146145D01*
X485373Y146130D01*
X485446Y146119D01*
X485534Y146112D01*
X485625Y146105D01*
X485726Y146097D01*
X485839D01*
X485843D01*
X485847D01*
X485865D01*
X485898D01*
X485941Y146101D01*
X485989D01*
X486047Y146105D01*
X486109Y146108D01*
X486178Y146116D01*
X486316Y146134D01*
X486385Y146145D01*
X486451Y146159D01*
X486513Y146174D01*
X486571Y146196D01*
X486622Y146217D01*
X486666Y146243D01*
X486669D01*
X486673Y146250D01*
X486684Y146257D01*
X486698Y146268D01*
X486731Y146301D01*
X486771Y146341D01*
X486808Y146396D01*
X486840Y146458D01*
X486855Y146490D01*
X486866Y146527D01*
X486869Y146567D01*
X486873Y146607D01*
Y146629D01*
X486869Y146643D01*
X486862Y146683D01*
X486851Y146731D01*
X486829Y146785D01*
X486797Y146844D01*
X486775Y146873D01*
X486753Y146902D01*
X486724Y146927D01*
X486691Y146953D01*
X486688D01*
X486680Y146960D01*
X486666Y146967D01*
X486647Y146978D01*
X486618Y146989D01*
X486586Y147004D01*
X486546Y147015D01*
X486498Y147029D01*
X486444Y147044D01*
X486382Y147058D01*
X486312Y147073D01*
X486236Y147084D01*
X486149Y147095D01*
X486054Y147102D01*
X485952Y147106D01*
X485839Y147109D01*
D02*
G37*
G36*
X520354Y151772D02*
X520347D01*
X520332D01*
X520307D01*
X520274Y151768D01*
X520234Y151765D01*
X520187Y151758D01*
X520132Y151750D01*
X520077Y151743D01*
X519953Y151714D01*
X519892Y151696D01*
X519830Y151670D01*
X519768Y151645D01*
X519710Y151612D01*
X519651Y151576D01*
X519600Y151532D01*
X519597Y151528D01*
X519590Y151521D01*
X519575Y151506D01*
X519560Y151488D01*
X519538Y151463D01*
X519517Y151434D01*
X519495Y151401D01*
X519469Y151361D01*
X519444Y151321D01*
X519422Y151273D01*
X519400Y151222D01*
X519378Y151168D01*
X519364Y151106D01*
X519349Y151044D01*
X519342Y150979D01*
X519338Y150909D01*
Y150877D01*
X519342Y150844D01*
X519346Y150800D01*
X519353Y150746D01*
X519368Y150691D01*
X519382Y150629D01*
X519404Y150571D01*
X519408Y150578D01*
X519422Y150596D01*
X519440Y150629D01*
X519462Y150669D01*
X519484Y150720D01*
X519509Y150775D01*
X519531Y150837D01*
X519550Y150902D01*
X519790Y150818D01*
Y150815D01*
X519786Y150804D01*
X519782Y150789D01*
X519775Y150771D01*
X519768Y150746D01*
X519757Y150716D01*
X519732Y150651D01*
X519695Y150575D01*
X519655Y150494D01*
X519608Y150418D01*
X519550Y150341D01*
X519553Y150338D01*
X519560Y150327D01*
X519579Y150312D01*
X519600Y150294D01*
X519629Y150272D01*
X519662Y150247D01*
X519702Y150221D01*
X519750Y150192D01*
X519804Y150167D01*
X519866Y150141D01*
X519932Y150116D01*
X520001Y150094D01*
X520081Y150072D01*
X520165Y150058D01*
X520256Y150050D01*
X520354Y150047D01*
X520358D01*
X520368D01*
X520383D01*
X520405D01*
X520434Y150050D01*
X520463D01*
X520500Y150054D01*
X520536Y150061D01*
X520620Y150072D01*
X520711Y150090D01*
X520802Y150116D01*
X520889Y150152D01*
X520893D01*
X520900Y150156D01*
X520911Y150163D01*
X520925Y150171D01*
X520969Y150196D01*
X521020Y150229D01*
X521078Y150272D01*
X521137Y150327D01*
X521195Y150389D01*
X521246Y150458D01*
Y150462D01*
X521253Y150465D01*
X521257Y150476D01*
X521268Y150494D01*
X521275Y150513D01*
X521286Y150534D01*
X521311Y150589D01*
X521333Y150655D01*
X521355Y150731D01*
X521370Y150818D01*
X521373Y150909D01*
Y150946D01*
X521370Y150971D01*
X521366Y151004D01*
X521358Y151040D01*
X521351Y151080D01*
X521340Y151124D01*
X521326Y151175D01*
X521311Y151222D01*
X521289Y151273D01*
X521264Y151328D01*
X521235Y151379D01*
X521198Y151430D01*
X521162Y151481D01*
X521115Y151528D01*
X521111Y151532D01*
X521104Y151539D01*
X521089Y151550D01*
X521067Y151565D01*
X521042Y151586D01*
X521009Y151605D01*
X520969Y151626D01*
X520925Y151648D01*
X520874Y151674D01*
X520816Y151696D01*
X520754Y151714D01*
X520685Y151732D01*
X520612Y151750D01*
X520532Y151761D01*
X520445Y151768D01*
X520354Y151772D01*
D02*
G37*
G36*
X520339Y147109D02*
X520332D01*
X520314D01*
X520281D01*
X520237Y147106D01*
X520190D01*
X520132Y147102D01*
X520070Y147098D01*
X520005Y147091D01*
X519863Y147073D01*
X519793Y147062D01*
X519728Y147047D01*
X519666Y147033D01*
X519608Y147011D01*
X519557Y146989D01*
X519513Y146964D01*
X519509D01*
X519506Y146956D01*
X519480Y146938D01*
X519448Y146905D01*
X519411Y146865D01*
X519375Y146811D01*
X519342Y146749D01*
X519316Y146680D01*
X519313Y146643D01*
X519309Y146603D01*
Y146581D01*
X519313Y146567D01*
X519320Y146530D01*
X519335Y146479D01*
X519360Y146425D01*
X519397Y146363D01*
X519418Y146334D01*
X519448Y146305D01*
X519477Y146276D01*
X519513Y146247D01*
X519517D01*
X519524Y146239D01*
X519535Y146232D01*
X519553Y146225D01*
X519579Y146210D01*
X519611Y146199D01*
X519648Y146185D01*
X519691Y146170D01*
X519746Y146159D01*
X519804Y146145D01*
X519873Y146130D01*
X519946Y146119D01*
X520034Y146112D01*
X520125Y146105D01*
X520226Y146097D01*
X520339D01*
X520343D01*
X520347D01*
X520365D01*
X520398D01*
X520441Y146101D01*
X520489D01*
X520547Y146105D01*
X520609Y146108D01*
X520678Y146116D01*
X520816Y146134D01*
X520885Y146145D01*
X520951Y146159D01*
X521013Y146174D01*
X521071Y146196D01*
X521122Y146217D01*
X521166Y146243D01*
X521169D01*
X521173Y146250D01*
X521184Y146257D01*
X521198Y146268D01*
X521231Y146301D01*
X521271Y146341D01*
X521308Y146396D01*
X521340Y146458D01*
X521355Y146490D01*
X521366Y146527D01*
X521370Y146567D01*
X521373Y146607D01*
Y146629D01*
X521370Y146643D01*
X521362Y146683D01*
X521351Y146731D01*
X521329Y146785D01*
X521297Y146844D01*
X521275Y146873D01*
X521253Y146902D01*
X521224Y146927D01*
X521191Y146953D01*
X521187D01*
X521180Y146960D01*
X521166Y146967D01*
X521147Y146978D01*
X521118Y146989D01*
X521086Y147004D01*
X521045Y147015D01*
X520998Y147029D01*
X520944Y147044D01*
X520882Y147058D01*
X520813Y147073D01*
X520736Y147084D01*
X520649Y147095D01*
X520554Y147102D01*
X520452Y147106D01*
X520339Y147109D01*
D02*
G37*
G36*
Y145151D02*
X520332D01*
X520314D01*
X520281D01*
X520237Y145147D01*
X520190D01*
X520132Y145144D01*
X520070Y145140D01*
X520005Y145133D01*
X519863Y145115D01*
X519793Y145104D01*
X519728Y145089D01*
X519666Y145074D01*
X519608Y145053D01*
X519557Y145031D01*
X519513Y145005D01*
X519509D01*
X519506Y144998D01*
X519480Y144980D01*
X519448Y144947D01*
X519411Y144907D01*
X519375Y144852D01*
X519342Y144790D01*
X519316Y144721D01*
X519313Y144685D01*
X519309Y144645D01*
Y144623D01*
X519313Y144608D01*
X519320Y144572D01*
X519335Y144521D01*
X519360Y144467D01*
X519397Y144405D01*
X519418Y144376D01*
X519448Y144346D01*
X519477Y144317D01*
X519513Y144288D01*
X519517D01*
X519524Y144281D01*
X519535Y144274D01*
X519553Y144266D01*
X519579Y144252D01*
X519611Y144241D01*
X519648Y144226D01*
X519691Y144212D01*
X519746Y144201D01*
X519804Y144186D01*
X519873Y144172D01*
X519946Y144161D01*
X520034Y144153D01*
X520125Y144146D01*
X520226Y144139D01*
X520339D01*
X520343D01*
X520347D01*
X520365D01*
X520398D01*
X520441Y144143D01*
X520489D01*
X520547Y144146D01*
X520609Y144150D01*
X520678Y144157D01*
X520816Y144175D01*
X520885Y144186D01*
X520951Y144201D01*
X521013Y144215D01*
X521071Y144237D01*
X521122Y144259D01*
X521166Y144285D01*
X521169D01*
X521173Y144292D01*
X521184Y144299D01*
X521198Y144310D01*
X521231Y144343D01*
X521271Y144383D01*
X521308Y144437D01*
X521340Y144499D01*
X521355Y144532D01*
X521366Y144569D01*
X521370Y144608D01*
X521373Y144649D01*
Y144670D01*
X521370Y144685D01*
X521362Y144725D01*
X521351Y144772D01*
X521329Y144827D01*
X521297Y144885D01*
X521275Y144914D01*
X521253Y144943D01*
X521224Y144969D01*
X521191Y144994D01*
X521187D01*
X521180Y145002D01*
X521166Y145009D01*
X521147Y145020D01*
X521118Y145031D01*
X521086Y145045D01*
X521045Y145056D01*
X520998Y145071D01*
X520944Y145085D01*
X520882Y145100D01*
X520813Y145115D01*
X520736Y145125D01*
X520649Y145136D01*
X520554Y145144D01*
X520452Y145147D01*
X520339Y145151D01*
D02*
G37*
G36*
X649175Y143731D02*
X649062D01*
X649059D01*
X649055D01*
X649037D01*
X649004D01*
X648960Y143728D01*
X648913D01*
X648855Y143724D01*
X648793Y143720D01*
X648724Y143713D01*
X648585Y143695D01*
X648516Y143684D01*
X648451Y143670D01*
X648389Y143655D01*
X648331Y143633D01*
X648280Y143611D01*
X648236Y143586D01*
X648232D01*
X648229Y143579D01*
X648218Y143571D01*
X648203Y143560D01*
X648170Y143528D01*
X648130Y143488D01*
X648094Y143433D01*
X648061Y143371D01*
X648047Y143338D01*
X648036Y143302D01*
X648032Y143262D01*
X648029Y143222D01*
Y143200D01*
X648032Y143185D01*
X648039Y143145D01*
X648050Y143098D01*
X648072Y143043D01*
X648105Y142985D01*
X648127Y142956D01*
X648149Y142927D01*
X648178Y142902D01*
X648210Y142876D01*
X648214D01*
X648221Y142869D01*
X648236Y142861D01*
X648254Y142850D01*
X648283Y142840D01*
X648316Y142825D01*
X648356Y142814D01*
X648403Y142800D01*
X648458Y142785D01*
X648520Y142771D01*
X648589Y142756D01*
X648666Y142745D01*
X648753Y142734D01*
X648847Y142727D01*
X648949Y142723D01*
X649062Y142719D01*
X649069D01*
X649088D01*
X649121D01*
X649164Y142723D01*
X649212D01*
X649270Y142727D01*
X649332Y142730D01*
X649397Y142738D01*
X649539Y142756D01*
X649608Y142767D01*
X649674Y142781D01*
X649736Y142796D01*
X649794Y142818D01*
X649845Y142840D01*
X649889Y142865D01*
X649892D01*
X649896Y142872D01*
X649921Y142891D01*
X649954Y142923D01*
X649990Y142963D01*
X650027Y143018D01*
X650060Y143080D01*
X650085Y143149D01*
X650089Y143185D01*
X650092Y143226D01*
Y143247D01*
X650089Y143262D01*
X650081Y143298D01*
X650067Y143349D01*
X650041Y143404D01*
X650005Y143466D01*
X649983Y143495D01*
X649954Y143524D01*
X649925Y143553D01*
X649889Y143582D01*
X649885D01*
X649878Y143589D01*
X649867Y143597D01*
X649849Y143604D01*
X649823Y143619D01*
X649790Y143630D01*
X649754Y143644D01*
X649710Y143659D01*
X649656Y143670D01*
X649597Y143684D01*
X649528Y143699D01*
X649455Y143710D01*
X649368Y143717D01*
X649277Y143724D01*
X649175Y143731D01*
D02*
G37*
G36*
X649048Y139782D02*
X649044D01*
X649033D01*
X649018D01*
X648997D01*
X648968Y139778D01*
X648939D01*
X648902Y139775D01*
X648866Y139768D01*
X648782Y139757D01*
X648691Y139738D01*
X648600Y139713D01*
X648513Y139676D01*
X648509D01*
X648502Y139673D01*
X648491Y139666D01*
X648476Y139658D01*
X648432Y139633D01*
X648382Y139600D01*
X648323Y139556D01*
X648265Y139502D01*
X648207Y139440D01*
X648156Y139371D01*
Y139367D01*
X648149Y139363D01*
X648145Y139353D01*
X648134Y139334D01*
X648127Y139316D01*
X648116Y139294D01*
X648090Y139240D01*
X648069Y139174D01*
X648047Y139098D01*
X648032Y139010D01*
X648029Y138919D01*
Y138883D01*
X648032Y138857D01*
X648036Y138825D01*
X648043Y138788D01*
X648050Y138748D01*
X648061Y138705D01*
X648076Y138654D01*
X648090Y138606D01*
X648112Y138555D01*
X648138Y138501D01*
X648167Y138450D01*
X648203Y138399D01*
X648240Y138348D01*
X648287Y138301D01*
X648290Y138297D01*
X648298Y138290D01*
X648312Y138279D01*
X648334Y138264D01*
X648360Y138242D01*
X648392Y138224D01*
X648432Y138202D01*
X648476Y138180D01*
X648527Y138155D01*
X648585Y138133D01*
X648647Y138115D01*
X648716Y138097D01*
X648789Y138078D01*
X648869Y138068D01*
X648957Y138060D01*
X649048Y138057D01*
X649055D01*
X649069D01*
X649095D01*
X649128Y138060D01*
X649168Y138064D01*
X649215Y138071D01*
X649270Y138078D01*
X649324Y138086D01*
X649448Y138115D01*
X649510Y138133D01*
X649572Y138159D01*
X649634Y138184D01*
X649692Y138217D01*
X649750Y138253D01*
X649801Y138297D01*
X649805Y138301D01*
X649812Y138308D01*
X649827Y138322D01*
X649841Y138341D01*
X649863Y138366D01*
X649885Y138395D01*
X649907Y138428D01*
X649932Y138468D01*
X649958Y138508D01*
X649979Y138555D01*
X650001Y138606D01*
X650023Y138661D01*
X650038Y138723D01*
X650052Y138785D01*
X650060Y138850D01*
X650063Y138919D01*
Y138952D01*
X650060Y138985D01*
X650056Y139029D01*
X650049Y139083D01*
X650034Y139138D01*
X650020Y139200D01*
X649998Y139258D01*
X649994Y139251D01*
X649979Y139232D01*
X649961Y139200D01*
X649939Y139160D01*
X649918Y139109D01*
X649892Y139054D01*
X649870Y138992D01*
X649852Y138927D01*
X649612Y139010D01*
Y139014D01*
X649615Y139025D01*
X649619Y139040D01*
X649626Y139058D01*
X649634Y139083D01*
X649645Y139112D01*
X649670Y139178D01*
X649707Y139254D01*
X649747Y139334D01*
X649794Y139411D01*
X649852Y139487D01*
X649849Y139491D01*
X649841Y139502D01*
X649823Y139516D01*
X649801Y139534D01*
X649772Y139556D01*
X649739Y139582D01*
X649699Y139607D01*
X649652Y139636D01*
X649597Y139662D01*
X649535Y139687D01*
X649470Y139713D01*
X649401Y139735D01*
X649321Y139757D01*
X649237Y139771D01*
X649146Y139778D01*
X649048Y139782D01*
D02*
G37*
G36*
X637262Y202116D02*
X637255D01*
X637241D01*
X637212Y202112D01*
X637179Y202105D01*
X637142Y202098D01*
X637102Y202083D01*
X637062Y202065D01*
X637022Y202039D01*
X637018Y202036D01*
X637004Y202025D01*
X636986Y202010D01*
X636964Y201988D01*
X636938Y201959D01*
X636913Y201923D01*
X636891Y201883D01*
X636873Y201835D01*
X636869Y201828D01*
X636866Y201814D01*
X636858Y201781D01*
X636851Y201741D01*
X636844Y201690D01*
X636836Y201628D01*
X636829Y201552D01*
Y200889D01*
X637696D01*
Y201606D01*
X637692Y201683D01*
X637688Y201715D01*
X637685Y201745D01*
Y201748D01*
X637681Y201763D01*
X637677Y201785D01*
X637670Y201810D01*
X637648Y201872D01*
X637619Y201934D01*
X637615Y201937D01*
X637608Y201948D01*
X637597Y201963D01*
X637583Y201981D01*
X637561Y201999D01*
X637539Y202025D01*
X637510Y202043D01*
X637477Y202065D01*
X637473Y202068D01*
X637463Y202072D01*
X637441Y202079D01*
X637415Y202090D01*
X637386Y202101D01*
X637350Y202109D01*
X637306Y202112D01*
X637262Y202116D01*
D02*
G37*
G36*
X636160Y202007D02*
X636152D01*
X636138D01*
X636116Y202003D01*
X636087Y201999D01*
X636050Y201992D01*
X636014Y201981D01*
X635978Y201967D01*
X635941Y201945D01*
X635938Y201941D01*
X635927Y201934D01*
X635908Y201919D01*
X635890Y201901D01*
X635868Y201876D01*
X635847Y201846D01*
X635825Y201810D01*
X635810Y201770D01*
Y201766D01*
X635803Y201748D01*
X635799Y201723D01*
X635792Y201683D01*
X635785Y201628D01*
X635781Y201566D01*
X635774Y201486D01*
Y200889D01*
X636531D01*
Y201508D01*
X636527Y201555D01*
X636523Y201606D01*
X636520Y201657D01*
X636513Y201708D01*
X636505Y201748D01*
X636502Y201755D01*
X636498Y201770D01*
X636487Y201792D01*
X636473Y201821D01*
X636458Y201850D01*
X636436Y201883D01*
X636407Y201916D01*
X636378Y201941D01*
X636374Y201945D01*
X636363Y201952D01*
X636341Y201963D01*
X636316Y201974D01*
X636287Y201985D01*
X636250Y201996D01*
X636207Y202003D01*
X636160Y202007D01*
D02*
G37*
G36*
X636866Y197853D02*
X636753D01*
X636749D01*
X636746D01*
X636727D01*
X636695D01*
X636651Y197850D01*
X636604D01*
X636545Y197846D01*
X636483Y197842D01*
X636414Y197835D01*
X636276Y197817D01*
X636207Y197806D01*
X636141Y197792D01*
X636079Y197777D01*
X636021Y197755D01*
X635970Y197733D01*
X635927Y197708D01*
X635923D01*
X635919Y197701D01*
X635908Y197693D01*
X635894Y197682D01*
X635861Y197650D01*
X635821Y197609D01*
X635785Y197555D01*
X635752Y197493D01*
X635737Y197460D01*
X635726Y197424D01*
X635723Y197384D01*
X635719Y197344D01*
Y197322D01*
X635723Y197307D01*
X635730Y197267D01*
X635741Y197220D01*
X635763Y197165D01*
X635795Y197107D01*
X635817Y197078D01*
X635839Y197049D01*
X635868Y197023D01*
X635901Y196998D01*
X635905D01*
X635912Y196991D01*
X635927Y196983D01*
X635945Y196973D01*
X635974Y196962D01*
X636007Y196947D01*
X636047Y196936D01*
X636094Y196922D01*
X636149Y196907D01*
X636210Y196892D01*
X636280Y196878D01*
X636356Y196867D01*
X636443Y196856D01*
X636538Y196849D01*
X636640Y196845D01*
X636753Y196841D01*
X636760D01*
X636778D01*
X636811D01*
X636855Y196845D01*
X636902D01*
X636960Y196849D01*
X637022Y196852D01*
X637088Y196860D01*
X637230Y196878D01*
X637299Y196889D01*
X637364Y196903D01*
X637426Y196918D01*
X637485Y196940D01*
X637535Y196962D01*
X637579Y196987D01*
X637583D01*
X637586Y196994D01*
X637612Y197012D01*
X637645Y197045D01*
X637681Y197085D01*
X637717Y197140D01*
X637750Y197202D01*
X637776Y197271D01*
X637779Y197307D01*
X637783Y197347D01*
Y197369D01*
X637779Y197384D01*
X637772Y197420D01*
X637757Y197471D01*
X637732Y197526D01*
X637696Y197588D01*
X637674Y197617D01*
X637645Y197646D01*
X637615Y197675D01*
X637579Y197704D01*
X637575D01*
X637568Y197711D01*
X637557Y197719D01*
X637539Y197726D01*
X637514Y197740D01*
X637481Y197751D01*
X637444Y197766D01*
X637401Y197781D01*
X637346Y197792D01*
X637288Y197806D01*
X637219Y197821D01*
X637146Y197831D01*
X637059Y197839D01*
X636968Y197846D01*
X636866Y197853D01*
D02*
G37*
G36*
Y195895D02*
X636753D01*
X636749D01*
X636746D01*
X636727D01*
X636695D01*
X636651Y195891D01*
X636604D01*
X636545Y195888D01*
X636483Y195884D01*
X636414Y195877D01*
X636276Y195859D01*
X636207Y195848D01*
X636141Y195833D01*
X636079Y195819D01*
X636021Y195797D01*
X635970Y195775D01*
X635927Y195749D01*
X635923D01*
X635919Y195742D01*
X635908Y195735D01*
X635894Y195724D01*
X635861Y195691D01*
X635821Y195651D01*
X635785Y195597D01*
X635752Y195535D01*
X635737Y195502D01*
X635726Y195466D01*
X635723Y195425D01*
X635719Y195385D01*
Y195364D01*
X635723Y195349D01*
X635730Y195309D01*
X635741Y195262D01*
X635763Y195207D01*
X635795Y195149D01*
X635817Y195120D01*
X635839Y195091D01*
X635868Y195065D01*
X635901Y195040D01*
X635905D01*
X635912Y195032D01*
X635927Y195025D01*
X635945Y195014D01*
X635974Y195003D01*
X636007Y194989D01*
X636047Y194978D01*
X636094Y194963D01*
X636149Y194949D01*
X636210Y194934D01*
X636280Y194920D01*
X636356Y194909D01*
X636443Y194898D01*
X636538Y194890D01*
X636640Y194887D01*
X636753Y194883D01*
X636760D01*
X636778D01*
X636811D01*
X636855Y194887D01*
X636902D01*
X636960Y194890D01*
X637022Y194894D01*
X637088Y194901D01*
X637230Y194920D01*
X637299Y194930D01*
X637364Y194945D01*
X637426Y194960D01*
X637485Y194981D01*
X637535Y195003D01*
X637579Y195029D01*
X637583D01*
X637586Y195036D01*
X637612Y195054D01*
X637645Y195087D01*
X637681Y195127D01*
X637717Y195182D01*
X637750Y195244D01*
X637776Y195313D01*
X637779Y195349D01*
X637783Y195389D01*
Y195411D01*
X637779Y195425D01*
X637772Y195462D01*
X637757Y195513D01*
X637732Y195567D01*
X637696Y195629D01*
X637674Y195658D01*
X637645Y195688D01*
X637615Y195717D01*
X637579Y195746D01*
X637575D01*
X637568Y195753D01*
X637557Y195760D01*
X637539Y195768D01*
X637514Y195782D01*
X637481Y195793D01*
X637444Y195808D01*
X637401Y195822D01*
X637346Y195833D01*
X637288Y195848D01*
X637219Y195862D01*
X637146Y195873D01*
X637059Y195880D01*
X636968Y195888D01*
X636866Y195895D01*
D02*
G37*
G36*
X637106Y193598D02*
X635978D01*
X637106Y192805D01*
Y193598D01*
D02*
G37*
%LPD*%
D11*
X141744Y312644D02*
X163791D01*
Y342172D01*
X141744D02*
X163791D01*
X141744Y312644D02*
Y342172D01*
X539428Y198228D02*
Y213583D01*
Y198228D02*
X558997D01*
Y213583D01*
X539428D02*
X558997D01*
X671949Y412500D02*
X714862D01*
X671949Y317224D02*
Y412500D01*
Y317224D02*
X714862D01*
Y412500D01*
X719587D02*
X762500D01*
X719587Y317224D02*
Y412500D01*
Y317224D02*
X762500D01*
Y412500D01*
X435716Y190442D02*
Y210012D01*
X451071D01*
Y190442D02*
Y210012D01*
X435716Y190442D02*
X451071D01*
X598130Y87374D02*
Y121626D01*
X626870D01*
Y87374D02*
Y121626D01*
X598130Y87374D02*
X626870D01*
X656122Y175465D02*
Y199284D01*
X670295D01*
Y175465D02*
Y199284D01*
X656122Y175465D02*
X670295D01*
X492079Y142329D02*
Y161899D01*
X476724Y142329D02*
X492079D01*
X476724D02*
Y161899D01*
X492079D01*
X526579Y142329D02*
Y161899D01*
X511224Y142329D02*
X526579D01*
X511224D02*
Y161899D01*
X526579D01*
X642823Y127930D02*
Y147499D01*
X658177D01*
Y127930D02*
Y147499D01*
X642823Y127930D02*
X658177D01*
X631606Y176331D02*
Y200150D01*
X645780D01*
Y176331D02*
Y200150D01*
X631606Y176331D02*
X645780D01*
D12*
X665839Y202528D02*
X669579D01*
X665839Y209221D02*
X669579D01*
X665839Y202528D02*
Y209221D01*
X669579Y202528D02*
Y209221D01*
X671339Y202528D02*
X675079D01*
X671339Y209221D02*
X675079D01*
X671339Y202528D02*
Y209221D01*
X675079Y202528D02*
Y209221D01*
X578400Y112350D02*
Y118650D01*
Y112350D02*
X581600D01*
Y118650D01*
X578400D02*
X581600D01*
X647323Y202394D02*
X651063D01*
X647323Y209087D02*
X651063D01*
X647323Y202394D02*
Y209087D01*
X651063Y202394D02*
Y209087D01*
X641823Y202394D02*
X645563D01*
X641823Y209087D02*
X645563D01*
X641823Y202394D02*
Y209087D01*
X645563Y202394D02*
Y209087D01*
D22*
X0Y11811D02*
G03*
X11811Y0I11811J0D01*
G01*
X822835D02*
G03*
X834646Y11811I0J11811D01*
G01*
Y401575D02*
G03*
X822835Y413386I-11811J0D01*
G01*
X11811D02*
G03*
X0Y401575I0J-11811D01*
G01*
X11811Y-0D02*
X822835Y0D01*
X834646Y401575D02*
X834646Y11811D01*
X11811Y413386D02*
X822835Y413386D01*
X-0Y401575D02*
X0Y11811D01*
M02*
