G04*
G04 #@! TF.GenerationSoftware,Altium Limited,Altium Designer,23.10.1 (27)*
G04*
G04 Layer_Color=32768*
%FSLAX25Y25*%
%MOIN*%
G70*
G04*
G04 #@! TF.SameCoordinates,CFD1AF01-5425-4A94-9F85-96FFE65A43DD*
G04*
G04*
G04 #@! TF.FilePolarity,Positive*
G04*
G01*
G75*
%ADD11C,0.00787*%
%ADD12C,0.00394*%
%ADD22C,0.00039*%
%ADD110C,0.00197*%
D11*
X141744Y312644D02*
X163791D01*
Y342172D01*
X141744D02*
X163791D01*
X141744Y312644D02*
Y342172D01*
X539428Y198228D02*
Y213583D01*
Y198228D02*
X558997D01*
Y213583D01*
X539428D02*
X558997D01*
X671949Y412500D02*
X714862D01*
X671949Y317224D02*
Y412500D01*
Y317224D02*
X714862D01*
Y412500D01*
X719587D02*
X762500D01*
X719587Y317224D02*
Y412500D01*
Y317224D02*
X762500D01*
Y412500D01*
X435716Y190442D02*
Y210012D01*
X451071D01*
Y190442D02*
Y210012D01*
X435716Y190442D02*
X451071D01*
X598130Y87374D02*
Y121626D01*
X626870D01*
Y87374D02*
Y121626D01*
X598130Y87374D02*
X626870D01*
X656122Y175465D02*
Y199284D01*
X670295D01*
Y175465D02*
Y199284D01*
X656122Y175465D02*
X670295D01*
X492079Y142329D02*
Y161899D01*
X476724Y142329D02*
X492079D01*
X476724D02*
Y161899D01*
X492079D01*
X526579Y142329D02*
Y161899D01*
X511224Y142329D02*
X526579D01*
X511224D02*
Y161899D01*
X526579D01*
X642823Y127930D02*
Y147499D01*
X658177D01*
Y127930D02*
Y147499D01*
X642823Y127930D02*
X658177D01*
X631606Y176331D02*
Y200150D01*
X645780D01*
Y176331D02*
Y200150D01*
X631606Y176331D02*
X645780D01*
D12*
X578031Y115500D02*
X581968D01*
X580000Y113531D02*
Y117469D01*
D22*
X0Y11811D02*
G03*
X11811Y0I11811J0D01*
G01*
X822835D02*
G03*
X834646Y11811I0J11811D01*
G01*
Y401575D02*
G03*
X822835Y413386I-11811J0D01*
G01*
X11811D02*
G03*
X0Y401575I0J-11811D01*
G01*
X11811Y-0D02*
X822835Y0D01*
X834646Y401575D02*
X834646Y11811D01*
X11811Y413386D02*
X822835Y413386D01*
X-0Y401575D02*
X0Y11811D01*
D110*
X607476Y22441D02*
Y26378D01*
X605508Y24409D02*
X609445D01*
X546059Y-787D02*
Y49606D01*
Y-787D02*
X668894D01*
Y49606D01*
X546059D02*
X668894D01*
X477555Y22441D02*
Y26378D01*
X475587Y24409D02*
X479524D01*
X416138Y-787D02*
Y49606D01*
Y-787D02*
X538972D01*
Y49606D01*
X416138D02*
X538972D01*
X665346Y201150D02*
X670071D01*
X665346Y210598D02*
X670071D01*
X665346Y201150D02*
Y210598D01*
X670071Y201150D02*
Y210598D01*
X667709Y204004D02*
Y207744D01*
X665839Y205874D02*
X669579D01*
X670847Y201150D02*
X675571D01*
X670847Y210598D02*
X675571D01*
X670847Y201150D02*
Y210598D01*
X675571Y201150D02*
Y210598D01*
X673209Y204004D02*
Y207744D01*
X671339Y205874D02*
X675079D01*
X577638Y109988D02*
X582362D01*
X577638Y121012D02*
X582362D01*
Y109988D02*
Y121012D01*
X577638Y109988D02*
Y121012D01*
X646831Y201016D02*
X651555D01*
X646831Y210465D02*
X651555D01*
X646831Y201016D02*
Y210465D01*
X651555Y201016D02*
Y210465D01*
X649193Y203870D02*
Y207610D01*
X647323Y205740D02*
X651063D01*
X641331Y201016D02*
X646055D01*
X641331Y210465D02*
X646055D01*
X641331Y201016D02*
Y210465D01*
X646055Y201016D02*
Y210465D01*
X643693Y203870D02*
Y207610D01*
X641823Y205740D02*
X645563D01*
M02*
