G04*
G04 #@! TF.GenerationSoftware,Altium Limited,Altium Designer,23.10.1 (27)*
G04*
G04 Layer_Color=32768*
%FSLAX25Y25*%
%MOIN*%
G70*
G04*
G04 #@! TF.SameCoordinates,CFD1AF01-5425-4A94-9F85-96FFE65A43DD*
G04*
G04*
G04 #@! TF.FilePolarity,Positive*
G04*
G01*
G75*
%ADD12C,0.00394*%
%ADD22C,0.00039*%
%ADD110C,0.00197*%
D12*
X428150Y185433D02*
X430118D01*
X429134Y184449D02*
Y186417D01*
X128937Y305610D02*
X132677D01*
X130807Y303740D02*
Y307480D01*
X133957Y311016D02*
Y312016D01*
X133457Y311516D02*
X134457D01*
X137894Y318799D02*
Y322342D01*
X136122Y320571D02*
X139665D01*
Y300984D02*
Y304724D01*
X137795Y302854D02*
X141535D01*
X164567Y300984D02*
Y304724D01*
X162697Y302854D02*
X166437D01*
X164665Y289272D02*
Y293012D01*
X162795Y291142D02*
X166535D01*
X507185Y230709D02*
X510925D01*
X509055Y228839D02*
Y232579D01*
X535039Y201673D02*
Y205413D01*
X533169Y203543D02*
X536909D01*
X522835Y228937D02*
Y232480D01*
X521063Y230709D02*
X524606D01*
X480315Y228937D02*
Y232480D01*
X478543Y230709D02*
X482087D01*
X530413Y212992D02*
X534154D01*
X532283Y211122D02*
Y214862D01*
X524409Y201673D02*
Y205413D01*
X522539Y203543D02*
X526279D01*
X497342Y213386D02*
X501083D01*
X499213Y211516D02*
Y215256D01*
X497736Y200787D02*
X501476D01*
X499606Y198917D02*
Y202658D01*
X485630Y191339D02*
X489173D01*
X487402Y189567D02*
Y193110D01*
X514173Y184646D02*
X518110D01*
X516142Y182677D02*
Y186614D01*
X487402Y178051D02*
Y181791D01*
X485532Y179921D02*
X489272D01*
X497441Y207087D02*
X500984D01*
X499213Y205315D02*
Y208858D01*
X359055Y244980D02*
Y248721D01*
X357185Y246850D02*
X360925D01*
X359055Y233169D02*
Y236910D01*
X357185Y235039D02*
X360925D01*
X359055Y257185D02*
Y260925D01*
X357185Y259055D02*
X360925D01*
X554331Y227953D02*
X558268D01*
X556299Y225984D02*
Y229921D01*
X454331Y217126D02*
Y220669D01*
X452559Y218898D02*
X456102D01*
X428740Y230512D02*
Y234055D01*
X426968Y232283D02*
X430512D01*
X342126Y244882D02*
Y248819D01*
X340158Y246850D02*
X344094D01*
X367421Y260039D02*
X369390D01*
X368406Y259055D02*
Y261024D01*
X367520Y234154D02*
X369488D01*
X368504Y233169D02*
Y235138D01*
X367421Y247146D02*
X369390D01*
X368406Y246161D02*
Y248130D01*
X143996Y302854D02*
X147736D01*
X145866Y300984D02*
Y304724D01*
X137894Y291043D02*
X141437D01*
X139665Y289272D02*
Y292815D01*
X129921Y320571D02*
X133465D01*
X131693Y318799D02*
Y322342D01*
X151575Y344747D02*
Y348488D01*
X149705Y346618D02*
X153445D01*
X150197Y302854D02*
X153937D01*
X152067Y300984D02*
Y304724D01*
X156398Y302908D02*
X160138D01*
X158268Y301038D02*
Y304778D01*
X414051Y116892D02*
Y120632D01*
X412181Y118762D02*
X415921D01*
X646032Y93000D02*
X649968D01*
X648000Y91031D02*
Y94968D01*
X634500Y93532D02*
Y97469D01*
X632531Y95500D02*
X636469D01*
X651496Y71465D02*
X655433D01*
X653465Y69496D02*
Y73433D01*
X661252Y85728D02*
Y89272D01*
X659480Y87500D02*
X663024D01*
X659839Y205874D02*
X663579D01*
X661709Y204004D02*
Y207744D01*
X564500Y112531D02*
Y116469D01*
X562532Y114500D02*
X566468D01*
X558228Y67728D02*
X561772D01*
X560000Y65957D02*
Y69500D01*
X634500Y74032D02*
Y77969D01*
X632531Y76000D02*
X636469D01*
X621000Y74032D02*
Y77969D01*
X619031Y76000D02*
X622968D01*
X550500Y65957D02*
Y69500D01*
X548728Y67728D02*
X552272D01*
X609228Y72500D02*
X612772D01*
X611000Y70728D02*
Y74272D01*
X599000Y73532D02*
Y77469D01*
X597031Y75500D02*
X600969D01*
X589000Y107032D02*
Y110968D01*
X587032Y109000D02*
X590969D01*
X585228Y74500D02*
X588772D01*
X587000Y72728D02*
Y76272D01*
X558228Y80228D02*
X561772D01*
X560000Y78457D02*
Y82000D01*
X550500Y81457D02*
Y85000D01*
X548728Y83228D02*
X552272D01*
X596547Y186516D02*
Y188484D01*
X595563Y187500D02*
X597532D01*
X566335Y339138D02*
Y340138D01*
X565835Y339638D02*
X566835D01*
X618177Y175500D02*
X621917D01*
X620047Y173630D02*
Y177370D01*
X594677Y175500D02*
X598417D01*
X596547Y173630D02*
Y177370D01*
X650500Y159715D02*
X651500D01*
X651000Y159215D02*
Y160215D01*
X620047Y186516D02*
Y188484D01*
X619063Y187500D02*
X621032D01*
X470408Y156614D02*
X474149D01*
X472278Y154744D02*
Y158484D01*
X199406Y294408D02*
X200406D01*
X199906Y293908D02*
Y294908D01*
X198906Y146416D02*
X199906D01*
X199406Y145916D02*
Y146916D01*
X652500Y120844D02*
Y124585D01*
X650630Y122715D02*
X654370D01*
X608547Y186516D02*
Y188484D01*
X607563Y187500D02*
X609531D01*
X585047Y186516D02*
Y188484D01*
X584063Y187500D02*
X586031D01*
X650500Y152215D02*
X651500D01*
X651000Y151715D02*
Y152715D01*
X606677Y175500D02*
X610417D01*
X608547Y173630D02*
Y177370D01*
X660753Y133215D02*
X664493D01*
X662623Y131344D02*
Y135085D01*
X583177Y175500D02*
X586917D01*
X585047Y173630D02*
Y177370D01*
X516902Y165065D02*
Y168806D01*
X515031Y166936D02*
X518772D01*
X504908Y156614D02*
X508649D01*
X506778Y154744D02*
Y158484D01*
X482138Y165065D02*
Y168806D01*
X480268Y166936D02*
X484008D01*
X449453Y150886D02*
Y154626D01*
X447583Y152756D02*
X451323D01*
X450193Y161631D02*
Y165568D01*
X448224Y163600D02*
X452161D01*
X449760Y138993D02*
Y142733D01*
X447890Y140863D02*
X451630D01*
X414000Y181032D02*
Y184968D01*
X412032Y183000D02*
X415969D01*
X414634Y157880D02*
Y161620D01*
X412764Y159750D02*
X416504D01*
X415354Y230413D02*
Y234154D01*
X413484Y232283D02*
X417224D01*
X440945Y217028D02*
Y220768D01*
X439075Y218898D02*
X442815D01*
X414598Y170385D02*
Y174125D01*
X412728Y172255D02*
X416468D01*
X414567Y164173D02*
Y167913D01*
X412697Y166043D02*
X416437D01*
X415000Y134662D02*
Y138599D01*
X413031Y136631D02*
X416968D01*
X414000Y123130D02*
Y126870D01*
X412130Y125000D02*
X415870D01*
X414051Y109788D02*
Y113529D01*
X412181Y111659D02*
X415921D01*
X449705Y145177D02*
Y148917D01*
X447835Y147047D02*
X451575D01*
X453248Y198031D02*
X456988D01*
X455118Y196161D02*
Y199902D01*
X504728Y63728D02*
X508272D01*
X506500Y61957D02*
Y65500D01*
X549409Y215453D02*
Y219193D01*
X547539Y217323D02*
X551279D01*
X466535Y228839D02*
Y232579D01*
X464665Y230709D02*
X468405D01*
X642224Y167652D02*
Y171196D01*
X640453Y169424D02*
X643996D01*
X653339Y205874D02*
X657079D01*
X655209Y204004D02*
Y207744D01*
X629323Y206740D02*
X633063D01*
X631193Y204870D02*
Y208610D01*
X527000Y72260D02*
Y76197D01*
X525032Y74228D02*
X528968D01*
X666535Y169095D02*
Y172638D01*
X664764Y170866D02*
X668307D01*
X635823Y206740D02*
X639563D01*
X637693Y204870D02*
Y208610D01*
X580500Y154228D02*
Y157772D01*
X578728Y156000D02*
X582272D01*
X578630Y144000D02*
X582370D01*
X580500Y142130D02*
Y145870D01*
X604500Y154228D02*
Y157772D01*
X602728Y156000D02*
X606272D01*
X592500Y154228D02*
Y157772D01*
X590728Y156000D02*
X594272D01*
X590630Y144000D02*
X594370D01*
X592500Y142130D02*
Y145870D01*
X602630Y144000D02*
X606370D01*
X604500Y142130D02*
Y145870D01*
X568500Y154228D02*
Y157772D01*
X566728Y156000D02*
X570272D01*
X566630Y144000D02*
X570370D01*
X568500Y142130D02*
Y145870D01*
X556500Y154228D02*
Y157772D01*
X554728Y156000D02*
X558272D01*
X554630Y144000D02*
X558370D01*
X556500Y142130D02*
Y145870D01*
X445894Y184357D02*
Y188097D01*
X444024Y186227D02*
X447764D01*
X429134Y193012D02*
Y196752D01*
X427264Y194882D02*
X431004D01*
D22*
X0Y11811D02*
G03*
X11811Y0I11811J0D01*
G01*
X822835D02*
G03*
X834646Y11811I0J11811D01*
G01*
Y401575D02*
G03*
X822835Y413386I-11811J0D01*
G01*
X11811D02*
G03*
X0Y401575I0J-11811D01*
G01*
X11811Y-0D02*
X822835Y0D01*
X834646Y401575D02*
X834646Y11811D01*
X11811Y413386D02*
X822835Y413386D01*
X-0Y401575D02*
X0Y11811D01*
D110*
X434842Y179331D02*
Y191535D01*
X423425Y179331D02*
X434842D01*
X423425Y191535D02*
X434842D01*
X423425Y179331D02*
Y191535D01*
X136516Y302658D02*
Y308563D01*
X125098Y302658D02*
Y308563D01*
Y302658D02*
X136516D01*
X125098Y308563D02*
X136516D01*
X127067Y314370D02*
X140847D01*
X127067Y308661D02*
Y314370D01*
Y308661D02*
X140847D01*
Y314370D01*
X134941Y314665D02*
X140847D01*
X134941Y326476D02*
X140847D01*
X134941Y314665D02*
Y326476D01*
X140847Y314665D02*
Y326476D01*
X136713Y308563D02*
X142618D01*
X136713Y297146D02*
X142618D01*
Y308563D01*
X136713Y297146D02*
Y308563D01*
X161614Y308563D02*
X167520D01*
X161614Y297146D02*
X167520D01*
Y308563D01*
X161614Y297146D02*
Y308563D01*
X161713Y296850D02*
X167618D01*
X161713Y285433D02*
X167618D01*
Y296850D01*
X161713Y285433D02*
Y296850D01*
X514764Y227756D02*
Y233661D01*
X503346Y227756D02*
Y233661D01*
Y227756D02*
X514764D01*
X503346Y233661D02*
X514764D01*
X532087Y209252D02*
X537992D01*
X532087Y197835D02*
X537992D01*
Y209252D01*
X532087Y197835D02*
Y209252D01*
X517520Y233661D02*
X528150D01*
X517520Y227756D02*
X528150D01*
X517520D02*
Y233661D01*
X528150Y227756D02*
Y233661D01*
X475000D02*
X485630D01*
X475000Y227756D02*
X485630D01*
X475000D02*
Y233661D01*
X485630Y227756D02*
Y233661D01*
X537992Y210039D02*
Y215945D01*
X526575Y210039D02*
Y215945D01*
Y210039D02*
X537992D01*
X526575Y215945D02*
X537992D01*
X521457Y209252D02*
X527362D01*
X521457Y197835D02*
X527362D01*
Y209252D01*
X521457Y197835D02*
Y209252D01*
X504921Y210433D02*
Y216339D01*
X493504Y210433D02*
Y216339D01*
Y210433D02*
X504921D01*
X493504Y216339D02*
X504921D01*
X493898Y197835D02*
Y203740D01*
X505315Y197835D02*
Y203740D01*
X493898D02*
X505315D01*
X493898Y197835D02*
X505315D01*
X484449Y186024D02*
Y196653D01*
X490354Y186024D02*
Y196653D01*
X484449Y186024D02*
X490354D01*
X484449Y196653D02*
X490354D01*
X493701Y172441D02*
Y196850D01*
X538583D01*
X493701Y172441D02*
X538583D01*
Y196850D01*
X484449Y185630D02*
X490354D01*
X484449Y174213D02*
X490354D01*
Y185630D01*
X484449Y174213D02*
Y185630D01*
X493307Y204134D02*
Y210039D01*
X505118Y204134D02*
Y210039D01*
X493307D02*
X505118D01*
X493307Y204134D02*
X505118D01*
X356102Y241142D02*
X362008D01*
X356102Y252559D02*
X362008D01*
X356102Y241142D02*
Y252559D01*
X362008Y241142D02*
Y252559D01*
X356102Y240748D02*
X362008D01*
X356102Y229331D02*
X362008D01*
Y240748D01*
X356102Y229331D02*
Y240748D01*
X356102Y253346D02*
X362008D01*
X356102Y264764D02*
X362008D01*
X356102Y253346D02*
Y264764D01*
X362008Y253346D02*
Y264764D01*
X545079Y222047D02*
Y233858D01*
X567520Y222047D02*
Y233858D01*
X545079D02*
X567520D01*
X545079Y222047D02*
X567520D01*
X449016Y221850D02*
X459646D01*
X449016Y215945D02*
X459646D01*
X449016D02*
Y221850D01*
X459646Y215945D02*
Y221850D01*
X423425Y235236D02*
X434055D01*
X423425Y229331D02*
X434055D01*
X423425D02*
Y235236D01*
X434055Y229331D02*
Y235236D01*
X333858Y253740D02*
X350394D01*
X333858Y239961D02*
X350394D01*
X333858D02*
Y253740D01*
X350394Y239961D02*
Y253740D01*
X362697Y253937D02*
Y266142D01*
X374114D01*
X362697Y253937D02*
X374114D01*
Y266142D01*
X362795Y228051D02*
Y240256D01*
X374213D01*
X362795Y228051D02*
X374213D01*
Y240256D01*
X362697Y241043D02*
Y253248D01*
X374114D01*
X362697Y241043D02*
X374114D01*
Y253248D01*
X142913Y297146D02*
Y308563D01*
X148819Y297146D02*
Y308563D01*
X142913Y297146D02*
X148819D01*
X142913Y308563D02*
X148819D01*
X142618Y285138D02*
Y296949D01*
X136713Y285138D02*
Y296949D01*
X142618D01*
X136713Y285138D02*
X142618D01*
X134646Y314665D02*
Y326476D01*
X128740Y314665D02*
Y326476D01*
X134646D01*
X128740Y314665D02*
X134646D01*
X145866Y343665D02*
X157283D01*
X145866Y349570D02*
X157283D01*
Y343665D02*
Y349570D01*
X145866Y343665D02*
Y349570D01*
X149114Y297146D02*
Y308563D01*
X155020Y297146D02*
Y308563D01*
X149114Y297146D02*
X155020D01*
X149114Y308563D02*
X155020D01*
X155315Y297199D02*
Y308616D01*
X161221Y297199D02*
Y308616D01*
X155315Y297199D02*
X161221D01*
X155315Y308616D02*
X161221D01*
X408343Y115809D02*
X419760D01*
X408343Y121715D02*
X419760D01*
Y115809D02*
Y121715D01*
X408343Y115809D02*
Y121715D01*
X641307Y84831D02*
Y101169D01*
X654693Y84831D02*
Y101169D01*
X641307Y84831D02*
X654693D01*
X641307Y101169D02*
X654693D01*
X628004Y86051D02*
X640996D01*
X628004Y104949D02*
X640996D01*
X628004Y86051D02*
Y104949D01*
X640996Y86051D02*
Y104949D01*
X665669Y58669D02*
Y84260D01*
X641260Y58669D02*
X665669D01*
X641260Y84260D02*
X665669D01*
X641260Y58669D02*
Y84260D01*
X655346Y90453D02*
X667158D01*
X655346Y84547D02*
X667158D01*
X655346D02*
Y90453D01*
X667158Y84547D02*
Y90453D01*
X664661Y200165D02*
Y211583D01*
X658756Y200165D02*
Y211583D01*
X664661D01*
X658756Y200165D02*
X664661D01*
X552098Y120996D02*
X576902D01*
X552098Y108004D02*
X576902D01*
X552098D02*
Y120996D01*
X576902Y108004D02*
Y120996D01*
X557047Y61823D02*
Y73634D01*
X562953Y61823D02*
Y73634D01*
X557047Y61823D02*
X562953D01*
X557047Y73634D02*
X562953D01*
X628004Y85449D02*
X640996D01*
X628004Y66551D02*
X640996D01*
Y85449D01*
X628004Y66551D02*
Y85449D01*
X614504D02*
X627496D01*
X614504Y66551D02*
X627496D01*
Y85449D01*
X614504Y66551D02*
Y85449D01*
X544594Y70681D02*
X556405D01*
X544594Y64776D02*
X556405D01*
X544594D02*
Y70681D01*
X556405Y64776D02*
Y70681D01*
X608047Y66594D02*
Y78405D01*
X613953Y66594D02*
Y78405D01*
X608047Y66594D02*
X613953D01*
X608047Y78405D02*
X613953D01*
X590634Y82390D02*
X607366D01*
X590634Y68610D02*
X607366D01*
X590634D02*
Y82390D01*
X607366Y68610D02*
Y82390D01*
X583488Y121205D02*
X594512D01*
X583488Y96795D02*
X594512D01*
Y121205D01*
X583488Y96795D02*
Y121205D01*
X584047Y68594D02*
Y80405D01*
X589953Y68594D02*
Y80405D01*
X584047Y68594D02*
X589953D01*
X584047Y80405D02*
X589953D01*
X557047Y74323D02*
Y86134D01*
X562953Y74323D02*
Y86134D01*
X557047Y74323D02*
X562953D01*
X557047Y86134D02*
X562953D01*
X544594Y86181D02*
X556405D01*
X544594Y80276D02*
X556405D01*
X544594D02*
Y86181D01*
X556405Y80276D02*
Y86181D01*
X594579Y182579D02*
X598516D01*
X594579D02*
Y192421D01*
X598516Y182579D02*
Y192421D01*
X594579D02*
X598516D01*
X563480Y346528D02*
X569189D01*
Y332748D02*
Y346528D01*
X563480Y332748D02*
X569189D01*
X563480D02*
Y346528D01*
X617095Y169791D02*
Y181209D01*
X623000Y169791D02*
Y181209D01*
X617095Y169791D02*
X623000D01*
X617095Y181209D02*
X623000D01*
X593595Y169791D02*
Y181209D01*
X599500Y169791D02*
Y181209D01*
X593595Y169791D02*
X599500D01*
X593595Y181209D02*
X599500D01*
X657890Y156860D02*
Y162569D01*
X644110Y156860D02*
X657890D01*
X644110D02*
Y162569D01*
X657890D01*
X618079Y182579D02*
X622016D01*
X618079D02*
Y192421D01*
X622016Y182579D02*
Y192421D01*
X618079D02*
X622016D01*
X469326Y150906D02*
Y162323D01*
X475231Y150906D02*
Y162323D01*
X469326Y150906D02*
X475231D01*
X469326Y162323D02*
X475231D01*
X193016Y291553D02*
Y297262D01*
X206795D01*
Y291553D02*
Y297262D01*
X193016Y291553D02*
X206795D01*
X192516Y143561D02*
Y149270D01*
X206295D01*
Y143561D02*
Y149270D01*
X192516Y143561D02*
X206295D01*
X646791Y119762D02*
X658209D01*
X646791Y125667D02*
X658209D01*
Y119762D02*
Y125667D01*
X646791Y119762D02*
Y125667D01*
X606579Y182579D02*
X610516D01*
X606579D02*
Y192421D01*
X610516Y182579D02*
Y192421D01*
X606579D02*
X610516D01*
X583079Y182579D02*
X587016D01*
X583079D02*
Y192421D01*
X587016Y182579D02*
Y192421D01*
X583079D02*
X587016D01*
X657890Y149360D02*
Y155069D01*
X644110Y149360D02*
X657890D01*
X644110D02*
Y155069D01*
X657890D01*
X605594Y169791D02*
Y181209D01*
X611500Y169791D02*
Y181209D01*
X605594Y169791D02*
X611500D01*
X605594Y181209D02*
X611500D01*
X665576Y127506D02*
Y138923D01*
X659670Y127506D02*
Y138923D01*
X665576D01*
X659670Y127506D02*
X665576D01*
X582094Y169791D02*
Y181209D01*
X588000Y169791D02*
Y181209D01*
X582094Y169791D02*
X588000D01*
X582094Y181209D02*
X588000D01*
X511193Y169888D02*
X522610D01*
X511193Y163983D02*
X522610D01*
X511193D02*
Y169888D01*
X522610Y163983D02*
Y169888D01*
X503826Y150906D02*
Y162323D01*
X509731Y150906D02*
Y162323D01*
X503826Y150906D02*
X509731D01*
X503826Y162323D02*
X509731D01*
X476429Y169888D02*
X487847D01*
X476429Y163983D02*
X487847D01*
X476429D02*
Y169888D01*
X487847Y163983D02*
Y169888D01*
X443744Y155709D02*
X455161D01*
X443744Y149803D02*
X455161D01*
X443744D02*
Y155709D01*
X455161Y149803D02*
Y155709D01*
X443697Y171080D02*
X456689D01*
X443697Y156119D02*
X456689D01*
Y171080D01*
X443697Y156119D02*
Y171080D01*
X444051Y143816D02*
X455469D01*
X444051Y137910D02*
X455469D01*
X444051D02*
Y143816D01*
X455469Y137910D02*
Y143816D01*
X407504Y190480D02*
X420496D01*
X407504Y175520D02*
X420496D01*
Y190480D01*
X407504Y175520D02*
Y190480D01*
X408925Y162703D02*
X420342D01*
X408925Y156797D02*
X420342D01*
X408925D02*
Y162703D01*
X420342Y156797D02*
Y162703D01*
X409646Y235236D02*
X421063D01*
X409646Y229331D02*
X421063D01*
X409646D02*
Y235236D01*
X421063Y229331D02*
Y235236D01*
X435236Y221850D02*
X446654D01*
X435236Y215945D02*
X446654D01*
X435236D02*
Y221850D01*
X446654Y215945D02*
Y221850D01*
X408890Y175208D02*
X420307D01*
X408890Y169302D02*
X420307D01*
X408890D02*
Y175208D01*
X420307Y169302D02*
Y175208D01*
X408858Y163091D02*
X420276D01*
X408858Y168996D02*
X420276D01*
Y163091D02*
Y168996D01*
X408858Y163091D02*
Y168996D01*
X408504Y144111D02*
X421496D01*
X408504Y129151D02*
X421496D01*
Y144111D01*
X408504Y129151D02*
Y144111D01*
X408291Y127953D02*
X419709D01*
X408291Y122047D02*
X419709D01*
X408291D02*
Y127953D01*
X419709Y122047D02*
Y127953D01*
X408343Y114611D02*
X419760D01*
X408343Y108706D02*
X419760D01*
X408343D02*
Y114611D01*
X419760Y108706D02*
Y114611D01*
X443996Y144095D02*
X455413D01*
X443996Y150000D02*
X455413D01*
Y144095D02*
Y150000D01*
X443996Y144095D02*
Y150000D01*
X458071Y192323D02*
Y203740D01*
X452165Y192323D02*
Y203740D01*
X458071D01*
X452165Y192323D02*
X458071D01*
X503547Y57823D02*
Y69634D01*
X509453Y57823D02*
Y69634D01*
X503547Y57823D02*
X509453D01*
X503547Y69634D02*
X509453D01*
X543701Y214370D02*
X555118D01*
X543701Y220276D02*
X555118D01*
Y214370D02*
Y220276D01*
X543701Y214370D02*
Y220276D01*
X460827Y233661D02*
X472244D01*
X460827Y227756D02*
X472244D01*
X460827D02*
Y233661D01*
X472244Y227756D02*
Y233661D01*
X636319Y166471D02*
X648130D01*
X636319Y172377D02*
X648130D01*
Y166471D02*
Y172377D01*
X636319Y166471D02*
Y172377D01*
X652256Y200165D02*
Y211583D01*
X658161Y200165D02*
Y211583D01*
X652256Y200165D02*
X658161D01*
X652256Y211583D02*
X658161D01*
X634146Y201031D02*
Y212449D01*
X628240Y201031D02*
Y212449D01*
X634146D01*
X628240Y201031D02*
X634146D01*
X509874Y86236D02*
X544126D01*
X509874Y62221D02*
X544126D01*
X509874D02*
Y86236D01*
X544126Y62221D02*
Y86236D01*
X660630Y167913D02*
X672441D01*
X660630Y173819D02*
X672441D01*
Y167913D02*
Y173819D01*
X660630Y167913D02*
Y173819D01*
X634740Y201031D02*
Y212449D01*
X640646Y201031D02*
Y212449D01*
X634740Y201031D02*
X640646D01*
X634740Y212449D02*
X640646D01*
X577547Y150685D02*
X583453D01*
X577547Y161315D02*
X583453D01*
X577547Y150685D02*
Y161315D01*
X583453Y150685D02*
Y161315D01*
X583453Y138291D02*
Y149709D01*
X577547Y138291D02*
Y149709D01*
X583453D01*
X577547Y138291D02*
X583453D01*
X601547Y150685D02*
X607453D01*
X601547Y161315D02*
X607453D01*
X601547Y150685D02*
Y161315D01*
X607453Y150685D02*
Y161315D01*
X589547Y150685D02*
X595453D01*
X589547Y161315D02*
X595453D01*
X589547Y150685D02*
Y161315D01*
X595453Y150685D02*
Y161315D01*
X595453Y138291D02*
Y149709D01*
X589547Y138291D02*
Y149709D01*
X595453D01*
X589547Y138291D02*
X595453D01*
X607453D02*
Y149709D01*
X601547Y138291D02*
Y149709D01*
X607453D01*
X601547Y138291D02*
X607453D01*
X565547Y150685D02*
X571453D01*
X565547Y161315D02*
X571453D01*
X565547Y150685D02*
Y161315D01*
X571453Y150685D02*
Y161315D01*
X571453Y138291D02*
Y149709D01*
X565547Y138291D02*
Y149709D01*
X571453D01*
X565547Y138291D02*
X571453D01*
X553547Y150685D02*
X559453D01*
X553547Y161315D02*
X559453D01*
X553547Y150685D02*
Y161315D01*
X559453Y150685D02*
Y161315D01*
X559453Y138291D02*
Y149709D01*
X553547Y138291D02*
Y149709D01*
X559453D01*
X553547Y138291D02*
X559453D01*
X440185Y183274D02*
X451602D01*
X440185Y189180D02*
X451602D01*
Y183274D02*
Y189180D01*
X440185Y183274D02*
Y189180D01*
X423425Y191929D02*
X434842D01*
X423425Y197835D02*
X434842D01*
Y191929D02*
Y197835D01*
X423425Y191929D02*
Y197835D01*
M02*
