G04*
G04 #@! TF.GenerationSoftware,Altium Limited,Altium Designer,23.10.1 (27)*
G04*
G04 Layer_Color=32768*
%FSLAX25Y25*%
%MOIN*%
G70*
G04*
G04 #@! TF.SameCoordinates,CFD1AF01-5425-4A94-9F85-96FFE65A43DD*
G04*
G04*
G04 #@! TF.FilePolarity,Positive*
G04*
G01*
G75*
%ADD15C,0.00591*%
%ADD22C,0.00039*%
G36*
X668209Y209276D02*
X667751Y209099D01*
Y208467D01*
X668209Y208303D01*
Y208092D01*
X666700Y208667D01*
Y208886D01*
X668209Y209502D01*
Y209276D01*
D02*
G37*
G36*
X668627Y206889D02*
X668494D01*
Y208116D01*
X668627D01*
Y206889D01*
D02*
G37*
G36*
X668209Y205809D02*
X668207D01*
X668198D01*
X668185D01*
X668167Y205812D01*
X668148Y205814D01*
X668126Y205818D01*
X668104Y205823D01*
X668080Y205831D01*
X668078D01*
X668076Y205834D01*
X668063Y205838D01*
X668043Y205847D01*
X668017Y205860D01*
X667986Y205877D01*
X667951Y205899D01*
X667916Y205923D01*
X667879Y205953D01*
X667877D01*
X667875Y205958D01*
X667862Y205969D01*
X667842Y205988D01*
X667814Y206017D01*
X667781Y206049D01*
X667742Y206091D01*
X667698Y206141D01*
X667653Y206195D01*
X667651Y206198D01*
X667644Y206206D01*
X667633Y206219D01*
X667620Y206235D01*
X667603Y206254D01*
X667583Y206278D01*
X667561Y206302D01*
X667537Y206330D01*
X667485Y206385D01*
X667433Y206440D01*
X667406Y206466D01*
X667380Y206490D01*
X667356Y206511D01*
X667332Y206529D01*
X667330D01*
X667328Y206533D01*
X667321Y206538D01*
X667313Y206542D01*
X667289Y206557D01*
X667260Y206575D01*
X667226Y206590D01*
X667188Y206605D01*
X667147Y206614D01*
X667108Y206618D01*
X667106D01*
X667103D01*
X667090Y206616D01*
X667068Y206614D01*
X667044Y206607D01*
X667014Y206599D01*
X666984Y206583D01*
X666953Y206564D01*
X666923Y206538D01*
X666918Y206533D01*
X666909Y206522D01*
X666898Y206507D01*
X666883Y206483D01*
X666870Y206453D01*
X666857Y206418D01*
X666848Y206376D01*
X666846Y206330D01*
Y206317D01*
X666848Y206309D01*
X666851Y206283D01*
X666857Y206252D01*
X666866Y206219D01*
X666881Y206182D01*
X666901Y206147D01*
X666927Y206115D01*
X666931Y206110D01*
X666942Y206102D01*
X666959Y206089D01*
X666986Y206076D01*
X667016Y206060D01*
X667055Y206047D01*
X667099Y206038D01*
X667149Y206034D01*
X667130Y205844D01*
X667127D01*
X667121Y205847D01*
X667110D01*
X667095Y205849D01*
X667077Y205853D01*
X667058Y205857D01*
X667034Y205864D01*
X667010Y205871D01*
X666957Y205888D01*
X666905Y205914D01*
X666879Y205929D01*
X666853Y205949D01*
X666829Y205969D01*
X666807Y205991D01*
X666805Y205993D01*
X666803Y205997D01*
X666796Y206003D01*
X666789Y206014D01*
X666781Y206028D01*
X666772Y206043D01*
X666761Y206060D01*
X666750Y206082D01*
X666739Y206106D01*
X666728Y206132D01*
X666720Y206160D01*
X666711Y206191D01*
X666704Y206224D01*
X666698Y206259D01*
X666696Y206296D01*
X666693Y206335D01*
Y206357D01*
X666696Y206372D01*
X666698Y206389D01*
X666700Y206411D01*
X666704Y206435D01*
X666709Y206459D01*
X666724Y206516D01*
X666746Y206573D01*
X666759Y206601D01*
X666774Y206629D01*
X666794Y206655D01*
X666816Y206679D01*
X666818Y206681D01*
X666820Y206686D01*
X666829Y206690D01*
X666837Y206699D01*
X666848Y206710D01*
X666864Y206721D01*
X666879Y206732D01*
X666898Y206745D01*
X666940Y206767D01*
X666992Y206788D01*
X667018Y206797D01*
X667049Y206801D01*
X667079Y206806D01*
X667112Y206808D01*
X667116D01*
X667127D01*
X667145Y206806D01*
X667169Y206804D01*
X667195Y206799D01*
X667226Y206790D01*
X667258Y206782D01*
X667291Y206769D01*
X667295Y206767D01*
X667306Y206762D01*
X667324Y206753D01*
X667347Y206740D01*
X667374Y206723D01*
X667406Y206701D01*
X667439Y206675D01*
X667476Y206645D01*
X667481Y206640D01*
X667494Y206629D01*
X667505Y206618D01*
X667515Y206607D01*
X667528Y206594D01*
X667546Y206577D01*
X667563Y206559D01*
X667583Y206538D01*
X667605Y206516D01*
X667629Y206490D01*
X667653Y206461D01*
X667681Y206431D01*
X667709Y206396D01*
X667740Y206361D01*
X667742Y206359D01*
X667746Y206354D01*
X667753Y206346D01*
X667762Y206335D01*
X667775Y206322D01*
X667788Y206307D01*
X667816Y206272D01*
X667849Y206235D01*
X667882Y206200D01*
X667910Y206169D01*
X667921Y206156D01*
X667932Y206145D01*
X667934Y206143D01*
X667941Y206136D01*
X667949Y206128D01*
X667962Y206117D01*
X667978Y206106D01*
X667993Y206093D01*
X668030Y206067D01*
Y206810D01*
X668209D01*
Y205809D01*
D02*
G37*
G36*
X667533Y205646D02*
X667559D01*
X667587Y205644D01*
X667618Y205642D01*
X667688Y205635D01*
X667760Y205624D01*
X667829Y205611D01*
X667862Y205602D01*
X667895Y205592D01*
X667897D01*
X667901Y205589D01*
X667910Y205585D01*
X667921Y205581D01*
X667936Y205576D01*
X667951Y205568D01*
X667988Y205550D01*
X668028Y205528D01*
X668071Y205500D01*
X668111Y205467D01*
X668148Y205428D01*
Y205426D01*
X668152Y205424D01*
X668156Y205417D01*
X668161Y205408D01*
X668167Y205398D01*
X668176Y205387D01*
X668191Y205354D01*
X668207Y205315D01*
X668222Y205269D01*
X668230Y205214D01*
X668235Y205155D01*
Y205134D01*
X668233Y205118D01*
X668230Y205101D01*
X668226Y205079D01*
X668222Y205055D01*
X668215Y205029D01*
X668207Y205003D01*
X668198Y204975D01*
X668185Y204946D01*
X668169Y204918D01*
X668152Y204890D01*
X668130Y204861D01*
X668106Y204835D01*
X668080Y204811D01*
X668078Y204809D01*
X668071Y204805D01*
X668060Y204798D01*
X668043Y204787D01*
X668023Y204776D01*
X667997Y204765D01*
X667967Y204750D01*
X667932Y204737D01*
X667893Y204724D01*
X667847Y204711D01*
X667797Y204698D01*
X667740Y204687D01*
X667679Y204676D01*
X667614Y204669D01*
X667542Y204665D01*
X667465Y204663D01*
X667463D01*
X667454D01*
X667439D01*
X667422D01*
X667398Y204665D01*
X667372D01*
X667343Y204667D01*
X667310Y204669D01*
X667243Y204676D01*
X667171Y204687D01*
X667099Y204700D01*
X667066Y204709D01*
X667034Y204717D01*
X667031D01*
X667027Y204719D01*
X667018Y204724D01*
X667007Y204728D01*
X666992Y204733D01*
X666977Y204741D01*
X666940Y204759D01*
X666901Y204781D01*
X666859Y204809D01*
X666818Y204842D01*
X666783Y204881D01*
Y204883D01*
X666779Y204885D01*
X666774Y204892D01*
X666770Y204901D01*
X666761Y204911D01*
X666755Y204924D01*
X666737Y204957D01*
X666722Y204996D01*
X666707Y205042D01*
X666698Y205097D01*
X666693Y205155D01*
Y205175D01*
X666696Y205199D01*
X666700Y205227D01*
X666707Y205260D01*
X666715Y205295D01*
X666726Y205332D01*
X666744Y205367D01*
Y205369D01*
X666746Y205371D01*
X666752Y205382D01*
X666763Y205400D01*
X666779Y205421D01*
X666800Y205446D01*
X666824Y205472D01*
X666853Y205496D01*
X666885Y205520D01*
X666890Y205522D01*
X666901Y205531D01*
X666920Y205539D01*
X666949Y205555D01*
X666981Y205568D01*
X667018Y205585D01*
X667062Y205600D01*
X667110Y205613D01*
X667112D01*
X667116Y205615D01*
X667123Y205618D01*
X667134Y205620D01*
X667147Y205622D01*
X667162Y205624D01*
X667182Y205629D01*
X667204Y205631D01*
X667228Y205635D01*
X667254Y205637D01*
X667284Y205640D01*
X667315Y205644D01*
X667350Y205646D01*
X667385D01*
X667424Y205648D01*
X667465D01*
X667467D01*
X667476D01*
X667491D01*
X667509D01*
X667533Y205646D01*
D02*
G37*
G36*
X667847Y204268D02*
X668209D01*
Y204083D01*
X667847D01*
Y203427D01*
X667677D01*
X666700Y204118D01*
Y204268D01*
X667677D01*
Y204473D01*
X667847D01*
Y204268D01*
D02*
G37*
G36*
X668209Y202830D02*
X667029D01*
X667031Y202827D01*
X667040Y202816D01*
X667053Y202803D01*
X667068Y202782D01*
X667088Y202758D01*
X667110Y202727D01*
X667134Y202692D01*
X667158Y202653D01*
Y202651D01*
X667160Y202648D01*
X667169Y202635D01*
X667180Y202614D01*
X667193Y202588D01*
X667208Y202557D01*
X667223Y202524D01*
X667239Y202492D01*
X667252Y202459D01*
X667073D01*
Y202461D01*
X667068Y202465D01*
X667066Y202474D01*
X667060Y202485D01*
X667053Y202498D01*
X667044Y202513D01*
X667023Y202550D01*
X666999Y202594D01*
X666968Y202638D01*
X666933Y202683D01*
X666896Y202729D01*
X666894Y202731D01*
X666892Y202733D01*
X666885Y202740D01*
X666879Y202749D01*
X666857Y202768D01*
X666831Y202795D01*
X666800Y202821D01*
X666765Y202849D01*
X666731Y202873D01*
X666693Y202895D01*
Y203015D01*
X668209D01*
Y202830D01*
D02*
G37*
G36*
Y201951D02*
X667895Y201752D01*
X667893D01*
X667888Y201748D01*
X667882Y201744D01*
X667873Y201737D01*
X667849Y201722D01*
X667818Y201702D01*
X667786Y201678D01*
X667751Y201654D01*
X667718Y201630D01*
X667688Y201609D01*
X667686Y201606D01*
X667677Y201600D01*
X667664Y201589D01*
X667648Y201574D01*
X667616Y201541D01*
X667600Y201524D01*
X667587Y201506D01*
X667585Y201504D01*
X667583Y201500D01*
X667579Y201491D01*
X667572Y201478D01*
X667565Y201465D01*
X667559Y201449D01*
X667548Y201415D01*
Y201413D01*
X667546Y201408D01*
Y201399D01*
X667544Y201389D01*
X667542Y201373D01*
Y201356D01*
X667539Y201332D01*
Y201075D01*
X668209D01*
Y200874D01*
X666700D01*
Y201574D01*
X666702Y201591D01*
Y201611D01*
X666704Y201657D01*
X666711Y201705D01*
X666717Y201757D01*
X666728Y201805D01*
X666735Y201829D01*
X666742Y201849D01*
Y201851D01*
X666744Y201853D01*
X666750Y201866D01*
X666759Y201886D01*
X666774Y201909D01*
X666794Y201936D01*
X666820Y201964D01*
X666851Y201990D01*
X666885Y202016D01*
X666888D01*
X666890Y202018D01*
X666903Y202027D01*
X666925Y202036D01*
X666953Y202049D01*
X666986Y202060D01*
X667025Y202071D01*
X667066Y202077D01*
X667112Y202080D01*
X667114D01*
X667119D01*
X667127D01*
X667138Y202077D01*
X667154D01*
X667169Y202075D01*
X667206Y202066D01*
X667249Y202053D01*
X667295Y202036D01*
X667341Y202010D01*
X667363Y201992D01*
X667385Y201975D01*
X667387Y201973D01*
X667389Y201971D01*
X667395Y201964D01*
X667402Y201955D01*
X667411Y201944D01*
X667419Y201931D01*
X667430Y201914D01*
X667444Y201896D01*
X667454Y201875D01*
X667465Y201851D01*
X667478Y201824D01*
X667489Y201796D01*
X667498Y201763D01*
X667509Y201731D01*
X667515Y201694D01*
X667522Y201654D01*
X667524Y201659D01*
X667528Y201667D01*
X667537Y201681D01*
X667546Y201698D01*
X667570Y201737D01*
X667585Y201757D01*
X667598Y201774D01*
X667603Y201779D01*
X667614Y201790D01*
X667631Y201807D01*
X667653Y201829D01*
X667683Y201853D01*
X667716Y201881D01*
X667755Y201909D01*
X667799Y201940D01*
X668209Y202200D01*
Y201951D01*
D02*
G37*
G36*
X673709Y209276D02*
X673251Y209099D01*
Y208467D01*
X673709Y208303D01*
Y208092D01*
X672200Y208667D01*
Y208886D01*
X673709Y209502D01*
Y209276D01*
D02*
G37*
G36*
X674127Y206889D02*
X673994D01*
Y208116D01*
X674127D01*
Y206889D01*
D02*
G37*
G36*
X673033Y206819D02*
X673059D01*
X673087Y206817D01*
X673118Y206815D01*
X673188Y206808D01*
X673260Y206797D01*
X673329Y206784D01*
X673362Y206775D01*
X673395Y206764D01*
X673397D01*
X673401Y206762D01*
X673410Y206758D01*
X673421Y206753D01*
X673436Y206749D01*
X673451Y206740D01*
X673489Y206723D01*
X673528Y206701D01*
X673571Y206673D01*
X673610Y206640D01*
X673648Y206601D01*
Y206599D01*
X673652Y206596D01*
X673656Y206590D01*
X673661Y206581D01*
X673667Y206570D01*
X673676Y206559D01*
X673691Y206527D01*
X673706Y206487D01*
X673722Y206442D01*
X673731Y206387D01*
X673735Y206328D01*
Y206307D01*
X673733Y206291D01*
X673731Y206274D01*
X673726Y206252D01*
X673722Y206228D01*
X673715Y206202D01*
X673706Y206176D01*
X673698Y206147D01*
X673685Y206119D01*
X673669Y206091D01*
X673652Y206062D01*
X673630Y206034D01*
X673606Y206008D01*
X673580Y205984D01*
X673578Y205982D01*
X673571Y205977D01*
X673560Y205971D01*
X673543Y205960D01*
X673523Y205949D01*
X673497Y205938D01*
X673467Y205923D01*
X673432Y205910D01*
X673393Y205897D01*
X673347Y205884D01*
X673297Y205871D01*
X673240Y205860D01*
X673179Y205849D01*
X673113Y205842D01*
X673042Y205838D01*
X672965Y205836D01*
X672963D01*
X672954D01*
X672939D01*
X672922D01*
X672898Y205838D01*
X672871D01*
X672843Y205840D01*
X672811Y205842D01*
X672743Y205849D01*
X672671Y205860D01*
X672599Y205873D01*
X672566Y205882D01*
X672534Y205890D01*
X672532D01*
X672527Y205892D01*
X672518Y205897D01*
X672507Y205901D01*
X672492Y205906D01*
X672477Y205914D01*
X672440Y205932D01*
X672401Y205953D01*
X672359Y205982D01*
X672318Y206014D01*
X672283Y206054D01*
Y206056D01*
X672279Y206058D01*
X672274Y206065D01*
X672270Y206073D01*
X672261Y206084D01*
X672255Y206097D01*
X672237Y206130D01*
X672222Y206169D01*
X672207Y206215D01*
X672198Y206270D01*
X672193Y206328D01*
Y206348D01*
X672196Y206372D01*
X672200Y206400D01*
X672207Y206433D01*
X672215Y206468D01*
X672226Y206505D01*
X672244Y206540D01*
Y206542D01*
X672246Y206544D01*
X672252Y206555D01*
X672263Y206573D01*
X672279Y206594D01*
X672300Y206618D01*
X672324Y206645D01*
X672353Y206668D01*
X672385Y206692D01*
X672390Y206695D01*
X672401Y206703D01*
X672420Y206712D01*
X672449Y206727D01*
X672481Y206740D01*
X672518Y206758D01*
X672562Y206773D01*
X672610Y206786D01*
X672612D01*
X672616Y206788D01*
X672623Y206790D01*
X672634Y206793D01*
X672647Y206795D01*
X672662Y206797D01*
X672682Y206801D01*
X672704Y206804D01*
X672728Y206808D01*
X672754Y206810D01*
X672784Y206812D01*
X672815Y206817D01*
X672850Y206819D01*
X672885D01*
X672924Y206821D01*
X672965D01*
X672967D01*
X672976D01*
X672991D01*
X673009D01*
X673033Y206819D01*
D02*
G37*
G36*
Y205646D02*
X673059D01*
X673087Y205644D01*
X673118Y205642D01*
X673188Y205635D01*
X673260Y205624D01*
X673329Y205611D01*
X673362Y205602D01*
X673395Y205592D01*
X673397D01*
X673401Y205589D01*
X673410Y205585D01*
X673421Y205581D01*
X673436Y205576D01*
X673451Y205568D01*
X673489Y205550D01*
X673528Y205528D01*
X673571Y205500D01*
X673610Y205467D01*
X673648Y205428D01*
Y205426D01*
X673652Y205424D01*
X673656Y205417D01*
X673661Y205408D01*
X673667Y205398D01*
X673676Y205387D01*
X673691Y205354D01*
X673706Y205315D01*
X673722Y205269D01*
X673731Y205214D01*
X673735Y205155D01*
Y205134D01*
X673733Y205118D01*
X673731Y205101D01*
X673726Y205079D01*
X673722Y205055D01*
X673715Y205029D01*
X673706Y205003D01*
X673698Y204975D01*
X673685Y204946D01*
X673669Y204918D01*
X673652Y204890D01*
X673630Y204861D01*
X673606Y204835D01*
X673580Y204811D01*
X673578Y204809D01*
X673571Y204805D01*
X673560Y204798D01*
X673543Y204787D01*
X673523Y204776D01*
X673497Y204765D01*
X673467Y204750D01*
X673432Y204737D01*
X673393Y204724D01*
X673347Y204711D01*
X673297Y204698D01*
X673240Y204687D01*
X673179Y204676D01*
X673113Y204669D01*
X673042Y204665D01*
X672965Y204663D01*
X672963D01*
X672954D01*
X672939D01*
X672922D01*
X672898Y204665D01*
X672871D01*
X672843Y204667D01*
X672811Y204669D01*
X672743Y204676D01*
X672671Y204687D01*
X672599Y204700D01*
X672566Y204709D01*
X672534Y204717D01*
X672532D01*
X672527Y204719D01*
X672518Y204724D01*
X672507Y204728D01*
X672492Y204733D01*
X672477Y204741D01*
X672440Y204759D01*
X672401Y204781D01*
X672359Y204809D01*
X672318Y204842D01*
X672283Y204881D01*
Y204883D01*
X672279Y204885D01*
X672274Y204892D01*
X672270Y204901D01*
X672261Y204911D01*
X672255Y204924D01*
X672237Y204957D01*
X672222Y204996D01*
X672207Y205042D01*
X672198Y205097D01*
X672193Y205155D01*
Y205175D01*
X672196Y205199D01*
X672200Y205227D01*
X672207Y205260D01*
X672215Y205295D01*
X672226Y205332D01*
X672244Y205367D01*
Y205369D01*
X672246Y205371D01*
X672252Y205382D01*
X672263Y205400D01*
X672279Y205421D01*
X672300Y205446D01*
X672324Y205472D01*
X672353Y205496D01*
X672385Y205520D01*
X672390Y205522D01*
X672401Y205531D01*
X672420Y205539D01*
X672449Y205555D01*
X672481Y205568D01*
X672518Y205585D01*
X672562Y205600D01*
X672610Y205613D01*
X672612D01*
X672616Y205615D01*
X672623Y205618D01*
X672634Y205620D01*
X672647Y205622D01*
X672662Y205624D01*
X672682Y205629D01*
X672704Y205631D01*
X672728Y205635D01*
X672754Y205637D01*
X672784Y205640D01*
X672815Y205644D01*
X672850Y205646D01*
X672885D01*
X672924Y205648D01*
X672965D01*
X672967D01*
X672976D01*
X672991D01*
X673009D01*
X673033Y205646D01*
D02*
G37*
G36*
X673347Y204268D02*
X673709D01*
Y204083D01*
X673347D01*
Y203427D01*
X673177D01*
X672200Y204118D01*
Y204268D01*
X673177D01*
Y204473D01*
X673347D01*
Y204268D01*
D02*
G37*
G36*
X673709Y202830D02*
X672529D01*
X672532Y202827D01*
X672540Y202816D01*
X672553Y202803D01*
X672569Y202782D01*
X672588Y202758D01*
X672610Y202727D01*
X672634Y202692D01*
X672658Y202653D01*
Y202651D01*
X672660Y202648D01*
X672669Y202635D01*
X672680Y202614D01*
X672693Y202588D01*
X672708Y202557D01*
X672723Y202524D01*
X672739Y202492D01*
X672752Y202459D01*
X672573D01*
Y202461D01*
X672569Y202465D01*
X672566Y202474D01*
X672560Y202485D01*
X672553Y202498D01*
X672544Y202513D01*
X672523Y202550D01*
X672499Y202594D01*
X672468Y202638D01*
X672433Y202683D01*
X672396Y202729D01*
X672394Y202731D01*
X672392Y202733D01*
X672385Y202740D01*
X672379Y202749D01*
X672357Y202768D01*
X672331Y202795D01*
X672300Y202821D01*
X672265Y202849D01*
X672231Y202873D01*
X672193Y202895D01*
Y203015D01*
X673709D01*
Y202830D01*
D02*
G37*
G36*
Y201951D02*
X673395Y201752D01*
X673393D01*
X673388Y201748D01*
X673382Y201744D01*
X673373Y201737D01*
X673349Y201722D01*
X673318Y201702D01*
X673286Y201678D01*
X673251Y201654D01*
X673218Y201630D01*
X673188Y201609D01*
X673185Y201606D01*
X673177Y201600D01*
X673164Y201589D01*
X673148Y201574D01*
X673116Y201541D01*
X673100Y201524D01*
X673087Y201506D01*
X673085Y201504D01*
X673083Y201500D01*
X673079Y201491D01*
X673072Y201478D01*
X673066Y201465D01*
X673059Y201449D01*
X673048Y201415D01*
Y201413D01*
X673046Y201408D01*
Y201399D01*
X673044Y201389D01*
X673042Y201373D01*
Y201356D01*
X673039Y201332D01*
Y201075D01*
X673709D01*
Y200874D01*
X672200D01*
Y201574D01*
X672202Y201591D01*
Y201611D01*
X672204Y201657D01*
X672211Y201705D01*
X672218Y201757D01*
X672228Y201805D01*
X672235Y201829D01*
X672241Y201849D01*
Y201851D01*
X672244Y201853D01*
X672250Y201866D01*
X672259Y201886D01*
X672274Y201909D01*
X672294Y201936D01*
X672320Y201964D01*
X672351Y201990D01*
X672385Y202016D01*
X672388D01*
X672390Y202018D01*
X672403Y202027D01*
X672425Y202036D01*
X672453Y202049D01*
X672486Y202060D01*
X672525Y202071D01*
X672566Y202077D01*
X672612Y202080D01*
X672614D01*
X672619D01*
X672627D01*
X672638Y202077D01*
X672653D01*
X672669Y202075D01*
X672706Y202066D01*
X672749Y202053D01*
X672795Y202036D01*
X672841Y202010D01*
X672863Y201992D01*
X672885Y201975D01*
X672887Y201973D01*
X672889Y201971D01*
X672895Y201964D01*
X672902Y201955D01*
X672911Y201944D01*
X672920Y201931D01*
X672930Y201914D01*
X672943Y201896D01*
X672954Y201875D01*
X672965Y201851D01*
X672978Y201824D01*
X672989Y201796D01*
X672998Y201763D01*
X673009Y201731D01*
X673015Y201694D01*
X673022Y201654D01*
X673024Y201659D01*
X673029Y201667D01*
X673037Y201681D01*
X673046Y201698D01*
X673070Y201737D01*
X673085Y201757D01*
X673098Y201774D01*
X673103Y201779D01*
X673113Y201790D01*
X673131Y201807D01*
X673153Y201829D01*
X673183Y201853D01*
X673216Y201881D01*
X673255Y201909D01*
X673299Y201940D01*
X673709Y202200D01*
Y201951D01*
D02*
G37*
G36*
X579824Y115032D02*
X579850D01*
X579879Y115030D01*
X579909Y115028D01*
X579979Y115021D01*
X580051Y115010D01*
X580121Y114997D01*
X580153Y114989D01*
X580186Y114978D01*
X580188D01*
X580193Y114976D01*
X580201Y114971D01*
X580212Y114967D01*
X580228Y114962D01*
X580243Y114954D01*
X580280Y114936D01*
X580319Y114915D01*
X580363Y114886D01*
X580402Y114854D01*
X580439Y114814D01*
Y114812D01*
X580443Y114810D01*
X580448Y114803D01*
X580452Y114795D01*
X580459Y114784D01*
X580467Y114773D01*
X580483Y114740D01*
X580498Y114701D01*
X580513Y114655D01*
X580522Y114601D01*
X580526Y114542D01*
Y114520D01*
X580524Y114505D01*
X580522Y114487D01*
X580517Y114465D01*
X580513Y114441D01*
X580507Y114415D01*
X580498Y114389D01*
X580489Y114361D01*
X580476Y114332D01*
X580461Y114304D01*
X580443Y114276D01*
X580421Y114247D01*
X580398Y114221D01*
X580371Y114197D01*
X580369Y114195D01*
X580363Y114191D01*
X580352Y114184D01*
X580334Y114173D01*
X580315Y114162D01*
X580289Y114152D01*
X580258Y114136D01*
X580223Y114123D01*
X580184Y114110D01*
X580138Y114097D01*
X580088Y114084D01*
X580031Y114073D01*
X579970Y114062D01*
X579905Y114056D01*
X579833Y114051D01*
X579757Y114049D01*
X579754D01*
X579746D01*
X579731D01*
X579713D01*
X579689Y114051D01*
X579663D01*
X579635Y114053D01*
X579602Y114056D01*
X579534Y114062D01*
X579462Y114073D01*
X579390Y114086D01*
X579358Y114095D01*
X579325Y114103D01*
X579323D01*
X579318Y114106D01*
X579310Y114110D01*
X579299Y114114D01*
X579284Y114119D01*
X579268Y114128D01*
X579231Y114145D01*
X579192Y114167D01*
X579151Y114195D01*
X579109Y114228D01*
X579074Y114267D01*
Y114269D01*
X579070Y114271D01*
X579066Y114278D01*
X579061Y114287D01*
X579052Y114298D01*
X579046Y114311D01*
X579029Y114343D01*
X579013Y114383D01*
X578998Y114428D01*
X578989Y114483D01*
X578985Y114542D01*
Y114561D01*
X578987Y114585D01*
X578991Y114614D01*
X578998Y114646D01*
X579007Y114681D01*
X579018Y114718D01*
X579035Y114753D01*
Y114755D01*
X579037Y114758D01*
X579044Y114768D01*
X579055Y114786D01*
X579070Y114808D01*
X579092Y114832D01*
X579116Y114858D01*
X579144Y114882D01*
X579177Y114906D01*
X579181Y114908D01*
X579192Y114917D01*
X579212Y114925D01*
X579240Y114941D01*
X579273Y114954D01*
X579310Y114971D01*
X579353Y114986D01*
X579401Y114999D01*
X579403D01*
X579408Y115002D01*
X579414Y115004D01*
X579425Y115006D01*
X579438Y115008D01*
X579454Y115010D01*
X579473Y115015D01*
X579495Y115017D01*
X579519Y115021D01*
X579545Y115024D01*
X579576Y115026D01*
X579606Y115030D01*
X579641Y115032D01*
X579676D01*
X579715Y115034D01*
X579757D01*
X579759D01*
X579768D01*
X579783D01*
X579800D01*
X579824Y115032D01*
D02*
G37*
G36*
Y113859D02*
X579850D01*
X579879Y113857D01*
X579909Y113855D01*
X579979Y113848D01*
X580051Y113838D01*
X580121Y113824D01*
X580153Y113816D01*
X580186Y113805D01*
X580188D01*
X580193Y113803D01*
X580201Y113798D01*
X580212Y113794D01*
X580228Y113790D01*
X580243Y113781D01*
X580280Y113763D01*
X580319Y113742D01*
X580363Y113713D01*
X580402Y113681D01*
X580439Y113641D01*
Y113639D01*
X580443Y113637D01*
X580448Y113630D01*
X580452Y113622D01*
X580459Y113611D01*
X580467Y113600D01*
X580483Y113567D01*
X580498Y113528D01*
X580513Y113482D01*
X580522Y113428D01*
X580526Y113369D01*
Y113347D01*
X580524Y113332D01*
X580522Y113314D01*
X580517Y113293D01*
X580513Y113269D01*
X580507Y113242D01*
X580498Y113216D01*
X580489Y113188D01*
X580476Y113160D01*
X580461Y113131D01*
X580443Y113103D01*
X580421Y113075D01*
X580398Y113048D01*
X580371Y113024D01*
X580369Y113022D01*
X580363Y113018D01*
X580352Y113011D01*
X580334Y113001D01*
X580315Y112990D01*
X580289Y112979D01*
X580258Y112963D01*
X580223Y112950D01*
X580184Y112937D01*
X580138Y112924D01*
X580088Y112911D01*
X580031Y112900D01*
X579970Y112889D01*
X579905Y112883D01*
X579833Y112878D01*
X579757Y112876D01*
X579754D01*
X579746D01*
X579731D01*
X579713D01*
X579689Y112878D01*
X579663D01*
X579635Y112881D01*
X579602Y112883D01*
X579534Y112889D01*
X579462Y112900D01*
X579390Y112913D01*
X579358Y112922D01*
X579325Y112931D01*
X579323D01*
X579318Y112933D01*
X579310Y112937D01*
X579299Y112942D01*
X579284Y112946D01*
X579268Y112955D01*
X579231Y112972D01*
X579192Y112994D01*
X579151Y113022D01*
X579109Y113055D01*
X579074Y113094D01*
Y113096D01*
X579070Y113099D01*
X579066Y113105D01*
X579061Y113114D01*
X579052Y113125D01*
X579046Y113138D01*
X579029Y113171D01*
X579013Y113210D01*
X578998Y113256D01*
X578989Y113310D01*
X578985Y113369D01*
Y113389D01*
X578987Y113412D01*
X578991Y113441D01*
X578998Y113473D01*
X579007Y113508D01*
X579018Y113546D01*
X579035Y113580D01*
Y113583D01*
X579037Y113585D01*
X579044Y113596D01*
X579055Y113613D01*
X579070Y113635D01*
X579092Y113659D01*
X579116Y113685D01*
X579144Y113709D01*
X579177Y113733D01*
X579181Y113735D01*
X579192Y113744D01*
X579212Y113753D01*
X579240Y113768D01*
X579273Y113781D01*
X579310Y113798D01*
X579353Y113814D01*
X579401Y113827D01*
X579403D01*
X579408Y113829D01*
X579414Y113831D01*
X579425Y113833D01*
X579438Y113835D01*
X579454Y113838D01*
X579473Y113842D01*
X579495Y113844D01*
X579519Y113848D01*
X579545Y113851D01*
X579576Y113853D01*
X579606Y113857D01*
X579641Y113859D01*
X579676D01*
X579715Y113862D01*
X579757D01*
X579759D01*
X579768D01*
X579783D01*
X579800D01*
X579824Y113859D01*
D02*
G37*
G36*
X580500Y111677D02*
X580498D01*
X580489D01*
X580476D01*
X580459Y111679D01*
X580439Y111682D01*
X580417Y111686D01*
X580395Y111690D01*
X580371Y111699D01*
X580369D01*
X580367Y111701D01*
X580354Y111706D01*
X580334Y111714D01*
X580308Y111727D01*
X580278Y111745D01*
X580243Y111767D01*
X580208Y111791D01*
X580171Y111821D01*
X580169D01*
X580166Y111825D01*
X580153Y111836D01*
X580134Y111856D01*
X580105Y111884D01*
X580073Y111917D01*
X580033Y111958D01*
X579990Y112009D01*
X579944Y112063D01*
X579942Y112065D01*
X579935Y112074D01*
X579924Y112087D01*
X579911Y112102D01*
X579894Y112122D01*
X579874Y112146D01*
X579852Y112170D01*
X579829Y112198D01*
X579776Y112253D01*
X579724Y112307D01*
X579698Y112333D01*
X579672Y112357D01*
X579648Y112379D01*
X579624Y112397D01*
X579622D01*
X579619Y112401D01*
X579613Y112405D01*
X579604Y112410D01*
X579580Y112425D01*
X579552Y112442D01*
X579517Y112458D01*
X579480Y112473D01*
X579438Y112482D01*
X579399Y112486D01*
X579397D01*
X579395D01*
X579382Y112484D01*
X579360Y112482D01*
X579336Y112475D01*
X579305Y112466D01*
X579275Y112451D01*
X579244Y112432D01*
X579214Y112405D01*
X579209Y112401D01*
X579201Y112390D01*
X579190Y112375D01*
X579175Y112351D01*
X579162Y112320D01*
X579148Y112285D01*
X579140Y112244D01*
X579138Y112198D01*
Y112185D01*
X579140Y112176D01*
X579142Y112150D01*
X579148Y112120D01*
X579157Y112087D01*
X579172Y112050D01*
X579192Y112015D01*
X579218Y111982D01*
X579222Y111978D01*
X579233Y111969D01*
X579251Y111956D01*
X579277Y111943D01*
X579308Y111928D01*
X579347Y111915D01*
X579390Y111906D01*
X579440Y111902D01*
X579421Y111712D01*
X579419D01*
X579412Y111714D01*
X579401D01*
X579386Y111716D01*
X579369Y111721D01*
X579349Y111725D01*
X579325Y111732D01*
X579301Y111738D01*
X579249Y111756D01*
X579196Y111782D01*
X579170Y111797D01*
X579144Y111817D01*
X579120Y111836D01*
X579098Y111858D01*
X579096Y111860D01*
X579094Y111865D01*
X579087Y111871D01*
X579081Y111882D01*
X579072Y111895D01*
X579063Y111910D01*
X579052Y111928D01*
X579042Y111950D01*
X579031Y111974D01*
X579020Y112000D01*
X579011Y112028D01*
X579002Y112059D01*
X578996Y112091D01*
X578989Y112126D01*
X578987Y112163D01*
X578985Y112203D01*
Y112224D01*
X578987Y112240D01*
X578989Y112257D01*
X578991Y112279D01*
X578996Y112303D01*
X579000Y112327D01*
X579015Y112383D01*
X579037Y112440D01*
X579050Y112469D01*
X579066Y112497D01*
X579085Y112523D01*
X579107Y112547D01*
X579109Y112549D01*
X579111Y112554D01*
X579120Y112558D01*
X579129Y112567D01*
X579140Y112577D01*
X579155Y112588D01*
X579170Y112599D01*
X579190Y112612D01*
X579231Y112634D01*
X579284Y112656D01*
X579310Y112665D01*
X579340Y112669D01*
X579371Y112673D01*
X579403Y112676D01*
X579408D01*
X579419D01*
X579436Y112673D01*
X579460Y112671D01*
X579486Y112667D01*
X579517Y112658D01*
X579550Y112650D01*
X579582Y112636D01*
X579587Y112634D01*
X579598Y112630D01*
X579615Y112621D01*
X579639Y112608D01*
X579665Y112591D01*
X579698Y112569D01*
X579731Y112543D01*
X579768Y112512D01*
X579772Y112508D01*
X579785Y112497D01*
X579796Y112486D01*
X579807Y112475D01*
X579820Y112462D01*
X579837Y112445D01*
X579855Y112427D01*
X579874Y112405D01*
X579896Y112383D01*
X579920Y112357D01*
X579944Y112329D01*
X579972Y112299D01*
X580001Y112264D01*
X580031Y112229D01*
X580033Y112227D01*
X580038Y112222D01*
X580044Y112214D01*
X580053Y112203D01*
X580066Y112189D01*
X580079Y112174D01*
X580108Y112139D01*
X580140Y112102D01*
X580173Y112067D01*
X580201Y112037D01*
X580212Y112024D01*
X580223Y112013D01*
X580225Y112011D01*
X580232Y112004D01*
X580241Y111995D01*
X580254Y111985D01*
X580269Y111974D01*
X580284Y111961D01*
X580321Y111934D01*
Y112678D01*
X580500D01*
Y111677D01*
D02*
G37*
G36*
X579170Y110701D02*
X579637D01*
Y111409D01*
X579815D01*
Y110701D01*
X580500D01*
Y110500D01*
X578991D01*
Y111520D01*
X579170D01*
Y110701D01*
D02*
G37*
G36*
X649294Y209253D02*
X649320Y209249D01*
X649351Y209244D01*
X649383Y209236D01*
X649418Y209225D01*
X649453Y209209D01*
X649458Y209207D01*
X649468Y209201D01*
X649484Y209192D01*
X649505Y209179D01*
X649527Y209161D01*
X649551Y209144D01*
X649575Y209122D01*
X649595Y209098D01*
X649597Y209096D01*
X649604Y209087D01*
X649612Y209072D01*
X649621Y209052D01*
X649634Y209029D01*
X649647Y209000D01*
X649658Y208970D01*
X649669Y208933D01*
Y208928D01*
X649673Y208915D01*
X649676Y208893D01*
X649680Y208865D01*
X649684Y208830D01*
X649689Y208789D01*
X649691Y208743D01*
X649693Y208691D01*
Y208115D01*
X648184D01*
Y208708D01*
X648186Y208723D01*
Y208741D01*
X648191Y208780D01*
X648195Y208824D01*
X648204Y208869D01*
X648215Y208915D01*
X648230Y208957D01*
Y208959D01*
X648232Y208961D01*
X648239Y208974D01*
X648250Y208994D01*
X648265Y209015D01*
X648285Y209042D01*
X648309Y209070D01*
X648339Y209096D01*
X648372Y209120D01*
X648376Y209122D01*
X648389Y209129D01*
X648407Y209140D01*
X648433Y209151D01*
X648463Y209161D01*
X648496Y209172D01*
X648533Y209179D01*
X648570Y209181D01*
X648575D01*
X648586D01*
X648605Y209179D01*
X648629Y209175D01*
X648657Y209168D01*
X648688Y209157D01*
X648719Y209144D01*
X648751Y209127D01*
X648756Y209124D01*
X648764Y209118D01*
X648782Y209105D01*
X648799Y209087D01*
X648821Y209066D01*
X648845Y209039D01*
X648867Y209007D01*
X648888Y208970D01*
Y208972D01*
X648891Y208976D01*
X648893Y208983D01*
X648897Y208992D01*
X648906Y209018D01*
X648921Y209048D01*
X648941Y209081D01*
X648965Y209118D01*
X648993Y209151D01*
X649028Y209181D01*
X649032Y209183D01*
X649045Y209192D01*
X649065Y209205D01*
X649091Y209218D01*
X649126Y209231D01*
X649163Y209244D01*
X649207Y209253D01*
X649255Y209255D01*
X649257D01*
X649259D01*
X649272D01*
X649294Y209253D01*
D02*
G37*
G36*
X650111Y206755D02*
X649978D01*
Y207982D01*
X650111D01*
Y206755D01*
D02*
G37*
G36*
X649017Y206685D02*
X649043D01*
X649072Y206683D01*
X649102Y206681D01*
X649172Y206674D01*
X649244Y206663D01*
X649314Y206650D01*
X649346Y206641D01*
X649379Y206630D01*
X649381D01*
X649385Y206628D01*
X649394Y206624D01*
X649405Y206620D01*
X649420Y206615D01*
X649436Y206607D01*
X649473Y206589D01*
X649512Y206567D01*
X649556Y206539D01*
X649595Y206506D01*
X649632Y206467D01*
Y206465D01*
X649636Y206463D01*
X649641Y206456D01*
X649645Y206447D01*
X649651Y206436D01*
X649660Y206426D01*
X649676Y206393D01*
X649691Y206354D01*
X649706Y206308D01*
X649715Y206253D01*
X649719Y206194D01*
Y206173D01*
X649717Y206157D01*
X649715Y206140D01*
X649710Y206118D01*
X649706Y206094D01*
X649699Y206068D01*
X649691Y206042D01*
X649682Y206014D01*
X649669Y205985D01*
X649654Y205957D01*
X649636Y205929D01*
X649614Y205900D01*
X649590Y205874D01*
X649564Y205850D01*
X649562Y205848D01*
X649556Y205843D01*
X649545Y205837D01*
X649527Y205826D01*
X649508Y205815D01*
X649481Y205804D01*
X649451Y205789D01*
X649416Y205776D01*
X649377Y205763D01*
X649331Y205750D01*
X649281Y205737D01*
X649224Y205726D01*
X649163Y205715D01*
X649098Y205708D01*
X649026Y205704D01*
X648949Y205702D01*
X648947D01*
X648939D01*
X648923D01*
X648906D01*
X648882Y205704D01*
X648856D01*
X648828Y205706D01*
X648795Y205708D01*
X648727Y205715D01*
X648655Y205726D01*
X648583Y205739D01*
X648551Y205748D01*
X648518Y205756D01*
X648516D01*
X648511Y205759D01*
X648503Y205763D01*
X648492Y205767D01*
X648477Y205772D01*
X648461Y205780D01*
X648424Y205798D01*
X648385Y205820D01*
X648344Y205848D01*
X648302Y205881D01*
X648267Y205920D01*
Y205922D01*
X648263Y205924D01*
X648258Y205931D01*
X648254Y205940D01*
X648245Y205950D01*
X648239Y205963D01*
X648221Y205996D01*
X648206Y206035D01*
X648191Y206081D01*
X648182Y206136D01*
X648178Y206194D01*
Y206214D01*
X648180Y206238D01*
X648184Y206266D01*
X648191Y206299D01*
X648200Y206334D01*
X648210Y206371D01*
X648228Y206406D01*
Y206408D01*
X648230Y206410D01*
X648237Y206421D01*
X648248Y206439D01*
X648263Y206460D01*
X648285Y206485D01*
X648309Y206511D01*
X648337Y206535D01*
X648370Y206559D01*
X648374Y206561D01*
X648385Y206570D01*
X648405Y206578D01*
X648433Y206593D01*
X648466Y206607D01*
X648503Y206624D01*
X648546Y206639D01*
X648594Y206652D01*
X648596D01*
X648601Y206655D01*
X648607Y206657D01*
X648618Y206659D01*
X648631Y206661D01*
X648646Y206663D01*
X648666Y206668D01*
X648688Y206670D01*
X648712Y206674D01*
X648738Y206676D01*
X648769Y206679D01*
X648799Y206683D01*
X648834Y206685D01*
X648869D01*
X648908Y206687D01*
X648949D01*
X648952D01*
X648960D01*
X648976D01*
X648993D01*
X649017Y206685D01*
D02*
G37*
G36*
Y205512D02*
X649043D01*
X649072Y205510D01*
X649102Y205508D01*
X649172Y205501D01*
X649244Y205490D01*
X649314Y205477D01*
X649346Y205469D01*
X649379Y205458D01*
X649381D01*
X649385Y205455D01*
X649394Y205451D01*
X649405Y205447D01*
X649420Y205442D01*
X649436Y205434D01*
X649473Y205416D01*
X649512Y205395D01*
X649556Y205366D01*
X649595Y205333D01*
X649632Y205294D01*
Y205292D01*
X649636Y205290D01*
X649641Y205283D01*
X649645Y205275D01*
X649651Y205264D01*
X649660Y205253D01*
X649676Y205220D01*
X649691Y205181D01*
X649706Y205135D01*
X649715Y205081D01*
X649719Y205022D01*
Y205000D01*
X649717Y204985D01*
X649715Y204967D01*
X649710Y204945D01*
X649706Y204921D01*
X649699Y204895D01*
X649691Y204869D01*
X649682Y204841D01*
X649669Y204812D01*
X649654Y204784D01*
X649636Y204756D01*
X649614Y204727D01*
X649590Y204701D01*
X649564Y204677D01*
X649562Y204675D01*
X649556Y204671D01*
X649545Y204664D01*
X649527Y204653D01*
X649508Y204642D01*
X649481Y204631D01*
X649451Y204616D01*
X649416Y204603D01*
X649377Y204590D01*
X649331Y204577D01*
X649281Y204564D01*
X649224Y204553D01*
X649163Y204542D01*
X649098Y204536D01*
X649026Y204531D01*
X648949Y204529D01*
X648947D01*
X648939D01*
X648923D01*
X648906D01*
X648882Y204531D01*
X648856D01*
X648828Y204533D01*
X648795Y204536D01*
X648727Y204542D01*
X648655Y204553D01*
X648583Y204566D01*
X648551Y204575D01*
X648518Y204584D01*
X648516D01*
X648511Y204586D01*
X648503Y204590D01*
X648492Y204594D01*
X648477Y204599D01*
X648461Y204608D01*
X648424Y204625D01*
X648385Y204647D01*
X648344Y204675D01*
X648302Y204708D01*
X648267Y204747D01*
Y204749D01*
X648263Y204751D01*
X648258Y204758D01*
X648254Y204767D01*
X648245Y204778D01*
X648239Y204791D01*
X648221Y204823D01*
X648206Y204862D01*
X648191Y204908D01*
X648182Y204963D01*
X648178Y205022D01*
Y205041D01*
X648180Y205065D01*
X648184Y205094D01*
X648191Y205126D01*
X648200Y205161D01*
X648210Y205198D01*
X648228Y205233D01*
Y205235D01*
X648230Y205238D01*
X648237Y205248D01*
X648248Y205266D01*
X648263Y205288D01*
X648285Y205312D01*
X648309Y205338D01*
X648337Y205362D01*
X648370Y205386D01*
X648374Y205388D01*
X648385Y205397D01*
X648405Y205405D01*
X648433Y205421D01*
X648466Y205434D01*
X648503Y205451D01*
X648546Y205466D01*
X648594Y205480D01*
X648596D01*
X648601Y205482D01*
X648607Y205484D01*
X648618Y205486D01*
X648631Y205488D01*
X648646Y205490D01*
X648666Y205495D01*
X648688Y205497D01*
X648712Y205501D01*
X648738Y205504D01*
X648769Y205506D01*
X648799Y205510D01*
X648834Y205512D01*
X648869D01*
X648908Y205514D01*
X648949D01*
X648952D01*
X648960D01*
X648976D01*
X648993D01*
X649017Y205512D01*
D02*
G37*
G36*
X649331Y204134D02*
X649693D01*
Y203949D01*
X649331D01*
Y203293D01*
X649161D01*
X648184Y203984D01*
Y204134D01*
X649161D01*
Y204339D01*
X649331D01*
Y204134D01*
D02*
G37*
G36*
X649693Y202696D02*
X648514D01*
X648516Y202693D01*
X648524Y202682D01*
X648537Y202670D01*
X648553Y202648D01*
X648572Y202624D01*
X648594Y202593D01*
X648618Y202558D01*
X648642Y202519D01*
Y202517D01*
X648644Y202515D01*
X648653Y202502D01*
X648664Y202480D01*
X648677Y202454D01*
X648692Y202423D01*
X648707Y202390D01*
X648723Y202358D01*
X648736Y202325D01*
X648557D01*
Y202327D01*
X648553Y202332D01*
X648551Y202340D01*
X648544Y202351D01*
X648537Y202364D01*
X648529Y202379D01*
X648507Y202417D01*
X648483Y202460D01*
X648453Y202504D01*
X648418Y202550D01*
X648381Y202595D01*
X648378Y202597D01*
X648376Y202600D01*
X648370Y202606D01*
X648363Y202615D01*
X648341Y202635D01*
X648315Y202661D01*
X648285Y202687D01*
X648250Y202715D01*
X648215Y202739D01*
X648178Y202761D01*
Y202881D01*
X649693D01*
Y202696D01*
D02*
G37*
G36*
Y201817D02*
X649379Y201619D01*
X649377D01*
X649372Y201614D01*
X649366Y201610D01*
X649357Y201603D01*
X649333Y201588D01*
X649303Y201569D01*
X649270Y201545D01*
X649235Y201521D01*
X649202Y201497D01*
X649172Y201475D01*
X649170Y201473D01*
X649161Y201466D01*
X649148Y201455D01*
X649133Y201440D01*
X649100Y201407D01*
X649085Y201390D01*
X649072Y201372D01*
X649069Y201370D01*
X649067Y201366D01*
X649063Y201357D01*
X649056Y201344D01*
X649050Y201331D01*
X649043Y201316D01*
X649032Y201281D01*
Y201279D01*
X649030Y201274D01*
Y201266D01*
X649028Y201255D01*
X649026Y201239D01*
Y201222D01*
X649024Y201198D01*
Y200941D01*
X649693D01*
Y200740D01*
X648184D01*
Y201440D01*
X648186Y201457D01*
Y201477D01*
X648189Y201523D01*
X648195Y201571D01*
X648202Y201623D01*
X648213Y201671D01*
X648219Y201695D01*
X648226Y201715D01*
Y201717D01*
X648228Y201719D01*
X648235Y201732D01*
X648243Y201752D01*
X648258Y201776D01*
X648278Y201802D01*
X648304Y201830D01*
X648335Y201856D01*
X648370Y201883D01*
X648372D01*
X648374Y201885D01*
X648387Y201893D01*
X648409Y201902D01*
X648437Y201915D01*
X648470Y201926D01*
X648509Y201937D01*
X648551Y201943D01*
X648596Y201946D01*
X648598D01*
X648603D01*
X648612D01*
X648623Y201943D01*
X648638D01*
X648653Y201941D01*
X648690Y201933D01*
X648734Y201920D01*
X648779Y201902D01*
X648825Y201876D01*
X648847Y201858D01*
X648869Y201841D01*
X648871Y201839D01*
X648873Y201837D01*
X648880Y201830D01*
X648886Y201821D01*
X648895Y201811D01*
X648904Y201798D01*
X648915Y201780D01*
X648928Y201763D01*
X648939Y201741D01*
X648949Y201717D01*
X648963Y201691D01*
X648974Y201662D01*
X648982Y201630D01*
X648993Y201597D01*
X649000Y201560D01*
X649006Y201521D01*
X649008Y201525D01*
X649013Y201534D01*
X649021Y201547D01*
X649030Y201564D01*
X649054Y201603D01*
X649069Y201623D01*
X649083Y201641D01*
X649087Y201645D01*
X649098Y201656D01*
X649115Y201673D01*
X649137Y201695D01*
X649167Y201719D01*
X649200Y201747D01*
X649239Y201776D01*
X649283Y201806D01*
X649693Y202066D01*
Y201817D01*
D02*
G37*
G36*
X643794Y209253D02*
X643820Y209249D01*
X643851Y209244D01*
X643883Y209236D01*
X643918Y209225D01*
X643953Y209209D01*
X643958Y209207D01*
X643968Y209201D01*
X643984Y209192D01*
X644005Y209179D01*
X644027Y209161D01*
X644051Y209144D01*
X644075Y209122D01*
X644095Y209098D01*
X644097Y209096D01*
X644103Y209087D01*
X644112Y209072D01*
X644121Y209052D01*
X644134Y209029D01*
X644147Y209000D01*
X644158Y208970D01*
X644169Y208933D01*
Y208928D01*
X644173Y208915D01*
X644175Y208893D01*
X644180Y208865D01*
X644184Y208830D01*
X644189Y208789D01*
X644191Y208743D01*
X644193Y208691D01*
Y208115D01*
X642684D01*
Y208708D01*
X642687Y208723D01*
Y208741D01*
X642691Y208780D01*
X642695Y208824D01*
X642704Y208869D01*
X642715Y208915D01*
X642730Y208957D01*
Y208959D01*
X642732Y208961D01*
X642739Y208974D01*
X642750Y208994D01*
X642765Y209015D01*
X642785Y209042D01*
X642809Y209070D01*
X642839Y209096D01*
X642872Y209120D01*
X642876Y209122D01*
X642889Y209129D01*
X642907Y209140D01*
X642933Y209151D01*
X642963Y209161D01*
X642996Y209172D01*
X643033Y209179D01*
X643070Y209181D01*
X643075D01*
X643085D01*
X643105Y209179D01*
X643129Y209175D01*
X643157Y209168D01*
X643188Y209157D01*
X643219Y209144D01*
X643251Y209127D01*
X643256Y209124D01*
X643264Y209118D01*
X643282Y209105D01*
X643299Y209087D01*
X643321Y209066D01*
X643345Y209039D01*
X643367Y209007D01*
X643389Y208970D01*
Y208972D01*
X643391Y208976D01*
X643393Y208983D01*
X643397Y208992D01*
X643406Y209018D01*
X643421Y209048D01*
X643441Y209081D01*
X643465Y209118D01*
X643493Y209151D01*
X643528Y209181D01*
X643532Y209183D01*
X643545Y209192D01*
X643565Y209205D01*
X643591Y209218D01*
X643626Y209231D01*
X643663Y209244D01*
X643707Y209253D01*
X643755Y209255D01*
X643757D01*
X643759D01*
X643772D01*
X643794Y209253D01*
D02*
G37*
G36*
X644612Y206755D02*
X644479D01*
Y207982D01*
X644612D01*
Y206755D01*
D02*
G37*
G36*
X644193Y205676D02*
X644191D01*
X644182D01*
X644169D01*
X644151Y205678D01*
X644132Y205680D01*
X644110Y205684D01*
X644088Y205689D01*
X644064Y205697D01*
X644062D01*
X644060Y205700D01*
X644047Y205704D01*
X644027Y205713D01*
X644001Y205726D01*
X643971Y205743D01*
X643936Y205765D01*
X643901Y205789D01*
X643864Y205820D01*
X643861D01*
X643859Y205824D01*
X643846Y205835D01*
X643827Y205854D01*
X643798Y205883D01*
X643766Y205915D01*
X643726Y205957D01*
X643683Y206007D01*
X643637Y206062D01*
X643635Y206064D01*
X643628Y206072D01*
X643617Y206085D01*
X643604Y206101D01*
X643587Y206120D01*
X643567Y206144D01*
X643545Y206168D01*
X643521Y206197D01*
X643469Y206251D01*
X643417Y206306D01*
X643391Y206332D01*
X643364Y206356D01*
X643340Y206378D01*
X643317Y206395D01*
X643314D01*
X643312Y206399D01*
X643306Y206404D01*
X643297Y206408D01*
X643273Y206423D01*
X643245Y206441D01*
X643210Y206456D01*
X643173Y206471D01*
X643131Y206480D01*
X643092Y206485D01*
X643090D01*
X643088D01*
X643075Y206482D01*
X643053Y206480D01*
X643029Y206474D01*
X642998Y206465D01*
X642968Y206450D01*
X642937Y206430D01*
X642907Y206404D01*
X642902Y206399D01*
X642894Y206388D01*
X642883Y206373D01*
X642868Y206349D01*
X642854Y206319D01*
X642841Y206284D01*
X642833Y206242D01*
X642830Y206197D01*
Y206184D01*
X642833Y206175D01*
X642835Y206149D01*
X642841Y206118D01*
X642850Y206085D01*
X642865Y206048D01*
X642885Y206014D01*
X642911Y205981D01*
X642915Y205977D01*
X642926Y205968D01*
X642944Y205955D01*
X642970Y205942D01*
X643001Y205926D01*
X643040Y205913D01*
X643083Y205905D01*
X643133Y205900D01*
X643114Y205711D01*
X643112D01*
X643105Y205713D01*
X643094D01*
X643079Y205715D01*
X643061Y205719D01*
X643042Y205724D01*
X643018Y205730D01*
X642994Y205737D01*
X642942Y205754D01*
X642889Y205780D01*
X642863Y205796D01*
X642837Y205815D01*
X642813Y205835D01*
X642791Y205857D01*
X642789Y205859D01*
X642787Y205863D01*
X642780Y205870D01*
X642774Y205881D01*
X642765Y205894D01*
X642756Y205909D01*
X642745Y205926D01*
X642734Y205948D01*
X642724Y205972D01*
X642713Y205998D01*
X642704Y206027D01*
X642695Y206057D01*
X642689Y206090D01*
X642682Y206125D01*
X642680Y206162D01*
X642678Y206201D01*
Y206223D01*
X642680Y206238D01*
X642682Y206256D01*
X642684Y206277D01*
X642689Y206301D01*
X642693Y206325D01*
X642708Y206382D01*
X642730Y206439D01*
X642743Y206467D01*
X642759Y206495D01*
X642778Y206522D01*
X642800Y206545D01*
X642802Y206548D01*
X642804Y206552D01*
X642813Y206556D01*
X642822Y206565D01*
X642833Y206576D01*
X642848Y206587D01*
X642863Y206598D01*
X642883Y206611D01*
X642924Y206633D01*
X642977Y206655D01*
X643003Y206663D01*
X643033Y206668D01*
X643064Y206672D01*
X643096Y206674D01*
X643101D01*
X643112D01*
X643129Y206672D01*
X643153Y206670D01*
X643179Y206665D01*
X643210Y206657D01*
X643242Y206648D01*
X643275Y206635D01*
X643280Y206633D01*
X643290Y206628D01*
X643308Y206620D01*
X643332Y206607D01*
X643358Y206589D01*
X643391Y206567D01*
X643423Y206541D01*
X643460Y206511D01*
X643465Y206506D01*
X643478Y206495D01*
X643489Y206485D01*
X643500Y206474D01*
X643513Y206460D01*
X643530Y206443D01*
X643548Y206426D01*
X643567Y206404D01*
X643589Y206382D01*
X643613Y206356D01*
X643637Y206328D01*
X643665Y206297D01*
X643694Y206262D01*
X643724Y206227D01*
X643726Y206225D01*
X643731Y206221D01*
X643737Y206212D01*
X643746Y206201D01*
X643759Y206188D01*
X643772Y206173D01*
X643800Y206138D01*
X643833Y206101D01*
X643866Y206066D01*
X643894Y206035D01*
X643905Y206022D01*
X643916Y206011D01*
X643918Y206009D01*
X643925Y206003D01*
X643933Y205994D01*
X643947Y205983D01*
X643962Y205972D01*
X643977Y205959D01*
X644014Y205933D01*
Y206676D01*
X644193D01*
Y205676D01*
D02*
G37*
G36*
X643517Y205512D02*
X643543D01*
X643572Y205510D01*
X643602Y205508D01*
X643672Y205501D01*
X643744Y205490D01*
X643814Y205477D01*
X643846Y205469D01*
X643879Y205458D01*
X643881D01*
X643886Y205455D01*
X643894Y205451D01*
X643905Y205447D01*
X643920Y205442D01*
X643936Y205434D01*
X643973Y205416D01*
X644012Y205395D01*
X644056Y205366D01*
X644095Y205333D01*
X644132Y205294D01*
Y205292D01*
X644136Y205290D01*
X644141Y205283D01*
X644145Y205275D01*
X644151Y205264D01*
X644160Y205253D01*
X644175Y205220D01*
X644191Y205181D01*
X644206Y205135D01*
X644215Y205081D01*
X644219Y205022D01*
Y205000D01*
X644217Y204985D01*
X644215Y204967D01*
X644210Y204945D01*
X644206Y204921D01*
X644199Y204895D01*
X644191Y204869D01*
X644182Y204841D01*
X644169Y204812D01*
X644154Y204784D01*
X644136Y204756D01*
X644114Y204727D01*
X644090Y204701D01*
X644064Y204677D01*
X644062Y204675D01*
X644056Y204671D01*
X644045Y204664D01*
X644027Y204653D01*
X644008Y204642D01*
X643982Y204631D01*
X643951Y204616D01*
X643916Y204603D01*
X643877Y204590D01*
X643831Y204577D01*
X643781Y204564D01*
X643724Y204553D01*
X643663Y204542D01*
X643598Y204536D01*
X643526Y204531D01*
X643449Y204529D01*
X643447D01*
X643439D01*
X643423D01*
X643406D01*
X643382Y204531D01*
X643356D01*
X643328Y204533D01*
X643295Y204536D01*
X643227Y204542D01*
X643155Y204553D01*
X643083Y204566D01*
X643051Y204575D01*
X643018Y204584D01*
X643016D01*
X643011Y204586D01*
X643003Y204590D01*
X642992Y204594D01*
X642977Y204599D01*
X642961Y204608D01*
X642924Y204625D01*
X642885Y204647D01*
X642843Y204675D01*
X642802Y204708D01*
X642767Y204747D01*
Y204749D01*
X642763Y204751D01*
X642759Y204758D01*
X642754Y204767D01*
X642745Y204778D01*
X642739Y204791D01*
X642721Y204823D01*
X642706Y204862D01*
X642691Y204908D01*
X642682Y204963D01*
X642678Y205022D01*
Y205041D01*
X642680Y205065D01*
X642684Y205094D01*
X642691Y205126D01*
X642700Y205161D01*
X642710Y205198D01*
X642728Y205233D01*
Y205235D01*
X642730Y205238D01*
X642737Y205248D01*
X642748Y205266D01*
X642763Y205288D01*
X642785Y205312D01*
X642809Y205338D01*
X642837Y205362D01*
X642870Y205386D01*
X642874Y205388D01*
X642885Y205397D01*
X642905Y205405D01*
X642933Y205421D01*
X642966Y205434D01*
X643003Y205451D01*
X643046Y205466D01*
X643094Y205480D01*
X643096D01*
X643101Y205482D01*
X643107Y205484D01*
X643118Y205486D01*
X643131Y205488D01*
X643147Y205490D01*
X643166Y205495D01*
X643188Y205497D01*
X643212Y205501D01*
X643238Y205504D01*
X643269Y205506D01*
X643299Y205510D01*
X643334Y205512D01*
X643369D01*
X643408Y205514D01*
X643449D01*
X643452D01*
X643460D01*
X643476D01*
X643493D01*
X643517Y205512D01*
D02*
G37*
G36*
X643831Y204134D02*
X644193D01*
Y203949D01*
X643831D01*
Y203293D01*
X643661D01*
X642684Y203984D01*
Y204134D01*
X643661D01*
Y204339D01*
X643831D01*
Y204134D01*
D02*
G37*
G36*
X644193Y202696D02*
X643013D01*
X643016Y202693D01*
X643024Y202682D01*
X643038Y202670D01*
X643053Y202648D01*
X643072Y202624D01*
X643094Y202593D01*
X643118Y202558D01*
X643142Y202519D01*
Y202517D01*
X643144Y202515D01*
X643153Y202502D01*
X643164Y202480D01*
X643177Y202454D01*
X643192Y202423D01*
X643208Y202390D01*
X643223Y202358D01*
X643236Y202325D01*
X643057D01*
Y202327D01*
X643053Y202332D01*
X643051Y202340D01*
X643044Y202351D01*
X643038Y202364D01*
X643029Y202379D01*
X643007Y202417D01*
X642983Y202460D01*
X642952Y202504D01*
X642918Y202550D01*
X642881Y202595D01*
X642878Y202597D01*
X642876Y202600D01*
X642870Y202606D01*
X642863Y202615D01*
X642841Y202635D01*
X642815Y202661D01*
X642785Y202687D01*
X642750Y202715D01*
X642715Y202739D01*
X642678Y202761D01*
Y202881D01*
X644193D01*
Y202696D01*
D02*
G37*
G36*
Y201817D02*
X643879Y201619D01*
X643877D01*
X643872Y201614D01*
X643866Y201610D01*
X643857Y201603D01*
X643833Y201588D01*
X643803Y201569D01*
X643770Y201545D01*
X643735Y201521D01*
X643702Y201497D01*
X643672Y201475D01*
X643670Y201473D01*
X643661Y201466D01*
X643648Y201455D01*
X643633Y201440D01*
X643600Y201407D01*
X643585Y201390D01*
X643572Y201372D01*
X643569Y201370D01*
X643567Y201366D01*
X643563Y201357D01*
X643556Y201344D01*
X643550Y201331D01*
X643543Y201316D01*
X643532Y201281D01*
Y201279D01*
X643530Y201274D01*
Y201266D01*
X643528Y201255D01*
X643526Y201239D01*
Y201222D01*
X643524Y201198D01*
Y200941D01*
X644193D01*
Y200740D01*
X642684D01*
Y201440D01*
X642687Y201457D01*
Y201477D01*
X642689Y201523D01*
X642695Y201571D01*
X642702Y201623D01*
X642713Y201671D01*
X642719Y201695D01*
X642726Y201715D01*
Y201717D01*
X642728Y201719D01*
X642734Y201732D01*
X642743Y201752D01*
X642759Y201776D01*
X642778Y201802D01*
X642804Y201830D01*
X642835Y201856D01*
X642870Y201883D01*
X642872D01*
X642874Y201885D01*
X642887Y201893D01*
X642909Y201902D01*
X642937Y201915D01*
X642970Y201926D01*
X643009Y201937D01*
X643051Y201943D01*
X643096Y201946D01*
X643098D01*
X643103D01*
X643112D01*
X643122Y201943D01*
X643138D01*
X643153Y201941D01*
X643190Y201933D01*
X643234Y201920D01*
X643280Y201902D01*
X643325Y201876D01*
X643347Y201858D01*
X643369Y201841D01*
X643371Y201839D01*
X643373Y201837D01*
X643380Y201830D01*
X643386Y201821D01*
X643395Y201811D01*
X643404Y201798D01*
X643415Y201780D01*
X643428Y201763D01*
X643439Y201741D01*
X643449Y201717D01*
X643463Y201691D01*
X643473Y201662D01*
X643482Y201630D01*
X643493Y201597D01*
X643500Y201560D01*
X643506Y201521D01*
X643508Y201525D01*
X643513Y201534D01*
X643521Y201547D01*
X643530Y201564D01*
X643554Y201603D01*
X643569Y201623D01*
X643582Y201641D01*
X643587Y201645D01*
X643598Y201656D01*
X643615Y201673D01*
X643637Y201695D01*
X643668Y201719D01*
X643700Y201747D01*
X643740Y201776D01*
X643783Y201806D01*
X644193Y202066D01*
Y201817D01*
D02*
G37*
%LPC*%
G36*
X667587Y209036D02*
X667173Y208879D01*
X667171D01*
X667164Y208877D01*
X667154Y208872D01*
X667140Y208868D01*
X667125Y208861D01*
X667106Y208855D01*
X667084Y208849D01*
X667062Y208840D01*
X667012Y208822D01*
X666959Y208805D01*
X666907Y208787D01*
X666857Y208772D01*
X666859D01*
X666864Y208770D01*
X666872D01*
X666881Y208766D01*
X666896Y208763D01*
X666912Y208759D01*
X666949Y208750D01*
X666992Y208739D01*
X667040Y208724D01*
X667093Y208709D01*
X667147Y208689D01*
X667587Y208526D01*
Y209036D01*
D02*
G37*
G36*
X667533Y205459D02*
X667465D01*
X667463D01*
X667461D01*
X667450D01*
X667430D01*
X667404Y205456D01*
X667376D01*
X667341Y205454D01*
X667304Y205452D01*
X667263Y205448D01*
X667180Y205437D01*
X667138Y205430D01*
X667099Y205421D01*
X667062Y205413D01*
X667027Y205400D01*
X666997Y205387D01*
X666970Y205371D01*
X666968D01*
X666966Y205367D01*
X666959Y205363D01*
X666951Y205356D01*
X666931Y205336D01*
X666907Y205312D01*
X666885Y205280D01*
X666866Y205243D01*
X666857Y205223D01*
X666851Y205201D01*
X666848Y205177D01*
X666846Y205153D01*
Y205140D01*
X666848Y205132D01*
X666853Y205108D01*
X666859Y205079D01*
X666872Y205047D01*
X666892Y205012D01*
X666905Y204994D01*
X666918Y204977D01*
X666935Y204961D01*
X666955Y204946D01*
X666957D01*
X666962Y204942D01*
X666970Y204938D01*
X666981Y204931D01*
X666999Y204924D01*
X667018Y204916D01*
X667042Y204909D01*
X667071Y204901D01*
X667103Y204892D01*
X667140Y204883D01*
X667182Y204874D01*
X667228Y204868D01*
X667280Y204861D01*
X667337Y204857D01*
X667398Y204855D01*
X667465Y204853D01*
X667470D01*
X667481D01*
X667500D01*
X667526Y204855D01*
X667555D01*
X667590Y204857D01*
X667627Y204859D01*
X667666Y204863D01*
X667751Y204874D01*
X667792Y204881D01*
X667832Y204890D01*
X667869Y204898D01*
X667903Y204911D01*
X667934Y204924D01*
X667960Y204940D01*
X667962D01*
X667965Y204944D01*
X667980Y204955D01*
X667999Y204975D01*
X668021Y204999D01*
X668043Y205031D01*
X668063Y205068D01*
X668078Y205110D01*
X668080Y205132D01*
X668082Y205155D01*
Y205169D01*
X668080Y205177D01*
X668076Y205199D01*
X668067Y205230D01*
X668052Y205262D01*
X668030Y205299D01*
X668017Y205317D01*
X667999Y205334D01*
X667982Y205352D01*
X667960Y205369D01*
X667958D01*
X667954Y205374D01*
X667947Y205378D01*
X667936Y205382D01*
X667921Y205391D01*
X667901Y205398D01*
X667879Y205406D01*
X667853Y205415D01*
X667821Y205421D01*
X667786Y205430D01*
X667744Y205439D01*
X667701Y205446D01*
X667648Y205450D01*
X667594Y205454D01*
X667533Y205459D01*
D02*
G37*
G36*
X667677Y204083D02*
X667001D01*
X667677Y203608D01*
Y204083D01*
D02*
G37*
G36*
X667114Y201875D02*
X667112D01*
X667110D01*
X667097Y201872D01*
X667077Y201870D01*
X667051Y201866D01*
X667025Y201855D01*
X666994Y201842D01*
X666966Y201822D01*
X666938Y201796D01*
X666935Y201792D01*
X666927Y201781D01*
X666916Y201763D01*
X666903Y201735D01*
X666890Y201702D01*
X666879Y201659D01*
X666870Y201609D01*
X666868Y201550D01*
Y201075D01*
X667367D01*
Y201524D01*
X667365Y201550D01*
X667363Y201580D01*
X667361Y201615D01*
X667356Y201650D01*
X667350Y201685D01*
X667341Y201715D01*
X667339Y201720D01*
X667335Y201729D01*
X667328Y201742D01*
X667319Y201759D01*
X667306Y201779D01*
X667291Y201798D01*
X667271Y201818D01*
X667249Y201833D01*
X667247Y201835D01*
X667239Y201840D01*
X667226Y201846D01*
X667208Y201855D01*
X667188Y201862D01*
X667167Y201868D01*
X667140Y201872D01*
X667114Y201875D01*
D02*
G37*
G36*
X673087Y209036D02*
X672673Y208879D01*
X672671D01*
X672664Y208877D01*
X672653Y208872D01*
X672640Y208868D01*
X672625Y208861D01*
X672606Y208855D01*
X672584Y208849D01*
X672562Y208840D01*
X672512Y208822D01*
X672460Y208805D01*
X672407Y208787D01*
X672357Y208772D01*
X672359D01*
X672364Y208770D01*
X672372D01*
X672381Y208766D01*
X672396Y208763D01*
X672411Y208759D01*
X672449Y208750D01*
X672492Y208739D01*
X672540Y208724D01*
X672592Y208709D01*
X672647Y208689D01*
X673087Y208526D01*
Y209036D01*
D02*
G37*
G36*
X673033Y206631D02*
X672965D01*
X672963D01*
X672961D01*
X672950D01*
X672930D01*
X672904Y206629D01*
X672876D01*
X672841Y206627D01*
X672804Y206625D01*
X672762Y206621D01*
X672680Y206610D01*
X672638Y206603D01*
X672599Y206594D01*
X672562Y206586D01*
X672527Y206573D01*
X672497Y206559D01*
X672470Y206544D01*
X672468D01*
X672466Y206540D01*
X672460Y206536D01*
X672451Y206529D01*
X672431Y206509D01*
X672407Y206485D01*
X672385Y206453D01*
X672366Y206416D01*
X672357Y206396D01*
X672351Y206374D01*
X672348Y206350D01*
X672346Y206326D01*
Y206313D01*
X672348Y206304D01*
X672353Y206280D01*
X672359Y206252D01*
X672372Y206219D01*
X672392Y206185D01*
X672405Y206167D01*
X672418Y206150D01*
X672436Y206134D01*
X672455Y206119D01*
X672457D01*
X672462Y206115D01*
X672470Y206110D01*
X672481Y206104D01*
X672499Y206097D01*
X672518Y206089D01*
X672542Y206082D01*
X672571Y206073D01*
X672603Y206065D01*
X672640Y206056D01*
X672682Y206047D01*
X672728Y206041D01*
X672780Y206034D01*
X672837Y206030D01*
X672898Y206028D01*
X672965Y206025D01*
X672970D01*
X672980D01*
X673000D01*
X673026Y206028D01*
X673055D01*
X673090Y206030D01*
X673127Y206032D01*
X673166Y206036D01*
X673251Y206047D01*
X673292Y206054D01*
X673331Y206062D01*
X673369Y206071D01*
X673403Y206084D01*
X673434Y206097D01*
X673460Y206113D01*
X673462D01*
X673464Y206117D01*
X673480Y206128D01*
X673499Y206147D01*
X673521Y206171D01*
X673543Y206204D01*
X673563Y206241D01*
X673578Y206283D01*
X673580Y206304D01*
X673582Y206328D01*
Y206341D01*
X673580Y206350D01*
X673576Y206372D01*
X673567Y206402D01*
X673552Y206435D01*
X673530Y206472D01*
X673517Y206490D01*
X673499Y206507D01*
X673482Y206525D01*
X673460Y206542D01*
X673458D01*
X673454Y206546D01*
X673447Y206551D01*
X673436Y206555D01*
X673421Y206564D01*
X673401Y206570D01*
X673380Y206579D01*
X673353Y206588D01*
X673321Y206594D01*
X673286Y206603D01*
X673244Y206612D01*
X673201Y206618D01*
X673148Y206623D01*
X673094Y206627D01*
X673033Y206631D01*
D02*
G37*
G36*
Y205459D02*
X672965D01*
X672963D01*
X672961D01*
X672950D01*
X672930D01*
X672904Y205456D01*
X672876D01*
X672841Y205454D01*
X672804Y205452D01*
X672762Y205448D01*
X672680Y205437D01*
X672638Y205430D01*
X672599Y205421D01*
X672562Y205413D01*
X672527Y205400D01*
X672497Y205387D01*
X672470Y205371D01*
X672468D01*
X672466Y205367D01*
X672460Y205363D01*
X672451Y205356D01*
X672431Y205336D01*
X672407Y205312D01*
X672385Y205280D01*
X672366Y205243D01*
X672357Y205223D01*
X672351Y205201D01*
X672348Y205177D01*
X672346Y205153D01*
Y205140D01*
X672348Y205132D01*
X672353Y205108D01*
X672359Y205079D01*
X672372Y205047D01*
X672392Y205012D01*
X672405Y204994D01*
X672418Y204977D01*
X672436Y204961D01*
X672455Y204946D01*
X672457D01*
X672462Y204942D01*
X672470Y204938D01*
X672481Y204931D01*
X672499Y204924D01*
X672518Y204916D01*
X672542Y204909D01*
X672571Y204901D01*
X672603Y204892D01*
X672640Y204883D01*
X672682Y204874D01*
X672728Y204868D01*
X672780Y204861D01*
X672837Y204857D01*
X672898Y204855D01*
X672965Y204853D01*
X672970D01*
X672980D01*
X673000D01*
X673026Y204855D01*
X673055D01*
X673090Y204857D01*
X673127Y204859D01*
X673166Y204863D01*
X673251Y204874D01*
X673292Y204881D01*
X673331Y204890D01*
X673369Y204898D01*
X673403Y204911D01*
X673434Y204924D01*
X673460Y204940D01*
X673462D01*
X673464Y204944D01*
X673480Y204955D01*
X673499Y204975D01*
X673521Y204999D01*
X673543Y205031D01*
X673563Y205068D01*
X673578Y205110D01*
X673580Y205132D01*
X673582Y205155D01*
Y205169D01*
X673580Y205177D01*
X673576Y205199D01*
X673567Y205230D01*
X673552Y205262D01*
X673530Y205299D01*
X673517Y205317D01*
X673499Y205334D01*
X673482Y205352D01*
X673460Y205369D01*
X673458D01*
X673454Y205374D01*
X673447Y205378D01*
X673436Y205382D01*
X673421Y205391D01*
X673401Y205398D01*
X673380Y205406D01*
X673353Y205415D01*
X673321Y205421D01*
X673286Y205430D01*
X673244Y205439D01*
X673201Y205446D01*
X673148Y205450D01*
X673094Y205454D01*
X673033Y205459D01*
D02*
G37*
G36*
X673177Y204083D02*
X672501D01*
X673177Y203608D01*
Y204083D01*
D02*
G37*
G36*
X672614Y201875D02*
X672612D01*
X672610D01*
X672597Y201872D01*
X672577Y201870D01*
X672551Y201866D01*
X672525Y201855D01*
X672494Y201842D01*
X672466Y201822D01*
X672438Y201796D01*
X672436Y201792D01*
X672427Y201781D01*
X672416Y201763D01*
X672403Y201735D01*
X672390Y201702D01*
X672379Y201659D01*
X672370Y201609D01*
X672368Y201550D01*
Y201075D01*
X672867D01*
Y201524D01*
X672865Y201550D01*
X672863Y201580D01*
X672861Y201615D01*
X672856Y201650D01*
X672850Y201685D01*
X672841Y201715D01*
X672839Y201720D01*
X672834Y201729D01*
X672828Y201742D01*
X672819Y201759D01*
X672806Y201779D01*
X672791Y201798D01*
X672771Y201818D01*
X672749Y201833D01*
X672747Y201835D01*
X672739Y201840D01*
X672725Y201846D01*
X672708Y201855D01*
X672688Y201862D01*
X672667Y201868D01*
X672640Y201872D01*
X672614Y201875D01*
D02*
G37*
G36*
X579824Y114845D02*
X579757D01*
X579754D01*
X579752D01*
X579741D01*
X579722D01*
X579696Y114843D01*
X579667D01*
X579632Y114840D01*
X579595Y114838D01*
X579554Y114834D01*
X579471Y114823D01*
X579430Y114816D01*
X579390Y114808D01*
X579353Y114799D01*
X579318Y114786D01*
X579288Y114773D01*
X579262Y114758D01*
X579260D01*
X579257Y114753D01*
X579251Y114749D01*
X579242Y114742D01*
X579222Y114723D01*
X579199Y114699D01*
X579177Y114666D01*
X579157Y114629D01*
X579148Y114609D01*
X579142Y114587D01*
X579140Y114564D01*
X579138Y114540D01*
Y114526D01*
X579140Y114518D01*
X579144Y114494D01*
X579151Y114465D01*
X579164Y114433D01*
X579183Y114398D01*
X579196Y114380D01*
X579209Y114363D01*
X579227Y114348D01*
X579247Y114332D01*
X579249D01*
X579253Y114328D01*
X579262Y114324D01*
X579273Y114317D01*
X579290Y114311D01*
X579310Y114302D01*
X579334Y114295D01*
X579362Y114287D01*
X579395Y114278D01*
X579432Y114269D01*
X579473Y114260D01*
X579519Y114254D01*
X579571Y114247D01*
X579628Y114243D01*
X579689Y114241D01*
X579757Y114239D01*
X579761D01*
X579772D01*
X579791D01*
X579818Y114241D01*
X579846D01*
X579881Y114243D01*
X579918Y114245D01*
X579957Y114250D01*
X580042Y114260D01*
X580084Y114267D01*
X580123Y114276D01*
X580160Y114285D01*
X580195Y114298D01*
X580225Y114311D01*
X580252Y114326D01*
X580254D01*
X580256Y114330D01*
X580271Y114341D01*
X580291Y114361D01*
X580312Y114385D01*
X580334Y114418D01*
X580354Y114454D01*
X580369Y114496D01*
X580371Y114518D01*
X580374Y114542D01*
Y114555D01*
X580371Y114564D01*
X580367Y114585D01*
X580358Y114616D01*
X580343Y114648D01*
X580321Y114686D01*
X580308Y114703D01*
X580291Y114720D01*
X580273Y114738D01*
X580252Y114755D01*
X580249D01*
X580245Y114760D01*
X580238Y114764D01*
X580228Y114768D01*
X580212Y114777D01*
X580193Y114784D01*
X580171Y114792D01*
X580145Y114801D01*
X580112Y114808D01*
X580077Y114816D01*
X580036Y114825D01*
X579992Y114832D01*
X579940Y114836D01*
X579885Y114840D01*
X579824Y114845D01*
D02*
G37*
G36*
Y113672D02*
X579757D01*
X579754D01*
X579752D01*
X579741D01*
X579722D01*
X579696Y113670D01*
X579667D01*
X579632Y113668D01*
X579595Y113665D01*
X579554Y113661D01*
X579471Y113650D01*
X579430Y113644D01*
X579390Y113635D01*
X579353Y113626D01*
X579318Y113613D01*
X579288Y113600D01*
X579262Y113585D01*
X579260D01*
X579257Y113580D01*
X579251Y113576D01*
X579242Y113569D01*
X579222Y113550D01*
X579199Y113526D01*
X579177Y113493D01*
X579157Y113456D01*
X579148Y113436D01*
X579142Y113415D01*
X579140Y113391D01*
X579138Y113367D01*
Y113354D01*
X579140Y113345D01*
X579144Y113321D01*
X579151Y113293D01*
X579164Y113260D01*
X579183Y113225D01*
X579196Y113208D01*
X579209Y113190D01*
X579227Y113175D01*
X579247Y113160D01*
X579249D01*
X579253Y113155D01*
X579262Y113151D01*
X579273Y113144D01*
X579290Y113138D01*
X579310Y113129D01*
X579334Y113122D01*
X579362Y113114D01*
X579395Y113105D01*
X579432Y113096D01*
X579473Y113088D01*
X579519Y113081D01*
X579571Y113075D01*
X579628Y113070D01*
X579689Y113068D01*
X579757Y113066D01*
X579761D01*
X579772D01*
X579791D01*
X579818Y113068D01*
X579846D01*
X579881Y113070D01*
X579918Y113072D01*
X579957Y113077D01*
X580042Y113088D01*
X580084Y113094D01*
X580123Y113103D01*
X580160Y113112D01*
X580195Y113125D01*
X580225Y113138D01*
X580252Y113153D01*
X580254D01*
X580256Y113157D01*
X580271Y113168D01*
X580291Y113188D01*
X580312Y113212D01*
X580334Y113245D01*
X580354Y113282D01*
X580369Y113323D01*
X580371Y113345D01*
X580374Y113369D01*
Y113382D01*
X580371Y113391D01*
X580367Y113412D01*
X580358Y113443D01*
X580343Y113476D01*
X580321Y113513D01*
X580308Y113530D01*
X580291Y113548D01*
X580273Y113565D01*
X580252Y113583D01*
X580249D01*
X580245Y113587D01*
X580238Y113591D01*
X580228Y113596D01*
X580212Y113604D01*
X580193Y113611D01*
X580171Y113620D01*
X580145Y113628D01*
X580112Y113635D01*
X580077Y113644D01*
X580036Y113652D01*
X579992Y113659D01*
X579940Y113663D01*
X579885Y113668D01*
X579824Y113672D01*
D02*
G37*
G36*
X649255Y209050D02*
X649250D01*
X649242D01*
X649224Y209048D01*
X649205Y209044D01*
X649183Y209039D01*
X649159Y209031D01*
X649135Y209020D01*
X649111Y209004D01*
X649109Y209002D01*
X649100Y208996D01*
X649089Y208987D01*
X649076Y208974D01*
X649061Y208957D01*
X649045Y208935D01*
X649032Y208911D01*
X649021Y208882D01*
X649019Y208878D01*
X649017Y208869D01*
X649013Y208850D01*
X649008Y208826D01*
X649004Y208795D01*
X649000Y208758D01*
X648995Y208712D01*
Y208316D01*
X649514D01*
Y208745D01*
X649512Y208791D01*
X649510Y208810D01*
X649508Y208828D01*
Y208830D01*
X649505Y208839D01*
X649503Y208852D01*
X649499Y208867D01*
X649486Y208904D01*
X649468Y208941D01*
X649466Y208944D01*
X649462Y208950D01*
X649455Y208959D01*
X649447Y208970D01*
X649434Y208981D01*
X649420Y208996D01*
X649403Y209007D01*
X649383Y209020D01*
X649381Y209022D01*
X649375Y209024D01*
X649362Y209029D01*
X649346Y209035D01*
X649329Y209042D01*
X649307Y209046D01*
X649281Y209048D01*
X649255Y209050D01*
D02*
G37*
G36*
X648594Y208985D02*
X648590D01*
X648581D01*
X648568Y208983D01*
X648551Y208981D01*
X648529Y208976D01*
X648507Y208970D01*
X648485Y208961D01*
X648463Y208948D01*
X648461Y208946D01*
X648455Y208941D01*
X648444Y208933D01*
X648433Y208922D01*
X648420Y208906D01*
X648407Y208889D01*
X648394Y208867D01*
X648385Y208843D01*
Y208841D01*
X648381Y208830D01*
X648378Y208815D01*
X648374Y208791D01*
X648370Y208758D01*
X648368Y208721D01*
X648363Y208673D01*
Y208316D01*
X648817D01*
Y208686D01*
X648814Y208715D01*
X648812Y208745D01*
X648810Y208776D01*
X648806Y208806D01*
X648801Y208830D01*
X648799Y208835D01*
X648797Y208843D01*
X648790Y208856D01*
X648782Y208874D01*
X648773Y208891D01*
X648760Y208911D01*
X648742Y208930D01*
X648725Y208946D01*
X648723Y208948D01*
X648716Y208952D01*
X648703Y208959D01*
X648688Y208965D01*
X648670Y208972D01*
X648649Y208978D01*
X648623Y208983D01*
X648594Y208985D01*
D02*
G37*
G36*
X649017Y206498D02*
X648949D01*
X648947D01*
X648945D01*
X648934D01*
X648915D01*
X648888Y206495D01*
X648860D01*
X648825Y206493D01*
X648788Y206491D01*
X648747Y206487D01*
X648664Y206476D01*
X648623Y206469D01*
X648583Y206460D01*
X648546Y206452D01*
X648511Y206439D01*
X648481Y206426D01*
X648455Y206410D01*
X648453D01*
X648450Y206406D01*
X648444Y206402D01*
X648435Y206395D01*
X648415Y206376D01*
X648391Y206351D01*
X648370Y206319D01*
X648350Y206282D01*
X648341Y206262D01*
X648335Y206240D01*
X648333Y206216D01*
X648330Y206192D01*
Y206179D01*
X648333Y206171D01*
X648337Y206147D01*
X648344Y206118D01*
X648357Y206085D01*
X648376Y206051D01*
X648389Y206033D01*
X648402Y206016D01*
X648420Y206000D01*
X648439Y205985D01*
X648442D01*
X648446Y205981D01*
X648455Y205977D01*
X648466Y205970D01*
X648483Y205963D01*
X648503Y205955D01*
X648527Y205948D01*
X648555Y205940D01*
X648588Y205931D01*
X648625Y205922D01*
X648666Y205913D01*
X648712Y205907D01*
X648764Y205900D01*
X648821Y205896D01*
X648882Y205894D01*
X648949Y205891D01*
X648954D01*
X648965D01*
X648984D01*
X649011Y205894D01*
X649039D01*
X649074Y205896D01*
X649111Y205898D01*
X649150Y205902D01*
X649235Y205913D01*
X649276Y205920D01*
X649316Y205929D01*
X649353Y205937D01*
X649388Y205950D01*
X649418Y205963D01*
X649444Y205979D01*
X649447D01*
X649449Y205983D01*
X649464Y205994D01*
X649484Y206014D01*
X649505Y206038D01*
X649527Y206070D01*
X649547Y206107D01*
X649562Y206149D01*
X649564Y206171D01*
X649567Y206194D01*
Y206208D01*
X649564Y206216D01*
X649560Y206238D01*
X649551Y206269D01*
X649536Y206301D01*
X649514Y206338D01*
X649501Y206356D01*
X649484Y206373D01*
X649466Y206391D01*
X649444Y206408D01*
X649442D01*
X649438Y206413D01*
X649431Y206417D01*
X649420Y206421D01*
X649405Y206430D01*
X649385Y206436D01*
X649364Y206445D01*
X649338Y206454D01*
X649305Y206460D01*
X649270Y206469D01*
X649229Y206478D01*
X649185Y206485D01*
X649133Y206489D01*
X649078Y206493D01*
X649017Y206498D01*
D02*
G37*
G36*
Y205325D02*
X648949D01*
X648947D01*
X648945D01*
X648934D01*
X648915D01*
X648888Y205323D01*
X648860D01*
X648825Y205320D01*
X648788Y205318D01*
X648747Y205314D01*
X648664Y205303D01*
X648623Y205296D01*
X648583Y205288D01*
X648546Y205279D01*
X648511Y205266D01*
X648481Y205253D01*
X648455Y205238D01*
X648453D01*
X648450Y205233D01*
X648444Y205229D01*
X648435Y205222D01*
X648415Y205203D01*
X648391Y205179D01*
X648370Y205146D01*
X648350Y205109D01*
X648341Y205089D01*
X648335Y205067D01*
X648333Y205044D01*
X648330Y205019D01*
Y205006D01*
X648333Y204998D01*
X648337Y204974D01*
X648344Y204945D01*
X648357Y204913D01*
X648376Y204878D01*
X648389Y204860D01*
X648402Y204843D01*
X648420Y204828D01*
X648439Y204812D01*
X648442D01*
X648446Y204808D01*
X648455Y204804D01*
X648466Y204797D01*
X648483Y204791D01*
X648503Y204782D01*
X648527Y204775D01*
X648555Y204767D01*
X648588Y204758D01*
X648625Y204749D01*
X648666Y204741D01*
X648712Y204734D01*
X648764Y204727D01*
X648821Y204723D01*
X648882Y204721D01*
X648949Y204719D01*
X648954D01*
X648965D01*
X648984D01*
X649011Y204721D01*
X649039D01*
X649074Y204723D01*
X649111Y204725D01*
X649150Y204730D01*
X649235Y204741D01*
X649276Y204747D01*
X649316Y204756D01*
X649353Y204764D01*
X649388Y204778D01*
X649418Y204791D01*
X649444Y204806D01*
X649447D01*
X649449Y204810D01*
X649464Y204821D01*
X649484Y204841D01*
X649505Y204865D01*
X649527Y204897D01*
X649547Y204935D01*
X649562Y204976D01*
X649564Y204998D01*
X649567Y205022D01*
Y205035D01*
X649564Y205044D01*
X649560Y205065D01*
X649551Y205096D01*
X649536Y205129D01*
X649514Y205166D01*
X649501Y205183D01*
X649484Y205200D01*
X649466Y205218D01*
X649444Y205235D01*
X649442D01*
X649438Y205240D01*
X649431Y205244D01*
X649420Y205248D01*
X649405Y205257D01*
X649385Y205264D01*
X649364Y205272D01*
X649338Y205281D01*
X649305Y205288D01*
X649270Y205296D01*
X649229Y205305D01*
X649185Y205312D01*
X649133Y205316D01*
X649078Y205320D01*
X649017Y205325D01*
D02*
G37*
G36*
X649161Y203949D02*
X648485D01*
X649161Y203474D01*
Y203949D01*
D02*
G37*
G36*
X648598Y201741D02*
X648596D01*
X648594D01*
X648581Y201739D01*
X648561Y201736D01*
X648535Y201732D01*
X648509Y201721D01*
X648479Y201708D01*
X648450Y201689D01*
X648422Y201662D01*
X648420Y201658D01*
X648411Y201647D01*
X648400Y201630D01*
X648387Y201601D01*
X648374Y201569D01*
X648363Y201525D01*
X648354Y201475D01*
X648352Y201416D01*
Y200941D01*
X648851D01*
Y201390D01*
X648849Y201416D01*
X648847Y201447D01*
X648845Y201481D01*
X648841Y201516D01*
X648834Y201551D01*
X648825Y201582D01*
X648823Y201586D01*
X648819Y201595D01*
X648812Y201608D01*
X648804Y201625D01*
X648790Y201645D01*
X648775Y201664D01*
X648756Y201684D01*
X648734Y201699D01*
X648732Y201701D01*
X648723Y201706D01*
X648710Y201712D01*
X648692Y201721D01*
X648673Y201728D01*
X648651Y201734D01*
X648625Y201739D01*
X648598Y201741D01*
D02*
G37*
G36*
X643755Y209050D02*
X643750D01*
X643742D01*
X643724Y209048D01*
X643705Y209044D01*
X643683Y209039D01*
X643659Y209031D01*
X643635Y209020D01*
X643611Y209004D01*
X643609Y209002D01*
X643600Y208996D01*
X643589Y208987D01*
X643576Y208974D01*
X643561Y208957D01*
X643545Y208935D01*
X643532Y208911D01*
X643521Y208882D01*
X643519Y208878D01*
X643517Y208869D01*
X643513Y208850D01*
X643508Y208826D01*
X643504Y208795D01*
X643500Y208758D01*
X643495Y208712D01*
Y208316D01*
X644014D01*
Y208745D01*
X644012Y208791D01*
X644010Y208810D01*
X644008Y208828D01*
Y208830D01*
X644005Y208839D01*
X644003Y208852D01*
X643999Y208867D01*
X643986Y208904D01*
X643968Y208941D01*
X643966Y208944D01*
X643962Y208950D01*
X643955Y208959D01*
X643947Y208970D01*
X643933Y208981D01*
X643920Y208996D01*
X643903Y209007D01*
X643883Y209020D01*
X643881Y209022D01*
X643875Y209024D01*
X643861Y209029D01*
X643846Y209035D01*
X643829Y209042D01*
X643807Y209046D01*
X643781Y209048D01*
X643755Y209050D01*
D02*
G37*
G36*
X643094Y208985D02*
X643090D01*
X643081D01*
X643068Y208983D01*
X643051Y208981D01*
X643029Y208976D01*
X643007Y208970D01*
X642985Y208961D01*
X642963Y208948D01*
X642961Y208946D01*
X642955Y208941D01*
X642944Y208933D01*
X642933Y208922D01*
X642920Y208906D01*
X642907Y208889D01*
X642894Y208867D01*
X642885Y208843D01*
Y208841D01*
X642881Y208830D01*
X642878Y208815D01*
X642874Y208791D01*
X642870Y208758D01*
X642868Y208721D01*
X642863Y208673D01*
Y208316D01*
X643317D01*
Y208686D01*
X643314Y208715D01*
X643312Y208745D01*
X643310Y208776D01*
X643306Y208806D01*
X643301Y208830D01*
X643299Y208835D01*
X643297Y208843D01*
X643290Y208856D01*
X643282Y208874D01*
X643273Y208891D01*
X643260Y208911D01*
X643242Y208930D01*
X643225Y208946D01*
X643223Y208948D01*
X643216Y208952D01*
X643203Y208959D01*
X643188Y208965D01*
X643170Y208972D01*
X643149Y208978D01*
X643122Y208983D01*
X643094Y208985D01*
D02*
G37*
G36*
X643517Y205325D02*
X643449D01*
X643447D01*
X643445D01*
X643434D01*
X643415D01*
X643389Y205323D01*
X643360D01*
X643325Y205320D01*
X643288Y205318D01*
X643247Y205314D01*
X643164Y205303D01*
X643122Y205296D01*
X643083Y205288D01*
X643046Y205279D01*
X643011Y205266D01*
X642981Y205253D01*
X642955Y205238D01*
X642952D01*
X642950Y205233D01*
X642944Y205229D01*
X642935Y205222D01*
X642915Y205203D01*
X642891Y205179D01*
X642870Y205146D01*
X642850Y205109D01*
X642841Y205089D01*
X642835Y205067D01*
X642833Y205044D01*
X642830Y205019D01*
Y205006D01*
X642833Y204998D01*
X642837Y204974D01*
X642843Y204945D01*
X642857Y204913D01*
X642876Y204878D01*
X642889Y204860D01*
X642902Y204843D01*
X642920Y204828D01*
X642939Y204812D01*
X642942D01*
X642946Y204808D01*
X642955Y204804D01*
X642966Y204797D01*
X642983Y204791D01*
X643003Y204782D01*
X643027Y204775D01*
X643055Y204767D01*
X643088Y204758D01*
X643125Y204749D01*
X643166Y204741D01*
X643212Y204734D01*
X643264Y204727D01*
X643321Y204723D01*
X643382Y204721D01*
X643449Y204719D01*
X643454D01*
X643465D01*
X643484D01*
X643511Y204721D01*
X643539D01*
X643574Y204723D01*
X643611Y204725D01*
X643650Y204730D01*
X643735Y204741D01*
X643777Y204747D01*
X643816Y204756D01*
X643853Y204764D01*
X643888Y204778D01*
X643918Y204791D01*
X643944Y204806D01*
X643947D01*
X643949Y204810D01*
X643964Y204821D01*
X643984Y204841D01*
X644005Y204865D01*
X644027Y204897D01*
X644047Y204935D01*
X644062Y204976D01*
X644064Y204998D01*
X644066Y205022D01*
Y205035D01*
X644064Y205044D01*
X644060Y205065D01*
X644051Y205096D01*
X644036Y205129D01*
X644014Y205166D01*
X644001Y205183D01*
X643984Y205200D01*
X643966Y205218D01*
X643944Y205235D01*
X643942D01*
X643938Y205240D01*
X643931Y205244D01*
X643920Y205248D01*
X643905Y205257D01*
X643886Y205264D01*
X643864Y205272D01*
X643838Y205281D01*
X643805Y205288D01*
X643770Y205296D01*
X643729Y205305D01*
X643685Y205312D01*
X643633Y205316D01*
X643578Y205320D01*
X643517Y205325D01*
D02*
G37*
G36*
X643661Y203949D02*
X642985D01*
X643661Y203474D01*
Y203949D01*
D02*
G37*
G36*
X643098Y201741D02*
X643096D01*
X643094D01*
X643081Y201739D01*
X643061Y201736D01*
X643035Y201732D01*
X643009Y201721D01*
X642979Y201708D01*
X642950Y201689D01*
X642922Y201662D01*
X642920Y201658D01*
X642911Y201647D01*
X642900Y201630D01*
X642887Y201601D01*
X642874Y201569D01*
X642863Y201525D01*
X642854Y201475D01*
X642852Y201416D01*
Y200941D01*
X643351D01*
Y201390D01*
X643349Y201416D01*
X643347Y201447D01*
X643345Y201481D01*
X643340Y201516D01*
X643334Y201551D01*
X643325Y201582D01*
X643323Y201586D01*
X643319Y201595D01*
X643312Y201608D01*
X643303Y201625D01*
X643290Y201645D01*
X643275Y201664D01*
X643256Y201684D01*
X643234Y201699D01*
X643231Y201701D01*
X643223Y201706D01*
X643210Y201712D01*
X643192Y201721D01*
X643173Y201728D01*
X643151Y201734D01*
X643125Y201739D01*
X643098Y201741D01*
D02*
G37*
%LPD*%
D15*
X600589Y27361D02*
X598621D01*
X599605D01*
Y22442D01*
X598621Y21458D01*
X597637D01*
X596653Y22442D01*
X606493Y27361D02*
X602557D01*
Y24409D01*
X604525Y25393D01*
X605509D01*
X606493Y24409D01*
Y22442D01*
X605509Y21458D01*
X603541D01*
X602557Y22442D01*
X608460Y26377D02*
X609444Y27361D01*
X611412D01*
X612396Y26377D01*
Y22442D01*
X611412Y21458D01*
X609444D01*
X608460Y22442D01*
Y26377D01*
X614364D02*
X615348Y27361D01*
X617316D01*
X618300Y26377D01*
Y25393D01*
X617316Y24409D01*
X618300Y23426D01*
Y22442D01*
X617316Y21458D01*
X615348D01*
X614364Y22442D01*
Y23426D01*
X615348Y24409D01*
X614364Y25393D01*
Y26377D01*
X615348Y24409D02*
X617316D01*
X471160Y27361D02*
X469192D01*
X470176D01*
Y22442D01*
X469192Y21458D01*
X468208D01*
X467224Y22442D01*
X477063Y27361D02*
X473127D01*
Y24409D01*
X475095Y25393D01*
X476079D01*
X477063Y24409D01*
Y22442D01*
X476079Y21458D01*
X474111D01*
X473127Y22442D01*
X479031Y21458D02*
X480999D01*
X480015D01*
Y27361D01*
X479031Y26377D01*
X483951D02*
X484935Y27361D01*
X486903D01*
X487886Y26377D01*
Y22442D01*
X486903Y21458D01*
X484935D01*
X483951Y22442D01*
Y26377D01*
D22*
X0Y11811D02*
G03*
X11811Y0I11811J0D01*
G01*
X822835D02*
G03*
X834646Y11811I0J11811D01*
G01*
Y401575D02*
G03*
X822835Y413386I-11811J0D01*
G01*
X11811D02*
G03*
X0Y401575I0J-11811D01*
G01*
X11811Y-0D02*
X822835Y0D01*
X834646Y401575D02*
X834646Y11811D01*
X11811Y413386D02*
X822835Y413386D01*
X-0Y401575D02*
X0Y11811D01*
M02*
