G04*
G04 #@! TF.GenerationSoftware,Altium Limited,Altium Designer,23.10.1 (27)*
G04*
G04 Layer_Physical_Order=2*
G04 Layer_Color=36540*
%FSLAX25Y25*%
%MOIN*%
G70*
G04*
G04 #@! TF.SameCoordinates,CFD1AF01-5425-4A94-9F85-96FFE65A43DD*
G04*
G04*
G04 #@! TF.FilePolarity,Positive*
G04*
G01*
G75*
%ADD10C,0.01000*%
%ADD22C,0.00039*%
%ADD85C,0.11614*%
%ADD96C,0.01968*%
%ADD97C,0.08000*%
%ADD98C,0.06299*%
%ADD99C,0.04724*%
%ADD100C,0.25591*%
G04:AMPARAMS|DCode=102|XSize=984.25mil|YSize=551.18mil|CornerRadius=137.8mil|HoleSize=0mil|Usage=FLASHONLY|Rotation=0.000|XOffset=0mil|YOffset=0mil|HoleType=Round|Shape=RoundedRectangle|*
%AMROUNDEDRECTD102*
21,1,0.98425,0.27559,0,0,0.0*
21,1,0.70866,0.55118,0,0,0.0*
1,1,0.27559,0.35433,-0.13780*
1,1,0.27559,-0.35433,-0.13780*
1,1,0.27559,-0.35433,0.13780*
1,1,0.27559,0.35433,0.13780*
%
%ADD102ROUNDEDRECTD102*%
%ADD105C,0.06496*%
G04:AMPARAMS|DCode=107|XSize=984.25mil|YSize=551.18mil|CornerRadius=137.8mil|HoleSize=0mil|Usage=FLASHONLY|Rotation=270.000|XOffset=0mil|YOffset=0mil|HoleType=Round|Shape=RoundedRectangle|*
%AMROUNDEDRECTD107*
21,1,0.98425,0.27559,0,0,270.0*
21,1,0.70866,0.55118,0,0,270.0*
1,1,0.27559,-0.13780,-0.35433*
1,1,0.27559,-0.13780,0.35433*
1,1,0.27559,0.13780,0.35433*
1,1,0.27559,0.13780,-0.35433*
%
%ADD107ROUNDEDRECTD107*%
%ADD108C,0.02362*%
G36*
X822835Y413386D02*
X823609Y413386D01*
X825144Y413184D01*
X826639Y412783D01*
X828070Y412190D01*
X829411Y411416D01*
X830639Y410474D01*
X831734Y409379D01*
X832676Y408151D01*
X833450Y406810D01*
X834043Y405379D01*
X834443Y403884D01*
X834645Y402349D01*
X834645Y401575D01*
X834645Y401575D01*
X834646Y401575D01*
X834646Y11811D01*
X834646Y11037D01*
X834444Y9502D01*
X834043Y8006D01*
X833450Y6576D01*
X832676Y5235D01*
X831734Y4007D01*
X830639Y2912D01*
X829411Y1969D01*
X828070Y1195D01*
X826639Y603D01*
X825144Y202D01*
X823609Y-0D01*
X822834Y0D01*
X11037D01*
X9502Y202D01*
X8006Y603D01*
X6576Y1195D01*
X5235Y1969D01*
X4007Y2912D01*
X2912Y4007D01*
X1969Y5235D01*
X1195Y6576D01*
X603Y8006D01*
X202Y9502D01*
X0Y11037D01*
X0Y11811D01*
X0Y11811D01*
X-0Y401575D01*
X-0Y402349D01*
X202Y403884D01*
X603Y405379D01*
X1195Y406810D01*
X1969Y408151D01*
X2912Y409379D01*
X4007Y410474D01*
X5235Y411416D01*
X6576Y412190D01*
X8006Y412783D01*
X9502Y413184D01*
X11037Y413386D01*
X11811Y413386D01*
X11811Y413386D01*
X822835Y413386D01*
D02*
G37*
%LPC*%
G36*
X695257Y399228D02*
X693916D01*
X692601Y398967D01*
X691362Y398454D01*
X690247Y397709D01*
X689299Y396761D01*
X688554Y395646D01*
X688041Y394407D01*
X687780Y393092D01*
Y391751D01*
X688041Y390436D01*
X688554Y389197D01*
X689299Y388082D01*
X690247Y387134D01*
X691362Y386389D01*
X692601Y385876D01*
X693916Y385614D01*
X695257D01*
X696572Y385876D01*
X697811Y386389D01*
X698926Y387134D01*
X699874Y388082D01*
X700619Y389197D01*
X701132Y390436D01*
X701394Y391751D01*
Y393092D01*
X701132Y394407D01*
X700619Y395646D01*
X699874Y396761D01*
X698926Y397709D01*
X697811Y398454D01*
X696572Y398967D01*
X695257Y399228D01*
D02*
G37*
G36*
X478672Y383138D02*
X476998D01*
X475355Y382811D01*
X473808Y382170D01*
X472416Y381240D01*
X471232Y380056D01*
X470302Y378664D01*
X469661Y377117D01*
X469335Y375475D01*
Y373801D01*
X469661Y372158D01*
X470302Y370612D01*
X471232Y369219D01*
X472416Y368035D01*
X473808Y367105D01*
X475355Y366464D01*
X476998Y366138D01*
X478672D01*
X480314Y366464D01*
X481861Y367105D01*
X483253Y368035D01*
X484437Y369219D01*
X485367Y370612D01*
X486008Y372158D01*
X486335Y373801D01*
Y375475D01*
X486008Y377117D01*
X485367Y378664D01*
X484437Y380056D01*
X483253Y381240D01*
X481861Y382170D01*
X480314Y382811D01*
X478672Y383138D01*
D02*
G37*
G36*
X448672D02*
X446997D01*
X445355Y382811D01*
X443808Y382170D01*
X442416Y381240D01*
X441232Y380056D01*
X440302Y378664D01*
X439661Y377117D01*
X439335Y375475D01*
Y373801D01*
X439661Y372158D01*
X440302Y370612D01*
X441232Y369219D01*
X442416Y368035D01*
X443808Y367105D01*
X445355Y366464D01*
X446997Y366138D01*
X448672D01*
X450314Y366464D01*
X451861Y367105D01*
X453253Y368035D01*
X454437Y369219D01*
X455367Y370612D01*
X456008Y372158D01*
X456335Y373801D01*
Y375475D01*
X456008Y377117D01*
X455367Y378664D01*
X454437Y380056D01*
X453253Y381240D01*
X451861Y382170D01*
X450314Y382811D01*
X448672Y383138D01*
D02*
G37*
G36*
X144332Y346374D02*
X143464D01*
X142662Y346042D01*
X142049Y345428D01*
X141717Y344627D01*
Y343759D01*
X142049Y342957D01*
X142662Y342344D01*
X143464Y342012D01*
X144332D01*
X145133Y342344D01*
X145747Y342957D01*
X146079Y343759D01*
Y344627D01*
X145747Y345428D01*
X145133Y346042D01*
X144332Y346374D01*
D02*
G37*
G36*
X160249Y334117D02*
X159460D01*
X158730Y333814D01*
X158172Y333256D01*
X157870Y332527D01*
Y331738D01*
X158172Y331008D01*
X158730Y330450D01*
X159460Y330148D01*
X160249D01*
X160978Y330450D01*
X161537Y331008D01*
X161839Y331738D01*
Y332527D01*
X161537Y333256D01*
X160978Y333814D01*
X160249Y334117D01*
D02*
G37*
G36*
X155525D02*
X154735D01*
X154006Y333814D01*
X153448Y333256D01*
X153146Y332527D01*
Y331738D01*
X153448Y331008D01*
X154006Y330450D01*
X154735Y330148D01*
X155525D01*
X156254Y330450D01*
X156812Y331008D01*
X157114Y331738D01*
Y332527D01*
X156812Y333256D01*
X156254Y333814D01*
X155525Y334117D01*
D02*
G37*
G36*
X150800D02*
X150011D01*
X149282Y333814D01*
X148723Y333256D01*
X148421Y332527D01*
Y331738D01*
X148723Y331008D01*
X149282Y330450D01*
X150011Y330148D01*
X150800D01*
X151530Y330450D01*
X152088Y331008D01*
X152390Y331738D01*
Y332527D01*
X152088Y333256D01*
X151530Y333814D01*
X150800Y334117D01*
D02*
G37*
G36*
X146076D02*
X145286D01*
X144557Y333814D01*
X143999Y333256D01*
X143697Y332527D01*
Y331738D01*
X143999Y331008D01*
X144557Y330450D01*
X145286Y330148D01*
X146076D01*
X146805Y330450D01*
X147363Y331008D01*
X147665Y331738D01*
Y332527D01*
X147363Y333256D01*
X146805Y333814D01*
X146076Y334117D01*
D02*
G37*
G36*
X566576Y333283D02*
X565708D01*
X564906Y332951D01*
X564587Y332632D01*
X549299D01*
X548714Y332515D01*
X548218Y332184D01*
X540124Y324090D01*
X539765Y324297D01*
X538493Y324638D01*
X537176D01*
X535905Y324297D01*
X534765Y323639D01*
X533834Y322708D01*
X533175Y321568D01*
X532835Y320296D01*
Y318980D01*
X533175Y317708D01*
X533834Y316568D01*
X534765Y315637D01*
X535905Y314979D01*
X537176Y314638D01*
X538493D01*
X539765Y314979D01*
X540124Y315186D01*
X571305Y284004D01*
Y224606D01*
X571422Y224021D01*
X571753Y223525D01*
X622720Y172558D01*
Y172106D01*
X623053Y171304D01*
X623666Y170690D01*
X624468Y170358D01*
X625335D01*
X626137Y170690D01*
X626751Y171304D01*
X627083Y172106D01*
Y172973D01*
X626751Y173775D01*
X626137Y174388D01*
X625335Y174721D01*
X624883D01*
X574364Y225240D01*
Y284638D01*
X574248Y285223D01*
X573916Y285719D01*
X542287Y317349D01*
X542494Y317708D01*
X542835Y318980D01*
Y320296D01*
X542494Y321568D01*
X542287Y321927D01*
X549933Y329573D01*
X564587D01*
X564906Y329253D01*
X565708Y328921D01*
X566576D01*
X567377Y329253D01*
X567991Y329867D01*
X568323Y330668D01*
Y331536D01*
X567991Y332338D01*
X567377Y332951D01*
X566576Y333283D01*
D02*
G37*
G36*
X202398Y332890D02*
X201531D01*
X200729Y332558D01*
X200115Y331944D01*
X199783Y331142D01*
Y330275D01*
X200115Y329473D01*
X200729Y328860D01*
X201531Y328527D01*
X202398D01*
X203200Y328860D01*
X203814Y329473D01*
X204146Y330275D01*
Y331142D01*
X203814Y331944D01*
X203200Y332558D01*
X202398Y332890D01*
D02*
G37*
G36*
X186650D02*
X185783D01*
X184981Y332558D01*
X184368Y331944D01*
X184035Y331142D01*
Y330275D01*
X184368Y329473D01*
X184981Y328860D01*
X185783Y328527D01*
X186650D01*
X187452Y328860D01*
X188066Y329473D01*
X188398Y330275D01*
Y331142D01*
X188066Y331944D01*
X187452Y332558D01*
X186650Y332890D01*
D02*
G37*
G36*
X170902D02*
X170035D01*
X169233Y332558D01*
X168619Y331944D01*
X168287Y331142D01*
Y330275D01*
X168619Y329473D01*
X169233Y328860D01*
X170035Y328527D01*
X170902D01*
X171704Y328860D01*
X172318Y329473D01*
X172650Y330275D01*
Y331142D01*
X172318Y331944D01*
X171704Y332558D01*
X170902Y332890D01*
D02*
G37*
G36*
X160249Y329392D02*
X159460D01*
X158730Y329090D01*
X158172Y328532D01*
X157870Y327803D01*
Y327013D01*
X158172Y326284D01*
X158730Y325726D01*
X159460Y325424D01*
X160249D01*
X160978Y325726D01*
X161537Y326284D01*
X161839Y327013D01*
Y327803D01*
X161537Y328532D01*
X160978Y329090D01*
X160249Y329392D01*
D02*
G37*
G36*
X155525D02*
X154735D01*
X154006Y329090D01*
X153448Y328532D01*
X153146Y327803D01*
Y327013D01*
X153448Y326284D01*
X154006Y325726D01*
X154735Y325424D01*
X155525D01*
X156254Y325726D01*
X156812Y326284D01*
X157114Y327013D01*
Y327803D01*
X156812Y328532D01*
X156254Y329090D01*
X155525Y329392D01*
D02*
G37*
G36*
X150800D02*
X150011D01*
X149282Y329090D01*
X148723Y328532D01*
X148421Y327803D01*
Y327013D01*
X148723Y326284D01*
X149282Y325726D01*
X150011Y325424D01*
X150800D01*
X151530Y325726D01*
X152088Y326284D01*
X152390Y327013D01*
Y327803D01*
X152088Y328532D01*
X151530Y329090D01*
X150800Y329392D01*
D02*
G37*
G36*
X146076D02*
X145286D01*
X144557Y329090D01*
X143999Y328532D01*
X143697Y327803D01*
Y327013D01*
X143999Y326284D01*
X144557Y325726D01*
X145286Y325424D01*
X146076D01*
X146805Y325726D01*
X147363Y326284D01*
X147665Y327013D01*
Y327803D01*
X147363Y328532D01*
X146805Y329090D01*
X146076Y329392D01*
D02*
G37*
G36*
X695257Y338205D02*
X693916D01*
X692601Y337943D01*
X691362Y337430D01*
X690247Y336685D01*
X689299Y335737D01*
X688554Y334622D01*
X688041Y333383D01*
X687780Y332068D01*
Y330727D01*
X688041Y329412D01*
X688554Y328173D01*
X689299Y327058D01*
X690247Y326110D01*
X691362Y325365D01*
X692601Y324852D01*
X693916Y324590D01*
X695257D01*
X696572Y324852D01*
X697811Y325365D01*
X698926Y326110D01*
X699874Y327058D01*
X700619Y328173D01*
X701132Y329412D01*
X701394Y330727D01*
Y332068D01*
X701132Y333383D01*
X700619Y334622D01*
X699874Y335737D01*
X698926Y336685D01*
X697811Y337430D01*
X696572Y337943D01*
X695257Y338205D01*
D02*
G37*
G36*
X160249Y324668D02*
X159460D01*
X158730Y324366D01*
X158172Y323808D01*
X157870Y323078D01*
Y322289D01*
X158172Y321560D01*
X158730Y321001D01*
X159460Y320699D01*
X160249D01*
X160978Y321001D01*
X161537Y321560D01*
X161839Y322289D01*
Y323078D01*
X161537Y323808D01*
X160978Y324366D01*
X160249Y324668D01*
D02*
G37*
G36*
X155525D02*
X154735D01*
X154006Y324366D01*
X153448Y323808D01*
X153146Y323078D01*
Y322289D01*
X153448Y321560D01*
X154006Y321001D01*
X154735Y320699D01*
X155525D01*
X156254Y321001D01*
X156812Y321560D01*
X157114Y322289D01*
Y323078D01*
X156812Y323808D01*
X156254Y324366D01*
X155525Y324668D01*
D02*
G37*
G36*
X150800D02*
X150011D01*
X149282Y324366D01*
X148723Y323808D01*
X148421Y323078D01*
Y322289D01*
X148723Y321560D01*
X149282Y321001D01*
X150011Y320699D01*
X150800D01*
X151530Y321001D01*
X152088Y321560D01*
X152390Y322289D01*
Y323078D01*
X152088Y323808D01*
X151530Y324366D01*
X150800Y324668D01*
D02*
G37*
G36*
X146076D02*
X145286D01*
X144557Y324366D01*
X143999Y323808D01*
X143697Y323078D01*
Y322289D01*
X143999Y321560D01*
X144557Y321001D01*
X145286Y320699D01*
X146076D01*
X146805Y321001D01*
X147363Y321560D01*
X147665Y322289D01*
Y323078D01*
X147363Y323808D01*
X146805Y324366D01*
X146076Y324668D01*
D02*
G37*
G36*
X226020Y317142D02*
X225153D01*
X224351Y316810D01*
X223738Y316196D01*
X223406Y315394D01*
Y314527D01*
X223738Y313725D01*
X224351Y313111D01*
X225153Y312779D01*
X226020D01*
X226822Y313111D01*
X227436Y313725D01*
X227768Y314527D01*
Y315394D01*
X227436Y316196D01*
X226822Y316810D01*
X226020Y317142D01*
D02*
G37*
G36*
X210272D02*
X209405D01*
X208603Y316810D01*
X207990Y316196D01*
X207658Y315394D01*
Y314527D01*
X207990Y313725D01*
X208603Y313111D01*
X209405Y312779D01*
X210272D01*
X211074Y313111D01*
X211688Y313725D01*
X212020Y314527D01*
Y315394D01*
X211688Y316196D01*
X211074Y316810D01*
X210272Y317142D01*
D02*
G37*
G36*
X194524D02*
X193657D01*
X192855Y316810D01*
X192242Y316196D01*
X191909Y315394D01*
Y314527D01*
X192242Y313725D01*
X192855Y313111D01*
X193657Y312779D01*
X194524D01*
X195326Y313111D01*
X195940Y313725D01*
X196272Y314527D01*
Y315394D01*
X195940Y316196D01*
X195326Y316810D01*
X194524Y317142D01*
D02*
G37*
G36*
X178776D02*
X177909D01*
X177107Y316810D01*
X176493Y316196D01*
X176161Y315394D01*
Y314527D01*
X176493Y313725D01*
X177107Y313111D01*
X177909Y312779D01*
X178776D01*
X179578Y313111D01*
X180192Y313725D01*
X180524Y314527D01*
Y315394D01*
X180192Y316196D01*
X179578Y316810D01*
X178776Y317142D01*
D02*
G37*
G36*
X233894Y301394D02*
X233027D01*
X232225Y301062D01*
X231611Y300448D01*
X231279Y299646D01*
Y298779D01*
X231611Y297977D01*
X232225Y297363D01*
X233027Y297031D01*
X233894D01*
X234696Y297363D01*
X235310Y297977D01*
X235642Y298779D01*
Y299646D01*
X235310Y300448D01*
X234696Y301062D01*
X233894Y301394D01*
D02*
G37*
G36*
X218146D02*
X217279D01*
X216477Y301062D01*
X215863Y300448D01*
X215531Y299646D01*
Y298779D01*
X215863Y297977D01*
X216477Y297363D01*
X217279Y297031D01*
X218146D01*
X218948Y297363D01*
X219562Y297977D01*
X219894Y298779D01*
Y299646D01*
X219562Y300448D01*
X218948Y301062D01*
X218146Y301394D01*
D02*
G37*
G36*
X202398D02*
X201531D01*
X200729Y301062D01*
X200115Y300448D01*
X199783Y299646D01*
Y298779D01*
X200115Y297977D01*
X200729Y297363D01*
X201531Y297031D01*
X202398D01*
X203200Y297363D01*
X203814Y297977D01*
X204146Y298779D01*
Y299646D01*
X203814Y300448D01*
X203200Y301062D01*
X202398Y301394D01*
D02*
G37*
G36*
X186650D02*
X185783D01*
X184981Y301062D01*
X184368Y300448D01*
X184035Y299646D01*
Y298779D01*
X184368Y297977D01*
X184981Y297363D01*
X185783Y297031D01*
X186650D01*
X187452Y297363D01*
X188066Y297977D01*
X188398Y298779D01*
Y299646D01*
X188066Y300448D01*
X187452Y301062D01*
X186650Y301394D01*
D02*
G37*
G36*
X170902D02*
X170035D01*
X169233Y301062D01*
X168619Y300448D01*
X168287Y299646D01*
Y298779D01*
X168619Y297977D01*
X169233Y297363D01*
X170035Y297031D01*
X170902D01*
X171704Y297363D01*
X172318Y297977D01*
X172650Y298779D01*
Y299646D01*
X172318Y300448D01*
X171704Y301062D01*
X170902Y301394D01*
D02*
G37*
G36*
X488672Y313138D02*
X486998D01*
X485355Y312811D01*
X483808Y312170D01*
X482416Y311240D01*
X481232Y310056D01*
X480302Y308664D01*
X479661Y307117D01*
X479335Y305475D01*
Y303801D01*
X479661Y302158D01*
X480302Y300611D01*
X481232Y299219D01*
X482416Y298035D01*
X483808Y297105D01*
X485355Y296464D01*
X486998Y296138D01*
X488672D01*
X490314Y296464D01*
X491861Y297105D01*
X493253Y298035D01*
X494437Y299219D01*
X495367Y300611D01*
X496008Y302158D01*
X496335Y303801D01*
Y305475D01*
X496008Y307117D01*
X495367Y308664D01*
X494437Y310056D01*
X493253Y311240D01*
X491861Y312170D01*
X490314Y312811D01*
X488672Y313138D01*
D02*
G37*
G36*
X633858Y394746D02*
X606299D01*
X603980Y394564D01*
X601718Y394021D01*
X599569Y393131D01*
X597585Y391915D01*
X595816Y390404D01*
X594305Y388635D01*
X593090Y386652D01*
X592200Y384503D01*
X591656Y382240D01*
X591474Y379921D01*
Y309055D01*
X591656Y306736D01*
X592200Y304474D01*
X593090Y302325D01*
X594305Y300341D01*
X595816Y298572D01*
X597585Y297061D01*
X599569Y295846D01*
X601718Y294955D01*
X603980Y294412D01*
X606299Y294230D01*
X633858D01*
X636177Y294412D01*
X638440Y294955D01*
X640589Y295846D01*
X642572Y297061D01*
X644341Y298572D01*
X645852Y300341D01*
X647068Y302325D01*
X647958Y304474D01*
X648501Y306736D01*
X648684Y309055D01*
Y379921D01*
X648501Y382240D01*
X647958Y384503D01*
X647068Y386652D01*
X645852Y388635D01*
X644341Y390404D01*
X642572Y391915D01*
X640589Y393131D01*
X638440Y394021D01*
X636177Y394564D01*
X633858Y394746D01*
D02*
G37*
G36*
X387795D02*
X360236D01*
X357917Y394564D01*
X355655Y394021D01*
X353506Y393131D01*
X351522Y391915D01*
X349753Y390404D01*
X348242Y388635D01*
X347027Y386652D01*
X346137Y384503D01*
X345594Y382240D01*
X345411Y379921D01*
Y309055D01*
X345594Y306736D01*
X346137Y304474D01*
X347027Y302325D01*
X348242Y300341D01*
X349753Y298572D01*
X351522Y297061D01*
X353506Y295846D01*
X355655Y294955D01*
X357917Y294412D01*
X360236Y294230D01*
X387795D01*
X390114Y294412D01*
X392376Y294955D01*
X394526Y295846D01*
X396509Y297061D01*
X398278Y298572D01*
X399789Y300341D01*
X401005Y302325D01*
X401895Y304474D01*
X402438Y306736D01*
X402621Y309055D01*
Y379921D01*
X402438Y382240D01*
X401895Y384503D01*
X401005Y386652D01*
X399789Y388635D01*
X398278Y390404D01*
X396509Y391915D01*
X394526Y393131D01*
X392376Y394021D01*
X390114Y394564D01*
X387795Y394746D01*
D02*
G37*
G36*
X159095Y348638D02*
X158228D01*
X157426Y348306D01*
X156812Y347692D01*
X156480Y346890D01*
Y346023D01*
X156812Y345221D01*
X157426Y344608D01*
X158228Y344276D01*
X158680D01*
X163132Y339823D01*
Y293031D01*
X162670Y292839D01*
X160350Y295159D01*
Y295611D01*
X160018Y296413D01*
X159405Y297026D01*
X158603Y297358D01*
X157735D01*
X156934Y297026D01*
X156320Y296413D01*
X155988Y295611D01*
Y294743D01*
X156320Y293942D01*
X156934Y293328D01*
X157735Y292996D01*
X158187D01*
X161132Y290052D01*
Y289035D01*
X160670Y288844D01*
X154263Y295251D01*
Y295703D01*
X153931Y296505D01*
X153317Y297118D01*
X152515Y297450D01*
X151648D01*
X150846Y297118D01*
X150233Y296505D01*
X149901Y295703D01*
Y294835D01*
X150233Y294034D01*
X150846Y293420D01*
X151648Y293088D01*
X152100D01*
X159132Y286056D01*
Y284735D01*
X158670Y284543D01*
X148177Y295036D01*
Y295488D01*
X147845Y296290D01*
X147232Y296904D01*
X146430Y297236D01*
X145562D01*
X144761Y296904D01*
X144147Y296290D01*
X143815Y295488D01*
Y294621D01*
X144147Y293819D01*
X144761Y293205D01*
X145562Y292874D01*
X146014D01*
X157132Y281756D01*
Y261423D01*
X157248Y260837D01*
X157580Y260341D01*
X252593Y165328D01*
X253089Y164997D01*
X253675Y164880D01*
X301432D01*
X321997Y144315D01*
X321960Y144250D01*
X321677Y143195D01*
Y142102D01*
X321960Y141047D01*
X322506Y140101D01*
X323279Y139328D01*
X324225Y138782D01*
X325280Y138499D01*
X326373D01*
X327429Y138782D01*
X328375Y139328D01*
X329147Y140101D01*
X329694Y141047D01*
X329976Y142102D01*
Y143195D01*
X329694Y144250D01*
X329147Y145196D01*
X328375Y145969D01*
X327429Y146515D01*
X326373Y146798D01*
X325280D01*
X324225Y146515D01*
X324160Y146478D01*
X304220Y166418D01*
X304411Y166880D01*
X309432D01*
X321997Y154315D01*
X321960Y154250D01*
X321677Y153195D01*
Y152102D01*
X321960Y151047D01*
X322506Y150101D01*
X323279Y149328D01*
X324225Y148782D01*
X325280Y148499D01*
X326373D01*
X327429Y148782D01*
X328375Y149328D01*
X329147Y150101D01*
X329694Y151047D01*
X329976Y152102D01*
Y153195D01*
X329694Y154250D01*
X329147Y155196D01*
X328375Y155969D01*
X327429Y156515D01*
X326373Y156798D01*
X325280D01*
X324225Y156515D01*
X324160Y156478D01*
X312220Y168418D01*
X312411Y168880D01*
X317432D01*
X321997Y164315D01*
X321960Y164250D01*
X321677Y163195D01*
Y162102D01*
X321960Y161047D01*
X322506Y160101D01*
X323279Y159328D01*
X324225Y158782D01*
X325280Y158499D01*
X326373D01*
X327429Y158782D01*
X328375Y159328D01*
X329147Y160101D01*
X329694Y161047D01*
X329976Y162102D01*
Y163195D01*
X329694Y164250D01*
X329147Y165197D01*
X328375Y165969D01*
X327429Y166515D01*
X326373Y166798D01*
X325280D01*
X324225Y166515D01*
X324160Y166478D01*
X320220Y170418D01*
X320411Y170880D01*
X322056D01*
X322506Y170101D01*
X323279Y169328D01*
X324225Y168782D01*
X325280Y168499D01*
X326373D01*
X327429Y168782D01*
X328375Y169328D01*
X329147Y170101D01*
X329694Y171047D01*
X329976Y172102D01*
Y173195D01*
X329694Y174250D01*
X329147Y175197D01*
X328973Y175371D01*
X329164Y175833D01*
X382489D01*
X382681Y175371D01*
X382506Y175197D01*
X381960Y174250D01*
X381677Y173195D01*
Y172102D01*
X381960Y171047D01*
X382506Y170101D01*
X383180Y169426D01*
X383273Y169270D01*
X383223Y168783D01*
X378174Y163734D01*
X355383D01*
X354798Y163618D01*
X354302Y163286D01*
X327493Y136478D01*
X327429Y136515D01*
X326373Y136798D01*
X325280D01*
X324225Y136515D01*
X323279Y135969D01*
X322506Y135196D01*
X321960Y134250D01*
X321677Y133195D01*
Y132102D01*
X321960Y131047D01*
X322506Y130101D01*
X323279Y129328D01*
X324225Y128782D01*
X325280Y128499D01*
X326373D01*
X327429Y128782D01*
X328375Y129328D01*
X329147Y130101D01*
X329694Y131047D01*
X329976Y132102D01*
Y133195D01*
X329694Y134250D01*
X329656Y134315D01*
X356016Y160675D01*
X378807D01*
X379393Y160792D01*
X379889Y161123D01*
X381215Y162450D01*
X381677Y162258D01*
Y162102D01*
X381960Y161047D01*
X382506Y160101D01*
X383279Y159328D01*
X384225Y158782D01*
X385280Y158499D01*
X386373D01*
X387428Y158782D01*
X388375Y159328D01*
X389147Y160101D01*
X389694Y161047D01*
X389976Y162102D01*
Y163195D01*
X389694Y164250D01*
X389147Y165197D01*
X388460Y165884D01*
X388580Y166384D01*
X427362D01*
X427948Y166500D01*
X428444Y166832D01*
X433053Y171441D01*
X433505D01*
X434306Y171773D01*
X434920Y172387D01*
X435252Y173188D01*
Y174056D01*
X434920Y174857D01*
X434445Y175333D01*
X434640Y175833D01*
X485292D01*
X499368Y161757D01*
Y161206D01*
X499700Y160404D01*
X500314Y159791D01*
X501115Y159459D01*
X501983D01*
X502785Y159791D01*
X503398Y160404D01*
X503730Y161206D01*
Y162074D01*
X503398Y162875D01*
X502785Y163489D01*
X501983Y163821D01*
X501629D01*
X487007Y178444D01*
X486511Y178775D01*
X485925Y178892D01*
X444868D01*
X444618Y179392D01*
X444753Y179573D01*
X472835D01*
X473420Y179689D01*
X473916Y180021D01*
X492501Y198606D01*
X492953D01*
X493755Y198938D01*
X494369Y199552D01*
X494701Y200354D01*
Y201221D01*
X494369Y202023D01*
X493755Y202636D01*
X492953Y202969D01*
X492086D01*
X491284Y202636D01*
X490671Y202023D01*
X490339Y201221D01*
Y200769D01*
X472201Y182632D01*
X444468D01*
X444149Y182951D01*
X443347Y183283D01*
X442480D01*
X441678Y182951D01*
X441064Y182338D01*
X440732Y181536D01*
Y180668D01*
X441064Y179867D01*
X441540Y179392D01*
X441344Y178892D01*
X388528D01*
X388438Y179392D01*
X389147Y180101D01*
X389694Y181047D01*
X389976Y182102D01*
Y183195D01*
X389694Y184250D01*
X389147Y185196D01*
X388375Y185969D01*
X387428Y186515D01*
X386373Y186798D01*
X385280D01*
X384225Y186515D01*
X383279Y185969D01*
X382506Y185196D01*
X381960Y184250D01*
X381677Y183195D01*
Y182102D01*
X381960Y181047D01*
X382506Y180101D01*
X383215Y179392D01*
X383125Y178892D01*
X328528D01*
X328438Y179392D01*
X329147Y180101D01*
X329694Y181047D01*
X329976Y182102D01*
Y183195D01*
X329694Y184250D01*
X329147Y185196D01*
X328375Y185969D01*
X327429Y186515D01*
X326373Y186798D01*
X325280D01*
X324225Y186515D01*
X323279Y185969D01*
X322506Y185196D01*
X321960Y184250D01*
X321677Y183195D01*
Y182102D01*
X321960Y181047D01*
X322506Y180101D01*
X323279Y179328D01*
X323360Y179281D01*
X323370Y179034D01*
X323313Y178731D01*
X322884Y178444D01*
X320379Y175939D01*
X283459D01*
X283393Y176439D01*
X284370Y176701D01*
X285511Y177359D01*
X286442Y178290D01*
X287100Y179430D01*
X287441Y180702D01*
Y182018D01*
X287100Y183290D01*
X286442Y184430D01*
X285511Y185361D01*
X284370Y186019D01*
X283099Y186360D01*
X281782D01*
X280511Y186019D01*
X279370Y185361D01*
X278440Y184430D01*
X277781Y183290D01*
X277441Y182018D01*
Y180702D01*
X277781Y179430D01*
X278440Y178290D01*
X279370Y177359D01*
X280511Y176701D01*
X281488Y176439D01*
X281422Y175939D01*
X257622D01*
X221935Y211626D01*
Y260641D01*
X222335Y260749D01*
X223476Y261407D01*
X224407Y262338D01*
X225065Y263478D01*
X225406Y264750D01*
Y266066D01*
X225065Y267338D01*
X224407Y268478D01*
X223476Y269409D01*
X222335Y270067D01*
X221064Y270408D01*
X219747D01*
X218476Y270067D01*
X218116Y269860D01*
X209797Y278179D01*
Y292933D01*
X210117Y293253D01*
X210449Y294054D01*
Y294922D01*
X210117Y295724D01*
X209503Y296337D01*
X208702Y296669D01*
X207834D01*
X207032Y296337D01*
X206419Y295724D01*
X206087Y294922D01*
Y294054D01*
X206419Y293253D01*
X206738Y292933D01*
Y277546D01*
X206855Y276960D01*
X207186Y276464D01*
X215954Y267697D01*
X215746Y267338D01*
X215406Y266066D01*
Y264750D01*
X215746Y263478D01*
X216405Y262338D01*
X217335Y261407D01*
X218476Y260749D01*
X218876Y260641D01*
Y238549D01*
X218460Y238271D01*
X218146Y238402D01*
X217279D01*
X216477Y238070D01*
X215863Y237456D01*
X215531Y236654D01*
Y235787D01*
X215863Y234985D01*
X216477Y234371D01*
X217279Y234039D01*
X218146D01*
X218460Y234169D01*
X218876Y233892D01*
Y212509D01*
X218414Y212318D01*
X166191Y264541D01*
Y340457D01*
X166074Y341042D01*
X165743Y341538D01*
X160843Y346439D01*
Y346890D01*
X160511Y347692D01*
X159897Y348306D01*
X159095Y348638D01*
D02*
G37*
G36*
X257517Y285646D02*
X256649D01*
X255847Y285314D01*
X255234Y284700D01*
X254902Y283898D01*
Y283031D01*
X255234Y282229D01*
X255847Y281615D01*
X256649Y281283D01*
X257517D01*
X258318Y281615D01*
X258932Y282229D01*
X259264Y283031D01*
Y283898D01*
X258932Y284700D01*
X258318Y285314D01*
X257517Y285646D01*
D02*
G37*
G36*
X241769D02*
X240901D01*
X240099Y285314D01*
X239486Y284700D01*
X239154Y283898D01*
Y283031D01*
X239486Y282229D01*
X240099Y281615D01*
X240901Y281283D01*
X241769D01*
X242570Y281615D01*
X243184Y282229D01*
X243516Y283031D01*
Y283898D01*
X243184Y284700D01*
X242570Y285314D01*
X241769Y285646D01*
D02*
G37*
G36*
X226020D02*
X225153D01*
X224351Y285314D01*
X223738Y284700D01*
X223406Y283898D01*
Y283031D01*
X223738Y282229D01*
X224351Y281615D01*
X225153Y281283D01*
X226020D01*
X226822Y281615D01*
X227436Y282229D01*
X227768Y283031D01*
Y283898D01*
X227436Y284700D01*
X226822Y285314D01*
X226020Y285646D01*
D02*
G37*
G36*
X194524D02*
X193657D01*
X192855Y285314D01*
X192242Y284700D01*
X191909Y283898D01*
Y283031D01*
X192242Y282229D01*
X192855Y281615D01*
X193657Y281283D01*
X194524D01*
X195326Y281615D01*
X195940Y282229D01*
X196272Y283031D01*
Y283898D01*
X195940Y284700D01*
X195326Y285314D01*
X194524Y285646D01*
D02*
G37*
G36*
X178776D02*
X177909D01*
X177107Y285314D01*
X176493Y284700D01*
X176161Y283898D01*
Y283031D01*
X176493Y282229D01*
X177107Y281615D01*
X177909Y281283D01*
X178776D01*
X179578Y281615D01*
X180192Y282229D01*
X180524Y283031D01*
Y283898D01*
X180192Y284700D01*
X179578Y285314D01*
X178776Y285646D01*
D02*
G37*
G36*
X249642Y269898D02*
X248775D01*
X247973Y269566D01*
X247360Y268952D01*
X247027Y268150D01*
Y267283D01*
X247360Y266481D01*
X247973Y265867D01*
X248775Y265535D01*
X249642D01*
X250444Y265867D01*
X251058Y266481D01*
X251390Y267283D01*
Y268150D01*
X251058Y268952D01*
X250444Y269566D01*
X249642Y269898D01*
D02*
G37*
G36*
X233894D02*
X233027D01*
X232225Y269566D01*
X231611Y268952D01*
X231279Y268150D01*
Y267283D01*
X231611Y266481D01*
X232225Y265867D01*
X233027Y265535D01*
X233894D01*
X234696Y265867D01*
X235310Y266481D01*
X235642Y267283D01*
Y268150D01*
X235310Y268952D01*
X234696Y269566D01*
X233894Y269898D01*
D02*
G37*
G36*
X202398D02*
X201531D01*
X200729Y269566D01*
X200115Y268952D01*
X199783Y268150D01*
Y267283D01*
X200115Y266481D01*
X200729Y265867D01*
X201531Y265535D01*
X202398D01*
X203200Y265867D01*
X203814Y266481D01*
X204146Y267283D01*
Y268150D01*
X203814Y268952D01*
X203200Y269566D01*
X202398Y269898D01*
D02*
G37*
G36*
X170902D02*
X170035D01*
X169233Y269566D01*
X168619Y268952D01*
X168287Y268150D01*
Y267283D01*
X168619Y266481D01*
X169233Y265867D01*
X170035Y265535D01*
X170902D01*
X171704Y265867D01*
X172318Y266481D01*
X172650Y267283D01*
Y268150D01*
X172318Y268952D01*
X171704Y269566D01*
X170902Y269898D01*
D02*
G37*
G36*
X284123Y269173D02*
X282806D01*
X281535Y268832D01*
X280395Y268174D01*
X279464Y267243D01*
X278805Y266103D01*
X278465Y264831D01*
Y263515D01*
X278805Y262243D01*
X279464Y261103D01*
X280395Y260172D01*
X281535Y259514D01*
X282806Y259173D01*
X284123D01*
X285395Y259514D01*
X286535Y260172D01*
X287466Y261103D01*
X288124Y262243D01*
X288465Y263515D01*
Y264831D01*
X288124Y266103D01*
X287466Y267243D01*
X286535Y268174D01*
X285395Y268832D01*
X284123Y269173D01*
D02*
G37*
G36*
X377993Y258382D02*
X377125D01*
X376324Y258050D01*
X375710Y257436D01*
X375378Y256635D01*
Y255767D01*
X375710Y254965D01*
X376324Y254352D01*
X377125Y254020D01*
X377993D01*
X378795Y254352D01*
X379408Y254965D01*
X379740Y255767D01*
Y256635D01*
X379408Y257436D01*
X378795Y258050D01*
X377993Y258382D01*
D02*
G37*
G36*
X257517Y254150D02*
X256649D01*
X255847Y253818D01*
X255234Y253204D01*
X254902Y252402D01*
Y251535D01*
X255234Y250733D01*
X255847Y250119D01*
X256649Y249787D01*
X257517D01*
X258318Y250119D01*
X258932Y250733D01*
X259264Y251535D01*
Y252402D01*
X258932Y253204D01*
X258318Y253818D01*
X257517Y254150D01*
D02*
G37*
G36*
X241769D02*
X240901D01*
X240099Y253818D01*
X239486Y253204D01*
X239154Y252402D01*
Y251535D01*
X239486Y250733D01*
X240099Y250119D01*
X240901Y249787D01*
X241769D01*
X242570Y250119D01*
X243184Y250733D01*
X243516Y251535D01*
Y252402D01*
X243184Y253204D01*
X242570Y253818D01*
X241769Y254150D01*
D02*
G37*
G36*
X226020D02*
X225153D01*
X224351Y253818D01*
X223738Y253204D01*
X223406Y252402D01*
Y251535D01*
X223738Y250733D01*
X224351Y250119D01*
X225153Y249787D01*
X226020D01*
X226822Y250119D01*
X227436Y250733D01*
X227768Y251535D01*
Y252402D01*
X227436Y253204D01*
X226822Y253818D01*
X226020Y254150D01*
D02*
G37*
G36*
X210272D02*
X209405D01*
X208603Y253818D01*
X207990Y253204D01*
X207658Y252402D01*
Y251535D01*
X207990Y250733D01*
X208603Y250119D01*
X209405Y249787D01*
X210272D01*
X211074Y250119D01*
X211688Y250733D01*
X212020Y251535D01*
Y252402D01*
X211688Y253204D01*
X211074Y253818D01*
X210272Y254150D01*
D02*
G37*
G36*
X194524D02*
X193657D01*
X192855Y253818D01*
X192242Y253204D01*
X191909Y252402D01*
Y251535D01*
X192242Y250733D01*
X192855Y250119D01*
X193657Y249787D01*
X194524D01*
X195326Y250119D01*
X195940Y250733D01*
X196272Y251535D01*
Y252402D01*
X195940Y253204D01*
X195326Y253818D01*
X194524Y254150D01*
D02*
G37*
G36*
X353190Y251787D02*
X352322D01*
X351520Y251455D01*
X350907Y250842D01*
X350575Y250040D01*
Y249172D01*
X350907Y248371D01*
X351520Y247757D01*
X352322Y247425D01*
X353190D01*
X353991Y247757D01*
X354605Y248371D01*
X354937Y249172D01*
Y250040D01*
X354605Y250842D01*
X353991Y251455D01*
X353190Y251787D01*
D02*
G37*
G36*
X441577Y256305D02*
X440297D01*
X439041Y256055D01*
X437858Y255566D01*
X436794Y254854D01*
X435888Y253949D01*
X435177Y252884D01*
X434687Y251701D01*
X434437Y250446D01*
Y249165D01*
X434687Y247909D01*
X435177Y246726D01*
X435888Y245662D01*
X436794Y244757D01*
X437858Y244045D01*
X439041Y243555D01*
X440297Y243305D01*
X441577D01*
X442833Y243555D01*
X444016Y244045D01*
X445081Y244757D01*
X445986Y245662D01*
X446697Y246726D01*
X447187Y247909D01*
X447437Y249165D01*
Y250446D01*
X447187Y251701D01*
X446697Y252884D01*
X445986Y253949D01*
X445081Y254854D01*
X444016Y255566D01*
X442833Y256055D01*
X441577Y256305D01*
D02*
G37*
G36*
X423077D02*
X421797D01*
X420541Y256055D01*
X419358Y255566D01*
X418294Y254854D01*
X417388Y253949D01*
X416677Y252884D01*
X416187Y251701D01*
X415937Y250446D01*
Y249165D01*
X416187Y247909D01*
X416677Y246726D01*
X417388Y245662D01*
X418294Y244757D01*
X419358Y244045D01*
X420541Y243555D01*
X421797Y243305D01*
X423077D01*
X424333Y243555D01*
X425516Y244045D01*
X426580Y244757D01*
X427486Y245662D01*
X428197Y246726D01*
X428687Y247909D01*
X428937Y249165D01*
Y250446D01*
X428687Y251701D01*
X428197Y252884D01*
X427486Y253949D01*
X426580Y254854D01*
X425516Y255566D01*
X424333Y256055D01*
X423077Y256305D01*
D02*
G37*
G36*
X404577D02*
X403297D01*
X402041Y256055D01*
X400858Y255566D01*
X399794Y254854D01*
X398888Y253949D01*
X398177Y252884D01*
X397687Y251701D01*
X397437Y250446D01*
Y249165D01*
X397687Y247909D01*
X398177Y246726D01*
X398888Y245662D01*
X399794Y244757D01*
X400858Y244045D01*
X402041Y243555D01*
X403297Y243305D01*
X404577D01*
X405833Y243555D01*
X407016Y244045D01*
X408080Y244757D01*
X408986Y245662D01*
X409697Y246726D01*
X410187Y247909D01*
X410437Y249165D01*
Y250446D01*
X410187Y251701D01*
X409697Y252884D01*
X408986Y253949D01*
X408080Y254854D01*
X407016Y255566D01*
X405833Y256055D01*
X404577Y256305D01*
D02*
G37*
G36*
X623869Y256087D02*
X622588D01*
X621332Y255837D01*
X620149Y255347D01*
X619085Y254636D01*
X618180Y253730D01*
X617468Y252666D01*
X616978Y251483D01*
X616728Y250227D01*
Y248947D01*
X616978Y247691D01*
X617468Y246508D01*
X618180Y245443D01*
X619085Y244538D01*
X620149Y243827D01*
X621332Y243337D01*
X622588Y243087D01*
X623869D01*
X625124Y243337D01*
X626307Y243827D01*
X627372Y244538D01*
X628277Y245443D01*
X628989Y246508D01*
X629479Y247691D01*
X629728Y248947D01*
Y250227D01*
X629479Y251483D01*
X628989Y252666D01*
X628277Y253730D01*
X627372Y254636D01*
X626307Y255347D01*
X625124Y255837D01*
X623869Y256087D01*
D02*
G37*
G36*
X605369D02*
X604088D01*
X602832Y255837D01*
X601649Y255347D01*
X600585Y254636D01*
X599680Y253730D01*
X598968Y252666D01*
X598478Y251483D01*
X598228Y250227D01*
Y248947D01*
X598478Y247691D01*
X598968Y246508D01*
X599680Y245443D01*
X600585Y244538D01*
X601649Y243827D01*
X602832Y243337D01*
X604088Y243087D01*
X605369D01*
X606624Y243337D01*
X607807Y243827D01*
X608872Y244538D01*
X609777Y245443D01*
X610489Y246508D01*
X610979Y247691D01*
X611228Y248947D01*
Y250227D01*
X610979Y251483D01*
X610489Y252666D01*
X609777Y253730D01*
X608872Y254636D01*
X607807Y255347D01*
X606624Y255837D01*
X605369Y256087D01*
D02*
G37*
G36*
X586868D02*
X585588D01*
X584332Y255837D01*
X583149Y255347D01*
X582085Y254636D01*
X581180Y253730D01*
X580468Y252666D01*
X579978Y251483D01*
X579728Y250227D01*
Y248947D01*
X579978Y247691D01*
X580468Y246508D01*
X581180Y245443D01*
X582085Y244538D01*
X583149Y243827D01*
X584332Y243337D01*
X585588Y243087D01*
X586868D01*
X588124Y243337D01*
X589307Y243827D01*
X590372Y244538D01*
X591277Y245443D01*
X591989Y246508D01*
X592479Y247691D01*
X592728Y248947D01*
Y250227D01*
X592479Y251483D01*
X591989Y252666D01*
X591277Y253730D01*
X590372Y254636D01*
X589307Y255347D01*
X588124Y255837D01*
X586868Y256087D01*
D02*
G37*
G36*
X791919Y251457D02*
X790602D01*
X789331Y251116D01*
X788191Y250458D01*
X787260Y249527D01*
X786601Y248387D01*
X786261Y247115D01*
Y245798D01*
X786601Y244527D01*
X787260Y243387D01*
X788191Y242456D01*
X789331Y241797D01*
X790602Y241457D01*
X791919D01*
X793191Y241797D01*
X794331Y242456D01*
X795262Y243387D01*
X795920Y244527D01*
X796261Y245798D01*
Y247115D01*
X795920Y248387D01*
X795262Y249527D01*
X794331Y250458D01*
X793191Y251116D01*
X791919Y251457D01*
D02*
G37*
G36*
X778119D02*
X776802D01*
X775531Y251116D01*
X774391Y250458D01*
X773460Y249527D01*
X772801Y248387D01*
X772461Y247115D01*
Y245798D01*
X772801Y244527D01*
X773460Y243387D01*
X774391Y242456D01*
X775531Y241797D01*
X776802Y241457D01*
X778119D01*
X779391Y241797D01*
X780531Y242456D01*
X781462Y243387D01*
X782120Y244527D01*
X782461Y245798D01*
Y247115D01*
X782120Y248387D01*
X781462Y249527D01*
X780531Y250458D01*
X779391Y251116D01*
X778119Y251457D01*
D02*
G37*
G36*
X764319D02*
X763002D01*
X761731Y251116D01*
X760591Y250458D01*
X759660Y249527D01*
X759001Y248387D01*
X758661Y247115D01*
Y245798D01*
X759001Y244527D01*
X759660Y243387D01*
X760591Y242456D01*
X761731Y241797D01*
X763002Y241457D01*
X764319D01*
X765591Y241797D01*
X766731Y242456D01*
X767662Y243387D01*
X768320Y244527D01*
X768661Y245798D01*
Y247115D01*
X768320Y248387D01*
X767662Y249527D01*
X766731Y250458D01*
X765591Y251116D01*
X764319Y251457D01*
D02*
G37*
G36*
X750519D02*
X749202D01*
X747931Y251116D01*
X746791Y250458D01*
X745860Y249527D01*
X745201Y248387D01*
X744861Y247115D01*
Y245798D01*
X745201Y244527D01*
X745860Y243387D01*
X746791Y242456D01*
X747931Y241797D01*
X749202Y241457D01*
X750519D01*
X751791Y241797D01*
X752931Y242456D01*
X753862Y243387D01*
X754520Y244527D01*
X754861Y245798D01*
Y247115D01*
X754520Y248387D01*
X753862Y249527D01*
X752931Y250458D01*
X751791Y251116D01*
X750519Y251457D01*
D02*
G37*
G36*
X712647Y278559D02*
X711762D01*
X710907Y278330D01*
X710140Y277887D01*
X709514Y277261D01*
X709072Y276495D01*
X708843Y275640D01*
Y274754D01*
X709072Y273899D01*
X709514Y273132D01*
X710140Y272506D01*
X710626Y272226D01*
Y251237D01*
X710176Y251116D01*
X709036Y250458D01*
X708105Y249527D01*
X707447Y248387D01*
X707106Y247115D01*
Y245798D01*
X707447Y244527D01*
X708105Y243387D01*
X709036Y242456D01*
X710176Y241797D01*
X711448Y241457D01*
X712765D01*
X714036Y241797D01*
X715176Y242456D01*
X716107Y243387D01*
X716765Y244527D01*
X717106Y245798D01*
Y247115D01*
X716765Y248387D01*
X716107Y249527D01*
X715176Y250458D01*
X714036Y251116D01*
X713685Y251210D01*
Y272169D01*
X714269Y272506D01*
X714895Y273132D01*
X715338Y273899D01*
X715567Y274754D01*
Y275640D01*
X715338Y276495D01*
X714895Y277261D01*
X714269Y277887D01*
X713503Y278330D01*
X712647Y278559D01*
D02*
G37*
G36*
X698474D02*
X697589D01*
X696734Y278330D01*
X695967Y277887D01*
X695341Y277261D01*
X694898Y276495D01*
X694669Y275640D01*
Y274754D01*
X694898Y273899D01*
X695341Y273132D01*
X695967Y272506D01*
X696639Y272118D01*
Y251186D01*
X696376Y251116D01*
X695236Y250458D01*
X694305Y249527D01*
X693647Y248387D01*
X693306Y247115D01*
Y245798D01*
X693647Y244527D01*
X694305Y243387D01*
X695236Y242456D01*
X696376Y241797D01*
X697648Y241457D01*
X698965D01*
X700236Y241797D01*
X701376Y242456D01*
X702307Y243387D01*
X702965Y244527D01*
X703306Y245798D01*
Y247115D01*
X702965Y248387D01*
X702307Y249527D01*
X701376Y250458D01*
X700236Y251116D01*
X699698Y251260D01*
Y272277D01*
X700096Y272506D01*
X700722Y273132D01*
X701165Y273899D01*
X701394Y274754D01*
Y275640D01*
X701165Y276495D01*
X700722Y277261D01*
X700096Y277887D01*
X699329Y278330D01*
X698474Y278559D01*
D02*
G37*
G36*
X660679D02*
X659794D01*
X658939Y278330D01*
X658172Y277887D01*
X657546Y277261D01*
X657103Y276495D01*
X656874Y275640D01*
Y274754D01*
X657103Y273899D01*
X657546Y273132D01*
X658172Y272506D01*
X658510Y272311D01*
Y251276D01*
X657913Y251116D01*
X656773Y250458D01*
X655841Y249527D01*
X655183Y248387D01*
X654843Y247115D01*
Y245798D01*
X655183Y244527D01*
X655841Y243387D01*
X656773Y242456D01*
X657913Y241797D01*
X659184Y241457D01*
X660501D01*
X661772Y241797D01*
X662913Y242456D01*
X663843Y243387D01*
X664502Y244527D01*
X664843Y245798D01*
Y247115D01*
X664502Y248387D01*
X663843Y249527D01*
X662913Y250458D01*
X661772Y251116D01*
X661569Y251170D01*
Y272084D01*
X662301Y272506D01*
X662927Y273132D01*
X663369Y273899D01*
X663598Y274754D01*
Y275640D01*
X663369Y276495D01*
X662927Y277261D01*
X662301Y277887D01*
X661534Y278330D01*
X660679Y278559D01*
D02*
G37*
G36*
X646506D02*
X645620D01*
X644765Y278330D01*
X643998Y277887D01*
X643373Y277261D01*
X642930Y276495D01*
X642701Y275640D01*
Y274754D01*
X642930Y273899D01*
X643373Y273132D01*
X643998Y272506D01*
X644523Y272203D01*
Y251226D01*
X644113Y251116D01*
X642973Y250458D01*
X642041Y249527D01*
X641383Y248387D01*
X641043Y247115D01*
Y245798D01*
X641383Y244527D01*
X642041Y243387D01*
X642973Y242456D01*
X644113Y241797D01*
X645384Y241457D01*
X646701D01*
X647972Y241797D01*
X649113Y242456D01*
X650043Y243387D01*
X650702Y244527D01*
X651043Y245798D01*
Y247115D01*
X650702Y248387D01*
X650043Y249527D01*
X649113Y250458D01*
X647972Y251116D01*
X647582Y251220D01*
Y272192D01*
X648127Y272506D01*
X648753Y273132D01*
X649196Y273899D01*
X649425Y274754D01*
Y275640D01*
X649196Y276495D01*
X648753Y277261D01*
X648127Y277887D01*
X647361Y278330D01*
X646506Y278559D01*
D02*
G37*
G36*
X523072Y251457D02*
X521755D01*
X520483Y251116D01*
X519343Y250458D01*
X518412Y249527D01*
X517754Y248387D01*
X517413Y247115D01*
Y245798D01*
X517754Y244527D01*
X518412Y243387D01*
X519343Y242456D01*
X520483Y241797D01*
X521755Y241457D01*
X523072D01*
X524343Y241797D01*
X525484Y242456D01*
X526414Y243387D01*
X527073Y244527D01*
X527413Y245798D01*
Y247115D01*
X527073Y248387D01*
X526414Y249527D01*
X525484Y250458D01*
X524343Y251116D01*
X523072Y251457D01*
D02*
G37*
G36*
X509272D02*
X507955D01*
X506683Y251116D01*
X505543Y250458D01*
X504612Y249527D01*
X503954Y248387D01*
X503613Y247115D01*
Y245798D01*
X503954Y244527D01*
X504612Y243387D01*
X505543Y242456D01*
X506683Y241797D01*
X507955Y241457D01*
X509272D01*
X510543Y241797D01*
X511684Y242456D01*
X512614Y243387D01*
X513273Y244527D01*
X513613Y245798D01*
Y247115D01*
X513273Y248387D01*
X512614Y249527D01*
X511684Y250458D01*
X510543Y251116D01*
X509272Y251457D01*
D02*
G37*
G36*
X480206D02*
X478890D01*
X477618Y251116D01*
X476478Y250458D01*
X475547Y249527D01*
X474889Y248387D01*
X474548Y247115D01*
Y245798D01*
X474889Y244527D01*
X475547Y243387D01*
X476478Y242456D01*
X477618Y241797D01*
X478890Y241457D01*
X480206D01*
X481478Y241797D01*
X482618Y242456D01*
X483549Y243387D01*
X484207Y244527D01*
X484548Y245798D01*
Y247115D01*
X484207Y248387D01*
X483549Y249527D01*
X482618Y250458D01*
X481478Y251116D01*
X480206Y251457D01*
D02*
G37*
G36*
X466406D02*
X465090D01*
X463818Y251116D01*
X462678Y250458D01*
X461747Y249527D01*
X461089Y248387D01*
X460748Y247115D01*
Y245798D01*
X461089Y244527D01*
X461747Y243387D01*
X462678Y242456D01*
X463818Y241797D01*
X465090Y241457D01*
X466406D01*
X467678Y241797D01*
X468818Y242456D01*
X469749Y243387D01*
X470407Y244527D01*
X470748Y245798D01*
Y247115D01*
X470407Y248387D01*
X469749Y249527D01*
X468818Y250458D01*
X467678Y251116D01*
X466406Y251457D01*
D02*
G37*
G36*
X378190Y245488D02*
X377322D01*
X376520Y245156D01*
X375907Y244543D01*
X375575Y243741D01*
Y242873D01*
X375907Y242072D01*
X376520Y241458D01*
X377322Y241126D01*
X378190D01*
X378991Y241458D01*
X379605Y242072D01*
X379937Y242873D01*
Y243741D01*
X379605Y244543D01*
X378991Y245156D01*
X378190Y245488D01*
D02*
G37*
G36*
X398072Y242339D02*
X397204D01*
X396402Y242006D01*
X395789Y241393D01*
X395457Y240591D01*
Y239724D01*
X395789Y238922D01*
X396402Y238308D01*
X397204Y237976D01*
X398072D01*
X398873Y238308D01*
X399487Y238922D01*
X399819Y239724D01*
Y240591D01*
X399487Y241393D01*
X398873Y242006D01*
X398072Y242339D01*
D02*
G37*
G36*
X302017Y270685D02*
X301132D01*
X300277Y270456D01*
X299510Y270013D01*
X298884Y269387D01*
X298442Y268621D01*
X298213Y267765D01*
Y266880D01*
X298442Y266025D01*
X298884Y265258D01*
X299510Y264632D01*
X300277Y264190D01*
X300475Y264137D01*
Y263619D01*
X300277Y263566D01*
X299510Y263123D01*
X298884Y262497D01*
X298442Y261731D01*
X298213Y260876D01*
Y259990D01*
X298442Y259135D01*
X298884Y258369D01*
X299510Y257743D01*
X300277Y257300D01*
X300475Y257247D01*
Y256729D01*
X300277Y256676D01*
X299510Y256234D01*
X298884Y255608D01*
X298442Y254841D01*
X298213Y253986D01*
Y253101D01*
X298442Y252245D01*
X298884Y251479D01*
X299510Y250853D01*
X300277Y250410D01*
X300475Y250357D01*
Y249840D01*
X300277Y249787D01*
X299510Y249344D01*
X298884Y248718D01*
X298442Y247951D01*
X298213Y247096D01*
Y246211D01*
X298442Y245356D01*
X298884Y244589D01*
X299510Y243963D01*
X300277Y243520D01*
X300475Y243467D01*
Y242950D01*
X300277Y242897D01*
X299510Y242454D01*
X298884Y241828D01*
X298442Y241061D01*
X298213Y240206D01*
Y239321D01*
X298259Y239146D01*
X285069Y225956D01*
X284370Y226359D01*
X283099Y226700D01*
X281782D01*
X280511Y226359D01*
X279370Y225701D01*
X278440Y224770D01*
X277781Y223630D01*
X277441Y222358D01*
Y221042D01*
X277781Y219770D01*
X278440Y218630D01*
X279370Y217699D01*
X280511Y217041D01*
X281782Y216700D01*
X283099D01*
X284370Y217041D01*
X285511Y217699D01*
X286442Y218630D01*
X287100Y219770D01*
X287441Y221042D01*
Y222358D01*
X287100Y223630D01*
X287088Y223650D01*
X300145Y236707D01*
X300277Y236631D01*
X301132Y236402D01*
X302017D01*
X302873Y236631D01*
X303639Y237073D01*
X304265Y237699D01*
X304708Y238466D01*
X304937Y239321D01*
Y240206D01*
X304708Y241061D01*
X304265Y241828D01*
X303639Y242454D01*
X302873Y242897D01*
X302675Y242950D01*
Y243467D01*
X302873Y243520D01*
X303639Y243963D01*
X304265Y244589D01*
X304708Y245356D01*
X304937Y246211D01*
Y247096D01*
X304708Y247951D01*
X304265Y248718D01*
X303639Y249344D01*
X302873Y249787D01*
X302675Y249840D01*
Y250357D01*
X302873Y250410D01*
X303639Y250853D01*
X304265Y251479D01*
X304708Y252245D01*
X304937Y253101D01*
Y253986D01*
X304708Y254841D01*
X304265Y255608D01*
X303639Y256234D01*
X302873Y256676D01*
X302675Y256729D01*
Y257247D01*
X302873Y257300D01*
X303639Y257743D01*
X304265Y258369D01*
X304708Y259135D01*
X304937Y259990D01*
Y260876D01*
X304708Y261731D01*
X304265Y262497D01*
X303639Y263123D01*
X302873Y263566D01*
X302675Y263619D01*
Y264137D01*
X302873Y264190D01*
X303639Y264632D01*
X304265Y265258D01*
X304708Y266025D01*
X304937Y266880D01*
Y267765D01*
X304708Y268621D01*
X304265Y269387D01*
X303639Y270013D01*
X302873Y270456D01*
X302017Y270685D01*
D02*
G37*
G36*
X249642Y238402D02*
X248775D01*
X247973Y238070D01*
X247360Y237456D01*
X247027Y236654D01*
Y235787D01*
X247360Y234985D01*
X247973Y234371D01*
X248775Y234039D01*
X249642D01*
X250444Y234371D01*
X251058Y234985D01*
X251390Y235787D01*
Y236654D01*
X251058Y237456D01*
X250444Y238070D01*
X249642Y238402D01*
D02*
G37*
G36*
X233894D02*
X233027D01*
X232225Y238070D01*
X231611Y237456D01*
X231279Y236654D01*
Y235787D01*
X231611Y234985D01*
X232225Y234371D01*
X233027Y234039D01*
X233894D01*
X234696Y234371D01*
X235310Y234985D01*
X235642Y235787D01*
Y236654D01*
X235310Y237456D01*
X234696Y238070D01*
X233894Y238402D01*
D02*
G37*
G36*
X202398D02*
X201531D01*
X200729Y238070D01*
X200115Y237456D01*
X199783Y236654D01*
Y235787D01*
X200115Y234985D01*
X200729Y234371D01*
X201531Y234039D01*
X202398D01*
X203200Y234371D01*
X203814Y234985D01*
X204146Y235787D01*
Y236654D01*
X203814Y237456D01*
X203200Y238070D01*
X202398Y238402D01*
D02*
G37*
G36*
X170902D02*
X170035D01*
X169233Y238070D01*
X168619Y237456D01*
X168287Y236654D01*
Y235787D01*
X168619Y234985D01*
X169233Y234371D01*
X170035Y234039D01*
X170902D01*
X171704Y234371D01*
X172318Y234985D01*
X172650Y235787D01*
Y236654D01*
X172318Y237456D01*
X171704Y238070D01*
X170902Y238402D01*
D02*
G37*
G36*
X95374Y289169D02*
X24508D01*
X22189Y288986D01*
X19927Y288443D01*
X17777Y287553D01*
X15794Y286338D01*
X14025Y284827D01*
X12514Y283058D01*
X11299Y281074D01*
X10408Y278925D01*
X9865Y276663D01*
X9683Y274344D01*
Y246785D01*
X9865Y244466D01*
X10408Y242203D01*
X11299Y240054D01*
X12514Y238071D01*
X14025Y236302D01*
X15794Y234791D01*
X17777Y233575D01*
X19927Y232685D01*
X22189Y232142D01*
X24508Y231960D01*
X95374D01*
X97693Y232142D01*
X99955Y232685D01*
X102104Y233575D01*
X104088Y234791D01*
X105857Y236302D01*
X107368Y238071D01*
X108583Y240054D01*
X109474Y242203D01*
X110017Y244466D01*
X110199Y246785D01*
Y274344D01*
X110017Y276663D01*
X109474Y278925D01*
X108583Y281074D01*
X107368Y283058D01*
X105857Y284827D01*
X104088Y286338D01*
X102104Y287553D01*
X99955Y288443D01*
X97693Y288986D01*
X95374Y289169D01*
D02*
G37*
G36*
X405946Y238402D02*
X405078D01*
X404276Y238070D01*
X403663Y237456D01*
X403331Y236654D01*
Y235787D01*
X403663Y234985D01*
X404069Y234579D01*
X404221Y234252D01*
X404069Y233925D01*
X403663Y233519D01*
X403331Y232717D01*
Y231850D01*
X403663Y231048D01*
X404276Y230434D01*
X405078Y230102D01*
X405946D01*
X406747Y230434D01*
X407361Y231048D01*
X407693Y231850D01*
Y232717D01*
X407361Y233519D01*
X406954Y233925D01*
X406803Y234252D01*
X406954Y234579D01*
X407361Y234985D01*
X407693Y235787D01*
Y236654D01*
X407361Y237456D01*
X406747Y238070D01*
X405946Y238402D01*
D02*
G37*
G36*
X378639Y232594D02*
X377771D01*
X376969Y232262D01*
X376356Y231649D01*
X376024Y230847D01*
Y229979D01*
X376356Y229178D01*
X376969Y228564D01*
X377771Y228232D01*
X378639D01*
X379440Y228564D01*
X380054Y229178D01*
X380386Y229979D01*
Y230847D01*
X380054Y231649D01*
X379440Y232262D01*
X378639Y232594D01*
D02*
G37*
G36*
X398072Y230528D02*
X397204D01*
X396402Y230195D01*
X395789Y229582D01*
X395457Y228780D01*
Y227913D01*
X395789Y227111D01*
X396402Y226497D01*
X397204Y226165D01*
X398072D01*
X398873Y226497D01*
X399487Y227111D01*
X399819Y227913D01*
Y228780D01*
X399487Y229582D01*
X398873Y230195D01*
X398072Y230528D01*
D02*
G37*
G36*
X500443Y223047D02*
X499557D01*
X498702Y222818D01*
X497936Y222375D01*
X497310Y221749D01*
X496867Y220983D01*
X496638Y220128D01*
Y219242D01*
X496867Y218387D01*
X497310Y217621D01*
X497936Y216995D01*
X498702Y216552D01*
X499557Y216323D01*
X500443D01*
X501298Y216552D01*
X502064Y216995D01*
X502690Y217621D01*
X503133Y218387D01*
X503362Y219242D01*
Y220128D01*
X503133Y220983D01*
X502690Y221749D01*
X502064Y222375D01*
X501298Y222818D01*
X500443Y223047D01*
D02*
G37*
G36*
X806958Y224373D02*
X805641D01*
X804369Y224032D01*
X803229Y223374D01*
X802298Y222443D01*
X801640Y221303D01*
X801299Y220031D01*
Y218715D01*
X801640Y217443D01*
X802298Y216303D01*
X803229Y215372D01*
X804369Y214714D01*
X805641Y214373D01*
X806958D01*
X808229Y214714D01*
X809369Y215372D01*
X810300Y216303D01*
X810958Y217443D01*
X811299Y218715D01*
Y220031D01*
X810958Y221303D01*
X810300Y222443D01*
X809369Y223374D01*
X808229Y224032D01*
X806958Y224373D01*
D02*
G37*
G36*
X541772Y214779D02*
X540905D01*
X540103Y214447D01*
X539783Y214128D01*
X527146D01*
X526826Y214447D01*
X526024Y214779D01*
X525157D01*
X524355Y214447D01*
X523741Y213834D01*
X523410Y213032D01*
Y212165D01*
X523741Y211363D01*
X524355Y210749D01*
X525157Y210417D01*
X526024D01*
X526826Y210749D01*
X527146Y211069D01*
X539783D01*
X540103Y210749D01*
X540905Y210417D01*
X541772D01*
X542574Y210749D01*
X543188Y211363D01*
X543520Y212165D01*
Y213032D01*
X543188Y213834D01*
X542574Y214447D01*
X541772Y214779D01*
D02*
G37*
G36*
X638229Y216158D02*
X637361D01*
X636560Y215825D01*
X635946Y215212D01*
X635614Y214410D01*
Y213543D01*
X635946Y212741D01*
X636560Y212127D01*
X637361Y211795D01*
X638229D01*
X639031Y212127D01*
X639644Y212741D01*
X639976Y213543D01*
Y214410D01*
X639644Y215212D01*
X639031Y215825D01*
X638229Y216158D01*
D02*
G37*
G36*
X644036Y214484D02*
X643168D01*
X642367Y214152D01*
X641753Y213539D01*
X641421Y212737D01*
Y211869D01*
X641753Y211068D01*
X642367Y210454D01*
X643168Y210122D01*
X644036D01*
X644838Y210454D01*
X645451Y211068D01*
X645784Y211869D01*
Y212737D01*
X645451Y213539D01*
X644838Y214152D01*
X644036Y214484D01*
D02*
G37*
G36*
X668150Y214287D02*
X667283D01*
X666481Y213955D01*
X665868Y213342D01*
X665535Y212540D01*
Y211672D01*
X665868Y210871D01*
X666481Y210257D01*
X667283Y209925D01*
X668150D01*
X668952Y210257D01*
X669566Y210871D01*
X669898Y211672D01*
Y212540D01*
X669566Y213342D01*
X668952Y213955D01*
X668150Y214287D01*
D02*
G37*
G36*
X756546Y216798D02*
X755454D01*
X754398Y216515D01*
X753452Y215969D01*
X752679Y215196D01*
X752133Y214250D01*
X751850Y213195D01*
Y212102D01*
X752133Y211047D01*
X752679Y210101D01*
X753452Y209328D01*
X754398Y208782D01*
X755454Y208499D01*
X756546D01*
X757602Y208782D01*
X758548Y209328D01*
X759320Y210101D01*
X759867Y211047D01*
X760150Y212102D01*
Y213195D01*
X759867Y214250D01*
X759320Y215196D01*
X758548Y215969D01*
X757602Y216515D01*
X756546Y216798D01*
D02*
G37*
G36*
X696546D02*
X695454D01*
X694398Y216515D01*
X693452Y215969D01*
X692680Y215196D01*
X692133Y214250D01*
X691850Y213195D01*
Y212102D01*
X692133Y211047D01*
X692680Y210101D01*
X693452Y209328D01*
X694398Y208782D01*
X695454Y208499D01*
X696546D01*
X697602Y208782D01*
X698548Y209328D01*
X699321Y210101D01*
X699867Y211047D01*
X700150Y212102D01*
Y213195D01*
X699867Y214250D01*
X699321Y215196D01*
X698548Y215969D01*
X697602Y216515D01*
X696546Y216798D01*
D02*
G37*
G36*
X386373D02*
X385280D01*
X384225Y216515D01*
X383279Y215969D01*
X382506Y215196D01*
X381960Y214250D01*
X381677Y213195D01*
Y212102D01*
X381960Y211047D01*
X382506Y210101D01*
X383279Y209328D01*
X384225Y208782D01*
X385280Y208499D01*
X386373D01*
X387428Y208782D01*
X388375Y209328D01*
X389147Y210101D01*
X389694Y211047D01*
X389976Y212102D01*
Y213195D01*
X389694Y214250D01*
X389147Y215196D01*
X388375Y215969D01*
X387428Y216515D01*
X386373Y216798D01*
D02*
G37*
G36*
X326373D02*
X325280D01*
X324225Y216515D01*
X323279Y215969D01*
X322506Y215196D01*
X321960Y214250D01*
X321677Y213195D01*
Y212102D01*
X321960Y211047D01*
X322506Y210101D01*
X323279Y209328D01*
X324225Y208782D01*
X325280Y208499D01*
X326373D01*
X327429Y208782D01*
X328375Y209328D01*
X329147Y210101D01*
X329694Y211047D01*
X329976Y212102D01*
Y213195D01*
X329694Y214250D01*
X329147Y215196D01*
X328375Y215969D01*
X327429Y216515D01*
X326373Y216798D01*
D02*
G37*
G36*
X236243Y223908D02*
X234568D01*
X232926Y223581D01*
X231379Y222940D01*
X229987Y222010D01*
X228803Y220826D01*
X227873Y219434D01*
X227232Y217887D01*
X226905Y216245D01*
Y214571D01*
X227232Y212929D01*
X227873Y211382D01*
X228803Y209989D01*
X229987Y208805D01*
X231379Y207875D01*
X232926Y207235D01*
X234568Y206908D01*
X236243D01*
X237885Y207235D01*
X239432Y207875D01*
X240824Y208805D01*
X242008Y209989D01*
X242938Y211382D01*
X243579Y212929D01*
X243905Y214571D01*
Y216245D01*
X243579Y217887D01*
X242938Y219434D01*
X242008Y220826D01*
X240824Y222010D01*
X239432Y222940D01*
X237885Y223581D01*
X236243Y223908D01*
D02*
G37*
G36*
X806958Y210573D02*
X805641D01*
X804369Y210232D01*
X803229Y209574D01*
X802298Y208643D01*
X801640Y207503D01*
X801299Y206231D01*
Y204915D01*
X801640Y203643D01*
X802298Y202503D01*
X803229Y201572D01*
X804369Y200914D01*
X805641Y200573D01*
X806958D01*
X808229Y200914D01*
X809369Y201572D01*
X810300Y202503D01*
X810958Y203643D01*
X811299Y204915D01*
Y206231D01*
X810958Y207503D01*
X810300Y208643D01*
X809369Y209574D01*
X808229Y210232D01*
X806958Y210573D01*
D02*
G37*
G36*
X411073Y205724D02*
X410187D01*
X409332Y205495D01*
X408566Y205053D01*
X407939Y204427D01*
X407497Y203660D01*
X407268Y202805D01*
Y201920D01*
X407497Y201064D01*
X407939Y200298D01*
X408566Y199672D01*
X409332Y199229D01*
X410187Y199000D01*
X411073D01*
X411928Y199229D01*
X412694Y199672D01*
X413320Y200298D01*
X413763Y201064D01*
X413992Y201920D01*
Y202805D01*
X413763Y203660D01*
X413320Y204427D01*
X412694Y205053D01*
X411928Y205495D01*
X411073Y205724D01*
D02*
G37*
G36*
X696546Y206798D02*
X695454D01*
X694398Y206515D01*
X693452Y205969D01*
X692680Y205196D01*
X692133Y204250D01*
X691850Y203195D01*
Y202102D01*
X692133Y201047D01*
X692680Y200101D01*
X693452Y199328D01*
X694398Y198782D01*
X695454Y198499D01*
X696546D01*
X697602Y198782D01*
X698548Y199328D01*
X699321Y200101D01*
X699867Y201047D01*
X700150Y202102D01*
Y203195D01*
X699867Y204250D01*
X699321Y205196D01*
X698548Y205969D01*
X697602Y206515D01*
X696546Y206798D01*
D02*
G37*
G36*
X326373D02*
X325280D01*
X324225Y206515D01*
X323279Y205969D01*
X322506Y205196D01*
X321960Y204250D01*
X321677Y203195D01*
Y202102D01*
X321960Y201047D01*
X322506Y200101D01*
X323279Y199328D01*
X324225Y198782D01*
X325280Y198499D01*
X326373D01*
X327429Y198782D01*
X328375Y199328D01*
X329147Y200101D01*
X329694Y201047D01*
X329976Y202102D01*
Y203195D01*
X329694Y204250D01*
X329147Y205196D01*
X328375Y205969D01*
X327429Y206515D01*
X326373Y206798D01*
D02*
G37*
G36*
X166243Y213908D02*
X164568D01*
X162926Y213581D01*
X161379Y212941D01*
X159987Y212010D01*
X158803Y210826D01*
X157873Y209434D01*
X157232Y207887D01*
X156905Y206245D01*
Y204571D01*
X157232Y202928D01*
X157873Y201382D01*
X158803Y199989D01*
X159987Y198805D01*
X161379Y197875D01*
X162926Y197234D01*
X164568Y196908D01*
X166243D01*
X167885Y197234D01*
X169432Y197875D01*
X170824Y198805D01*
X172008Y199989D01*
X172938Y201382D01*
X173579Y202928D01*
X173906Y204571D01*
Y206245D01*
X173579Y207887D01*
X172938Y209434D01*
X172008Y210826D01*
X170824Y212010D01*
X169432Y212941D01*
X167885Y213581D01*
X166243Y213908D01*
D02*
G37*
G36*
X421694Y197063D02*
X420826D01*
X420024Y196731D01*
X419411Y196117D01*
X419079Y195316D01*
Y194448D01*
X419411Y193646D01*
X420024Y193033D01*
X420826Y192701D01*
X421694D01*
X422495Y193033D01*
X423109Y193646D01*
X423441Y194448D01*
Y195316D01*
X423109Y196117D01*
X422495Y196731D01*
X421694Y197063D01*
D02*
G37*
G36*
X548474D02*
X547589D01*
X546734Y196834D01*
X545967Y196391D01*
X545341Y195765D01*
X544898Y194999D01*
X544669Y194143D01*
Y193258D01*
X544898Y192403D01*
X545341Y191636D01*
X545967Y191010D01*
X546734Y190568D01*
X547589Y190339D01*
X548474D01*
X549329Y190568D01*
X550096Y191010D01*
X550722Y191636D01*
X551165Y192403D01*
X551394Y193258D01*
Y194143D01*
X551165Y194999D01*
X550722Y195765D01*
X550096Y196391D01*
X549329Y196834D01*
X548474Y197063D01*
D02*
G37*
G36*
X410670Y194382D02*
X409802D01*
X409001Y194050D01*
X408387Y193436D01*
X408055Y192635D01*
Y191767D01*
X408387Y190965D01*
X409001Y190352D01*
X409802Y190020D01*
X410670D01*
X411472Y190352D01*
X412085Y190965D01*
X412417Y191767D01*
Y192635D01*
X412085Y193436D01*
X411472Y194050D01*
X410670Y194382D01*
D02*
G37*
G36*
X756546Y196798D02*
X755454D01*
X754398Y196515D01*
X753452Y195969D01*
X752679Y195196D01*
X752133Y194250D01*
X751850Y193195D01*
Y192102D01*
X752133Y191047D01*
X752679Y190101D01*
X753452Y189328D01*
X754398Y188782D01*
X755454Y188499D01*
X756546D01*
X757602Y188782D01*
X758548Y189328D01*
X759320Y190101D01*
X759867Y191047D01*
X760150Y192102D01*
Y193195D01*
X759867Y194250D01*
X759320Y195196D01*
X758548Y195969D01*
X757602Y196515D01*
X756546Y196798D01*
D02*
G37*
G36*
X696546D02*
X695454D01*
X694398Y196515D01*
X693452Y195969D01*
X692680Y195196D01*
X692133Y194250D01*
X691850Y193195D01*
Y192102D01*
X692133Y191047D01*
X692680Y190101D01*
X693452Y189328D01*
X694398Y188782D01*
X695454Y188499D01*
X696546D01*
X697602Y188782D01*
X698548Y189328D01*
X699321Y190101D01*
X699867Y191047D01*
X700150Y192102D01*
Y193195D01*
X699867Y194250D01*
X699321Y195196D01*
X698548Y195969D01*
X697602Y196515D01*
X696546Y196798D01*
D02*
G37*
G36*
X386373D02*
X385280D01*
X384225Y196515D01*
X383279Y195969D01*
X382506Y195196D01*
X381960Y194250D01*
X381677Y193195D01*
Y192102D01*
X381960Y191047D01*
X382506Y190101D01*
X383279Y189328D01*
X384225Y188782D01*
X385280Y188499D01*
X386373D01*
X387428Y188782D01*
X388375Y189328D01*
X389147Y190101D01*
X389694Y191047D01*
X389976Y192102D01*
Y193195D01*
X389694Y194250D01*
X389147Y195196D01*
X388375Y195969D01*
X387428Y196515D01*
X386373Y196798D01*
D02*
G37*
G36*
X326373D02*
X325280D01*
X324225Y196515D01*
X323279Y195969D01*
X322506Y195196D01*
X321960Y194250D01*
X321677Y193195D01*
Y192102D01*
X321960Y191047D01*
X322506Y190101D01*
X323279Y189328D01*
X324225Y188782D01*
X325280Y188499D01*
X326373D01*
X327429Y188782D01*
X328375Y189328D01*
X329147Y190101D01*
X329694Y191047D01*
X329976Y192102D01*
Y193195D01*
X329694Y194250D01*
X329147Y195196D01*
X328375Y195969D01*
X327429Y196515D01*
X326373Y196798D01*
D02*
G37*
G36*
X806958Y196773D02*
X805641D01*
X804369Y196432D01*
X803229Y195774D01*
X802298Y194843D01*
X801640Y193703D01*
X801299Y192431D01*
Y191115D01*
X801640Y189843D01*
X802298Y188703D01*
X803229Y187772D01*
X804369Y187114D01*
X805641Y186773D01*
X806958D01*
X808229Y187114D01*
X809369Y187772D01*
X810300Y188703D01*
X810958Y189843D01*
X811299Y191115D01*
Y192431D01*
X810958Y193703D01*
X810300Y194843D01*
X809369Y195774D01*
X808229Y196432D01*
X806958Y196773D01*
D02*
G37*
G36*
X756546Y186798D02*
X755454D01*
X754398Y186515D01*
X753452Y185969D01*
X752679Y185196D01*
X752133Y184250D01*
X751850Y183195D01*
Y182102D01*
X752133Y181047D01*
X752679Y180101D01*
X753452Y179328D01*
X754398Y178782D01*
X755454Y178499D01*
X756546D01*
X757602Y178782D01*
X758548Y179328D01*
X759320Y180101D01*
X759867Y181047D01*
X760150Y182102D01*
Y183195D01*
X759867Y184250D01*
X759320Y185196D01*
X758548Y185969D01*
X757602Y186515D01*
X756546Y186798D01*
D02*
G37*
G36*
X696546D02*
X695454D01*
X694398Y186515D01*
X693452Y185969D01*
X692680Y185196D01*
X692133Y184250D01*
X691850Y183195D01*
Y182102D01*
X692133Y181047D01*
X692680Y180101D01*
X693452Y179328D01*
X694398Y178782D01*
X695454Y178499D01*
X696546D01*
X697602Y178782D01*
X698548Y179328D01*
X699321Y180101D01*
X699867Y181047D01*
X700150Y182102D01*
Y183195D01*
X699867Y184250D01*
X699321Y185196D01*
X698548Y185969D01*
X697602Y186515D01*
X696546Y186798D01*
D02*
G37*
G36*
X806958Y182973D02*
X805641D01*
X804369Y182633D01*
X803229Y181974D01*
X802298Y181043D01*
X801640Y179903D01*
X801299Y178631D01*
Y177315D01*
X801640Y176043D01*
X802298Y174903D01*
X803229Y173972D01*
X804369Y173314D01*
X805641Y172973D01*
X806958D01*
X808229Y173314D01*
X809369Y173972D01*
X810300Y174903D01*
X810958Y176043D01*
X811299Y177315D01*
Y178631D01*
X810958Y179903D01*
X810300Y181043D01*
X809369Y181974D01*
X808229Y182633D01*
X806958Y182973D01*
D02*
G37*
G36*
X446792Y175311D02*
X445924D01*
X445123Y174979D01*
X444509Y174365D01*
X444177Y173564D01*
Y172696D01*
X444509Y171894D01*
X445123Y171281D01*
X445924Y170949D01*
X446792D01*
X447594Y171281D01*
X448207Y171894D01*
X448539Y172696D01*
Y173564D01*
X448207Y174365D01*
X447594Y174979D01*
X446792Y175311D01*
D02*
G37*
G36*
X674056Y173047D02*
X673188D01*
X672387Y172715D01*
X671773Y172102D01*
X671441Y171300D01*
Y170432D01*
X671773Y169631D01*
X672387Y169017D01*
X673188Y168685D01*
X674056D01*
X674858Y169017D01*
X675471Y169631D01*
X675803Y170432D01*
Y171300D01*
X675471Y172102D01*
X674858Y172715D01*
X674056Y173047D01*
D02*
G37*
G36*
X756546Y176798D02*
X755454D01*
X754398Y176515D01*
X753452Y175969D01*
X752679Y175197D01*
X752133Y174250D01*
X751850Y173195D01*
Y172102D01*
X752133Y171047D01*
X752679Y170101D01*
X753452Y169328D01*
X754398Y168782D01*
X755454Y168499D01*
X756546D01*
X757602Y168782D01*
X758548Y169328D01*
X759320Y170101D01*
X759867Y171047D01*
X760150Y172102D01*
Y173195D01*
X759867Y174250D01*
X759320Y175197D01*
X758548Y175969D01*
X757602Y176515D01*
X756546Y176798D01*
D02*
G37*
G36*
X696546D02*
X695454D01*
X694398Y176515D01*
X693452Y175969D01*
X692680Y175197D01*
X692133Y174250D01*
X691850Y173195D01*
Y172102D01*
X692133Y171047D01*
X692680Y170101D01*
X693452Y169328D01*
X694398Y168782D01*
X695454Y168499D01*
X696546D01*
X697602Y168782D01*
X698548Y169328D01*
X699321Y170101D01*
X699867Y171047D01*
X700150Y172102D01*
Y173195D01*
X699867Y174250D01*
X699321Y175197D01*
X698548Y175969D01*
X697602Y176515D01*
X696546Y176798D01*
D02*
G37*
G36*
X523015Y172336D02*
X522148D01*
X521346Y172004D01*
X520732Y171390D01*
X520400Y170589D01*
Y169721D01*
X520732Y168919D01*
X521346Y168306D01*
X522148Y167974D01*
X523015D01*
X523817Y168306D01*
X524431Y168919D01*
X524762Y169721D01*
Y170589D01*
X524431Y171390D01*
X523817Y172004D01*
X523015Y172336D01*
D02*
G37*
G36*
X649875Y171601D02*
X649007D01*
X648206Y171269D01*
X647592Y170656D01*
X647260Y169854D01*
Y168986D01*
X647592Y168185D01*
X648206Y167571D01*
X649007Y167239D01*
X649875D01*
X650676Y167571D01*
X651290Y168185D01*
X651622Y168986D01*
Y169854D01*
X651290Y170656D01*
X650676Y171269D01*
X649875Y171601D01*
D02*
G37*
G36*
X166243Y183908D02*
X164568D01*
X162926Y183581D01*
X161379Y182940D01*
X159987Y182010D01*
X158803Y180826D01*
X157873Y179434D01*
X157232Y177887D01*
X156905Y176245D01*
Y174571D01*
X157232Y172929D01*
X157873Y171382D01*
X158803Y169989D01*
X159987Y168806D01*
X161379Y167875D01*
X162926Y167235D01*
X164568Y166908D01*
X166243D01*
X167885Y167235D01*
X169432Y167875D01*
X170824Y168806D01*
X172008Y169989D01*
X172938Y171382D01*
X173579Y172929D01*
X173906Y174571D01*
Y176245D01*
X173579Y177887D01*
X172938Y179434D01*
X172008Y180826D01*
X170824Y182010D01*
X169432Y182940D01*
X167885Y183581D01*
X166243Y183908D01*
D02*
G37*
G36*
X509095Y167142D02*
X508228D01*
X507426Y166810D01*
X506812Y166196D01*
X506480Y165394D01*
Y164527D01*
X506812Y163725D01*
X507426Y163112D01*
X508228Y162779D01*
X509095D01*
X509897Y163112D01*
X510510Y163725D01*
X510843Y164527D01*
Y165394D01*
X510510Y166196D01*
X509897Y166810D01*
X509095Y167142D01*
D02*
G37*
G36*
X530758Y165567D02*
X529872D01*
X529017Y165338D01*
X528251Y164895D01*
X527625Y164269D01*
X527316Y163734D01*
X524508D01*
X523923Y163618D01*
X523426Y163286D01*
X494318Y134178D01*
X424429D01*
X424095Y134678D01*
X424228Y134999D01*
Y135867D01*
X423896Y136669D01*
X423577Y136988D01*
Y144114D01*
X423896Y144434D01*
X424228Y145235D01*
Y146103D01*
X423896Y146905D01*
X423283Y147518D01*
X422481Y147850D01*
X421613D01*
X420812Y147518D01*
X420198Y146905D01*
X419866Y146103D01*
Y145235D01*
X420198Y144434D01*
X420518Y144114D01*
Y136988D01*
X420198Y136669D01*
X419866Y135867D01*
Y134999D01*
X419999Y134678D01*
X419665Y134178D01*
X389713D01*
X389694Y134250D01*
X389147Y135196D01*
X388375Y135969D01*
X387428Y136515D01*
X386373Y136798D01*
X385280D01*
X384225Y136515D01*
X383279Y135969D01*
X382506Y135196D01*
X381960Y134250D01*
X381677Y133195D01*
Y132102D01*
X381960Y131047D01*
X382506Y130101D01*
X383279Y129328D01*
X384225Y128782D01*
X385280Y128499D01*
X386373D01*
X387428Y128782D01*
X388375Y129328D01*
X389147Y130101D01*
X389694Y131047D01*
X389713Y131119D01*
X494952D01*
X495537Y131236D01*
X496033Y131567D01*
X525141Y160675D01*
X527316D01*
X527625Y160140D01*
X528251Y159514D01*
X529017Y159072D01*
X529872Y158843D01*
X530758D01*
X531613Y159072D01*
X532379Y159514D01*
X533005Y160140D01*
X533448Y160907D01*
X533677Y161762D01*
Y162647D01*
X533448Y163503D01*
X533005Y164269D01*
X532379Y164895D01*
X531613Y165338D01*
X530758Y165567D01*
D02*
G37*
G36*
X756546Y166798D02*
X755454D01*
X754398Y166515D01*
X753452Y165969D01*
X752679Y165197D01*
X752133Y164250D01*
X751850Y163195D01*
Y162102D01*
X752133Y161047D01*
X752679Y160101D01*
X753452Y159328D01*
X754398Y158782D01*
X755454Y158499D01*
X756546D01*
X757602Y158782D01*
X758548Y159328D01*
X759320Y160101D01*
X759867Y161047D01*
X760150Y162102D01*
Y163195D01*
X759867Y164250D01*
X759320Y165197D01*
X758548Y165969D01*
X757602Y166515D01*
X756546Y166798D01*
D02*
G37*
G36*
X696546D02*
X695454D01*
X694398Y166515D01*
X693452Y165969D01*
X692680Y165197D01*
X692133Y164250D01*
X691850Y163195D01*
Y162102D01*
X692133Y161047D01*
X692680Y160101D01*
X693452Y159328D01*
X694398Y158782D01*
X695454Y158499D01*
X696546D01*
X697602Y158782D01*
X698548Y159328D01*
X699321Y160101D01*
X699867Y161047D01*
X700150Y162102D01*
Y163195D01*
X699867Y164250D01*
X699321Y165197D01*
X698548Y165969D01*
X697602Y166515D01*
X696546Y166798D01*
D02*
G37*
G36*
X549871Y251457D02*
X548554D01*
X547283Y251116D01*
X546142Y250458D01*
X545212Y249527D01*
X544553Y248387D01*
X544213Y247115D01*
Y245798D01*
X544553Y244527D01*
X545212Y243387D01*
X546142Y242456D01*
X547190Y241851D01*
Y203937D01*
X547343Y203163D01*
X547782Y202506D01*
X578702Y171587D01*
X578860Y171205D01*
X579473Y170592D01*
X579855Y170434D01*
X595026Y155262D01*
X595682Y154824D01*
X596457Y154670D01*
X655090D01*
X655472Y154512D01*
X656339D01*
X657141Y154844D01*
X657755Y155457D01*
X658087Y156259D01*
Y157127D01*
X657755Y157928D01*
X657141Y158542D01*
X656339Y158874D01*
X655472D01*
X655090Y158716D01*
X597295D01*
X582716Y173295D01*
X582558Y173676D01*
X581944Y174290D01*
X581563Y174448D01*
X551236Y204775D01*
Y241851D01*
X552283Y242456D01*
X553214Y243387D01*
X553872Y244527D01*
X554213Y245798D01*
Y247115D01*
X553872Y248387D01*
X553214Y249527D01*
X552283Y250458D01*
X551143Y251116D01*
X549871Y251457D01*
D02*
G37*
G36*
X411860Y157299D02*
X410975D01*
X410120Y157070D01*
X409353Y156627D01*
X408727Y156001D01*
X408284Y155235D01*
X408055Y154380D01*
Y153494D01*
X408284Y152639D01*
X408651Y152004D01*
X408449Y151504D01*
X390366D01*
X389932Y151937D01*
X389976Y152102D01*
Y153195D01*
X389694Y154250D01*
X389147Y155196D01*
X388375Y155969D01*
X387428Y156515D01*
X386373Y156798D01*
X385280D01*
X384225Y156515D01*
X383279Y155969D01*
X382506Y155196D01*
X381960Y154250D01*
X381677Y153195D01*
Y152102D01*
X381960Y151047D01*
X382506Y150101D01*
X383279Y149328D01*
X384225Y148782D01*
X385280Y148499D01*
X386373D01*
X387428Y148782D01*
X388274Y149270D01*
X388651Y148893D01*
X389147Y148561D01*
X389732Y148445D01*
X493079D01*
X493373Y147936D01*
X493998Y147310D01*
X494765Y146867D01*
X495620Y146638D01*
X496506D01*
X497361Y146867D01*
X498127Y147310D01*
X498753Y147936D01*
X499196Y148702D01*
X499425Y149557D01*
Y150443D01*
X499196Y151298D01*
X498753Y152064D01*
X498127Y152690D01*
X497361Y153133D01*
X496506Y153362D01*
X495620D01*
X494765Y153133D01*
X493998Y152690D01*
X493373Y152064D01*
X493049Y151504D01*
X459419D01*
X459142Y151919D01*
X459268Y152224D01*
Y153091D01*
X458936Y153893D01*
X458322Y154507D01*
X457520Y154839D01*
X456653D01*
X455851Y154507D01*
X455238Y153893D01*
X454906Y153091D01*
Y152224D01*
X455031Y151919D01*
X454754Y151504D01*
X414386D01*
X414183Y152004D01*
X414550Y152639D01*
X414780Y153494D01*
Y154380D01*
X414550Y155235D01*
X414108Y156001D01*
X413482Y156627D01*
X412715Y157070D01*
X411860Y157299D01*
D02*
G37*
G36*
X756546Y156798D02*
X755454D01*
X754398Y156515D01*
X753452Y155969D01*
X752679Y155196D01*
X752133Y154250D01*
X751850Y153195D01*
Y152102D01*
X752133Y151047D01*
X752679Y150101D01*
X753452Y149328D01*
X754398Y148782D01*
X755454Y148499D01*
X756546D01*
X757602Y148782D01*
X758548Y149328D01*
X759320Y150101D01*
X759867Y151047D01*
X760150Y152102D01*
Y153195D01*
X759867Y154250D01*
X759320Y155196D01*
X758548Y155969D01*
X757602Y156515D01*
X756546Y156798D01*
D02*
G37*
G36*
X696546D02*
X695454D01*
X694398Y156515D01*
X693452Y155969D01*
X692680Y155196D01*
X692133Y154250D01*
X691850Y153195D01*
Y152102D01*
X692133Y151047D01*
X692680Y150101D01*
X693452Y149328D01*
X694398Y148782D01*
X695454Y148499D01*
X696546D01*
X697602Y148782D01*
X698548Y149328D01*
X699321Y150101D01*
X699867Y151047D01*
X700150Y152102D01*
Y153195D01*
X699867Y154250D01*
X699321Y155196D01*
X698548Y155969D01*
X697602Y156515D01*
X696546Y156798D01*
D02*
G37*
G36*
X412024Y147499D02*
X411157D01*
X410355Y147167D01*
X409742Y146553D01*
X409410Y145752D01*
Y144884D01*
X409742Y144082D01*
X410355Y143469D01*
X411157Y143137D01*
X412024D01*
X412826Y143469D01*
X413440Y144082D01*
X413772Y144884D01*
Y145752D01*
X413440Y146553D01*
X412826Y147167D01*
X412024Y147499D01*
D02*
G37*
G36*
X756546Y146798D02*
X755454D01*
X754398Y146515D01*
X753452Y145969D01*
X752679Y145196D01*
X752133Y144250D01*
X751850Y143195D01*
Y142102D01*
X752133Y141047D01*
X752679Y140101D01*
X753452Y139328D01*
X754398Y138782D01*
X755454Y138499D01*
X756546D01*
X757602Y138782D01*
X758548Y139328D01*
X759320Y140101D01*
X759867Y141047D01*
X760150Y142102D01*
Y143195D01*
X759867Y144250D01*
X759320Y145196D01*
X758548Y145969D01*
X757602Y146515D01*
X756546Y146798D01*
D02*
G37*
G36*
X696546D02*
X695454D01*
X694398Y146515D01*
X693452Y145969D01*
X692680Y145196D01*
X692133Y144250D01*
X691850Y143195D01*
Y142102D01*
X692133Y141047D01*
X692680Y140101D01*
X693452Y139328D01*
X694398Y138782D01*
X695454Y138499D01*
X696546D01*
X697602Y138782D01*
X698548Y139328D01*
X699321Y140101D01*
X699867Y141047D01*
X700150Y142102D01*
Y143195D01*
X699867Y144250D01*
X699321Y145196D01*
X698548Y145969D01*
X697602Y146515D01*
X696546Y146798D01*
D02*
G37*
G36*
X386373D02*
X385280D01*
X384225Y146515D01*
X383279Y145969D01*
X382506Y145196D01*
X381960Y144250D01*
X381677Y143195D01*
Y142102D01*
X381960Y141047D01*
X382506Y140101D01*
X383279Y139328D01*
X384225Y138782D01*
X385280Y138499D01*
X386373D01*
X387428Y138782D01*
X388375Y139328D01*
X389147Y140101D01*
X389694Y141047D01*
X389976Y142102D01*
Y143195D01*
X389694Y144250D01*
X389147Y145196D01*
X388375Y145969D01*
X387428Y146515D01*
X386373Y146798D01*
D02*
G37*
G36*
X283099Y146020D02*
X281782D01*
X280511Y145679D01*
X279370Y145021D01*
X278440Y144090D01*
X277781Y142950D01*
X277441Y141678D01*
Y140362D01*
X277781Y139090D01*
X278440Y137950D01*
X279370Y137019D01*
X280511Y136361D01*
X281782Y136020D01*
X283099D01*
X284370Y136361D01*
X285511Y137019D01*
X286442Y137950D01*
X287100Y139090D01*
X287441Y140362D01*
Y141678D01*
X287100Y142950D01*
X286442Y144090D01*
X285511Y145021D01*
X284370Y145679D01*
X283099Y146020D01*
D02*
G37*
G36*
X639813Y142339D02*
X638927D01*
X638072Y142109D01*
X637306Y141667D01*
X636680Y141041D01*
X636237Y140274D01*
X636008Y139419D01*
Y138534D01*
X636237Y137679D01*
X636680Y136912D01*
X637306Y136286D01*
X638072Y135843D01*
X638927Y135614D01*
X639813D01*
X640668Y135843D01*
X641434Y136286D01*
X642061Y136912D01*
X642503Y137679D01*
X642732Y138534D01*
Y139419D01*
X642503Y140274D01*
X642061Y141041D01*
X641434Y141667D01*
X640668Y142109D01*
X639813Y142339D01*
D02*
G37*
G36*
X604943Y138362D02*
X604057D01*
X603202Y138133D01*
X602436Y137690D01*
X601810Y137064D01*
X601367Y136298D01*
X601138Y135443D01*
Y134557D01*
X601367Y133702D01*
X601810Y132936D01*
X602436Y132310D01*
X603202Y131867D01*
X604057Y131638D01*
X604943D01*
X605798Y131867D01*
X606564Y132310D01*
X607190Y132936D01*
X607633Y133702D01*
X607862Y134557D01*
Y135443D01*
X607633Y136298D01*
X607190Y137064D01*
X606564Y137690D01*
X605798Y138133D01*
X604943Y138362D01*
D02*
G37*
G36*
X592943D02*
X592057D01*
X591202Y138133D01*
X590436Y137690D01*
X589810Y137064D01*
X589367Y136298D01*
X589138Y135443D01*
Y134557D01*
X589367Y133702D01*
X589810Y132936D01*
X590436Y132310D01*
X591202Y131867D01*
X592057Y131638D01*
X592943D01*
X593798Y131867D01*
X594564Y132310D01*
X595190Y132936D01*
X595633Y133702D01*
X595862Y134557D01*
Y135443D01*
X595633Y136298D01*
X595190Y137064D01*
X594564Y137690D01*
X593798Y138133D01*
X592943Y138362D01*
D02*
G37*
G36*
X580943D02*
X580057D01*
X579202Y138133D01*
X578436Y137690D01*
X577810Y137064D01*
X577367Y136298D01*
X577138Y135443D01*
Y134557D01*
X577367Y133702D01*
X577810Y132936D01*
X578436Y132310D01*
X579202Y131867D01*
X580057Y131638D01*
X580943D01*
X581798Y131867D01*
X582564Y132310D01*
X583190Y132936D01*
X583633Y133702D01*
X583862Y134557D01*
Y135443D01*
X583633Y136298D01*
X583190Y137064D01*
X582564Y137690D01*
X581798Y138133D01*
X580943Y138362D01*
D02*
G37*
G36*
X568943D02*
X568057D01*
X567202Y138133D01*
X566436Y137690D01*
X565810Y137064D01*
X565367Y136298D01*
X565138Y135443D01*
Y134557D01*
X565367Y133702D01*
X565810Y132936D01*
X566436Y132310D01*
X567202Y131867D01*
X568057Y131638D01*
X568943D01*
X569798Y131867D01*
X570564Y132310D01*
X571190Y132936D01*
X571633Y133702D01*
X571862Y134557D01*
Y135443D01*
X571633Y136298D01*
X571190Y137064D01*
X570564Y137690D01*
X569798Y138133D01*
X568943Y138362D01*
D02*
G37*
G36*
X556943D02*
X556057D01*
X555202Y138133D01*
X554436Y137690D01*
X553810Y137064D01*
X553367Y136298D01*
X553138Y135443D01*
Y134557D01*
X553367Y133702D01*
X553810Y132936D01*
X554436Y132310D01*
X555202Y131867D01*
X556057Y131638D01*
X556943D01*
X557798Y131867D01*
X558564Y132310D01*
X559190Y132936D01*
X559633Y133702D01*
X559862Y134557D01*
Y135443D01*
X559633Y136298D01*
X559190Y137064D01*
X558564Y137690D01*
X557798Y138133D01*
X556943Y138362D01*
D02*
G37*
G36*
X756546Y136798D02*
X755454D01*
X754398Y136515D01*
X753452Y135969D01*
X752679Y135196D01*
X752133Y134250D01*
X751850Y133195D01*
Y132102D01*
X752133Y131047D01*
X752679Y130101D01*
X753452Y129328D01*
X754398Y128782D01*
X755454Y128499D01*
X756546D01*
X757602Y128782D01*
X758548Y129328D01*
X759320Y130101D01*
X759867Y131047D01*
X760150Y132102D01*
Y133195D01*
X759867Y134250D01*
X759320Y135196D01*
X758548Y135969D01*
X757602Y136515D01*
X756546Y136798D01*
D02*
G37*
G36*
X696546D02*
X695454D01*
X694398Y136515D01*
X693452Y135969D01*
X692680Y135196D01*
X692133Y134250D01*
X691850Y133195D01*
Y132102D01*
X692133Y131047D01*
X692680Y130101D01*
X693452Y129328D01*
X694398Y128782D01*
X695454Y128499D01*
X696546D01*
X697602Y128782D01*
X698548Y129328D01*
X699321Y130101D01*
X699867Y131047D01*
X700150Y132102D01*
Y133195D01*
X699867Y134250D01*
X699321Y135196D01*
X698548Y135969D01*
X697602Y136515D01*
X696546Y136798D01*
D02*
G37*
G36*
X95374Y182214D02*
X24508D01*
X22189Y182031D01*
X19927Y181488D01*
X17777Y180598D01*
X15794Y179382D01*
X14025Y177872D01*
X12514Y176102D01*
X11299Y174119D01*
X10408Y171970D01*
X9865Y169708D01*
X9683Y167388D01*
Y139829D01*
X9865Y137510D01*
X10408Y135248D01*
X11299Y133099D01*
X12514Y131115D01*
X14025Y129346D01*
X15794Y127836D01*
X17777Y126620D01*
X19927Y125730D01*
X22189Y125187D01*
X24508Y125004D01*
X95374D01*
X97693Y125187D01*
X99955Y125730D01*
X102104Y126620D01*
X104088Y127836D01*
X105857Y129346D01*
X107368Y131115D01*
X108583Y133099D01*
X109474Y135248D01*
X110017Y137510D01*
X110199Y139829D01*
Y167388D01*
X110017Y169708D01*
X109474Y171970D01*
X108583Y174119D01*
X107368Y176102D01*
X105857Y177872D01*
X104088Y179382D01*
X102104Y180598D01*
X99955Y181488D01*
X97693Y182031D01*
X95374Y182214D01*
D02*
G37*
G36*
X806958Y129409D02*
X805641D01*
X804369Y129069D01*
X803229Y128410D01*
X802298Y127480D01*
X801640Y126339D01*
X801299Y125068D01*
Y123751D01*
X801640Y122479D01*
X802298Y121339D01*
X803229Y120408D01*
X804369Y119750D01*
X805641Y119409D01*
X806958D01*
X808229Y119750D01*
X809369Y120408D01*
X810300Y121339D01*
X810958Y122479D01*
X811299Y123751D01*
Y125068D01*
X810958Y126339D01*
X810300Y127480D01*
X809369Y128410D01*
X808229Y129069D01*
X806958Y129409D01*
D02*
G37*
G36*
X756546Y126798D02*
X755454D01*
X754398Y126515D01*
X753452Y125969D01*
X752679Y125197D01*
X752133Y124250D01*
X751850Y123195D01*
Y122102D01*
X752133Y121047D01*
X752679Y120101D01*
X753452Y119328D01*
X754398Y118782D01*
X755454Y118499D01*
X756546D01*
X757602Y118782D01*
X758548Y119328D01*
X759320Y120101D01*
X759867Y121047D01*
X760150Y122102D01*
Y123195D01*
X759867Y124250D01*
X759320Y125197D01*
X758548Y125969D01*
X757602Y126515D01*
X756546Y126798D01*
D02*
G37*
G36*
X696546D02*
X695454D01*
X694398Y126515D01*
X693452Y125969D01*
X692680Y125197D01*
X692133Y124250D01*
X691850Y123195D01*
Y122102D01*
X692133Y121047D01*
X692680Y120101D01*
X693452Y119328D01*
X694398Y118782D01*
X695454Y118499D01*
X696546D01*
X697602Y118782D01*
X698548Y119328D01*
X699321Y120101D01*
X699867Y121047D01*
X700150Y122102D01*
Y123195D01*
X699867Y124250D01*
X699321Y125197D01*
X698548Y125969D01*
X697602Y126515D01*
X696546Y126798D01*
D02*
G37*
G36*
X756546Y116798D02*
X755454D01*
X754398Y116515D01*
X753452Y115969D01*
X752679Y115197D01*
X752133Y114250D01*
X751850Y113195D01*
Y112102D01*
X752133Y111047D01*
X752679Y110101D01*
X753452Y109328D01*
X754398Y108782D01*
X755454Y108499D01*
X756546D01*
X757602Y108782D01*
X758548Y109328D01*
X759320Y110101D01*
X759867Y111047D01*
X760150Y112102D01*
Y113195D01*
X759867Y114250D01*
X759320Y115197D01*
X758548Y115969D01*
X757602Y116515D01*
X756546Y116798D01*
D02*
G37*
G36*
X696546D02*
X695454D01*
X694398Y116515D01*
X693452Y115969D01*
X692680Y115197D01*
X692133Y114250D01*
X691850Y113195D01*
Y112102D01*
X692133Y111047D01*
X692680Y110101D01*
X693452Y109328D01*
X694398Y108782D01*
X695454Y108499D01*
X696546D01*
X697602Y108782D01*
X698548Y109328D01*
X699321Y110101D01*
X699867Y111047D01*
X700150Y112102D01*
Y113195D01*
X699867Y114250D01*
X699321Y115197D01*
X698548Y115969D01*
X697602Y116515D01*
X696546Y116798D01*
D02*
G37*
G36*
X208308Y148638D02*
X207440D01*
X206639Y148306D01*
X206025Y147692D01*
X205693Y146890D01*
Y146023D01*
X206025Y145221D01*
X206345Y144902D01*
Y129947D01*
X206461Y129362D01*
X206793Y128866D01*
X215954Y119705D01*
X215746Y119346D01*
X215406Y118074D01*
Y116758D01*
X215746Y115486D01*
X216405Y114346D01*
X217335Y113415D01*
X218476Y112757D01*
X219747Y112416D01*
X221064D01*
X222335Y112757D01*
X223476Y113415D01*
X224407Y114346D01*
X225065Y115486D01*
X225172Y115886D01*
X252227D01*
X252812Y116003D01*
X253309Y116334D01*
X255425Y118451D01*
X319648D01*
X321181Y116918D01*
X321677Y116586D01*
X322263Y116470D01*
X323180D01*
X323309Y115987D01*
X323279Y115969D01*
X322506Y115197D01*
X321960Y114250D01*
X321677Y113195D01*
Y112102D01*
X321960Y111047D01*
X322506Y110101D01*
X323279Y109328D01*
X324225Y108782D01*
X325280Y108499D01*
X326373D01*
X327429Y108782D01*
X327493Y108819D01*
X339756Y96556D01*
X340252Y96225D01*
X340838Y96108D01*
X382711D01*
X382918Y95608D01*
X382506Y95196D01*
X381960Y94250D01*
X381677Y93195D01*
Y92102D01*
X381960Y91047D01*
X382506Y90101D01*
X383279Y89328D01*
X384225Y88782D01*
X385280Y88499D01*
X386373D01*
X387428Y88782D01*
X388375Y89328D01*
X389147Y90101D01*
X389694Y91047D01*
X389976Y92102D01*
Y93195D01*
X389694Y94250D01*
X389147Y95196D01*
X388735Y95608D01*
X388942Y96108D01*
X408024D01*
X408333Y95573D01*
X408959Y94947D01*
X409726Y94505D01*
X410581Y94276D01*
X411466D01*
X412321Y94505D01*
X413088Y94947D01*
X413714Y95573D01*
X414157Y96340D01*
X414386Y97195D01*
Y98080D01*
X414157Y98936D01*
X413714Y99702D01*
X413088Y100328D01*
X412321Y100771D01*
X411466Y101000D01*
X410581D01*
X409726Y100771D01*
X408959Y100328D01*
X408333Y99702D01*
X408024Y99167D01*
X388921D01*
X388714Y99667D01*
X389147Y100101D01*
X389694Y101047D01*
X389976Y102102D01*
Y103195D01*
X389694Y104250D01*
X389147Y105196D01*
X388375Y105969D01*
X387428Y106515D01*
X386373Y106798D01*
X385280D01*
X384225Y106515D01*
X383279Y105969D01*
X382506Y105196D01*
X381960Y104250D01*
X381677Y103195D01*
Y102102D01*
X381960Y101047D01*
X382506Y100101D01*
X382940Y99667D01*
X382733Y99167D01*
X341471D01*
X329656Y110982D01*
X329694Y111047D01*
X329976Y112102D01*
Y113195D01*
X329694Y114250D01*
X329147Y115197D01*
X328375Y115969D01*
X328344Y115987D01*
X328474Y116470D01*
X383180D01*
X383309Y115987D01*
X383279Y115969D01*
X382506Y115197D01*
X381960Y114250D01*
X381677Y113195D01*
Y112102D01*
X381960Y111047D01*
X382506Y110101D01*
X383279Y109328D01*
X384225Y108782D01*
X385280Y108499D01*
X386373D01*
X387428Y108782D01*
X388375Y109328D01*
X389147Y110101D01*
X389694Y111047D01*
X389976Y112102D01*
Y113195D01*
X389694Y114250D01*
X389147Y115197D01*
X388375Y115969D01*
X388344Y115987D01*
X388474Y116470D01*
X437099D01*
X437685Y116586D01*
X438181Y116918D01*
X442537Y121274D01*
X499772D01*
X500357Y121390D01*
X500853Y121722D01*
X513171Y134039D01*
X513623D01*
X514425Y134371D01*
X515038Y134985D01*
X515370Y135787D01*
Y136654D01*
X515038Y137456D01*
X514425Y138069D01*
X513623Y138402D01*
X512755D01*
X511953Y138069D01*
X511340Y137456D01*
X511008Y136654D01*
Y136202D01*
X499138Y124332D01*
X441904D01*
X441318Y124216D01*
X440822Y123885D01*
X436466Y119528D01*
X389228D01*
X389037Y119990D01*
X389147Y120101D01*
X389694Y121047D01*
X389976Y122102D01*
Y123195D01*
X389694Y124250D01*
X389147Y125197D01*
X388375Y125969D01*
X387428Y126515D01*
X386373Y126798D01*
X385280D01*
X384225Y126515D01*
X383279Y125969D01*
X382506Y125197D01*
X381960Y124250D01*
X381677Y123195D01*
Y122102D01*
X381960Y121047D01*
X382506Y120101D01*
X382617Y119990D01*
X382425Y119528D01*
X329228D01*
X329037Y119990D01*
X329147Y120101D01*
X329694Y121047D01*
X329976Y122102D01*
Y123195D01*
X329694Y124250D01*
X329147Y125197D01*
X328375Y125969D01*
X327429Y126515D01*
X326373Y126798D01*
X325280D01*
X324225Y126515D01*
X323279Y125969D01*
X322506Y125197D01*
X321960Y124250D01*
X321677Y123195D01*
Y122102D01*
X321914Y121217D01*
X321466Y120958D01*
X321363Y121061D01*
X320867Y121393D01*
X320282Y121509D01*
X254791D01*
X254206Y121393D01*
X253710Y121061D01*
X251594Y118945D01*
X225172D01*
X225065Y119346D01*
X224407Y120486D01*
X223476Y121417D01*
X222335Y122075D01*
X221064Y122416D01*
X219747D01*
X218476Y122075D01*
X218116Y121868D01*
X209403Y130581D01*
Y144902D01*
X209723Y145221D01*
X210055Y146023D01*
Y146890D01*
X209723Y147692D01*
X209109Y148306D01*
X208308Y148638D01*
D02*
G37*
G36*
X545140Y120500D02*
X543860D01*
X542604Y120250D01*
X541421Y119760D01*
X540356Y119049D01*
X539451Y118143D01*
X538740Y117079D01*
X538250Y115896D01*
X538000Y114640D01*
Y113360D01*
X538250Y112104D01*
X538740Y110921D01*
X539451Y109856D01*
X540356Y108951D01*
X541421Y108240D01*
X542604Y107750D01*
X543860Y107500D01*
X545140D01*
X546396Y107750D01*
X547579Y108240D01*
X548643Y108951D01*
X549549Y109856D01*
X550260Y110921D01*
X550750Y112104D01*
X551000Y113360D01*
Y114640D01*
X550750Y115896D01*
X550260Y117079D01*
X549549Y118143D01*
X548643Y119049D01*
X547579Y119760D01*
X546396Y120250D01*
X545140Y120500D01*
D02*
G37*
G36*
X526640D02*
X525360D01*
X524104Y120250D01*
X522921Y119760D01*
X521856Y119049D01*
X520951Y118143D01*
X520240Y117079D01*
X519750Y115896D01*
X519500Y114640D01*
Y113360D01*
X519750Y112104D01*
X520240Y110921D01*
X520951Y109856D01*
X521856Y108951D01*
X522921Y108240D01*
X524104Y107750D01*
X525360Y107500D01*
X526640D01*
X527896Y107750D01*
X529079Y108240D01*
X530143Y108951D01*
X531049Y109856D01*
X531760Y110921D01*
X532250Y112104D01*
X532500Y113360D01*
Y114640D01*
X532250Y115896D01*
X531760Y117079D01*
X531049Y118143D01*
X530143Y119049D01*
X529079Y119760D01*
X527896Y120250D01*
X526640Y120500D01*
D02*
G37*
G36*
X508140D02*
X506860D01*
X505604Y120250D01*
X504421Y119760D01*
X503357Y119049D01*
X502451Y118143D01*
X501740Y117079D01*
X501250Y115896D01*
X501000Y114640D01*
Y113360D01*
X501250Y112104D01*
X501740Y110921D01*
X502451Y109856D01*
X503357Y108951D01*
X504421Y108240D01*
X505604Y107750D01*
X506860Y107500D01*
X508140D01*
X509396Y107750D01*
X510579Y108240D01*
X511644Y108951D01*
X512549Y109856D01*
X513260Y110921D01*
X513750Y112104D01*
X514000Y113360D01*
Y114640D01*
X513750Y115896D01*
X513260Y117079D01*
X512549Y118143D01*
X511644Y119049D01*
X510579Y119760D01*
X509396Y120250D01*
X508140Y120500D01*
D02*
G37*
G36*
X806958Y115609D02*
X805641D01*
X804369Y115269D01*
X803229Y114610D01*
X802298Y113680D01*
X801640Y112539D01*
X801299Y111268D01*
Y109951D01*
X801640Y108679D01*
X802298Y107539D01*
X803229Y106608D01*
X804369Y105950D01*
X805641Y105609D01*
X806958D01*
X808229Y105950D01*
X809369Y106608D01*
X810300Y107539D01*
X810958Y108679D01*
X811299Y109951D01*
Y111268D01*
X810958Y112539D01*
X810300Y113680D01*
X809369Y114610D01*
X808229Y115269D01*
X806958Y115609D01*
D02*
G37*
G36*
X411466Y108480D02*
X410581D01*
X409726Y108251D01*
X408959Y107808D01*
X408333Y107183D01*
X407891Y106416D01*
X407661Y105561D01*
Y104675D01*
X407891Y103820D01*
X408333Y103054D01*
X408959Y102428D01*
X409726Y101985D01*
X410581Y101756D01*
X411466D01*
X412321Y101985D01*
X413088Y102428D01*
X413714Y103054D01*
X414157Y103820D01*
X414386Y104675D01*
Y105561D01*
X414157Y106416D01*
X413714Y107183D01*
X413088Y107808D01*
X412321Y108251D01*
X411466Y108480D01*
D02*
G37*
G36*
X786663Y107693D02*
X785778D01*
X784923Y107464D01*
X784156Y107021D01*
X783530Y106395D01*
X783087Y105629D01*
X782858Y104773D01*
Y103888D01*
X783087Y103033D01*
X783530Y102266D01*
X784156Y101640D01*
X784923Y101198D01*
X785778Y100969D01*
X786663D01*
X787518Y101198D01*
X788285Y101640D01*
X788911Y102266D01*
X789354Y103033D01*
X789583Y103888D01*
Y104773D01*
X789354Y105629D01*
X788911Y106395D01*
X788285Y107021D01*
X787518Y107464D01*
X786663Y107693D01*
D02*
G37*
G36*
X756546Y106798D02*
X755454D01*
X754398Y106515D01*
X753452Y105969D01*
X752679Y105196D01*
X752133Y104250D01*
X751850Y103195D01*
Y102102D01*
X752133Y101047D01*
X752679Y100101D01*
X753452Y99328D01*
X754398Y98782D01*
X755454Y98499D01*
X756546D01*
X757602Y98782D01*
X758548Y99328D01*
X759320Y100101D01*
X759867Y101047D01*
X760150Y102102D01*
Y103195D01*
X759867Y104250D01*
X759320Y105196D01*
X758548Y105969D01*
X757602Y106515D01*
X756546Y106798D01*
D02*
G37*
G36*
X696546D02*
X695454D01*
X694398Y106515D01*
X693452Y105969D01*
X692680Y105196D01*
X692133Y104250D01*
X691850Y103195D01*
Y102102D01*
X692133Y101047D01*
X692680Y100101D01*
X693452Y99328D01*
X694398Y98782D01*
X695454Y98499D01*
X696546D01*
X697602Y98782D01*
X698548Y99328D01*
X699321Y100101D01*
X699867Y101047D01*
X700150Y102102D01*
Y103195D01*
X699867Y104250D01*
X699321Y105196D01*
X698548Y105969D01*
X697602Y106515D01*
X696546Y106798D01*
D02*
G37*
G36*
X326373D02*
X325280D01*
X324225Y106515D01*
X323279Y105969D01*
X322506Y105196D01*
X321960Y104250D01*
X321677Y103195D01*
Y102102D01*
X321960Y101047D01*
X322506Y100101D01*
X323279Y99328D01*
X324225Y98782D01*
X325280Y98499D01*
X326373D01*
X327429Y98782D01*
X328375Y99328D01*
X329147Y100101D01*
X329694Y101047D01*
X329976Y102102D01*
Y103195D01*
X329694Y104250D01*
X329147Y105196D01*
X328375Y105969D01*
X327429Y106515D01*
X326373Y106798D01*
D02*
G37*
G36*
X283099Y105680D02*
X281782D01*
X280511Y105339D01*
X279370Y104681D01*
X278440Y103750D01*
X277781Y102610D01*
X277441Y101338D01*
Y100022D01*
X277781Y98750D01*
X278440Y97610D01*
X279370Y96679D01*
X280511Y96021D01*
X281782Y95680D01*
X283099D01*
X284370Y96021D01*
X285511Y96679D01*
X286442Y97610D01*
X287100Y98750D01*
X287441Y100022D01*
Y101338D01*
X287100Y102610D01*
X286442Y103750D01*
X285511Y104681D01*
X284370Y105339D01*
X283099Y105680D01*
D02*
G37*
G36*
X756546Y96798D02*
X755454D01*
X754398Y96515D01*
X753452Y95969D01*
X752679Y95196D01*
X752133Y94250D01*
X751850Y93195D01*
Y92102D01*
X752133Y91047D01*
X752679Y90101D01*
X753452Y89328D01*
X754398Y88782D01*
X755454Y88499D01*
X756546D01*
X757602Y88782D01*
X758548Y89328D01*
X759320Y90101D01*
X759867Y91047D01*
X760150Y92102D01*
Y93195D01*
X759867Y94250D01*
X759320Y95196D01*
X758548Y95969D01*
X757602Y96515D01*
X756546Y96798D01*
D02*
G37*
G36*
X672096Y119110D02*
X671211D01*
X670356Y118881D01*
X669589Y118438D01*
X668963Y117813D01*
X668520Y117046D01*
X668291Y116191D01*
Y115305D01*
X668520Y114450D01*
X668963Y113684D01*
X669589Y113058D01*
X670248Y112677D01*
X670301Y112439D01*
Y112364D01*
X670248Y112126D01*
X669589Y111746D01*
X668963Y111120D01*
X668520Y110353D01*
X668291Y109498D01*
Y108613D01*
X668520Y107757D01*
X668963Y106991D01*
X669589Y106365D01*
X670356Y105922D01*
X670940Y105766D01*
X670953Y105697D01*
X671285Y105201D01*
X692171Y84315D01*
X692133Y84250D01*
X691850Y83195D01*
Y82102D01*
X692133Y81047D01*
X692680Y80101D01*
X693452Y79328D01*
X694398Y78782D01*
X695454Y78499D01*
X696546D01*
X697602Y78782D01*
X698548Y79328D01*
X699321Y80101D01*
X699867Y81047D01*
X700150Y82102D01*
Y83195D01*
X699867Y84250D01*
X699321Y85197D01*
X698548Y85969D01*
X697602Y86515D01*
X696546Y86798D01*
X695454D01*
X694398Y86515D01*
X694334Y86478D01*
X674082Y106729D01*
X674344Y106991D01*
X674787Y107757D01*
X675016Y108613D01*
Y109498D01*
X674787Y110353D01*
X674765Y110390D01*
X675165Y110697D01*
X692023Y93839D01*
X691850Y93195D01*
Y92102D01*
X692133Y91047D01*
X692680Y90101D01*
X693452Y89328D01*
X694398Y88782D01*
X695454Y88499D01*
X696546D01*
X697602Y88782D01*
X698548Y89328D01*
X699321Y90101D01*
X699867Y91047D01*
X700150Y92102D01*
Y93195D01*
X699867Y94250D01*
X699321Y95196D01*
X698548Y95969D01*
X697602Y96515D01*
X696546Y96798D01*
X695454D01*
X694398Y96515D01*
X693938Y96250D01*
X674988Y115200D01*
X675016Y115305D01*
Y116191D01*
X674787Y117046D01*
X674344Y117813D01*
X673718Y118438D01*
X672951Y118881D01*
X672096Y119110D01*
D02*
G37*
G36*
X326373Y96798D02*
X325280D01*
X324225Y96515D01*
X323279Y95969D01*
X322506Y95196D01*
X321960Y94250D01*
X321677Y93195D01*
Y92102D01*
X321960Y91047D01*
X322506Y90101D01*
X323279Y89328D01*
X324225Y88782D01*
X325280Y88499D01*
X326373D01*
X327429Y88782D01*
X328375Y89328D01*
X329147Y90101D01*
X329694Y91047D01*
X329976Y92102D01*
Y93195D01*
X329694Y94250D01*
X329147Y95196D01*
X328375Y95969D01*
X327429Y96515D01*
X326373Y96798D01*
D02*
G37*
G36*
X786663Y93913D02*
X785778D01*
X784923Y93684D01*
X784156Y93242D01*
X783530Y92616D01*
X783087Y91849D01*
X782858Y90994D01*
Y90109D01*
X783087Y89253D01*
X783530Y88487D01*
X784156Y87861D01*
X784923Y87418D01*
X785778Y87189D01*
X786663D01*
X787518Y87418D01*
X788285Y87861D01*
X788911Y88487D01*
X789354Y89253D01*
X789583Y90109D01*
Y90994D01*
X789354Y91849D01*
X788911Y92616D01*
X788285Y93242D01*
X787518Y93684D01*
X786663Y93913D01*
D02*
G37*
G36*
X756546Y86798D02*
X755454D01*
X754398Y86515D01*
X753452Y85969D01*
X752679Y85197D01*
X752133Y84250D01*
X751850Y83195D01*
Y82102D01*
X752133Y81047D01*
X752679Y80101D01*
X753452Y79328D01*
X754398Y78782D01*
X755454Y78499D01*
X756546D01*
X757602Y78782D01*
X758548Y79328D01*
X759320Y80101D01*
X759867Y81047D01*
X760150Y82102D01*
Y83195D01*
X759867Y84250D01*
X759320Y85197D01*
X758548Y85969D01*
X757602Y86515D01*
X756546Y86798D01*
D02*
G37*
G36*
X386373D02*
X385280D01*
X384225Y86515D01*
X383279Y85969D01*
X382506Y85197D01*
X381960Y84250D01*
X381677Y83195D01*
Y82102D01*
X381960Y81047D01*
X382506Y80101D01*
X383279Y79328D01*
X384225Y78782D01*
X385280Y78499D01*
X386373D01*
X387428Y78782D01*
X388375Y79328D01*
X389147Y80101D01*
X389694Y81047D01*
X389976Y82102D01*
Y83195D01*
X389694Y84250D01*
X389147Y85197D01*
X388375Y85969D01*
X387428Y86515D01*
X386373Y86798D01*
D02*
G37*
G36*
X326373D02*
X325280D01*
X324225Y86515D01*
X323279Y85969D01*
X322506Y85197D01*
X321960Y84250D01*
X321677Y83195D01*
Y82102D01*
X321960Y81047D01*
X322506Y80101D01*
X323279Y79328D01*
X324225Y78782D01*
X325280Y78499D01*
X326373D01*
X327429Y78782D01*
X328375Y79328D01*
X329147Y80101D01*
X329694Y81047D01*
X329976Y82102D01*
Y83195D01*
X329694Y84250D01*
X329147Y85197D01*
X328375Y85969D01*
X327429Y86515D01*
X326373Y86798D01*
D02*
G37*
G36*
X507914Y85252D02*
X507047D01*
X506245Y84920D01*
X505631Y84306D01*
X505299Y83505D01*
Y82637D01*
X505631Y81835D01*
X505743Y81724D01*
X505723Y81036D01*
X505416Y80729D01*
X505085Y79928D01*
Y79060D01*
X505416Y78259D01*
X506030Y77645D01*
X506832Y77313D01*
X507699D01*
X508501Y77645D01*
X509115Y78259D01*
X509447Y79060D01*
Y79928D01*
X509115Y80729D01*
X509003Y80841D01*
X509023Y81529D01*
X509329Y81835D01*
X509661Y82637D01*
Y83505D01*
X509329Y84306D01*
X508716Y84920D01*
X507914Y85252D01*
D02*
G37*
G36*
X386373Y76798D02*
X385280D01*
X384225Y76515D01*
X383279Y75969D01*
X382506Y75196D01*
X381960Y74250D01*
X381677Y73195D01*
Y72102D01*
X381960Y71047D01*
X382506Y70101D01*
X382861Y69746D01*
X382654Y69246D01*
X375965D01*
X375645Y69566D01*
X374843Y69898D01*
X373976D01*
X373174Y69566D01*
X372560Y68952D01*
X372228Y68150D01*
Y67283D01*
X372560Y66481D01*
X373174Y65868D01*
X373976Y65535D01*
X374843D01*
X375645Y65868D01*
X375965Y66187D01*
X382790D01*
X382997Y65687D01*
X382506Y65197D01*
X381960Y64250D01*
X381677Y63195D01*
Y62102D01*
X381960Y61047D01*
X382506Y60101D01*
X383279Y59328D01*
X384225Y58782D01*
X385280Y58499D01*
X386373D01*
X387428Y58782D01*
X388375Y59328D01*
X389147Y60101D01*
X389694Y61047D01*
X389976Y62102D01*
Y63059D01*
X390426Y63317D01*
X392104Y61639D01*
X392600Y61308D01*
X393185Y61191D01*
X512036D01*
X512314Y60775D01*
X512189Y60473D01*
Y59605D01*
X512521Y58804D01*
X513135Y58190D01*
X513936Y57858D01*
X514804D01*
X515606Y58190D01*
X516219Y58804D01*
X516551Y59605D01*
Y60359D01*
X551328D01*
X551647Y60041D01*
X552143Y59709D01*
X552728Y59593D01*
X554949D01*
X555534Y59709D01*
X556031Y60041D01*
X556665Y60675D01*
X582035D01*
X582620Y60792D01*
X583117Y61123D01*
X584864Y62871D01*
X584918Y62835D01*
X585504Y62719D01*
X587725D01*
X588310Y62835D01*
X588806Y63167D01*
X589071Y63431D01*
X590063D01*
X590328Y63167D01*
X590824Y62835D01*
X591409Y62719D01*
X593630D01*
X594215Y62835D01*
X594712Y63167D01*
X594976Y63431D01*
X604744D01*
X605064Y63112D01*
X605865Y62779D01*
X606733D01*
X607535Y63112D01*
X608148Y63725D01*
X608480Y64527D01*
Y65395D01*
X608148Y66196D01*
X607535Y66810D01*
X606733Y67142D01*
X605865D01*
X605064Y66810D01*
X604744Y66490D01*
X594704D01*
X594701Y66495D01*
Y67363D01*
X594369Y68165D01*
X593755Y68778D01*
X592953Y69110D01*
X592086D01*
X591284Y68778D01*
X590671Y68165D01*
X590339Y67363D01*
Y66495D01*
X590335Y66490D01*
X588799D01*
X588795Y66495D01*
Y67363D01*
X588463Y68165D01*
X587850Y68778D01*
X587048Y69110D01*
X586180D01*
X585379Y68778D01*
X584765Y68165D01*
X584433Y67363D01*
Y66495D01*
X584387Y66410D01*
X584206Y66374D01*
X583710Y66042D01*
X581402Y63734D01*
X556032D01*
X555446Y63618D01*
X554950Y63286D01*
X554316Y62651D01*
X553362D01*
X552790Y63223D01*
X552294Y63555D01*
X551709Y63671D01*
X551123Y63555D01*
X550919Y63418D01*
X516946D01*
X516562Y63802D01*
X516066Y64133D01*
X515481Y64250D01*
X393818D01*
X389270Y68798D01*
X388840Y69086D01*
X388745Y69337D01*
X388701Y69654D01*
X389147Y70101D01*
X389694Y71047D01*
X389976Y72102D01*
Y73195D01*
X389694Y74250D01*
X389147Y75196D01*
X388375Y75969D01*
X387428Y76515D01*
X386373Y76798D01*
D02*
G37*
G36*
X756546D02*
X755454D01*
X754398Y76515D01*
X753452Y75969D01*
X752679Y75196D01*
X752133Y74250D01*
X751850Y73195D01*
Y72102D01*
X752133Y71047D01*
X752679Y70101D01*
X753452Y69328D01*
X754398Y68782D01*
X755454Y68499D01*
X756546D01*
X757602Y68782D01*
X758548Y69328D01*
X759320Y70101D01*
X759867Y71047D01*
X760150Y72102D01*
Y73195D01*
X759867Y74250D01*
X759320Y75196D01*
X758548Y75969D01*
X757602Y76515D01*
X756546Y76798D01*
D02*
G37*
G36*
X696546D02*
X695454D01*
X694398Y76515D01*
X693452Y75969D01*
X692680Y75196D01*
X692133Y74250D01*
X691850Y73195D01*
Y72102D01*
X692133Y71047D01*
X692680Y70101D01*
X693452Y69328D01*
X694398Y68782D01*
X695454Y68499D01*
X696546D01*
X697602Y68782D01*
X698548Y69328D01*
X699321Y70101D01*
X699867Y71047D01*
X700150Y72102D01*
Y73195D01*
X699867Y74250D01*
X699321Y75196D01*
X698548Y75969D01*
X697602Y76515D01*
X696546Y76798D01*
D02*
G37*
G36*
X326373D02*
X325280D01*
X324225Y76515D01*
X323279Y75969D01*
X322506Y75196D01*
X321960Y74250D01*
X321677Y73195D01*
Y72102D01*
X321960Y71047D01*
X322506Y70101D01*
X323279Y69328D01*
X324225Y68782D01*
X325280Y68499D01*
X326373D01*
X327429Y68782D01*
X328375Y69328D01*
X329147Y70101D01*
X329694Y71047D01*
X329976Y72102D01*
Y73195D01*
X329694Y74250D01*
X329147Y75196D01*
X328375Y75969D01*
X327429Y76515D01*
X326373Y76798D01*
D02*
G37*
G36*
X806958Y76260D02*
X805641D01*
X804369Y75919D01*
X803229Y75261D01*
X802298Y74330D01*
X801640Y73190D01*
X801299Y71918D01*
Y70602D01*
X801640Y69330D01*
X802298Y68190D01*
X803229Y67259D01*
X804369Y66601D01*
X805641Y66260D01*
X806958D01*
X808229Y66601D01*
X809369Y67259D01*
X810300Y68190D01*
X810958Y69330D01*
X811299Y70602D01*
Y71918D01*
X810958Y73190D01*
X810300Y74330D01*
X809369Y75261D01*
X808229Y75919D01*
X806958Y76260D01*
D02*
G37*
G36*
X786663Y66354D02*
X785778D01*
X784923Y66125D01*
X784156Y65683D01*
X783530Y65057D01*
X783087Y64290D01*
X782858Y63435D01*
Y62550D01*
X783087Y61694D01*
X783530Y60928D01*
X784156Y60302D01*
X784923Y59859D01*
X785778Y59630D01*
X786663D01*
X787518Y59859D01*
X788285Y60302D01*
X788911Y60928D01*
X789354Y61694D01*
X789583Y62550D01*
Y63435D01*
X789354Y64290D01*
X788911Y65057D01*
X788285Y65683D01*
X787518Y66125D01*
X786663Y66354D01*
D02*
G37*
G36*
X236243Y75916D02*
X234568D01*
X232926Y75589D01*
X231379Y74948D01*
X229987Y74018D01*
X228803Y72834D01*
X227873Y71442D01*
X227232Y69895D01*
X226905Y68253D01*
Y66579D01*
X227232Y64936D01*
X227873Y63389D01*
X228803Y61997D01*
X229987Y60813D01*
X231379Y59883D01*
X232926Y59242D01*
X234568Y58916D01*
X236243D01*
X237885Y59242D01*
X239432Y59883D01*
X240824Y60813D01*
X242008Y61997D01*
X242938Y63389D01*
X243579Y64936D01*
X243905Y66579D01*
Y68253D01*
X243579Y69895D01*
X242938Y71442D01*
X242008Y72834D01*
X240824Y74018D01*
X239432Y74948D01*
X237885Y75589D01*
X236243Y75916D01*
D02*
G37*
G36*
X756546Y66798D02*
X755454D01*
X754398Y66515D01*
X753452Y65969D01*
X752679Y65197D01*
X752133Y64250D01*
X751850Y63195D01*
Y62102D01*
X752133Y61047D01*
X752679Y60101D01*
X753452Y59328D01*
X754398Y58782D01*
X755454Y58499D01*
X756546D01*
X757602Y58782D01*
X758548Y59328D01*
X759320Y60101D01*
X759867Y61047D01*
X760150Y62102D01*
Y63195D01*
X759867Y64250D01*
X759320Y65197D01*
X758548Y65969D01*
X757602Y66515D01*
X756546Y66798D01*
D02*
G37*
G36*
X696546D02*
X695454D01*
X694398Y66515D01*
X693452Y65969D01*
X692680Y65197D01*
X692133Y64250D01*
X691850Y63195D01*
Y62102D01*
X692133Y61047D01*
X692680Y60101D01*
X693452Y59328D01*
X694398Y58782D01*
X695454Y58499D01*
X696546D01*
X697602Y58782D01*
X698548Y59328D01*
X699321Y60101D01*
X699867Y61047D01*
X700150Y62102D01*
Y63195D01*
X699867Y64250D01*
X699321Y65197D01*
X698548Y65969D01*
X697602Y66515D01*
X696546Y66798D01*
D02*
G37*
G36*
X326373D02*
X325280D01*
X324225Y66515D01*
X323279Y65969D01*
X322506Y65197D01*
X321960Y64250D01*
X321677Y63195D01*
Y62102D01*
X321960Y61047D01*
X322506Y60101D01*
X323279Y59328D01*
X324225Y58782D01*
X325280Y58499D01*
X326373D01*
X327429Y58782D01*
X328375Y59328D01*
X329147Y60101D01*
X329694Y61047D01*
X329976Y62102D01*
Y63195D01*
X329694Y64250D01*
X329147Y65197D01*
X328375Y65969D01*
X327429Y66515D01*
X326373Y66798D01*
D02*
G37*
G36*
X283099Y65340D02*
X281782D01*
X280511Y64999D01*
X279370Y64341D01*
X278440Y63410D01*
X277781Y62270D01*
X277441Y60998D01*
Y59682D01*
X277781Y58410D01*
X278440Y57270D01*
X279370Y56339D01*
X280511Y55681D01*
X281782Y55340D01*
X283099D01*
X284370Y55681D01*
X285511Y56339D01*
X286442Y57270D01*
X287100Y58410D01*
X287441Y59682D01*
Y60998D01*
X287100Y62270D01*
X286442Y63410D01*
X285511Y64341D01*
X284370Y64999D01*
X283099Y65340D01*
D02*
G37*
G36*
X633120Y60449D02*
X632234D01*
X631379Y60220D01*
X630613Y59777D01*
X629987Y59151D01*
X629544Y58384D01*
X629315Y57529D01*
Y56644D01*
X629544Y55789D01*
X629987Y55022D01*
X630613Y54396D01*
X631379Y53953D01*
X632234Y53724D01*
X633120D01*
X633975Y53953D01*
X634742Y54396D01*
X635368Y55022D01*
X635810Y55789D01*
X636039Y56644D01*
Y57529D01*
X635810Y58384D01*
X635368Y59151D01*
X634742Y59777D01*
X633975Y60220D01*
X633120Y60449D01*
D02*
G37*
G36*
X806958Y62460D02*
X805641D01*
X804369Y62119D01*
X803229Y61461D01*
X802298Y60530D01*
X801640Y59390D01*
X801299Y58118D01*
Y56802D01*
X801640Y55530D01*
X802298Y54390D01*
X803229Y53459D01*
X804369Y52801D01*
X805641Y52460D01*
X806958D01*
X808229Y52801D01*
X809369Y53459D01*
X810300Y54390D01*
X810958Y55530D01*
X811299Y56802D01*
Y58118D01*
X810958Y59390D01*
X810300Y60530D01*
X809369Y61461D01*
X808229Y62119D01*
X806958Y62460D01*
D02*
G37*
G36*
X786663Y56118D02*
X785778D01*
X784923Y55889D01*
X784156Y55446D01*
X783530Y54820D01*
X783087Y54054D01*
X782858Y53199D01*
Y52313D01*
X783087Y51458D01*
X783530Y50691D01*
X784156Y50065D01*
X784923Y49623D01*
X785778Y49394D01*
X786663D01*
X787518Y49623D01*
X788285Y50065D01*
X788911Y50691D01*
X789354Y51458D01*
X789583Y52313D01*
Y53199D01*
X789354Y54054D01*
X788911Y54820D01*
X788285Y55446D01*
X787518Y55889D01*
X786663Y56118D01*
D02*
G37*
G36*
X639813D02*
X638927D01*
X638072Y55889D01*
X637306Y55446D01*
X636680Y54820D01*
X636237Y54054D01*
X636008Y53199D01*
Y52313D01*
X636237Y51458D01*
X636680Y50691D01*
X637306Y50065D01*
X638072Y49623D01*
X638927Y49394D01*
X639813D01*
X640668Y49623D01*
X641434Y50065D01*
X642061Y50691D01*
X642503Y51458D01*
X642732Y52313D01*
Y53199D01*
X642503Y54054D01*
X642061Y54820D01*
X641434Y55446D01*
X640668Y55889D01*
X639813Y56118D01*
D02*
G37*
G36*
X166243Y65916D02*
X164568D01*
X162926Y65589D01*
X161379Y64948D01*
X159987Y64018D01*
X158803Y62834D01*
X157873Y61442D01*
X157232Y59895D01*
X156905Y58253D01*
Y56579D01*
X157232Y54936D01*
X157873Y53390D01*
X158803Y51997D01*
X159987Y50813D01*
X161379Y49883D01*
X162926Y49242D01*
X164568Y48916D01*
X166243D01*
X167885Y49242D01*
X169432Y49883D01*
X170824Y50813D01*
X172008Y51997D01*
X172938Y53390D01*
X173579Y54936D01*
X173906Y56579D01*
Y58253D01*
X173579Y59895D01*
X172938Y61442D01*
X172008Y62834D01*
X170824Y64018D01*
X169432Y64948D01*
X167885Y65589D01*
X166243Y65916D01*
D02*
G37*
G36*
X756546Y56798D02*
X755454D01*
X754398Y56515D01*
X753452Y55969D01*
X752679Y55196D01*
X752133Y54250D01*
X751850Y53195D01*
Y52102D01*
X752133Y51047D01*
X752679Y50101D01*
X753452Y49328D01*
X754398Y48782D01*
X755454Y48499D01*
X756546D01*
X757602Y48782D01*
X758548Y49328D01*
X759320Y50101D01*
X759867Y51047D01*
X760150Y52102D01*
Y53195D01*
X759867Y54250D01*
X759320Y55196D01*
X758548Y55969D01*
X757602Y56515D01*
X756546Y56798D01*
D02*
G37*
G36*
X696546D02*
X695454D01*
X694398Y56515D01*
X693452Y55969D01*
X692680Y55196D01*
X692133Y54250D01*
X691850Y53195D01*
Y52102D01*
X692133Y51047D01*
X692680Y50101D01*
X693452Y49328D01*
X694398Y48782D01*
X695454Y48499D01*
X696546D01*
X697602Y48782D01*
X698548Y49328D01*
X699321Y50101D01*
X699867Y51047D01*
X700150Y52102D01*
Y53195D01*
X699867Y54250D01*
X699321Y55196D01*
X698548Y55969D01*
X697602Y56515D01*
X696546Y56798D01*
D02*
G37*
G36*
X386373D02*
X385280D01*
X384225Y56515D01*
X383279Y55969D01*
X382506Y55196D01*
X381960Y54250D01*
X381677Y53195D01*
Y52102D01*
X381960Y51047D01*
X382506Y50101D01*
X383279Y49328D01*
X384225Y48782D01*
X385280Y48499D01*
X386373D01*
X387428Y48782D01*
X388375Y49328D01*
X389147Y50101D01*
X389694Y51047D01*
X389976Y52102D01*
Y53195D01*
X389694Y54250D01*
X389147Y55196D01*
X388375Y55969D01*
X387428Y56515D01*
X386373Y56798D01*
D02*
G37*
G36*
X326373D02*
X325280D01*
X324225Y56515D01*
X323279Y55969D01*
X322506Y55196D01*
X321960Y54250D01*
X321677Y53195D01*
Y52102D01*
X321960Y51047D01*
X322506Y50101D01*
X323279Y49328D01*
X324225Y48782D01*
X325280Y48499D01*
X326373D01*
X327429Y48782D01*
X328375Y49328D01*
X329147Y50101D01*
X329694Y51047D01*
X329976Y52102D01*
Y53195D01*
X329694Y54250D01*
X329147Y55196D01*
X328375Y55969D01*
X327429Y56515D01*
X326373Y56798D01*
D02*
G37*
G36*
X618941Y47240D02*
X617823D01*
X616742Y46951D01*
X615773Y46391D01*
X614983Y45601D01*
X614423Y44632D01*
X614134Y43551D01*
Y42433D01*
X614423Y41352D01*
X614983Y40384D01*
X615773Y39593D01*
X616742Y39034D01*
X617823Y38744D01*
X618941D01*
X620022Y39034D01*
X620990Y39593D01*
X621781Y40384D01*
X622340Y41352D01*
X622630Y42433D01*
Y43551D01*
X622340Y44632D01*
X621781Y45601D01*
X620990Y46391D01*
X620022Y46951D01*
X618941Y47240D01*
D02*
G37*
G36*
X608036D02*
X606917D01*
X605837Y46951D01*
X604868Y46391D01*
X604077Y45601D01*
X603518Y44632D01*
X603228Y43551D01*
Y42433D01*
X603518Y41352D01*
X604077Y40384D01*
X604868Y39593D01*
X605837Y39034D01*
X606917Y38744D01*
X608036D01*
X609116Y39034D01*
X610085Y39593D01*
X610876Y40384D01*
X611435Y41352D01*
X611724Y42433D01*
Y43551D01*
X611435Y44632D01*
X610876Y45601D01*
X610085Y46391D01*
X609116Y46951D01*
X608036Y47240D01*
D02*
G37*
G36*
X597130D02*
X596012D01*
X594931Y46951D01*
X593962Y46391D01*
X593172Y45601D01*
X592612Y44632D01*
X592323Y43551D01*
Y42433D01*
X592612Y41352D01*
X593172Y40384D01*
X593962Y39593D01*
X594931Y39034D01*
X596012Y38744D01*
X597130D01*
X598210Y39034D01*
X599179Y39593D01*
X599970Y40384D01*
X600529Y41352D01*
X600819Y42433D01*
Y43551D01*
X600529Y44632D01*
X599970Y45601D01*
X599179Y46391D01*
X598210Y46951D01*
X597130Y47240D01*
D02*
G37*
G36*
X489020D02*
X487901D01*
X486821Y46951D01*
X485852Y46391D01*
X485061Y45601D01*
X484502Y44632D01*
X484213Y43551D01*
Y42433D01*
X484502Y41352D01*
X485061Y40384D01*
X485852Y39593D01*
X486821Y39034D01*
X487901Y38744D01*
X489020D01*
X490100Y39034D01*
X491069Y39593D01*
X491860Y40384D01*
X492419Y41352D01*
X492709Y42433D01*
Y43551D01*
X492419Y44632D01*
X491860Y45601D01*
X491069Y46391D01*
X490100Y46951D01*
X489020Y47240D01*
D02*
G37*
G36*
X478114D02*
X476996D01*
X475915Y46951D01*
X474947Y46391D01*
X474156Y45601D01*
X473597Y44632D01*
X473307Y43551D01*
Y42433D01*
X473597Y41352D01*
X474156Y40384D01*
X474947Y39593D01*
X475915Y39034D01*
X476996Y38744D01*
X478114D01*
X479195Y39034D01*
X480163Y39593D01*
X480954Y40384D01*
X481514Y41352D01*
X481803Y42433D01*
Y43551D01*
X481514Y44632D01*
X480954Y45601D01*
X480163Y46391D01*
X479195Y46951D01*
X478114Y47240D01*
D02*
G37*
G36*
X467209D02*
X466090D01*
X465010Y46951D01*
X464041Y46391D01*
X463250Y45601D01*
X462691Y44632D01*
X462402Y43551D01*
Y42433D01*
X462691Y41352D01*
X463250Y40384D01*
X464041Y39593D01*
X465010Y39034D01*
X466090Y38744D01*
X467209D01*
X468289Y39034D01*
X469258Y39593D01*
X470049Y40384D01*
X470608Y41352D01*
X470898Y42433D01*
Y43551D01*
X470608Y44632D01*
X470049Y45601D01*
X469258Y46391D01*
X468289Y46951D01*
X467209Y47240D01*
D02*
G37*
G36*
X456303D02*
X455185D01*
X454104Y46951D01*
X453136Y46391D01*
X452345Y45601D01*
X451786Y44632D01*
X451496Y43551D01*
Y42433D01*
X451786Y41352D01*
X452345Y40384D01*
X453136Y39593D01*
X454104Y39034D01*
X455185Y38744D01*
X456303D01*
X457384Y39034D01*
X458353Y39593D01*
X459143Y40384D01*
X459703Y41352D01*
X459992Y42433D01*
Y43551D01*
X459703Y44632D01*
X459143Y45601D01*
X458353Y46391D01*
X457384Y46951D01*
X456303Y47240D01*
D02*
G37*
G36*
X630911Y47263D02*
X627663D01*
X626978Y47173D01*
X626340Y46908D01*
X625792Y46488D01*
X625371Y45939D01*
X625107Y45301D01*
X625017Y44616D01*
Y41368D01*
X625107Y40683D01*
X625371Y40045D01*
X625792Y39497D01*
X626340Y39076D01*
X626978Y38812D01*
X627663Y38721D01*
X630911D01*
X631596Y38812D01*
X632235Y39076D01*
X632783Y39497D01*
X633204Y40045D01*
X633468Y40683D01*
X633558Y41368D01*
Y44616D01*
X633468Y45301D01*
X633204Y45939D01*
X632783Y46488D01*
X632235Y46908D01*
X631596Y47173D01*
X630911Y47263D01*
D02*
G37*
G36*
X500990D02*
X497742D01*
X497057Y47173D01*
X496419Y46908D01*
X495871Y46488D01*
X495450Y45939D01*
X495186Y45301D01*
X495095Y44616D01*
Y41368D01*
X495186Y40683D01*
X495450Y40045D01*
X495871Y39497D01*
X496419Y39076D01*
X497057Y38812D01*
X497742Y38721D01*
X500990D01*
X501675Y38812D01*
X502314Y39076D01*
X502862Y39497D01*
X503282Y40045D01*
X503547Y40683D01*
X503637Y41368D01*
Y44616D01*
X503547Y45301D01*
X503282Y45939D01*
X502862Y46488D01*
X502314Y46908D01*
X501675Y47173D01*
X500990Y47263D01*
D02*
G37*
G36*
X756546Y46798D02*
X755454D01*
X754398Y46515D01*
X753452Y45969D01*
X752679Y45196D01*
X752133Y44250D01*
X751850Y43195D01*
Y42102D01*
X752133Y41047D01*
X752679Y40101D01*
X753452Y39328D01*
X754398Y38782D01*
X755454Y38499D01*
X756546D01*
X757602Y38782D01*
X758548Y39328D01*
X759320Y40101D01*
X759867Y41047D01*
X760150Y42102D01*
Y43195D01*
X759867Y44250D01*
X759320Y45196D01*
X758548Y45969D01*
X757602Y46515D01*
X756546Y46798D01*
D02*
G37*
G36*
X696546D02*
X695454D01*
X694398Y46515D01*
X693452Y45969D01*
X692680Y45196D01*
X692133Y44250D01*
X691850Y43195D01*
Y42102D01*
X692133Y41047D01*
X692680Y40101D01*
X693452Y39328D01*
X694398Y38782D01*
X695454Y38499D01*
X696546D01*
X697602Y38782D01*
X698548Y39328D01*
X699321Y40101D01*
X699867Y41047D01*
X700150Y42102D01*
Y43195D01*
X699867Y44250D01*
X699321Y45196D01*
X698548Y45969D01*
X697602Y46515D01*
X696546Y46798D01*
D02*
G37*
G36*
X386373D02*
X385280D01*
X384225Y46515D01*
X383279Y45969D01*
X382506Y45196D01*
X381960Y44250D01*
X381677Y43195D01*
Y42102D01*
X381960Y41047D01*
X382506Y40101D01*
X383279Y39328D01*
X384225Y38782D01*
X385280Y38499D01*
X386373D01*
X387428Y38782D01*
X388375Y39328D01*
X389147Y40101D01*
X389694Y41047D01*
X389976Y42102D01*
Y43195D01*
X389694Y44250D01*
X389147Y45196D01*
X388375Y45969D01*
X387428Y46515D01*
X386373Y46798D01*
D02*
G37*
G36*
X326373D02*
X325280D01*
X324225Y46515D01*
X323279Y45969D01*
X322506Y45196D01*
X321960Y44250D01*
X321677Y43195D01*
Y42102D01*
X321960Y41047D01*
X322506Y40101D01*
X323279Y39328D01*
X324225Y38782D01*
X325280Y38499D01*
X326373D01*
X327429Y38782D01*
X328375Y39328D01*
X329147Y40101D01*
X329694Y41047D01*
X329976Y42102D01*
Y43195D01*
X329694Y44250D01*
X329147Y45196D01*
X328375Y45969D01*
X327429Y46515D01*
X326373Y46798D01*
D02*
G37*
G36*
X756546Y36798D02*
X755454D01*
X754398Y36515D01*
X753452Y35969D01*
X752679Y35196D01*
X752133Y34250D01*
X751850Y33195D01*
Y32102D01*
X752133Y31047D01*
X752679Y30101D01*
X753452Y29328D01*
X754398Y28782D01*
X755454Y28499D01*
X756546D01*
X757602Y28782D01*
X758548Y29328D01*
X759320Y30101D01*
X759867Y31047D01*
X760150Y32102D01*
Y33195D01*
X759867Y34250D01*
X759320Y35196D01*
X758548Y35969D01*
X757602Y36515D01*
X756546Y36798D01*
D02*
G37*
G36*
X386373D02*
X385280D01*
X384225Y36515D01*
X383279Y35969D01*
X382506Y35196D01*
X381960Y34250D01*
X381677Y33195D01*
Y32102D01*
X381960Y31047D01*
X382506Y30101D01*
X383279Y29328D01*
X384225Y28782D01*
X385280Y28499D01*
X386373D01*
X387428Y28782D01*
X388375Y29328D01*
X389147Y30101D01*
X389694Y31047D01*
X389976Y32102D01*
Y33195D01*
X389694Y34250D01*
X389147Y35196D01*
X388375Y35969D01*
X387428Y36515D01*
X386373Y36798D01*
D02*
G37*
G36*
X624394Y36059D02*
X623275D01*
X622195Y35770D01*
X621226Y35210D01*
X620435Y34419D01*
X619876Y33451D01*
X619587Y32370D01*
Y31252D01*
X619876Y30171D01*
X620435Y29203D01*
X621226Y28412D01*
X622195Y27852D01*
X623275Y27563D01*
X624394D01*
X625474Y27852D01*
X626443Y28412D01*
X627234Y29203D01*
X627793Y30171D01*
X628083Y31252D01*
Y32370D01*
X627793Y33451D01*
X627234Y34419D01*
X626443Y35210D01*
X625474Y35770D01*
X624394Y36059D01*
D02*
G37*
G36*
X613488D02*
X612370D01*
X611290Y35770D01*
X610321Y35210D01*
X609530Y34419D01*
X608971Y33451D01*
X608681Y32370D01*
Y31252D01*
X608971Y30171D01*
X609530Y29203D01*
X610321Y28412D01*
X611290Y27852D01*
X612370Y27563D01*
X613488D01*
X614569Y27852D01*
X615538Y28412D01*
X616328Y29203D01*
X616888Y30171D01*
X617177Y31252D01*
Y32370D01*
X616888Y33451D01*
X616328Y34419D01*
X615538Y35210D01*
X614569Y35770D01*
X613488Y36059D01*
D02*
G37*
G36*
X602583D02*
X601464D01*
X600384Y35770D01*
X599415Y35210D01*
X598624Y34419D01*
X598065Y33451D01*
X597776Y32370D01*
Y31252D01*
X598065Y30171D01*
X598624Y29203D01*
X599415Y28412D01*
X600384Y27852D01*
X601464Y27563D01*
X602583D01*
X603663Y27852D01*
X604632Y28412D01*
X605423Y29203D01*
X605982Y30171D01*
X606272Y31252D01*
Y32370D01*
X605982Y33451D01*
X605423Y34419D01*
X604632Y35210D01*
X603663Y35770D01*
X602583Y36059D01*
D02*
G37*
G36*
X591677D02*
X590559D01*
X589478Y35770D01*
X588510Y35210D01*
X587719Y34419D01*
X587160Y33451D01*
X586870Y32370D01*
Y31252D01*
X587160Y30171D01*
X587719Y29203D01*
X588510Y28412D01*
X589478Y27852D01*
X590559Y27563D01*
X591677D01*
X592758Y27852D01*
X593726Y28412D01*
X594517Y29203D01*
X595077Y30171D01*
X595366Y31252D01*
Y32370D01*
X595077Y33451D01*
X594517Y34419D01*
X593726Y35210D01*
X592758Y35770D01*
X591677Y36059D01*
D02*
G37*
G36*
X494473D02*
X493354D01*
X492274Y35770D01*
X491305Y35210D01*
X490514Y34419D01*
X489955Y33451D01*
X489665Y32370D01*
Y31252D01*
X489955Y30171D01*
X490514Y29203D01*
X491305Y28412D01*
X492274Y27852D01*
X493354Y27563D01*
X494473D01*
X495553Y27852D01*
X496522Y28412D01*
X497313Y29203D01*
X497872Y30171D01*
X498161Y31252D01*
Y32370D01*
X497872Y33451D01*
X497313Y34419D01*
X496522Y35210D01*
X495553Y35770D01*
X494473Y36059D01*
D02*
G37*
G36*
X483567D02*
X482449D01*
X481368Y35770D01*
X480400Y35210D01*
X479609Y34419D01*
X479049Y33451D01*
X478760Y32370D01*
Y31252D01*
X479049Y30171D01*
X479609Y29203D01*
X480400Y28412D01*
X481368Y27852D01*
X482449Y27563D01*
X483567D01*
X484648Y27852D01*
X485616Y28412D01*
X486407Y29203D01*
X486966Y30171D01*
X487256Y31252D01*
Y32370D01*
X486966Y33451D01*
X486407Y34419D01*
X485616Y35210D01*
X484648Y35770D01*
X483567Y36059D01*
D02*
G37*
G36*
X472662D02*
X471543D01*
X470463Y35770D01*
X469494Y35210D01*
X468703Y34419D01*
X468144Y33451D01*
X467854Y32370D01*
Y31252D01*
X468144Y30171D01*
X468703Y29203D01*
X469494Y28412D01*
X470463Y27852D01*
X471543Y27563D01*
X472662D01*
X473742Y27852D01*
X474711Y28412D01*
X475502Y29203D01*
X476061Y30171D01*
X476350Y31252D01*
Y32370D01*
X476061Y33451D01*
X475502Y34419D01*
X474711Y35210D01*
X473742Y35770D01*
X472662Y36059D01*
D02*
G37*
G36*
X461756D02*
X460638D01*
X459557Y35770D01*
X458589Y35210D01*
X457798Y34419D01*
X457238Y33451D01*
X456949Y32370D01*
Y31252D01*
X457238Y30171D01*
X457798Y29203D01*
X458589Y28412D01*
X459557Y27852D01*
X460638Y27563D01*
X461756D01*
X462837Y27852D01*
X463805Y28412D01*
X464596Y29203D01*
X465155Y30171D01*
X465445Y31252D01*
Y32370D01*
X465155Y33451D01*
X464596Y34419D01*
X463805Y35210D01*
X462837Y35770D01*
X461756Y36059D01*
D02*
G37*
G36*
X657511Y47850D02*
X655867D01*
X654242Y47593D01*
X652678Y47085D01*
X651213Y46338D01*
X649882Y45371D01*
X648719Y44208D01*
X647752Y42878D01*
X647006Y41412D01*
X646497Y39848D01*
X646240Y38224D01*
Y36579D01*
X646497Y34955D01*
X647006Y33391D01*
X647752Y31925D01*
X648719Y30595D01*
X649882Y29432D01*
X651213Y28465D01*
X652678Y27718D01*
X654242Y27210D01*
X655867Y26953D01*
X657511D01*
X659136Y27210D01*
X660700Y27718D01*
X662165Y28465D01*
X663496Y29432D01*
X664659Y30595D01*
X665626Y31925D01*
X666372Y33391D01*
X666881Y34955D01*
X667138Y36579D01*
Y38224D01*
X666881Y39848D01*
X666372Y41412D01*
X665626Y42878D01*
X664659Y44208D01*
X663496Y45371D01*
X662165Y46338D01*
X660700Y47085D01*
X659136Y47593D01*
X657511Y47850D01*
D02*
G37*
G36*
X559086D02*
X557441D01*
X555817Y47593D01*
X554253Y47085D01*
X552787Y46338D01*
X551457Y45371D01*
X550294Y44208D01*
X549327Y42878D01*
X548581Y41412D01*
X548072Y39848D01*
X547815Y38224D01*
Y36579D01*
X548072Y34955D01*
X548581Y33391D01*
X549327Y31925D01*
X550294Y30595D01*
X551457Y29432D01*
X552787Y28465D01*
X554253Y27718D01*
X555817Y27210D01*
X557441Y26953D01*
X559086D01*
X560710Y27210D01*
X562275Y27718D01*
X563740Y28465D01*
X565071Y29432D01*
X566234Y30595D01*
X567200Y31925D01*
X567947Y33391D01*
X568455Y34955D01*
X568713Y36579D01*
Y38224D01*
X568455Y39848D01*
X567947Y41412D01*
X567200Y42878D01*
X566234Y44208D01*
X565071Y45371D01*
X563740Y46338D01*
X562275Y47085D01*
X560710Y47593D01*
X559086Y47850D01*
D02*
G37*
G36*
X527590D02*
X525945D01*
X524321Y47593D01*
X522757Y47085D01*
X521291Y46338D01*
X519961Y45371D01*
X518798Y44208D01*
X517831Y42878D01*
X517084Y41412D01*
X516576Y39848D01*
X516319Y38224D01*
Y36579D01*
X516576Y34955D01*
X517084Y33391D01*
X517831Y31925D01*
X518798Y30595D01*
X519961Y29432D01*
X521291Y28465D01*
X522757Y27718D01*
X524321Y27210D01*
X525945Y26953D01*
X527590D01*
X529214Y27210D01*
X530779Y27718D01*
X532244Y28465D01*
X533575Y29432D01*
X534738Y30595D01*
X535704Y31925D01*
X536451Y33391D01*
X536959Y34955D01*
X537217Y36579D01*
Y38224D01*
X536959Y39848D01*
X536451Y41412D01*
X535704Y42878D01*
X534738Y44208D01*
X533575Y45371D01*
X532244Y46338D01*
X530779Y47085D01*
X529214Y47593D01*
X527590Y47850D01*
D02*
G37*
G36*
X429165D02*
X427520D01*
X425896Y47593D01*
X424332Y47085D01*
X422866Y46338D01*
X421536Y45371D01*
X420373Y44208D01*
X419406Y42878D01*
X418659Y41412D01*
X418151Y39848D01*
X417894Y38224D01*
Y36579D01*
X418151Y34955D01*
X418659Y33391D01*
X419406Y31925D01*
X420373Y30595D01*
X421536Y29432D01*
X422866Y28465D01*
X424332Y27718D01*
X425896Y27210D01*
X427520Y26953D01*
X429165D01*
X430789Y27210D01*
X432353Y27718D01*
X433819Y28465D01*
X435149Y29432D01*
X436312Y30595D01*
X437279Y31925D01*
X438026Y33391D01*
X438534Y34955D01*
X438791Y36579D01*
Y38224D01*
X438534Y39848D01*
X438026Y41412D01*
X437279Y42878D01*
X436312Y44208D01*
X435149Y45371D01*
X433819Y46338D01*
X432353Y47085D01*
X430789Y47593D01*
X429165Y47850D01*
D02*
G37*
G36*
X166243Y35916D02*
X164568D01*
X162926Y35589D01*
X161379Y34948D01*
X159987Y34018D01*
X158803Y32834D01*
X157873Y31442D01*
X157232Y29895D01*
X156905Y28253D01*
Y26579D01*
X157232Y24936D01*
X157873Y23390D01*
X158803Y21997D01*
X159987Y20813D01*
X161379Y19883D01*
X162926Y19242D01*
X164568Y18916D01*
X166243D01*
X167885Y19242D01*
X169432Y19883D01*
X170824Y20813D01*
X172008Y21997D01*
X172938Y23390D01*
X173579Y24936D01*
X173906Y26579D01*
Y28253D01*
X173579Y29895D01*
X172938Y31442D01*
X172008Y32834D01*
X170824Y34018D01*
X169432Y34948D01*
X167885Y35589D01*
X166243Y35916D01*
D02*
G37*
G36*
X756546Y26798D02*
X755454D01*
X754398Y26515D01*
X753452Y25969D01*
X752679Y25196D01*
X752133Y24250D01*
X751850Y23195D01*
Y22102D01*
X752133Y21047D01*
X752679Y20101D01*
X753452Y19328D01*
X754398Y18782D01*
X755454Y18499D01*
X756546D01*
X757602Y18782D01*
X758548Y19328D01*
X759320Y20101D01*
X759867Y21047D01*
X760150Y22102D01*
Y23195D01*
X759867Y24250D01*
X759320Y25196D01*
X758548Y25969D01*
X757602Y26515D01*
X756546Y26798D01*
D02*
G37*
G36*
X386373D02*
X385280D01*
X384225Y26515D01*
X383279Y25969D01*
X382506Y25196D01*
X381960Y24250D01*
X381677Y23195D01*
Y22102D01*
X381960Y21047D01*
X382506Y20101D01*
X383279Y19328D01*
X384225Y18782D01*
X385280Y18499D01*
X386373D01*
X387428Y18782D01*
X388375Y19328D01*
X389147Y20101D01*
X389694Y21047D01*
X389976Y22102D01*
Y23195D01*
X389694Y24250D01*
X389147Y25196D01*
X388375Y25969D01*
X387428Y26515D01*
X386373Y26798D01*
D02*
G37*
G36*
X95374Y75258D02*
X24508D01*
X22189Y75076D01*
X19927Y74533D01*
X17777Y73642D01*
X15794Y72427D01*
X14025Y70916D01*
X12514Y69147D01*
X11299Y67164D01*
X10408Y65014D01*
X9865Y62752D01*
X9683Y60433D01*
Y32874D01*
X9865Y30555D01*
X10408Y28293D01*
X11299Y26144D01*
X12514Y24160D01*
X14025Y22391D01*
X15794Y20880D01*
X17777Y19665D01*
X19927Y18774D01*
X22189Y18231D01*
X24508Y18049D01*
X95374D01*
X97693Y18231D01*
X99955Y18774D01*
X102104Y19665D01*
X104088Y20880D01*
X105857Y22391D01*
X107368Y24160D01*
X108583Y26144D01*
X109474Y28293D01*
X110017Y30555D01*
X110199Y32874D01*
Y60433D01*
X110017Y62752D01*
X109474Y65014D01*
X108583Y67164D01*
X107368Y69147D01*
X105857Y70916D01*
X104088Y72427D01*
X102104Y73642D01*
X99955Y74533D01*
X97693Y75076D01*
X95374Y75258D01*
D02*
G37*
G36*
X283099Y25000D02*
X281782D01*
X280511Y24659D01*
X279370Y24001D01*
X278440Y23070D01*
X277781Y21930D01*
X277441Y20658D01*
Y19342D01*
X277781Y18070D01*
X278440Y16930D01*
X279370Y15999D01*
X280511Y15341D01*
X281782Y15000D01*
X283099D01*
X284370Y15341D01*
X285511Y15999D01*
X286442Y16930D01*
X287100Y18070D01*
X287441Y19342D01*
Y20658D01*
X287100Y21930D01*
X286442Y23070D01*
X285511Y24001D01*
X284370Y24659D01*
X283099Y25000D01*
D02*
G37*
%LPD*%
G36*
X431697Y175333D02*
X431222Y174857D01*
X430890Y174056D01*
Y173604D01*
X426792Y169506D01*
X426473Y169543D01*
X426269Y170001D01*
X426266Y170042D01*
X426590Y170826D01*
Y171694D01*
X426259Y172495D01*
X425645Y173109D01*
X424843Y173441D01*
X423976D01*
X423174Y173109D01*
X422560Y172495D01*
X422228Y171694D01*
Y170826D01*
X422560Y170024D01*
X422680Y169905D01*
X422489Y169443D01*
X389143D01*
X388951Y169905D01*
X389147Y170101D01*
X389694Y171047D01*
X389976Y172102D01*
Y173195D01*
X389694Y174250D01*
X389147Y175197D01*
X388973Y175371D01*
X389164Y175833D01*
X431501D01*
X431697Y175333D01*
D02*
G37*
D10*
X671654Y115748D02*
X672277D01*
X695376Y92649D02*
X696000D01*
X672277Y115748D02*
X695376Y92649D01*
X671654Y109055D02*
X672366Y108343D01*
Y106282D02*
X696000Y82648D01*
X672366Y106282D02*
Y108343D01*
X427362Y167913D02*
X433071Y173622D01*
X384516Y167913D02*
X427362D01*
X378807Y162205D02*
X384516Y167913D01*
X355383Y162205D02*
X378807D01*
X325827Y132649D02*
X355383Y162205D01*
X524508D02*
X530315D01*
X325827Y112648D02*
X340838Y97638D01*
X411024D01*
X282441Y221700D02*
X282976D01*
X301040Y239764D02*
X301575D01*
X282976Y221700D02*
X301040Y239764D01*
X659842Y246457D02*
X660039Y246654D01*
Y275000D02*
X660236Y275197D01*
X660039Y246654D02*
Y275000D01*
X646053Y246467D02*
Y275187D01*
X646063Y275197D01*
X646042Y246457D02*
X646053Y246467D01*
X712155Y246506D02*
Y275148D01*
X712106Y246457D02*
X712155Y246506D01*
Y275148D02*
X712205Y275197D01*
X698169Y246594D02*
Y275060D01*
Y246594D02*
X698306Y246457D01*
X698032Y275197D02*
X698169Y275060D01*
X160661Y262251D02*
Y286690D01*
X152097Y295254D02*
X160661Y286690D01*
X158169Y295177D02*
X162661Y290685D01*
X145996Y295055D02*
X158661Y282389D01*
X160661Y262251D02*
X254503Y168409D01*
X164661Y263908D02*
Y340457D01*
Y263908D02*
X256160Y172409D01*
X152067Y295254D02*
X152097D01*
X158661Y261423D02*
Y282389D01*
Y346457D02*
X164661Y340457D01*
X158661Y261423D02*
X253675Y166409D01*
X162661Y263079D02*
X255331Y170409D01*
X162661Y263079D02*
Y290685D01*
X208268Y277546D02*
Y294488D01*
Y277546D02*
X220406Y265408D01*
X191339Y276341D02*
Y294488D01*
X180405Y265408D02*
X191339Y276341D01*
X207874Y129947D02*
Y146457D01*
Y129947D02*
X220406Y117416D01*
X180405D02*
X190945Y127955D01*
Y146457D01*
X549047Y348425D02*
X566142D01*
X537835Y359638D02*
X549047Y348425D01*
X549299Y331102D02*
X566142D01*
X537835Y319638D02*
X549299Y331102D01*
X441904Y122803D02*
X499772D01*
X513189Y136221D01*
X525591Y212598D02*
X541339D01*
X572835Y224606D02*
X624902Y172539D01*
X537835Y319638D02*
X572835Y284638D01*
Y224606D02*
Y284638D01*
X501549Y161640D02*
Y161738D01*
X485925Y177362D02*
X501549Y161738D01*
X422047Y135433D02*
Y145669D01*
X494952Y132649D02*
X524508Y162205D01*
X385827Y132649D02*
X494952D01*
X389732Y149974D02*
X496037D01*
X496136Y150073D01*
X385827Y152648D02*
X387058D01*
X389732Y149974D01*
X442913Y181102D02*
X472835D01*
X492520Y200787D01*
X374410Y67716D02*
X388189D01*
X393185Y62721D01*
X515481D01*
X516313Y61888D01*
X551455D01*
X551709Y62142D01*
X552728Y61122D01*
X556032Y62205D02*
X582035D01*
X591409Y64248D02*
X593630D01*
X594343Y64961D01*
X606299D01*
X554949Y61122D02*
X556032Y62205D01*
X588437Y64961D02*
X590697D01*
X591409Y64248D01*
X584791Y64961D02*
X585504Y64248D01*
X587725D01*
X588437Y64961D01*
X582035Y62205D02*
X584791Y64961D01*
X552728Y61122D02*
X554949D01*
X322263Y117999D02*
X437099D01*
X441904Y122803D01*
X254791Y119980D02*
X320282D01*
X322263Y117999D01*
X252227Y117416D02*
X254791Y119980D01*
X220406Y117416D02*
X252227D01*
X256160Y172409D02*
X325588D01*
X254503Y168409D02*
X310066D01*
X325588Y172409D02*
X325827Y172649D01*
X310066Y168409D02*
X325827Y152648D01*
X256988Y174409D02*
X321012D01*
X323965Y177362D01*
X220406Y210992D02*
X256988Y174409D01*
X302066Y166409D02*
X325827Y142648D01*
X255331Y170409D02*
X318066D01*
X325827Y162648D01*
X253675Y166409D02*
X302066D01*
X220406Y210992D02*
Y265408D01*
X323965Y177362D02*
X485925D01*
D22*
X0Y11811D02*
G03*
X11811Y0I11811J0D01*
G01*
X822835D02*
G03*
X834646Y11811I0J11811D01*
G01*
Y401575D02*
G03*
X822835Y413386I-11811J0D01*
G01*
X11811D02*
G03*
X0Y401575I0J-11811D01*
G01*
X11811Y-0D02*
X822835Y0D01*
X834646Y401575D02*
X834646Y11811D01*
X11811Y413386D02*
X822835Y413386D01*
X-0Y401575D02*
X0Y11811D01*
D85*
X742224Y331398D02*
D03*
Y392421D02*
D03*
D96*
X549213Y203937D02*
X580709Y172441D01*
X549213Y203937D02*
Y246457D01*
X580709Y172441D02*
X596457Y156693D01*
X655905D01*
D97*
X283465Y277973D02*
D03*
X806299Y164173D02*
D03*
Y150373D02*
D03*
X673642Y246457D02*
D03*
X659842D02*
D03*
X646042D02*
D03*
X725906D02*
D03*
X712106D02*
D03*
X698306D02*
D03*
X818861D02*
D03*
X805061D02*
D03*
X549213D02*
D03*
X563013D02*
D03*
X282441Y74140D02*
D03*
X220406Y117416D02*
D03*
X180405D02*
D03*
X537835Y319638D02*
D03*
Y359638D02*
D03*
X220406Y265408D02*
D03*
X180405D02*
D03*
X806299Y96810D02*
D03*
X282441Y33800D02*
D03*
X806299Y43660D02*
D03*
X282441Y114480D02*
D03*
Y154820D02*
D03*
Y195160D02*
D03*
Y235500D02*
D03*
Y221700D02*
D03*
D98*
X696000Y22648D02*
D03*
Y32649D02*
D03*
Y82648D02*
D03*
Y92649D02*
D03*
X756000Y202648D02*
D03*
X325827Y22648D02*
D03*
Y32649D02*
D03*
Y112648D02*
D03*
Y132649D02*
D03*
Y142648D02*
D03*
Y152648D02*
D03*
Y162648D02*
D03*
Y172649D02*
D03*
X385827Y202648D02*
D03*
Y152648D02*
D03*
Y132649D02*
D03*
D99*
X660236Y275197D02*
D03*
X646063D02*
D03*
X712205D02*
D03*
X698032D02*
D03*
X301575Y239764D02*
D03*
X530315Y162205D02*
D03*
X496063Y150000D02*
D03*
X411024Y97638D02*
D03*
X671654Y109055D02*
D03*
Y115748D02*
D03*
X616000Y135000D02*
D03*
D100*
X324410Y344094D02*
D03*
X19685Y314961D02*
D03*
Y207480D02*
D03*
Y101969D02*
D03*
X814961Y19685D02*
D03*
Y393701D02*
D03*
D102*
X59941Y367520D02*
D03*
D105*
X585665Y42992D02*
D03*
D107*
X273622Y344488D02*
D03*
D108*
X433071Y173622D02*
D03*
X144488Y287795D02*
D03*
X135039Y299606D02*
D03*
X191339Y294488D02*
D03*
X208268D02*
D03*
X207874Y146457D02*
D03*
X190945D02*
D03*
X566142Y348425D02*
D03*
Y331102D02*
D03*
X513189Y136221D02*
D03*
X525591Y212598D02*
D03*
X541339D02*
D03*
X501549Y161640D02*
D03*
X422047Y135433D02*
D03*
Y145669D02*
D03*
X519022Y142349D02*
D03*
X559055Y205906D02*
D03*
X492520Y200787D02*
D03*
X512187Y207095D02*
D03*
X513386Y201181D02*
D03*
X374410Y67716D02*
D03*
X655905Y156693D02*
D03*
X580709Y172441D02*
D03*
X442913Y181102D02*
D03*
X488781Y142179D02*
D03*
X127165Y319291D02*
D03*
X553839Y87870D02*
D03*
Y63803D02*
D03*
X606299Y64961D02*
D03*
X158661Y346457D02*
D03*
X158169Y295177D02*
D03*
X152082Y295269D02*
D03*
X145996Y295055D02*
D03*
X624902Y172539D02*
D03*
M02*
