G04*
G04 #@! TF.GenerationSoftware,Altium Limited,Altium Designer,23.10.1 (27)*
G04*
G04 Layer_Color=0*
%FSLAX25Y25*%
%MOIN*%
G70*
G04*
G04 #@! TF.SameCoordinates,CFD1AF01-5425-4A94-9F85-96FFE65A43DD*
G04*
G04*
G04 #@! TF.FilePolarity,Positive*
G04*
G01*
G75*
%ADD12C,0.00394*%
%ADD22C,0.00039*%
D12*
X150799Y327408D02*
X154736D01*
X152768Y325439D02*
Y329376D01*
X549213Y203937D02*
Y207874D01*
X547244Y205906D02*
X551181D01*
X691437Y364862D02*
X695374D01*
X693405Y362894D02*
Y366831D01*
X739075Y364862D02*
X743012D01*
X741043Y362894D02*
Y366831D01*
X443394Y198258D02*
Y202195D01*
X441425Y200227D02*
X445362D01*
X612500Y102532D02*
Y106468D01*
X610532Y104500D02*
X614468D01*
X663209Y185406D02*
Y189342D01*
X661240Y187374D02*
X665177D01*
X484402Y150146D02*
Y154083D01*
X482433Y152114D02*
X486370D01*
X518902Y150146D02*
Y154083D01*
X516933Y152114D02*
X520870D01*
X650500Y135746D02*
Y139683D01*
X648531Y137715D02*
X652468D01*
X638693Y186272D02*
Y190209D01*
X636724Y188240D02*
X640661D01*
D22*
X0Y11811D02*
G03*
X11811Y0I11811J0D01*
G01*
X822835D02*
G03*
X834646Y11811I0J11811D01*
G01*
Y401575D02*
G03*
X822835Y413386I-11811J0D01*
G01*
X11811D02*
G03*
X0Y401575I0J-11811D01*
G01*
X11811Y-0D02*
X822835Y0D01*
X834646Y401575D02*
X834646Y11811D01*
X11811Y413386D02*
X822835Y413386D01*
X-0Y401575D02*
X0Y11811D01*
M02*
