G04*
G04 #@! TF.GenerationSoftware,Altium Limited,Altium Designer,23.10.1 (27)*
G04*
G04 Layer_Color=255*
%FSLAX25Y25*%
%MOIN*%
G70*
G04*
G04 #@! TF.SameCoordinates,CFD1AF01-5425-4A94-9F85-96FFE65A43DD*
G04*
G04*
G04 #@! TF.FilePolarity,Positive*
G04*
G01*
G75*
%ADD22C,0.00039*%
%ADD24R,0.02953X0.03937*%
%ADD25R,0.03150X0.02362*%
%ADD26R,0.03740X0.03150*%
%ADD27R,0.03937X0.02953*%
G04:AMPARAMS|DCode=28|XSize=59.06mil|YSize=17.72mil|CornerRadius=1.95mil|HoleSize=0mil|Usage=FLASHONLY|Rotation=90.000|XOffset=0mil|YOffset=0mil|HoleType=Round|Shape=RoundedRectangle|*
%AMROUNDEDRECTD28*
21,1,0.05906,0.01382,0,0,90.0*
21,1,0.05516,0.01772,0,0,90.0*
1,1,0.00390,0.00691,0.02758*
1,1,0.00390,0.00691,-0.02758*
1,1,0.00390,-0.00691,-0.02758*
1,1,0.00390,-0.00691,0.02758*
%
%ADD28ROUNDEDRECTD28*%
%ADD29R,0.02953X0.03740*%
G04:AMPARAMS|DCode=30|XSize=60.62mil|YSize=22.28mil|CornerRadius=11.14mil|HoleSize=0mil|Usage=FLASHONLY|Rotation=0.000|XOffset=0mil|YOffset=0mil|HoleType=Round|Shape=RoundedRectangle|*
%AMROUNDEDRECTD30*
21,1,0.06062,0.00000,0,0,0.0*
21,1,0.03834,0.02228,0,0,0.0*
1,1,0.02228,0.01917,0.00000*
1,1,0.02228,-0.01917,0.00000*
1,1,0.02228,-0.01917,0.00000*
1,1,0.02228,0.01917,0.00000*
%
%ADD30ROUNDEDRECTD30*%
%ADD31R,0.06062X0.02228*%
%ADD32O,0.03937X0.02756*%
%ADD33R,0.03937X0.02756*%
%ADD34R,0.03740X0.02953*%
%ADD35R,0.08268X0.05512*%
%ADD36R,0.03150X0.03740*%
%ADD37R,0.05512X0.08268*%
%ADD38O,0.05512X0.03543*%
%ADD39R,0.02228X0.06062*%
G04:AMPARAMS|DCode=40|XSize=60.62mil|YSize=22.28mil|CornerRadius=11.14mil|HoleSize=0mil|Usage=FLASHONLY|Rotation=90.000|XOffset=0mil|YOffset=0mil|HoleType=Round|Shape=RoundedRectangle|*
%AMROUNDEDRECTD40*
21,1,0.06062,0.00000,0,0,90.0*
21,1,0.03834,0.02228,0,0,90.0*
1,1,0.02228,0.00000,0.01917*
1,1,0.02228,0.00000,-0.01917*
1,1,0.02228,0.00000,-0.01917*
1,1,0.02228,0.00000,0.01917*
%
%ADD40ROUNDEDRECTD40*%
%ADD41R,0.06299X0.12598*%
%ADD42R,0.02165X0.04134*%
%ADD43R,0.11024X0.04134*%
%ADD44R,0.23622X0.07874*%
G04:AMPARAMS|DCode=45|XSize=29.92mil|YSize=26mil|CornerRadius=3.25mil|HoleSize=0mil|Usage=FLASHONLY|Rotation=180.000|XOffset=0mil|YOffset=0mil|HoleType=Round|Shape=RoundedRectangle|*
%AMROUNDEDRECTD45*
21,1,0.02992,0.01950,0,0,180.0*
21,1,0.02342,0.02600,0,0,180.0*
1,1,0.00650,-0.01171,0.00975*
1,1,0.00650,0.01171,0.00975*
1,1,0.00650,0.01171,-0.00975*
1,1,0.00650,-0.01171,-0.00975*
%
%ADD45ROUNDEDRECTD45*%
%ADD46R,0.08268X0.06496*%
G04:AMPARAMS|DCode=47|XSize=31.5mil|YSize=29.53mil|CornerRadius=3.69mil|HoleSize=0mil|Usage=FLASHONLY|Rotation=180.000|XOffset=0mil|YOffset=0mil|HoleType=Round|Shape=RoundedRectangle|*
%AMROUNDEDRECTD47*
21,1,0.03150,0.02215,0,0,180.0*
21,1,0.02411,0.02953,0,0,180.0*
1,1,0.00738,-0.01206,0.01107*
1,1,0.00738,0.01206,0.01107*
1,1,0.00738,0.01206,-0.01107*
1,1,0.00738,-0.01206,-0.01107*
%
%ADD47ROUNDEDRECTD47*%
%ADD48R,0.01772X0.05709*%
%ADD49R,0.04134X0.02362*%
%ADD50R,0.07874X0.07874*%
%ADD51R,0.03150X0.03150*%
%ADD52R,0.02362X0.03150*%
%ADD53R,0.03937X0.05512*%
G04:AMPARAMS|DCode=54|XSize=17.72mil|YSize=62.99mil|CornerRadius=1.95mil|HoleSize=0mil|Usage=FLASHONLY|Rotation=270.000|XOffset=0mil|YOffset=0mil|HoleType=Round|Shape=RoundedRectangle|*
%AMROUNDEDRECTD54*
21,1,0.01772,0.05909,0,0,270.0*
21,1,0.01382,0.06299,0,0,270.0*
1,1,0.00390,-0.02955,-0.00691*
1,1,0.00390,-0.02955,0.00691*
1,1,0.00390,0.02955,0.00691*
1,1,0.00390,0.02955,-0.00691*
%
%ADD54ROUNDEDRECTD54*%
%ADD85C,0.11614*%
%ADD94R,0.02756X0.02362*%
G04:AMPARAMS|DCode=95|XSize=133.86mil|YSize=196.85mil|CornerRadius=2.01mil|HoleSize=0mil|Usage=FLASHONLY|Rotation=90.000|XOffset=0mil|YOffset=0mil|HoleType=Round|Shape=RoundedRectangle|*
%AMROUNDEDRECTD95*
21,1,0.13386,0.19284,0,0,90.0*
21,1,0.12984,0.19685,0,0,90.0*
1,1,0.00402,0.09642,0.06492*
1,1,0.00402,0.09642,-0.06492*
1,1,0.00402,-0.09642,-0.06492*
1,1,0.00402,-0.09642,0.06492*
%
%ADD95ROUNDEDRECTD95*%
%ADD97C,0.08000*%
%ADD98C,0.06299*%
%ADD99C,0.04724*%
%ADD100C,0.25591*%
%ADD101C,0.11000*%
G04:AMPARAMS|DCode=102|XSize=984.25mil|YSize=551.18mil|CornerRadius=137.8mil|HoleSize=0mil|Usage=FLASHONLY|Rotation=0.000|XOffset=0mil|YOffset=0mil|HoleType=Round|Shape=RoundedRectangle|*
%AMROUNDEDRECTD102*
21,1,0.98425,0.27559,0,0,0.0*
21,1,0.70866,0.55118,0,0,0.0*
1,1,0.27559,0.35433,-0.13780*
1,1,0.27559,-0.35433,-0.13780*
1,1,0.27559,-0.35433,0.13780*
1,1,0.27559,0.35433,0.13780*
%
%ADD102ROUNDEDRECTD102*%
%ADD103C,0.15000*%
%ADD104C,0.18898*%
%ADD105C,0.06496*%
G04:AMPARAMS|DCode=106|XSize=64.96mil|YSize=64.96mil|CornerRadius=16.24mil|HoleSize=0mil|Usage=FLASHONLY|Rotation=0.000|XOffset=0mil|YOffset=0mil|HoleType=Round|Shape=RoundedRectangle|*
%AMROUNDEDRECTD106*
21,1,0.06496,0.03248,0,0,0.0*
21,1,0.03248,0.06496,0,0,0.0*
1,1,0.03248,0.01624,-0.01624*
1,1,0.03248,-0.01624,-0.01624*
1,1,0.03248,-0.01624,0.01624*
1,1,0.03248,0.01624,0.01624*
%
%ADD106ROUNDEDRECTD106*%
G04:AMPARAMS|DCode=107|XSize=984.25mil|YSize=551.18mil|CornerRadius=137.8mil|HoleSize=0mil|Usage=FLASHONLY|Rotation=270.000|XOffset=0mil|YOffset=0mil|HoleType=Round|Shape=RoundedRectangle|*
%AMROUNDEDRECTD107*
21,1,0.98425,0.27559,0,0,270.0*
21,1,0.70866,0.55118,0,0,270.0*
1,1,0.27559,-0.13780,-0.35433*
1,1,0.27559,-0.13780,0.35433*
1,1,0.27559,0.13780,0.35433*
1,1,0.27559,0.13780,-0.35433*
%
%ADD107ROUNDEDRECTD107*%
D22*
X0Y11811D02*
G03*
X11811Y0I11811J0D01*
G01*
X822835D02*
G03*
X834646Y11811I0J11811D01*
G01*
Y401575D02*
G03*
X822835Y413386I-11811J0D01*
G01*
X11811D02*
G03*
X0Y401575I0J-11811D01*
G01*
X11811Y-0D02*
X822835Y0D01*
X834646Y401575D02*
X834646Y11811D01*
X11811Y413386D02*
X822835Y413386D01*
X-0Y401575D02*
X0Y11811D01*
D24*
X133760Y305610D02*
D03*
X127854D02*
D03*
X512008Y230709D02*
D03*
X506102D02*
D03*
X535236Y212992D02*
D03*
X529331D02*
D03*
X502165Y213386D02*
D03*
X496260D02*
D03*
X496654Y200787D02*
D03*
X502559D02*
D03*
X154527Y346618D02*
D03*
X148622D02*
D03*
X417004Y118762D02*
D03*
X411098D02*
D03*
X655453Y122715D02*
D03*
X649547D02*
D03*
X513949Y166936D02*
D03*
X519854D02*
D03*
X479185D02*
D03*
X485091D02*
D03*
X446500Y152756D02*
D03*
X452406D02*
D03*
X446807Y140863D02*
D03*
X452713D02*
D03*
X411681Y159750D02*
D03*
X417587D02*
D03*
X412402Y232283D02*
D03*
X418307D02*
D03*
X437992Y218898D02*
D03*
X443898D02*
D03*
X411646Y172255D02*
D03*
X417551D02*
D03*
X417520Y166043D02*
D03*
X411614D02*
D03*
X411047Y125000D02*
D03*
X416953D02*
D03*
X411098Y111659D02*
D03*
X417004D02*
D03*
X452658Y147047D02*
D03*
X446752D02*
D03*
X552362Y217323D02*
D03*
X546457D02*
D03*
X463583Y230709D02*
D03*
X469488D02*
D03*
X448846Y186227D02*
D03*
X442941D02*
D03*
X432087Y194882D02*
D03*
X426181D02*
D03*
D25*
X129035Y311516D02*
D03*
X138878D02*
D03*
X655921Y159715D02*
D03*
X646079D02*
D03*
X194984Y294408D02*
D03*
X204827D02*
D03*
X194484Y146416D02*
D03*
X204327D02*
D03*
X655921Y152215D02*
D03*
X646079D02*
D03*
D26*
X137894Y317323D02*
D03*
Y323819D02*
D03*
X139665Y294291D02*
D03*
Y287795D02*
D03*
X131693Y323819D02*
D03*
Y317323D02*
D03*
X560000Y64480D02*
D03*
Y70976D02*
D03*
X611000Y69252D02*
D03*
Y75748D02*
D03*
X587000Y71252D02*
D03*
Y77748D02*
D03*
X560000Y76980D02*
D03*
Y83476D02*
D03*
X506500Y60480D02*
D03*
Y66976D02*
D03*
D27*
X139665Y305807D02*
D03*
Y299902D02*
D03*
X164567Y305807D02*
D03*
Y299902D02*
D03*
X164665Y294094D02*
D03*
Y288189D02*
D03*
X535039Y206496D02*
D03*
Y200591D02*
D03*
X524409Y206496D02*
D03*
Y200591D02*
D03*
X487402Y182874D02*
D03*
Y176969D02*
D03*
X359055Y243898D02*
D03*
Y249803D02*
D03*
Y237992D02*
D03*
Y232087D02*
D03*
Y256102D02*
D03*
Y262008D02*
D03*
X145866Y299902D02*
D03*
Y305807D02*
D03*
X152067Y299902D02*
D03*
Y305807D02*
D03*
X158268Y299955D02*
D03*
Y305861D02*
D03*
X661709Y208827D02*
D03*
Y202921D02*
D03*
X620047Y172547D02*
D03*
Y178453D02*
D03*
X596547Y172547D02*
D03*
Y178453D02*
D03*
X472278Y153661D02*
D03*
Y159567D02*
D03*
X608547Y172547D02*
D03*
Y178453D02*
D03*
X662623Y136167D02*
D03*
Y130262D02*
D03*
X585047Y172547D02*
D03*
Y178453D02*
D03*
X506778Y153661D02*
D03*
Y159567D02*
D03*
X455118Y200984D02*
D03*
Y195079D02*
D03*
X655209Y202921D02*
D03*
Y208827D02*
D03*
X631193Y209693D02*
D03*
Y203787D02*
D03*
X637693Y203787D02*
D03*
Y209693D02*
D03*
X580500Y146953D02*
D03*
Y141047D02*
D03*
X592500Y146953D02*
D03*
Y141047D02*
D03*
X604500Y146953D02*
D03*
Y141047D02*
D03*
X568500Y146953D02*
D03*
Y141047D02*
D03*
X556500Y146953D02*
D03*
Y141047D02*
D03*
D28*
X143811Y338825D02*
D03*
X146370D02*
D03*
X148929D02*
D03*
X151488D02*
D03*
X154047D02*
D03*
X156606D02*
D03*
X159165D02*
D03*
X161724D02*
D03*
Y315990D02*
D03*
X159165D02*
D03*
X156606D02*
D03*
X154047D02*
D03*
X151488D02*
D03*
X148929D02*
D03*
X146370D02*
D03*
X143811D02*
D03*
D29*
X519980Y230709D02*
D03*
X525689D02*
D03*
X477461D02*
D03*
X483169D02*
D03*
X451476Y218898D02*
D03*
X457185D02*
D03*
X425886Y232283D02*
D03*
X431595D02*
D03*
D30*
X553998Y209646D02*
D03*
Y205906D02*
D03*
Y202165D02*
D03*
X544427D02*
D03*
Y205906D02*
D03*
D31*
Y209646D02*
D03*
D32*
X518504Y201969D02*
D03*
Y205709D02*
D03*
Y209449D02*
D03*
X508268Y201969D02*
D03*
Y205709D02*
D03*
D33*
Y209449D02*
D03*
D34*
X487402Y188484D02*
D03*
Y194193D02*
D03*
X580500Y153146D02*
D03*
Y158854D02*
D03*
X604500Y153146D02*
D03*
Y158854D02*
D03*
X592500Y153146D02*
D03*
Y158854D02*
D03*
X568500Y153146D02*
D03*
Y158854D02*
D03*
X556500Y153146D02*
D03*
Y158854D02*
D03*
D35*
X498228Y175787D02*
D03*
Y193504D02*
D03*
X534055D02*
D03*
Y175787D02*
D03*
D36*
X495965Y207087D02*
D03*
X502461D02*
D03*
X658004Y87500D02*
D03*
X664500D02*
D03*
X547252Y67728D02*
D03*
X553748D02*
D03*
X547252Y83228D02*
D03*
X553748D02*
D03*
X645472Y169424D02*
D03*
X638976D02*
D03*
X669783Y170866D02*
D03*
X663287D02*
D03*
D37*
X547638Y227953D02*
D03*
X564961D02*
D03*
D38*
X337598Y249803D02*
D03*
Y243898D02*
D03*
X346654Y249803D02*
D03*
Y243898D02*
D03*
D39*
X439653Y195441D02*
D03*
X488142Y156900D02*
D03*
X522642D02*
D03*
X646760Y132929D02*
D03*
D40*
X443394Y195441D02*
D03*
X447134D02*
D03*
Y205012D02*
D03*
X443394D02*
D03*
X439653D02*
D03*
X484402Y156900D02*
D03*
X480661D02*
D03*
Y147329D02*
D03*
X484402D02*
D03*
X488142D02*
D03*
X518902Y156900D02*
D03*
X515161D02*
D03*
Y147329D02*
D03*
X518902D02*
D03*
X522642D02*
D03*
X650500Y132929D02*
D03*
X654240D02*
D03*
Y142500D02*
D03*
X650500D02*
D03*
X646760D02*
D03*
D41*
X612500Y94657D02*
D03*
Y114342D02*
D03*
D42*
X651740Y87783D02*
D03*
X648000D02*
D03*
X644260D02*
D03*
Y98216D02*
D03*
X648000D02*
D03*
X651740D02*
D03*
D43*
X634500Y89102D02*
D03*
Y101898D02*
D03*
Y82398D02*
D03*
Y69602D02*
D03*
X621000Y82398D02*
D03*
Y69602D02*
D03*
D44*
X653465Y63000D02*
D03*
Y79929D02*
D03*
D45*
X667709Y203118D02*
D03*
Y208630D02*
D03*
X673209Y203118D02*
D03*
Y208630D02*
D03*
X649193Y202984D02*
D03*
Y208496D02*
D03*
X643693Y202984D02*
D03*
Y208496D02*
D03*
D46*
X556823Y114500D02*
D03*
X572177D02*
D03*
D47*
X580000Y112350D02*
D03*
Y118650D02*
D03*
D48*
X659370Y178713D02*
D03*
X661929D02*
D03*
X664488D02*
D03*
X667047D02*
D03*
Y196035D02*
D03*
X664488D02*
D03*
X661929D02*
D03*
X659370D02*
D03*
X634854Y179579D02*
D03*
X637413D02*
D03*
X639972D02*
D03*
X642531D02*
D03*
Y196902D02*
D03*
X639972D02*
D03*
X637413D02*
D03*
X634854D02*
D03*
D49*
X593587Y71760D02*
D03*
Y79240D02*
D03*
X604413D02*
D03*
Y75500D02*
D03*
Y71760D02*
D03*
D50*
X589000Y116874D02*
D03*
Y101126D02*
D03*
D51*
X596547Y184547D02*
D03*
Y190453D02*
D03*
X620047Y184547D02*
D03*
Y190453D02*
D03*
X608547Y184547D02*
D03*
Y190453D02*
D03*
X585047Y184547D02*
D03*
Y190453D02*
D03*
D52*
X566335Y344559D02*
D03*
Y334717D02*
D03*
D53*
X453933Y167930D02*
D03*
X446453D02*
D03*
X450193Y159269D02*
D03*
X417740Y187331D02*
D03*
X410260D02*
D03*
X414000Y178669D02*
D03*
X418740Y140962D02*
D03*
X411260D02*
D03*
X415000Y132300D02*
D03*
D54*
X514992Y83185D02*
D03*
Y80626D02*
D03*
Y78067D02*
D03*
Y75508D02*
D03*
Y72949D02*
D03*
Y70390D02*
D03*
Y67831D02*
D03*
Y65272D02*
D03*
X539008Y83185D02*
D03*
Y80626D02*
D03*
Y78067D02*
D03*
Y75508D02*
D03*
Y72949D02*
D03*
Y70390D02*
D03*
Y67831D02*
D03*
Y65272D02*
D03*
D85*
X694587Y331398D02*
D03*
Y392421D02*
D03*
X742224Y331398D02*
D03*
Y392421D02*
D03*
D94*
X433071Y185433D02*
D03*
X425197Y189173D02*
D03*
Y181693D02*
D03*
X364469Y260039D02*
D03*
X372342Y256299D02*
D03*
Y263779D02*
D03*
X364567Y234154D02*
D03*
X372441Y230413D02*
D03*
Y237894D02*
D03*
X364469Y247146D02*
D03*
X372342Y243406D02*
D03*
Y250886D02*
D03*
D95*
X152768Y327408D02*
D03*
D97*
X283465Y264173D02*
D03*
Y277973D02*
D03*
X806299Y164173D02*
D03*
Y150373D02*
D03*
Y191773D02*
D03*
Y205573D02*
D03*
Y219373D02*
D03*
Y177973D02*
D03*
X673642Y246457D02*
D03*
X659842D02*
D03*
X646042D02*
D03*
X725906D02*
D03*
X712106D02*
D03*
X698306D02*
D03*
X791261D02*
D03*
X749861D02*
D03*
X763661D02*
D03*
X777461D02*
D03*
X818861D02*
D03*
X805061D02*
D03*
X522413D02*
D03*
X508613D02*
D03*
X479548D02*
D03*
X465748D02*
D03*
X549213D02*
D03*
X563013D02*
D03*
X282441Y60340D02*
D03*
Y74140D02*
D03*
X220406Y117416D02*
D03*
X180405D02*
D03*
X537835Y319638D02*
D03*
Y359638D02*
D03*
X220406Y265408D02*
D03*
X180405D02*
D03*
X806299Y124409D02*
D03*
Y110609D02*
D03*
Y96810D02*
D03*
X282441Y33800D02*
D03*
Y20000D02*
D03*
X806299Y71260D02*
D03*
Y57460D02*
D03*
Y43660D02*
D03*
X282441Y114480D02*
D03*
Y100680D02*
D03*
Y154820D02*
D03*
Y141020D02*
D03*
Y195160D02*
D03*
Y181360D02*
D03*
Y235500D02*
D03*
Y221700D02*
D03*
D98*
X696000Y22648D02*
D03*
Y32649D02*
D03*
Y42649D02*
D03*
Y52649D02*
D03*
Y62648D02*
D03*
Y72649D02*
D03*
Y82648D02*
D03*
Y92649D02*
D03*
Y102648D02*
D03*
Y112648D02*
D03*
Y122649D02*
D03*
Y132649D02*
D03*
Y142648D02*
D03*
Y152648D02*
D03*
Y162648D02*
D03*
Y172649D02*
D03*
Y182649D02*
D03*
Y192648D02*
D03*
Y202648D02*
D03*
Y212649D02*
D03*
X756000D02*
D03*
Y202648D02*
D03*
Y192648D02*
D03*
Y182649D02*
D03*
Y172649D02*
D03*
Y162648D02*
D03*
Y152648D02*
D03*
Y142648D02*
D03*
Y132649D02*
D03*
Y122649D02*
D03*
Y112648D02*
D03*
Y102648D02*
D03*
Y92649D02*
D03*
Y82648D02*
D03*
Y72649D02*
D03*
Y62648D02*
D03*
Y52649D02*
D03*
Y42649D02*
D03*
Y32649D02*
D03*
Y22648D02*
D03*
X325827D02*
D03*
Y32649D02*
D03*
Y42649D02*
D03*
Y52649D02*
D03*
Y62648D02*
D03*
Y72649D02*
D03*
Y82648D02*
D03*
Y92649D02*
D03*
Y102648D02*
D03*
Y112648D02*
D03*
Y122649D02*
D03*
Y132649D02*
D03*
Y142648D02*
D03*
Y152648D02*
D03*
Y162648D02*
D03*
Y172649D02*
D03*
Y182649D02*
D03*
Y192648D02*
D03*
Y202648D02*
D03*
Y212649D02*
D03*
X385827D02*
D03*
Y202648D02*
D03*
Y192648D02*
D03*
Y182649D02*
D03*
Y172649D02*
D03*
Y162648D02*
D03*
Y152648D02*
D03*
Y142648D02*
D03*
Y132649D02*
D03*
Y122649D02*
D03*
Y112648D02*
D03*
Y102648D02*
D03*
Y92649D02*
D03*
Y82648D02*
D03*
Y72649D02*
D03*
Y62648D02*
D03*
Y52649D02*
D03*
Y42649D02*
D03*
Y32649D02*
D03*
Y22648D02*
D03*
D99*
X660236Y275197D02*
D03*
X646063D02*
D03*
X712205D02*
D03*
X698032D02*
D03*
X500000Y219685D02*
D03*
X548032Y193701D02*
D03*
X301575Y239764D02*
D03*
X530315Y162205D02*
D03*
X301575Y246654D02*
D03*
X639370Y138976D02*
D03*
X301575Y253543D02*
D03*
X496063Y150000D02*
D03*
X301575Y260433D02*
D03*
X410630Y202362D02*
D03*
X301575Y267323D02*
D03*
X411024Y97638D02*
D03*
X411417Y153937D02*
D03*
X411024Y105118D02*
D03*
X786221Y52756D02*
D03*
X639370D02*
D03*
X786221Y62992D02*
D03*
X632677Y57087D02*
D03*
X786221Y90551D02*
D03*
X671654Y109055D02*
D03*
X786221Y104331D02*
D03*
X671654Y115748D02*
D03*
X616000Y135000D02*
D03*
X580500D02*
D03*
X568500D02*
D03*
X556500D02*
D03*
X592500D02*
D03*
X604500D02*
D03*
D100*
X324410Y344094D02*
D03*
X19685Y314961D02*
D03*
Y207480D02*
D03*
Y101969D02*
D03*
X814961Y19685D02*
D03*
Y393701D02*
D03*
D101*
X586228Y249587D02*
D03*
X604728D02*
D03*
X623228D02*
D03*
X544500Y114000D02*
D03*
X526000D02*
D03*
X507500D02*
D03*
X440937Y249805D02*
D03*
X422437D02*
D03*
X403937D02*
D03*
D102*
X59941Y367520D02*
D03*
Y153609D02*
D03*
Y46654D02*
D03*
Y260564D02*
D03*
D103*
X165405Y57416D02*
D03*
Y27416D02*
D03*
X235405Y67416D02*
D03*
X477835Y374638D02*
D03*
X447835D02*
D03*
X487835Y304638D02*
D03*
X165405Y205408D02*
D03*
Y175408D02*
D03*
X235405Y215408D02*
D03*
D104*
X656689Y37402D02*
D03*
X558264D02*
D03*
X526768D02*
D03*
X428342D02*
D03*
D105*
X591118Y31811D02*
D03*
X602024D02*
D03*
X612929D02*
D03*
X623835D02*
D03*
X618382Y42992D02*
D03*
X585665D02*
D03*
X596571D02*
D03*
X607476D02*
D03*
X461197Y31811D02*
D03*
X472102D02*
D03*
X483008D02*
D03*
X493913D02*
D03*
X488461Y42992D02*
D03*
X455744D02*
D03*
X466650D02*
D03*
X477555D02*
D03*
D106*
X629287D02*
D03*
X499366D02*
D03*
D107*
X620079Y344488D02*
D03*
X374016D02*
D03*
X273622Y344488D02*
D03*
M02*
