M48
;Layer_Color=9474304
;FILE_FORMAT=2:5
INCH,TZ
;TYPE=PLATED
T01F00S00C0.00787
T02F00S00C0.01181
T03F00S00C0.03150
T04F00S00C0.03937
T05F00S00C0.04000
T06F00S00C0.04291
T07F00S00C0.04724
T08F00S00C0.07300
T09F00S00C0.07677
T10F00S00C0.10000
T11F00S00C0.12598
T12F00S00C0.13386
T13F00S00C0.25197
%
T01
X145681Y322684
Y327408
X150406
X155130
X159854
Y332132
X155130
X150406
X145681
X150406Y322684
X155130
X159854
T02
X190945Y146457
X207874
X374410Y67716
X411591Y145318
X422047Y145669
Y135433
X457087Y152657
X488781Y142179
X513189Y136221
X519022Y142349
X507480Y83071
X507266Y79494
X514370Y60039
X553839Y63803
Y87870
X586614Y66929
X592520
X606299Y64961
X624902Y172539
X649441Y169420
X655905Y156693
X673622Y170866
X667717Y212106
X643602Y212303
X637795Y213976
X559055Y205906
X580709Y172441
X522581Y170155
X508661Y164961
X501549Y161640
X492520Y200787
X513386Y201181
X512187Y207095
X525591Y212598
X541339
X442913Y181102
X446358Y173130
X433071Y173622
X424409Y171260
X421260Y194882
X410236Y192201
X405512Y232283
Y236221
X397638Y240158
Y228346
X378205Y230413
X377756Y243307
X377559Y256201
X352756Y249606
X257083Y251969
X241335
X233461Y267717
X249209
X257083Y283465
X241335
X233461Y299213
Y236220
X249209
X217713
X201964
X209839Y251969
X225587
Y283465
X217713Y299213
X208268Y294488
X201964Y299213
X191339Y294488
X186216Y299213
X170468
X158169Y295177
X152082Y295269
X145996Y295055
X144488Y287795
X135039Y299606
X178342Y283465
X194090
X201964Y267717
X194090Y251969
X170468Y267717
Y236220
X178342Y314961
X194090
X209839
X225587
X201964Y330709
X186216
X170468
X158661Y346457
X143898Y344193
X127165Y319291
X566142Y331102
Y348425
T03
X411024Y97638
Y105118
X411417Y153937
X496063Y150000
X556500Y135000
X568500
X580500
X592500
X604500
X616000
X639370Y138976
X671654Y115748
Y109055
X639370Y52756
X632677Y57087
X786221Y52756
Y62992
Y90551
Y104331
X712205Y275197
X698032
X660236
X646063
X548032Y193701
X530315Y162205
X500000Y219685
X410630Y202362
X301575Y239764
Y246654
Y253543
Y260433
Y267323
T04
X325827Y22648
Y32649
Y42649
Y52649
Y62648
Y72649
Y82648
Y92649
Y102648
Y112648
Y122649
Y132649
Y142648
Y152648
X385827
Y142648
Y132649
Y122649
Y112648
Y102648
Y92649
Y82648
Y72649
Y62648
Y52649
Y42649
Y32649
Y22648
X696000
Y32649
Y42649
Y52649
Y62648
Y72649
Y82648
Y92649
Y102648
Y112648
Y122649
Y132649
Y142648
Y152648
X756000
Y142648
Y132649
Y122649
Y112648
Y102648
Y92649
Y82648
Y72649
Y62648
Y52649
Y42649
Y32649
Y22648
Y162648
Y172649
Y182649
Y192648
Y202648
Y212649
X696000
Y202648
Y192648
Y182649
Y172649
Y162648
X385827
Y172649
Y182649
Y192648
Y202648
Y212649
X325827
Y202648
Y192648
Y182649
Y172649
Y162648
T05
X180405Y117416
X220406
Y265408
X180405
X537835Y319638
Y359638
T06
X461197Y31811
X472102
X483008
X493913
X499366Y42992
X488461
X477555
X466650
X455744
X585665
X596571
X607476
X618382
X629287
X623835Y31811
X612929
X602024
X591118
T07
X282441Y20000
Y33800
Y60340
Y74140
Y100680
Y114480
Y141020
Y154820
X806299Y150373
Y124409
Y110609
Y96810
Y71260
Y57460
Y43660
Y164173
Y177973
Y191773
Y205573
Y219373
X805061Y246457
X791261
X777461
X763661
X749861
X725906
X712106
X818861
X698306
X673642
X659842
X646042
X563013
X549213
X522413
X508613
X479548
X465748
X282441Y235500
Y221700
Y195160
Y181360
X283465Y264173
Y277973
T08
X507500Y114000
X526000
X544500
X586228Y249587
X604728
X623228
X440937Y249805
X422437
X403937
T09
X694587Y331398
Y392421
X742224
Y331398
T10
X165405Y27416
Y57416
X235405Y67416
X487835Y304638
X235405Y215408
X165405Y205408
Y175408
X447835Y374638
X477835
T11
X428342Y37402
X526768
X558264
X656689
T12
X19685Y101969
X814961Y19685
X19685Y207480
Y314961
X324410Y344094
X814961Y393701
T13
X79626Y46654
Y153609
Y260564
Y367520
X273622Y324803
X374016Y324803
X620079
M30
